<svg xmlns="http://www.w3.org/2000/svg" width="177.93" height="32.535" viewBox="0 0 177.93 32.535">
  <path id="Path_352847" data-name="Path 352847" d="M14.265.4a24.712,24.712,0,0,1-6.93-.967A16.414,16.414,0,0,1,1.8-3.24L4.05-8.235A17.617,17.617,0,0,0,14.355-5.04a8.88,8.88,0,0,0,4.568-.967,2.991,2.991,0,0,0,1.6-2.678,2.644,2.644,0,0,0-1.462-2.385,19.546,19.546,0,0,0-5.2-1.665,28.793,28.793,0,0,1-6.682-2.07A8.729,8.729,0,0,1,3.533-17.8a7.927,7.927,0,0,1-1.148-4.387,8.642,8.642,0,0,1,1.6-5.13A10.647,10.647,0,0,1,8.46-30.848a16.233,16.233,0,0,1,6.66-1.282,21.417,21.417,0,0,1,6.5.99A13.328,13.328,0,0,1,26.6-28.485l-2.25,5a15.305,15.305,0,0,0-9.18-3.195,7.668,7.668,0,0,0-4.32,1.057,3.318,3.318,0,0,0-1.575,2.9,2.608,2.608,0,0,0,.608,1.778A5.046,5.046,0,0,0,11.9-19.71a30.939,30.939,0,0,0,4.028,1.125q6.12,1.35,8.8,3.465a7.041,7.041,0,0,1,2.678,5.85A8.366,8.366,0,0,1,23.94-2.183Q20.475.405,14.265.4ZM40.9,0V-26.01H30.96v-5.715H57.87v5.715H47.925V0Zm35.91.4q-6.66,0-10.148-3.443T63.18-13.1v-18.63h6.885V-12.78A8.5,8.5,0,0,0,71.8-7.02a6.31,6.31,0,0,0,5.018,1.98,6.343,6.343,0,0,0,5.04-2A8.441,8.441,0,0,0,83.61-12.78V-31.725h6.885V-13.1q0,6.57-3.51,10.035T76.815.4Zm21.6-32.13h12.33a19.524,19.524,0,0,1,8.91,1.89,13.2,13.2,0,0,1,5.715,5.445,17.221,17.221,0,0,1,1.98,8.505,17.513,17.513,0,0,1-1.957,8.527A13.028,13.028,0,0,1,119.7-1.89,19.632,19.632,0,0,1,110.745,0H98.415ZM110.25-5.67q10.125,0,10.125-10.215,0-10.17-10.125-10.17h-4.815V-5.67ZM134.55,0V-31.725h7.02V0Zm29.7.4a16.211,16.211,0,0,1-8.212-2,13.535,13.535,0,0,1-5.378-5.67,18.573,18.573,0,0,1-1.89-8.617,18.573,18.573,0,0,1,1.89-8.618,13.392,13.392,0,0,1,5.378-5.648,16.357,16.357,0,0,1,8.212-1.98,16.357,16.357,0,0,1,8.213,1.98A13.392,13.392,0,0,1,177.84-24.5a18.573,18.573,0,0,1,1.89,8.618,18.573,18.573,0,0,1-1.89,8.617,13.535,13.535,0,0,1-5.377,5.67A16.211,16.211,0,0,1,164.25.4Zm0-5.445a7.6,7.6,0,0,0,6.233-2.79q2.272-2.79,2.272-8.055t-2.25-8.033a7.615,7.615,0,0,0-6.255-2.767,7.55,7.55,0,0,0-6.232,2.767q-2.228,2.767-2.227,8.033t2.25,8.055A7.54,7.54,0,0,0,164.25-5.04Z" transform="translate(-1.8 32.13)" fill="#fff"/>
</svg>
