<svg id="instagram" xmlns="http://www.w3.org/2000/svg" xmlns:xlink="http://www.w3.org/1999/xlink" width="28.67" height="28.67" viewBox="0 0 28.67 28.67">
  <defs>
    <linearGradient id="linear-gradient" x1="0.084" y1="0.916" x2="0.916" y2="0.084" gradientUnits="objectBoundingBox">
      <stop offset="0" stop-color="#ffd600"/>
      <stop offset="0.5" stop-color="#ff0100"/>
      <stop offset="1" stop-color="#d800b9"/>
    </linearGradient>
    <linearGradient id="linear-gradient-2" x1="0.146" y1="0.854" x2="0.854" y2="0.146" gradientUnits="objectBoundingBox">
      <stop offset="0" stop-color="#ff6400"/>
      <stop offset="0.5" stop-color="#ff0100"/>
      <stop offset="1" stop-color="#fd0056"/>
    </linearGradient>
    <linearGradient id="linear-gradient-3" x1="0.146" y1="0.854" x2="0.854" y2="0.146" gradientUnits="objectBoundingBox">
      <stop offset="0" stop-color="#f30072"/>
      <stop offset="1" stop-color="#e50097"/>
    </linearGradient>
  </defs>
  <path id="Path_653" data-name="Path 653" d="M28.584,8.425a10.524,10.524,0,0,0-.666-3.48,7.026,7.026,0,0,0-1.653-2.539A7.028,7.028,0,0,0,23.725.752a10.522,10.522,0,0,0-3.48-.666C18.717.017,18.228,0,14.335,0S9.954.017,8.425.086a10.525,10.525,0,0,0-3.48.666A7.026,7.026,0,0,0,2.406,2.406,7.027,7.027,0,0,0,.752,4.945a10.523,10.523,0,0,0-.666,3.48C.017,9.954,0,10.442,0,14.335s.017,4.382.087,5.911a10.522,10.522,0,0,0,.666,3.48,7.025,7.025,0,0,0,1.653,2.539,7.024,7.024,0,0,0,2.539,1.653,10.519,10.519,0,0,0,3.48.666c1.529.07,2.017.086,5.91.086s4.382-.016,5.91-.086a10.52,10.52,0,0,0,3.48-.666,7.329,7.329,0,0,0,4.192-4.192,10.521,10.521,0,0,0,.666-3.48c.07-1.529.086-2.017.086-5.91S28.654,9.954,28.584,8.425ZM26,20.128a7.931,7.931,0,0,1-.493,2.662,4.747,4.747,0,0,1-2.721,2.721A7.931,7.931,0,0,1,20.128,26c-1.511.069-1.965.084-5.793.084S10.054,26.073,8.542,26a7.934,7.934,0,0,1-2.662-.493,4.443,4.443,0,0,1-1.648-1.072A4.441,4.441,0,0,1,3.16,22.79a7.931,7.931,0,0,1-.493-2.662c-.069-1.511-.084-1.965-.084-5.793s.015-4.281.084-5.793A7.937,7.937,0,0,1,3.16,5.881,4.444,4.444,0,0,1,4.232,4.232,4.438,4.438,0,0,1,5.881,3.16a7.93,7.93,0,0,1,2.662-.494c1.511-.069,1.965-.084,5.793-.084h0c3.828,0,4.281.015,5.793.084a7.933,7.933,0,0,1,2.662.493,4.445,4.445,0,0,1,1.648,1.072A4.438,4.438,0,0,1,25.51,5.881,7.924,7.924,0,0,1,26,8.543c.069,1.511.084,1.965.084,5.793S26.073,18.616,26,20.128Zm0,0" fill="url(#linear-gradient)"/>
  <path id="Path_654" data-name="Path 654" d="M131.9,124.539a7.361,7.361,0,1,0,7.361,7.361A7.361,7.361,0,0,0,131.9,124.539Zm0,12.14a4.778,4.778,0,1,1,4.779-4.779A4.778,4.778,0,0,1,131.9,136.679Zm0,0" transform="translate(-117.565 -117.565)" fill="url(#linear-gradient-2)"/>
  <path id="Path_655" data-name="Path 655" d="M365.37,90.345a1.72,1.72,0,1,1-1.72-1.72A1.72,1.72,0,0,1,365.37,90.345Zm0,0" transform="translate(-341.663 -83.662)" fill="url(#linear-gradient-3)"/>
</svg>
