<svg xmlns="http://www.w3.org/2000/svg" width="160" height="72.534" viewBox="0 0 160 72.534">
  <g id="Group_128" data-name="Group 128" transform="translate(-569.172 -742.179)">
    <path id="Path_358" data-name="Path 358" d="M598.425,797.507a.817.817,0,0,1-.69.708,2.288,2.288,0,0,1-.4.059,42.162,42.162,0,0,0-9.243,2.194,2.418,2.418,0,0,0-1.4,1.191,28.866,28.866,0,0,1-6.06,7.4,18.292,18.292,0,0,1-1.978,1.474,2.372,2.372,0,0,1-2.454.374,48.9,48.9,0,0,0-5.134,13.027,1.6,1.6,0,0,0,.139.912,2.35,2.35,0,0,1-.947,2.506c-.482.265-.959.1-1.052-.417a2.378,2.378,0,0,1,.018-.894c.285-1.345.53-2.7.913-4.03,2.053-7.123,4.623-14.145,7.148-21.176.451-1.254.884-2.512,1.349-3.763a4.977,4.977,0,0,1,.607-1.235,2.245,2.245,0,0,1,.893-.69.643.643,0,0,1,.878.5.773.773,0,0,1-.49.934,1.659,1.659,0,0,0-1.091,1.2q-2.222,6.187-4.417,12.379a2.91,2.91,0,0,0-.051.487c.3-.5.493-.83.682-1.162a85.611,85.611,0,0,1,6.605-10.072c.945-1.22,1.993-2.372,3.05-3.5a6.012,6.012,0,0,1,1.535-1.152c1.117-.6,1.983-.148,1.944,1.047a12.691,12.691,0,0,1-.45,2.409,13.925,13.925,0,0,1-.5,1.4c.712-.253,1.316-.5,1.93-.678q3.566-1.019,7.138-1.994a3.125,3.125,0,0,1,.893-.091C598.194,796.861,598.47,797.055,598.425,797.507Zm-13.241,4.477a.81.81,0,0,0-.229-.023,1.221,1.221,0,0,0-.286.122,21.784,21.784,0,0,0-5.859,4.656,18.329,18.329,0,0,0-1.607,2.4,3.743,3.743,0,0,0-.271.86,2.666,2.666,0,0,0,1.861-.82,31.416,31.416,0,0,0,6.23-6.839A2.064,2.064,0,0,0,585.184,801.983Zm2.53-4.994a1.736,1.736,0,0,0-.054-1.536,5.551,5.551,0,0,0-.982.516,10.913,10.913,0,0,0-1.245,1.186,53.686,53.686,0,0,0-4.889,6.543,3.016,3.016,0,0,0-.17.534,34.539,34.539,0,0,1,5.508-3.643,1.605,1.605,0,0,0,.63-.687C586.947,798.943,587.354,797.971,587.714,796.99Z" transform="translate(0 -12.762)" fill="#e083a8"/>
    <path id="Path_359" data-name="Path 359" d="M622.613,795.327a2,2,0,0,1-.736.391c-2.117.547-4.233,1.133-6.356,1.588a7.8,7.8,0,0,1-5.31-.578,1.655,1.655,0,0,0-.352-.1c-.315,1.347-.584,2.651-.937,3.947a17.03,17.03,0,0,1-2.06,4.848,13.427,13.427,0,0,1-1.467,1.85,1.429,1.429,0,0,1-1.561.545,1.179,1.179,0,0,1-.671-1.252,5.448,5.448,0,0,1,.1-1.106,32.675,32.675,0,0,1,3.279-9.051,13.753,13.753,0,0,1,1.117-1.7,3.017,3.017,0,0,1,.869-.783c.732-.419,1.526-.041,1.427.752a1.113,1.113,0,0,0,.734,1.261,5.255,5.255,0,0,0,3.759.529c1.852-.429,3.7-1,5.536-1.566a15.1,15.1,0,0,0,1.907-.848c.476-.222.856-.179,1.017.169A.885.885,0,0,1,622.613,795.327Zm-14.31.661c-1.76,1.953-4.2,8.7-3.652,10.1C606.387,804.106,608.584,798.027,608.3,795.988Z" transform="translate(-8.293 -12.583)" fill="#e083a8"/>
    <path id="Path_360" data-name="Path 360" d="M644.3,790.489c-1.1.984-8.152,7.532-12.464,9.106-.389.141-.792.219-1.421.389a10.563,10.563,0,0,1-1.713-.163,2.457,2.457,0,0,1-1.985-2.134,11.14,11.14,0,0,1,1.045-5.79,1.22,1.22,0,0,1,1.421-.652c.377.243.435.72.034,1.228a7.882,7.882,0,0,0-1.412,3.587,4.046,4.046,0,0,0-.068.606,1.947,1.947,0,0,0,2.345,2.276,7.6,7.6,0,0,0,2.072-.569c3.855-1.629,7.664-5.159,10.9-8.307a6.045,6.045,0,0,1,.778-.567c.335-.184.517-.335.725-.03S644.56,790.19,644.3,790.489Zm-13.756-3.968a1.1,1.1,0,0,1-.06-1.3c.229-.521.451-1.052,1.046-1.218a.646.646,0,0,1,.786.817,7.8,7.8,0,0,1-.383,1.291A.859.859,0,0,1,630.547,786.521Z" transform="translate(-14.021 -10.2)" fill="#e083a8"/>
    <path id="Path_361" data-name="Path 361" d="M654.4,789.234c-2.188,1.24-9.131,10.983-10.938,10.848-.445-.184-.484-.627-.411-1.079.081-.5,2.457-4.15,4.464-8.352a13.528,13.528,0,0,1,1.271-2.1,2.469,2.469,0,0,1,1.006-.733.667.667,0,0,1,.951.513.854.854,0,0,1-.6.983c-.825.176-1.145.8-1.449,1.429-.721,1.5-3.6,6.868-3.359,6.566a111.013,111.013,0,0,1,8.41-8.8c.929-.651,1.583-.375,1.64.668.049.889-.017,1.8.011,2.7a18.316,18.316,0,0,0,.2,2.651c.2,1.092.77,1.27,1.8.585a107.029,107.029,0,0,0,10.855-7.844,6.654,6.654,0,0,1,.925-.731c.414-.266.5.29-.2,1.152-.132.166-9.417,7-10.356,7.642-2.218,1.521-3.779,1.307-3.928-.926-.072-1.083-.02-2.192-.046-3.286A3.64,3.64,0,0,0,654.4,789.234Z" transform="translate(-18.018 -10.804)" fill="#e083a8"/>
    <path id="Path_362" data-name="Path 362" d="M720.926,753.4c.018.417-.337.779-.908.836-.73.073-1.457.077-2.186.126-4.114.281-8.223.42-12.347.892-3.721.426-7.464,1.124-11.188,1.876-3.758.758-7.507,1.737-11.26,2.606a1.485,1.485,0,0,0-1.221,1c-3.057,7.878-6.033,15.771-7.879,23.874-.374,1.644-.625,3.3-.841,4.951a7.448,7.448,0,0,0,.09,2.169c.173,1.049.69,1.245,1.706.657a10.24,10.24,0,0,0,1.73-1.262c1.171-1.065,2.354-2.132,3.433-3.289q4.171-4.469,8.247-9.028c.765-.854,1.406-1.819,2.1-2.734.087-.113.153-.29.258-.336.265-.118.393-.285.624-.237.363.074.438.374.306.735a16.538,16.538,0,0,1-1.4,1.781c-3.727,4.124-7.13,8-11.145,11.839-.806.77-1.649,1.506-2.505,2.217a9.2,9.2,0,0,1-1.5,1.02c-1.365.736-2.286.4-2.648-.952a9.737,9.737,0,0,1-.094-3.661,69.15,69.15,0,0,1,2.4-10.786c1.535-5.389,3.481-10.7,5.407-16.007.128-.355.239-.713.411-1.229-.8.183-1.449.326-2.1.485-2.921.713-5.84,1.44-8.761,2.137a8.431,8.431,0,0,1-1.7.215c-.765.023-1.178-.321-1.226-.907a2.48,2.48,0,0,1,.962-1.908.684.684,0,0,1,.9.05.646.646,0,0,1,.021.91,6.013,6.013,0,0,1-.758.687,2.016,2.016,0,0,0,1.7.321,17.191,17.191,0,0,0,2.2-.333c2.955-.644,5.91-1.314,8.875-1.976.391-.925.724-1.774,1.111-2.6a4.5,4.5,0,0,1,.741-1.164.975.975,0,0,1,1.494-.1c.319.421.189.928-.445,1.371-.694.484-.841,1.185-1.235,2,1.365-.319,2.574-.606,3.785-.882q4.035-.925,8.072-1.838c5.593-1.263,11.191-2.029,16.788-2.8,2.366-.326,4.729-.567,7.094-.855.664-.08,1.33-.184,2-.29C720.619,752.875,720.906,753.005,720.926,753.4Z" transform="translate(-23.801 -2.625)" fill="#e083a8"/>
    <path id="Path_363" data-name="Path 363" d="M738.167,751.1c.553-.014,1.108-.037,1.659-.045a2.915,2.915,0,0,1,3.012,2.1,8.379,8.379,0,0,1,.321,4.2,27.423,27.423,0,0,1-.888,4.027,41.04,41.04,0,0,1-8.307,14.8,29.518,29.518,0,0,1-2.948,2.844,8.722,8.722,0,0,1-1.979,1.24c-1.864.875-3.259.237-3.57-1.648a10.926,10.926,0,0,1-.1-2.468,27.817,27.817,0,0,1,1.563-6.938,62.706,62.706,0,0,1,6.583-14.007c.1-.148.185-.3.4-.652a7.252,7.252,0,0,0-.739.461,10.937,10.937,0,0,0-3.411,5.1,8.47,8.47,0,0,1-.442,1.18.8.8,0,0,1-.844.5.619.619,0,0,1-.531-.769,3.509,3.509,0,0,1,.172-.7,13.21,13.21,0,0,1,6.727-7.961,6.875,6.875,0,0,0,1.983-1.573,24.723,24.723,0,0,1,2.38-2.347,8.525,8.525,0,0,1,1.811-1.092,1.138,1.138,0,0,1,1.3.1.779.779,0,0,1,.191.978.848.848,0,0,1-.807.581,1.983,1.983,0,0,0-1.539.243c-.7.538-1.393,1.086-2.089,1.63C738.1,750.945,738.135,751.021,738.167,751.1Zm4.047,4.99c-.181-.844-.313-1.711-.559-2.527a1.607,1.607,0,0,0-1.325-1.188,7.467,7.467,0,0,0-3.559.473c-.859.282-1.216,1.078-1.7,1.723-.519.689-.992,1.412-1.446,2.143a55.155,55.155,0,0,0-6.364,14.508,32.811,32.811,0,0,0-.893,4.74,7.6,7.6,0,0,0,.178,2.543c.228,1.044.969,1.322,2.028.839a7.3,7.3,0,0,0,1.721-1.043,26.87,26.87,0,0,0,2.729-2.607,40.359,40.359,0,0,0,8.347-15.122A20.544,20.544,0,0,0,742.214,756.085Z" transform="translate(-38.1 -1.221)" fill="#e083a8"/>
    <path id="Path_364" data-name="Path 364" d="M772.625,743.3a10.963,10.963,0,0,0-1.691.055,11.567,11.567,0,0,0-5.316,2.654,5.825,5.825,0,0,0-.463.453c-.922,1-.886,1.356.172,1.859a2.343,2.343,0,0,1,.565.314.763.763,0,0,1,.1,1.075.918.918,0,0,1-.982.429c-1.728-.3-2.318-2.38-1.051-3.887a11.84,11.84,0,0,1,5.08-3.42,10.963,10.963,0,0,1,2.773-.637c1.536-.142,2.127.8,1.43,2.281a18.491,18.491,0,0,1-1.66,2.747c-1,1.406-2.1,2.746-3.109,4.145-1.322,1.831-1.2,2.248.642,2.879a23.494,23.494,0,0,1,2.727,1.026c3.085,1.508,3.646,3.771,1.746,7.2a24.512,24.512,0,0,1-2.22,3.3,36.869,36.869,0,0,1-10.094,8.8,10.464,10.464,0,0,1-3.455,1.46,4.1,4.1,0,0,1-1.09.085,1.077,1.077,0,0,1-.93-1.548,5.282,5.282,0,0,1,.891-1.425.712.712,0,0,1,.688-.1c.132.1.141.463.066.685-.083.25-.344.457-.487.7-.319.55-.182.881.421.824a6.718,6.718,0,0,0,1.879-.413,29.254,29.254,0,0,0,9.448-6.508,21.993,21.993,0,0,0,3.872-4.9,18.741,18.741,0,0,0,1.339-3.091,2.689,2.689,0,0,0-.594-2.907,9.554,9.554,0,0,0-2.055-1.542,19.585,19.585,0,0,0-2.359-.924,8.776,8.776,0,0,1-1.371-.6,1.42,1.42,0,0,1-.537-1.956,7.5,7.5,0,0,1,.757-1.406c.747-1.1,1.544-2.167,2.3-3.261.652-.946,1.3-1.9,1.9-2.873A13.213,13.213,0,0,0,772.625,743.3Z" transform="translate(-45.507)" fill="#e083a8"/>
  </g>
</svg>
