<svg xmlns="http://www.w3.org/2000/svg" width="160" height="72.192" viewBox="0 0 160 72.192">
  <g id="Group_122" data-name="Group 122" transform="translate(-577.89 -1042.197)">
    <path id="Path_351" data-name="Path 351" d="M607.445,1096.13a.826.826,0,0,1-.7.715,2.4,2.4,0,0,1-.4.06,42.536,42.536,0,0,0-9.339,2.217,2.443,2.443,0,0,0-1.418,1.2,29.175,29.175,0,0,1-6.122,7.476,18.475,18.475,0,0,1-2,1.49,2.4,2.4,0,0,1-2.479.377,49.34,49.34,0,0,0-5.187,13.161,1.615,1.615,0,0,0,.14.921,2.374,2.374,0,0,1-.956,2.533c-.487.267-.969.1-1.062-.422a2.387,2.387,0,0,1,.018-.9c.288-1.359.535-2.726.923-4.072,2.074-7.2,4.672-14.291,7.223-21.393.455-1.268.893-2.539,1.363-3.8a5.046,5.046,0,0,1,.613-1.249,2.279,2.279,0,0,1,.9-.7.651.651,0,0,1,.888.5.781.781,0,0,1-.5.944,1.677,1.677,0,0,0-1.1,1.212q-2.245,6.251-4.462,12.507a2.982,2.982,0,0,0-.05.491c.3-.508.5-.838.688-1.173a86.435,86.435,0,0,1,6.674-10.176c.955-1.233,2.014-2.4,3.082-3.538a6.04,6.04,0,0,1,1.55-1.164c1.127-.6,2-.15,1.965,1.057a12.9,12.9,0,0,1-.454,2.434,13.848,13.848,0,0,1-.5,1.419c.719-.255,1.329-.507,1.95-.684q3.6-1.03,7.211-2.015a3.134,3.134,0,0,1,.9-.092C607.21,1095.477,607.49,1095.673,607.445,1096.13Zm-13.378,4.523a.786.786,0,0,0-.231-.024,1.228,1.228,0,0,0-.289.124,22.017,22.017,0,0,0-5.919,4.7,18.574,18.574,0,0,0-1.622,2.43,3.726,3.726,0,0,0-.275.868,2.693,2.693,0,0,0,1.881-.829,31.724,31.724,0,0,0,6.295-6.91A1.985,1.985,0,0,0,594.067,1100.652Zm2.556-5.045a1.761,1.761,0,0,0-.054-1.553,5.62,5.62,0,0,0-.993.522,11.177,11.177,0,0,0-1.258,1.2,54.413,54.413,0,0,0-4.94,6.611,3.017,3.017,0,0,0-.171.54,34.812,34.812,0,0,1,5.565-3.681,1.616,1.616,0,0,0,.636-.694C595.848,1097.581,596.259,1096.6,596.623,1095.607Z" transform="translate(0 -12.017)" fill="#e083a8"/>
    <path id="Path_352" data-name="Path 352" d="M631.531,1093.935a2.006,2.006,0,0,1-.742.394c-2.139.554-4.277,1.144-6.422,1.6a7.878,7.878,0,0,1-5.364-.584,1.751,1.751,0,0,0-.355-.1c-.319,1.362-.591,2.68-.946,3.989a17.193,17.193,0,0,1-2.082,4.9,13.5,13.5,0,0,1-1.481,1.869,1.443,1.443,0,0,1-1.577.551,1.19,1.19,0,0,1-.678-1.265,5.5,5.5,0,0,1,.1-1.118,33.037,33.037,0,0,1,3.312-9.145,14.045,14.045,0,0,1,1.13-1.722,3.051,3.051,0,0,1,.877-.79c.74-.423,1.543-.041,1.442.758a1.124,1.124,0,0,0,.742,1.274,5.3,5.3,0,0,0,3.8.536c1.871-.434,3.734-1.011,5.594-1.583a15.329,15.329,0,0,0,1.927-.856c.48-.225.865-.181,1.027.171A.894.894,0,0,1,631.531,1093.935Zm-14.457.668c-1.778,1.973-4.242,8.79-3.689,10.2C615.138,1102.805,617.358,1096.663,617.074,1094.6Z" transform="translate(-8.028 -11.844)" fill="#e083a8"/>
    <path id="Path_353" data-name="Path 353" d="M653.2,1089.148c-1.114.994-8.236,7.61-12.593,9.2-.393.142-.8.222-1.435.393a10.677,10.677,0,0,1-1.731-.166,2.48,2.48,0,0,1-2.005-2.155,11.247,11.247,0,0,1,1.056-5.849,1.035,1.035,0,0,1,.11-.186,1.022,1.022,0,0,1,1.325-.472c.381.245.44.727.034,1.241a7.963,7.963,0,0,0-1.428,3.624,4.066,4.066,0,0,0-.068.612,1.967,1.967,0,0,0,2.37,2.3,7.645,7.645,0,0,0,2.093-.575c3.9-1.645,7.744-5.212,11.008-8.392a5.888,5.888,0,0,1,.787-.573c.338-.186.522-.338.733-.031S653.463,1088.846,653.2,1089.148Zm-13.9-4.009a1.115,1.115,0,0,1-.06-1.314c.232-.526.456-1.063,1.058-1.23a.652.652,0,0,1,.794.825,7.805,7.805,0,0,1-.388,1.3A.868.868,0,0,1,639.3,1085.139Z" transform="translate(-13.572 -9.537)" fill="#e083a8"/>
    <path id="Path_354" data-name="Path 354" d="M663.237,1087.854c-2.211,1.252-9.225,11.1-11.051,10.959-.45-.185-.489-.632-.416-1.089.083-.509,2.482-4.193,4.51-8.438a13.64,13.64,0,0,1,1.284-2.124,2.5,2.5,0,0,1,1.016-.741.675.675,0,0,1,.962.519.864.864,0,0,1-.609.993c-.834.178-1.157.807-1.464,1.444-.729,1.518-3.633,6.939-3.394,6.634a112.007,112.007,0,0,1,8.5-8.889c.938-.659,1.6-.379,1.657.675.05.9-.018,1.82.011,2.724a18.728,18.728,0,0,0,.2,2.678c.2,1.1.778,1.283,1.819.591a108.315,108.315,0,0,0,10.967-7.925,6.667,6.667,0,0,1,.935-.739c.418-.269.506.292-.2,1.164-.132.168-9.514,7.071-10.462,7.72-2.241,1.538-3.818,1.322-3.968-.935-.073-1.094-.021-2.215-.047-3.319A3.669,3.669,0,0,0,663.237,1087.854Z" transform="translate(-17.441 -10.122)" fill="#e083a8"/>
    <path id="Path_355" data-name="Path 355" d="M730.2,1051.992c.018.422-.341.787-.917.845-.738.074-1.472.078-2.209.127-4.157.283-8.308.424-12.474.9-3.76.43-7.54,1.136-11.3,1.895-3.8.766-7.585,1.755-11.376,2.634a1.5,1.5,0,0,0-1.234,1.007c-3.088,7.959-6.095,15.933-7.961,24.12-.378,1.661-.632,3.336-.849,5a7.551,7.551,0,0,0,.09,2.191c.176,1.06.7,1.258,1.724.664a10.347,10.347,0,0,0,1.748-1.276c1.183-1.076,2.378-2.153,3.468-3.323q4.215-4.516,8.332-9.122c.774-.862,1.421-1.837,2.126-2.761.088-.115.154-.292.26-.339.268-.12.4-.288.63-.239.367.075.442.377.309.742a16.553,16.553,0,0,1-1.412,1.8c-3.764,4.167-7.2,8.083-11.26,11.962-.814.778-1.666,1.521-2.531,2.239a9.28,9.28,0,0,1-1.518,1.031c-1.379.743-2.309.4-2.676-.962a9.855,9.855,0,0,1-.095-3.7,70.039,70.039,0,0,1,2.421-10.9c1.552-5.445,3.517-10.807,5.464-16.173.129-.358.241-.721.415-1.242-.805.185-1.464.329-2.121.489-2.951.721-5.9,1.456-8.851,2.159a8.62,8.62,0,0,1-1.713.217c-.773.024-1.19-.324-1.238-.917a2.5,2.5,0,0,1,.972-1.928.691.691,0,0,1,.914.05.653.653,0,0,1,.021.919,6.075,6.075,0,0,1-.766.694,2.041,2.041,0,0,0,1.718.324,17.185,17.185,0,0,0,2.221-.338c2.986-.65,5.971-1.327,8.967-2,.394-.935.731-1.793,1.123-2.63a4.525,4.525,0,0,1,.749-1.176.985.985,0,0,1,1.509-.1c.322.425.191.938-.45,1.385-.7.489-.851,1.2-1.248,2.023,1.379-.322,2.6-.612,3.824-.891q4.075-.935,8.155-1.857c5.651-1.276,11.306-2.051,16.961-2.833,2.39-.33,4.777-.573,7.166-.864.671-.081,1.344-.185,2.017-.293C729.893,1051.466,730.182,1051.6,730.2,1051.992Z" transform="translate(-23.04 -2.204)" fill="#e083a8"/>
    <path id="Path_356" data-name="Path 356" d="M747.016,1049.727c.56-.014,1.12-.038,1.677-.045a2.944,2.944,0,0,1,3.043,2.123,8.468,8.468,0,0,1,.324,4.238,27.7,27.7,0,0,1-.9,4.069,41.467,41.467,0,0,1-8.393,14.952,29.834,29.834,0,0,1-2.979,2.874,8.767,8.767,0,0,1-2,1.252c-1.884.885-3.292.24-3.607-1.664a11,11,0,0,1-.1-2.493,28.088,28.088,0,0,1,1.579-7.01,63.358,63.358,0,0,1,6.651-14.151c.1-.15.185-.3.4-.659a7.356,7.356,0,0,0-.747.466,11.051,11.051,0,0,0-3.447,5.151,8.567,8.567,0,0,1-.447,1.192.81.81,0,0,1-.852.506.625.625,0,0,1-.537-.777,3.485,3.485,0,0,1,.174-.71,13.349,13.349,0,0,1,6.8-8.044,6.944,6.944,0,0,0,2-1.589,25.049,25.049,0,0,1,2.4-2.37,8.679,8.679,0,0,1,1.83-1.1,1.15,1.15,0,0,1,1.312.1.787.787,0,0,1,.193.988.856.856,0,0,1-.816.588,2,2,0,0,0-1.554.246c-.707.544-1.408,1.1-2.11,1.646Zm4.09,5.041c-.183-.853-.316-1.729-.565-2.553a1.624,1.624,0,0,0-1.338-1.2,7.544,7.544,0,0,0-3.6.478c-.868.285-1.23,1.089-1.719,1.741-.524.7-1,1.427-1.46,2.165a55.724,55.724,0,0,0-6.43,14.657,33.077,33.077,0,0,0-.9,4.79,7.674,7.674,0,0,0,.179,2.569c.231,1.055.98,1.335,2.049.848a7.353,7.353,0,0,0,1.738-1.053,27,27,0,0,0,2.758-2.635,40.766,40.766,0,0,0,8.433-15.277A20.819,20.819,0,0,0,751.106,1054.768Z" transform="translate(-36.882 -0.845)" fill="#e083a8"/>
    <path id="Path_357" data-name="Path 357" d="M773.078,1049.607c.147.065.318.127.475.209a.589.589,0,0,1,.32.814,1.551,1.551,0,0,1-.719.709,1.384,1.384,0,0,1-1.558-.245,1.239,1.239,0,0,1,.027-1.517,14.34,14.34,0,0,1,1.183-1.815,20.7,20.7,0,0,1,5.25-4.7,7.313,7.313,0,0,1,1.43-.708,1.6,1.6,0,0,1,2.328,1.159,6.754,6.754,0,0,1-.123,3.021,26.71,26.71,0,0,1-1.846,5.517,60.3,60.3,0,0,1-7.933,12.9c-.2.258-.4.515-.6.775-.015.021,0,.065.006.173.292-.115.573-.222.851-.338a17.332,17.332,0,0,1,6.9-1.58,2.546,2.546,0,0,1,1.135.192,1.7,1.7,0,0,1,.687.822.762.762,0,0,1-.393.9c-.374.239-.713.14-.842-.179-.2-.508-.643-.562-1.1-.576a17.147,17.147,0,0,0-8.437,2.163,4.66,4.66,0,0,0-.892.783c-.927.871-1.828,1.774-2.782,2.612a4.452,4.452,0,0,1-1.29.735.681.681,0,0,1-.675-.145.856.856,0,0,1,.086-.74,3.885,3.885,0,0,1,.875-.959c.921-.7,1.879-1.343,2.816-2.02a5.937,5.937,0,0,0,1.092-.87,59.146,59.146,0,0,0,10.414-17.137,14.5,14.5,0,0,0,1.073-4.358,5.811,5.811,0,0,0-.077-1.292c-.078-.451-.41-.622-.882-.49a3.254,3.254,0,0,0-.778.316,18.377,18.377,0,0,0-5.806,5.332,1.775,1.775,0,0,0-.163.281A1.3,1.3,0,0,0,773.078,1049.607Z" transform="translate(-44.052 0)" fill="#e083a8"/>
  </g>
</svg>
