<svg xmlns="http://www.w3.org/2000/svg" width="160" height="73.465" viewBox="0 0 160 73.465">
  <g id="Group_129" data-name="Group 129" transform="translate(-867.764 -636.482)">
    <path id="Path_365" data-name="Path 365" d="M897.062,692.9a.819.819,0,0,1-.691.709,2.387,2.387,0,0,1-.4.059,42.173,42.173,0,0,0-9.257,2.2,2.425,2.425,0,0,0-1.405,1.192,28.9,28.9,0,0,1-6.069,7.412,18.417,18.417,0,0,1-1.98,1.477,2.376,2.376,0,0,1-2.458.374,48.916,48.916,0,0,0-5.142,13.047,1.6,1.6,0,0,0,.139.913,2.353,2.353,0,0,1-.948,2.511c-.482.265-.959.1-1.053-.418a2.353,2.353,0,0,1,.018-.9c.286-1.347.53-2.7.914-4.037,2.056-7.134,4.63-14.167,7.159-21.208.452-1.257.886-2.517,1.352-3.769a5,5,0,0,1,.607-1.238,2.253,2.253,0,0,1,.894-.69.645.645,0,0,1,.88.5.775.775,0,0,1-.491.936,1.662,1.662,0,0,0-1.093,1.2q-2.225,6.2-4.424,12.4a2.949,2.949,0,0,0-.05.487c.3-.5.493-.831.682-1.163a85.765,85.765,0,0,1,6.616-10.087c.946-1.222,2-2.376,3.055-3.507a5.978,5.978,0,0,1,1.537-1.154c1.118-.6,1.986-.149,1.948,1.048a12.732,12.732,0,0,1-.451,2.413,13.725,13.725,0,0,1-.5,1.406c.714-.253,1.318-.5,1.934-.678q3.571-1.022,7.148-2a3.107,3.107,0,0,1,.895-.092C896.83,692.249,897.107,692.442,897.062,692.9ZM883.8,697.379a.778.778,0,0,0-.229-.023,1.2,1.2,0,0,0-.287.123,21.817,21.817,0,0,0-5.868,4.664,18.417,18.417,0,0,0-1.608,2.409,3.626,3.626,0,0,0-.273.861,2.67,2.67,0,0,0,1.864-.822,31.444,31.444,0,0,0,6.24-6.85A2.011,2.011,0,0,0,883.8,697.379Zm2.534-5a1.74,1.74,0,0,0-.054-1.539,5.571,5.571,0,0,0-.984.518,11.056,11.056,0,0,0-1.247,1.187,53.772,53.772,0,0,0-4.9,6.554,2.9,2.9,0,0,0-.17.535,34.525,34.525,0,0,1,5.516-3.649,1.6,1.6,0,0,0,.63-.687C885.567,694.334,885.974,693.36,886.334,692.377Z" transform="translate(0 -12.964)" fill="#e083a8"/>
    <path id="Path_366" data-name="Path 366" d="M921.234,690.713a1.98,1.98,0,0,1-.736.391c-2.12.549-4.24,1.134-6.365,1.591a7.813,7.813,0,0,1-5.319-.579,1.725,1.725,0,0,0-.352-.1c-.316,1.35-.585,2.656-.938,3.954a17.043,17.043,0,0,1-2.064,4.855,13.266,13.266,0,0,1-1.468,1.852,1.431,1.431,0,0,1-1.563.547,1.18,1.18,0,0,1-.672-1.254,5.448,5.448,0,0,1,.1-1.108,32.7,32.7,0,0,1,3.283-9.065,13.835,13.835,0,0,1,1.119-1.707,3.025,3.025,0,0,1,.869-.783c.734-.419,1.53-.041,1.43.752a1.113,1.113,0,0,0,.735,1.263,5.257,5.257,0,0,0,3.764.531c1.855-.43,3.7-1,5.545-1.569a15.2,15.2,0,0,0,1.911-.849c.476-.223.856-.18,1.018.17A.885.885,0,0,1,921.234,690.713Zm-14.332.663c-1.763,1.956-4.205,8.714-3.657,10.115C904.985,699.506,907.185,693.418,906.9,691.376Z" transform="translate(-8.253 -12.785)" fill="#e083a8"/>
    <path id="Path_367" data-name="Path 367" d="M942.922,685.883c-1.1.985-8.164,7.544-12.484,9.12-.388.141-.792.22-1.423.39a10.57,10.57,0,0,1-1.715-.164,2.459,2.459,0,0,1-1.988-2.136,11.157,11.157,0,0,1,1.046-5.8,1.117,1.117,0,0,1,.109-.185,1.013,1.013,0,0,1,1.314-.468c.379.243.436.721.034,1.23a7.885,7.885,0,0,0-1.414,3.592,3.856,3.856,0,0,0-.067.607,1.949,1.949,0,0,0,2.348,2.278,7.577,7.577,0,0,0,2.075-.57c3.862-1.631,7.676-5.166,10.912-8.319a5.915,5.915,0,0,1,.78-.568c.336-.184.518-.335.726-.03S943.181,685.584,942.922,685.883Zm-13.778-3.975a1.106,1.106,0,0,1-.059-1.3c.229-.522.451-1.054,1.048-1.22a.647.647,0,0,1,.787.818,7.673,7.673,0,0,1-.385,1.293A.86.86,0,0,1,929.144,681.909Z" transform="translate(-13.953 -10.414)" fill="#e083a8"/>
    <path id="Path_368" data-name="Path 368" d="M953.012,684.622c-2.192,1.241-9.144,11-10.954,10.864-.447-.183-.485-.627-.413-1.08.082-.5,2.461-4.157,4.471-8.365a13.517,13.517,0,0,1,1.272-2.106,2.472,2.472,0,0,1,1.008-.734.668.668,0,0,1,.953.514.856.856,0,0,1-.6.984c-.827.176-1.147.8-1.451,1.431-.723,1.5-3.6,6.878-3.364,6.576a110.919,110.919,0,0,1,8.422-8.812c.93-.653,1.586-.376,1.643.669.048.89-.019,1.8.011,2.7a18.459,18.459,0,0,0,.195,2.655c.2,1.093.772,1.272,1.8.586a107.322,107.322,0,0,0,10.872-7.856,6.643,6.643,0,0,1,.927-.732c.415-.267.5.289-.2,1.154-.131.167-9.432,7.009-10.371,7.653-2.222,1.524-3.786,1.31-3.934-.927-.072-1.084-.02-2.2-.047-3.291A3.638,3.638,0,0,0,953.012,684.622Z" transform="translate(-17.931 -11.015)" fill="#e083a8"/>
    <path id="Path_369" data-name="Path 369" d="M1019.6,648.78c.018.418-.338.781-.909.837-.732.073-1.46.077-2.191.126-4.121.281-8.236.42-12.365.893-3.728.426-7.476,1.126-11.207,1.879-3.763.759-7.519,1.74-11.277,2.611a1.488,1.488,0,0,0-1.224,1c-3.061,7.89-6.041,15.794-7.891,23.911-.376,1.646-.626,3.307-.842,4.959a7.512,7.512,0,0,0,.089,2.172c.174,1.051.691,1.247,1.709.658a10.258,10.258,0,0,0,1.732-1.265c1.174-1.066,2.357-2.135,3.438-3.294q4.179-4.477,8.26-9.042c.767-.855,1.409-1.821,2.107-2.737.087-.114.152-.29.257-.336.266-.119.394-.285.625-.237.363.074.438.374.306.736a16.484,16.484,0,0,1-1.4,1.783c-3.732,4.13-7.141,8.013-11.163,11.859-.807.772-1.651,1.508-2.509,2.22a9.221,9.221,0,0,1-1.5,1.021c-1.367.737-2.29.4-2.653-.953a9.767,9.767,0,0,1-.093-3.667,69.34,69.34,0,0,1,2.4-10.8c1.539-5.4,3.487-10.713,5.416-16.032.128-.355.24-.715.412-1.231-.8.183-1.451.326-2.1.485-2.924.715-5.848,1.443-8.774,2.141a8.543,8.543,0,0,1-1.7.215c-.766.023-1.18-.321-1.227-.909a2.485,2.485,0,0,1,.963-1.911.685.685,0,0,1,.906.05.648.648,0,0,1,.022.911,6.043,6.043,0,0,1-.76.688,2.023,2.023,0,0,0,1.7.321,17.064,17.064,0,0,0,2.2-.335c2.961-.644,5.92-1.315,8.889-1.979.391-.927.725-1.777,1.113-2.607a4.489,4.489,0,0,1,.742-1.166.976.976,0,0,1,1.5-.1c.319.421.19.93-.446,1.373-.7.485-.843,1.187-1.236,2.005,1.367-.32,2.577-.607,3.79-.884q4.04-.927,8.085-1.841c5.6-1.265,11.208-2.033,16.814-2.808,2.369-.327,4.736-.568,7.1-.856.666-.08,1.333-.184,2-.291C1019.294,648.259,1019.581,648.389,1019.6,648.78Z" transform="translate(-23.687 -2.875)" fill="#e083a8"/>
    <path id="Path_370" data-name="Path 370" d="M1036.779,646.485c.555-.014,1.109-.038,1.663-.045a2.918,2.918,0,0,1,3.016,2.1,8.4,8.4,0,0,1,.322,4.2,27.573,27.573,0,0,1-.89,4.034,41.108,41.108,0,0,1-8.32,14.822,29.569,29.569,0,0,1-2.953,2.849,8.711,8.711,0,0,1-1.98,1.241c-1.869.878-3.264.238-3.576-1.65a10.993,10.993,0,0,1-.1-2.472,27.812,27.812,0,0,1,1.566-6.95,62.811,62.811,0,0,1,6.593-14.028c.1-.148.185-.3.4-.653a7.12,7.12,0,0,0-.74.462,10.967,10.967,0,0,0-3.417,5.106,8.489,8.489,0,0,1-.443,1.182.8.8,0,0,1-.844.5.62.62,0,0,1-.532-.77,3.455,3.455,0,0,1,.173-.7,13.234,13.234,0,0,1,6.738-7.974,6.877,6.877,0,0,0,1.986-1.576,24.847,24.847,0,0,1,2.384-2.35,8.577,8.577,0,0,1,1.814-1.094,1.139,1.139,0,0,1,1.3.1.78.78,0,0,1,.192.979.85.85,0,0,1-.809.583,1.985,1.985,0,0,0-1.541.244c-.7.539-1.395,1.088-2.092,1.632C1036.714,646.335,1036.746,646.411,1036.779,646.485Zm4.054,5c-.182-.846-.314-1.714-.56-2.531a1.61,1.61,0,0,0-1.327-1.19,7.478,7.478,0,0,0-3.564.474c-.86.282-1.219,1.079-1.7,1.726-.519.69-.994,1.414-1.448,2.146a55.245,55.245,0,0,0-6.374,14.53,32.99,32.99,0,0,0-.894,4.748,7.611,7.611,0,0,0,.177,2.546c.229,1.046.972,1.324,2.032.84a7.315,7.315,0,0,0,1.723-1.044,26.671,26.671,0,0,0,2.733-2.612,40.413,40.413,0,0,0,8.36-15.145A20.67,20.67,0,0,0,1040.833,651.482Z" transform="translate(-37.918 -1.478)" fill="#e083a8"/>
    <path id="Path_371" data-name="Path 371" d="M1061.642,641.485c-1.152,1.97-2.314,3.865-3.377,5.8-.806,1.469-1.511,2.986-2.216,4.5a7.292,7.292,0,0,0-.538,1.691c-.158.828.073,1.176.88,1.095a14.407,14.407,0,0,0,2.979-.616c1.412-.457,2.8-1.076,4.2-1.587a1.971,1.971,0,0,0,1.214-1.218c1.7-3.932,3.434-7.853,5.176-11.77a20.2,20.2,0,0,1,1.138-2.178c.37-.613.826-.812,1.282-.684a1.029,1.029,0,0,1,.664,1.137c-.054.482-.281.961-.775,1.022-.613.076-.821.485-1.029.931-1.173,2.509-2.349,5.016-3.491,7.535-.584,1.29-1.1,2.6-1.683,3.988a3.883,3.883,0,0,0,2.028-.913c.756-.567,1.2-.625,1.455-.172.243.426.018,1.047-.677,1.466a15.315,15.315,0,0,1-2.186,1.03c-1.39.564-1.434.538-1.915,1.966-1.466,4.349-2.9,8.7-4.338,13.059-.173.527-.275,1.068-.415,1.622.423.261.94.441.747,1.084a2.541,2.541,0,0,1-1.37,1.573.824.824,0,0,1-1.243-.634,2.78,2.78,0,0,1,.053-1.1c.377-1.477.715-2.966,1.213-4.421,1.25-3.649,2.579-7.281,3.876-10.919l.365-1.032c-.668.231-1.211.435-1.76.606-1.351.42-2.7.862-4.058,1.218a6.544,6.544,0,0,1-1.89.192,1.585,1.585,0,0,1-1.639-1.99,7.48,7.48,0,0,1,.5-1.9c.39-.982.843-1.95,1.324-2.9a94.01,94.01,0,0,1,5.721-9.716,7.392,7.392,0,0,1,.85-1.115c.551-.557,1.257-.44,1.37.248a4.178,4.178,0,0,1-.613,2.868C1063.1,641.848,1062.64,641.9,1061.642,641.485Z" transform="translate(-45.289 0)" fill="#e083a8"/>
  </g>
</svg>
