<svg xmlns="http://www.w3.org/2000/svg" width="160" height="76.142" viewBox="0 0 160 76.142">
  <g id="Group_120" data-name="Group 120" transform="translate(-553.916 -923.033)">
    <path id="Path_344" data-name="Path 344" d="M584.609,978.554a.855.855,0,0,1-.723.742,2.591,2.591,0,0,1-.418.063,44.047,44.047,0,0,0-9.7,2.3,2.534,2.534,0,0,0-1.471,1.249,30.255,30.255,0,0,1-6.358,7.764,19.049,19.049,0,0,1-2.075,1.548,2.489,2.489,0,0,1-2.575.393,51.279,51.279,0,0,0-5.387,13.667,1.681,1.681,0,0,0,.145.957,2.464,2.464,0,0,1-.992,2.63c-.506.278-1.007.1-1.1-.438a2.5,2.5,0,0,1,.019-.938c.3-1.411.556-2.83.958-4.228,2.153-7.475,4.851-14.842,7.5-22.219.473-1.315.927-2.635,1.415-3.947a5.238,5.238,0,0,1,.636-1.3,2.36,2.36,0,0,1,.938-.724.675.675,0,0,1,.921.52.812.812,0,0,1-.514.98,1.738,1.738,0,0,0-1.145,1.259q-2.332,6.492-4.634,12.988a3.11,3.11,0,0,0-.053.511c.31-.527.517-.87.716-1.218a89.6,89.6,0,0,1,6.931-10.568c.991-1.282,2.091-2.49,3.2-3.675a6.291,6.291,0,0,1,1.61-1.21c1.171-.626,2.081-.156,2.04,1.1a13.409,13.409,0,0,1-.472,2.529,14.921,14.921,0,0,1-.523,1.473c.747-.265,1.38-.528,2.025-.711q3.741-1.071,7.489-2.094a3.23,3.23,0,0,1,.937-.1C584.367,977.877,584.656,978.08,584.609,978.554Zm-13.893,4.7a.769.769,0,0,0-.24-.025,1.23,1.23,0,0,0-.3.128,22.843,22.843,0,0,0-6.147,4.885,19.268,19.268,0,0,0-1.686,2.523,3.866,3.866,0,0,0-.285.9,2.787,2.787,0,0,0,1.953-.86,32.937,32.937,0,0,0,6.537-7.177A2.107,2.107,0,0,0,570.717,983.252Zm2.653-5.241a1.82,1.82,0,0,0-.056-1.611,5.854,5.854,0,0,0-1.031.542,11.38,11.38,0,0,0-1.306,1.244,56.274,56.274,0,0,0-5.13,6.865,3.042,3.042,0,0,0-.178.56,36.215,36.215,0,0,1,5.779-3.823,1.677,1.677,0,0,0,.661-.72C572.566,980.062,572.993,979.041,573.37,978.011Z" transform="translate(0 -10.824)" fill="#e083a8"/>
    <path id="Path_345" data-name="Path 345" d="M608.315,976.3a2.078,2.078,0,0,1-.772.409c-2.222.576-4.442,1.188-6.669,1.668a8.184,8.184,0,0,1-5.572-.607,1.854,1.854,0,0,0-.368-.1c-.331,1.414-.613,2.784-.984,4.143a17.863,17.863,0,0,1-2.162,5.086,14.008,14.008,0,0,1-1.538,1.941,1.5,1.5,0,0,1-1.638.573,1.238,1.238,0,0,1-.7-1.314,5.764,5.764,0,0,1,.107-1.16,34.291,34.291,0,0,1,3.44-9.5,14.648,14.648,0,0,1,1.172-1.787,3.155,3.155,0,0,1,.911-.821c.769-.44,1.6-.043,1.5.788a1.167,1.167,0,0,0,.77,1.324,5.5,5.5,0,0,0,3.943.554c1.944-.45,3.879-1.049,5.809-1.642a16.079,16.079,0,0,0,2-.89c.5-.233.9-.188,1.066.177A.929.929,0,0,1,608.315,976.3ZM593.3,977c-1.847,2.049-4.406,9.128-3.831,10.6C591.289,985.515,593.595,979.138,593.3,977Z" transform="translate(-7.027 -10.672)" fill="#e083a8"/>
    <path id="Path_346" data-name="Path 346" d="M629.916,971.708c-1.157,1.034-8.553,7.9-13.078,9.555-.408.149-.83.23-1.491.409a11.169,11.169,0,0,1-1.8-.171,2.58,2.58,0,0,1-2.083-2.239,11.7,11.7,0,0,1,1.1-6.075,1.084,1.084,0,0,1,.115-.194,1.061,1.061,0,0,1,1.376-.491c.4.255.457.756.035,1.288a8.261,8.261,0,0,0-1.481,3.763,4.206,4.206,0,0,0-.071.636,2.042,2.042,0,0,0,2.46,2.388,8.024,8.024,0,0,0,2.175-.6c4.045-1.709,8.041-5.412,11.431-8.716a6.236,6.236,0,0,1,.816-.595c.352-.193.543-.352.761-.033S630.187,971.4,629.916,971.708Zm-14.433-4.164a1.154,1.154,0,0,1-.063-1.364c.24-.547.472-1.1,1.1-1.278a.677.677,0,0,1,.826.857,8.188,8.188,0,0,1-.4,1.353A.9.9,0,0,1,615.483,967.544Z" transform="translate(-11.88 -8.652)" fill="#e083a8"/>
    <path id="Path_347" data-name="Path 347" d="M639.707,970.268c-2.3,1.3-9.58,11.525-11.476,11.383-.467-.193-.509-.657-.432-1.132.085-.528,2.578-4.354,4.683-8.764a14.18,14.18,0,0,1,1.333-2.205,2.584,2.584,0,0,1,1.056-.769.7.7,0,0,1,1,.538.9.9,0,0,1-.631,1.032c-.867.183-1.2.838-1.521,1.5-.758,1.576-3.774,7.205-3.525,6.889a116.772,116.772,0,0,1,8.824-9.233c.974-.683,1.66-.392,1.721.7.051.932-.019,1.891.012,2.829a19.124,19.124,0,0,0,.2,2.781c.208,1.146.807,1.332,1.889.614a112.37,112.37,0,0,0,11.389-8.229,6.849,6.849,0,0,1,.972-.768c.434-.279.525.3-.208,1.21-.138.174-9.881,7.342-10.865,8.018-2.328,1.6-3.966,1.372-4.123-.972-.074-1.135-.021-2.3-.048-3.448A3.84,3.84,0,0,0,639.707,970.268Z" transform="translate(-15.267 -9.165)" fill="#e083a8"/>
    <path id="Path_348" data-name="Path 348" d="M708.339,934.317c.021.439-.353.819-.952.879-.766.076-1.529.079-2.295.132-4.317.294-8.628.44-12.954.935-3.905.447-7.831,1.18-11.74,1.969-3.943.8-7.877,1.822-11.815,2.734a1.56,1.56,0,0,0-1.281,1.046c-3.206,8.267-6.33,16.547-8.268,25.05-.393,1.725-.655,3.465-.88,5.2a7.815,7.815,0,0,0,.093,2.276c.182,1.1.724,1.3,1.791.689a10.71,10.71,0,0,0,1.814-1.325c1.229-1.117,2.469-2.235,3.6-3.451q4.375-4.69,8.652-9.473c.8-.9,1.476-1.908,2.208-2.868.091-.12.159-.3.27-.354.279-.124.413-.3.655-.247.381.078.459.392.321.771a17.686,17.686,0,0,1-1.466,1.868c-3.911,4.327-7.482,8.393-11.694,12.422-.846.808-1.731,1.579-2.629,2.327a9.761,9.761,0,0,1-1.576,1.069c-1.434.773-2.4.417-2.779-1a10.228,10.228,0,0,1-.1-3.841,72.581,72.581,0,0,1,2.514-11.318c1.612-5.655,3.653-11.222,5.674-16.8.135-.371.251-.748.432-1.291-.837.193-1.52.343-2.2.509-3.064.748-6.126,1.51-9.192,2.242a8.9,8.9,0,0,1-1.779.225c-.8.025-1.237-.336-1.287-.952a2.6,2.6,0,0,1,1.009-2,.717.717,0,0,1,.949.052.679.679,0,0,1,.024.955,6.259,6.259,0,0,1-.8.721,2.117,2.117,0,0,0,1.784.336,18.01,18.01,0,0,0,2.306-.35c3.1-.676,6.2-1.379,9.312-2.074.41-.971.759-1.861,1.166-2.731a4.725,4.725,0,0,1,.777-1.222,1.023,1.023,0,0,1,1.568-.1c.335.443.2.976-.466,1.44-.728.507-.883,1.242-1.3,2.1,1.432-.335,2.7-.636,3.97-.926q4.235-.97,8.471-1.929c5.869-1.325,11.743-2.129,17.615-2.941,2.482-.343,4.961-.595,7.443-.9.7-.084,1.4-.192,2.094-.3C708.017,933.772,708.318,933.907,708.339,934.317Z" transform="translate(-20.168 -2.234)" fill="#e083a8"/>
    <path id="Path_349" data-name="Path 349" d="M723.543,932.188c.581-.017,1.162-.041,1.741-.048a3.059,3.059,0,0,1,3.161,2.206,8.809,8.809,0,0,1,.336,4.4,28.9,28.9,0,0,1-.931,4.227,43.058,43.058,0,0,1-8.717,15.528,30.82,30.82,0,0,1-3.093,2.984,9.165,9.165,0,0,1-2.074,1.3c-1.958.919-3.42.249-3.747-1.729a11.551,11.551,0,0,1-.1-2.588,29.168,29.168,0,0,1,1.641-7.281,65.824,65.824,0,0,1,6.908-14.7c.1-.156.193-.317.416-.685a7.556,7.556,0,0,0-.777.485,11.471,11.471,0,0,0-3.578,5.349,9,9,0,0,1-.465,1.237.839.839,0,0,1-.884.526.65.65,0,0,1-.558-.807,3.677,3.677,0,0,1,.181-.738,13.864,13.864,0,0,1,7.059-8.354,7.177,7.177,0,0,0,2.081-1.65,26.112,26.112,0,0,1,2.5-2.463,9.006,9.006,0,0,1,1.9-1.145,1.194,1.194,0,0,1,1.361.1.818.818,0,0,1,.2,1.026.888.888,0,0,1-.846.61,2.08,2.08,0,0,0-1.614.257c-.734.565-1.462,1.138-2.193,1.709C723.475,932.031,723.509,932.109,723.543,932.188Zm4.247,5.235c-.19-.886-.329-1.795-.586-2.65a1.688,1.688,0,0,0-1.39-1.247,7.836,7.836,0,0,0-3.733.5c-.9.3-1.276,1.131-1.786,1.809-.544.723-1.041,1.483-1.518,2.249A57.931,57.931,0,0,0,712.1,953.3a34.635,34.635,0,0,0-.937,4.974,7.971,7.971,0,0,0,.186,2.668c.24,1.1,1.018,1.386,2.128.88a7.613,7.613,0,0,0,1.806-1.094,28.051,28.051,0,0,0,2.862-2.735,42.328,42.328,0,0,0,8.758-15.867A21.6,21.6,0,0,0,727.789,937.422Z" transform="translate(-32.285 -1.044)" fill="#e083a8"/>
    <path id="Path_350" data-name="Path 350" d="M741.637,958.223c.114.11.131.148.158.152.417.059.854.133.766.7a1.17,1.17,0,0,1-.891.907c-.517.17-.96.05-1.092-.413a2.909,2.909,0,0,1-.093-1.323c.37-1.87.717-3.751,1.233-5.607a207.418,207.418,0,0,1,7.1-20.4c.865-2.2,1.7-4.408,2.525-6.618.175-.472.267-.964.411-1.493a11.684,11.684,0,0,0-4.709,4.412,5.125,5.125,0,0,1,.607.43.744.744,0,0,1,.1,1.036.9.9,0,0,1-1.032.409,1.568,1.568,0,0,1-.96-2.12,4.6,4.6,0,0,1,.7-1.144,17.907,17.907,0,0,1,4.252-3.7c.063-.04.125-.083.19-.117.435-.221.895-.452,1.3-.184.432.288.282.787.12,1.242-.309.866-.626,1.731-.973,2.586a181.442,181.442,0,0,0-8.332,24.371c-.491,1.971-.86,3.953-1.274,5.93A8.377,8.377,0,0,0,741.637,958.223Z" transform="translate(-38.561 0)" fill="#e083a8"/>
  </g>
</svg>
