<svg xmlns="http://www.w3.org/2000/svg" width="160" height="71.038" viewBox="0 0 160 71.038">
  <g id="Group_130" data-name="Group 130" transform="translate(-863.406 -839.864)">
    <path id="Path_372" data-name="Path 372" d="M891.938,895.51a.8.8,0,0,1-.672.689,2.346,2.346,0,0,1-.389.058,41,41,0,0,0-9.015,2.141,2.357,2.357,0,0,0-1.369,1.161,28.125,28.125,0,0,1-5.91,7.217,17.731,17.731,0,0,1-1.929,1.439,2.313,2.313,0,0,1-2.394.364,47.675,47.675,0,0,0-5.008,12.706,1.56,1.56,0,0,0,.136.89,2.292,2.292,0,0,1-.923,2.445c-.47.258-.935.094-1.026-.408a2.319,2.319,0,0,1,.018-.872c.278-1.312.516-2.632.891-3.93,2-6.949,4.509-13.8,6.972-20.655.439-1.223.862-2.45,1.316-3.67a4.828,4.828,0,0,1,.591-1.2,2.187,2.187,0,0,1,.871-.672.627.627,0,0,1,.856.483.754.754,0,0,1-.478.911,1.617,1.617,0,0,0-1.063,1.17q-2.168,6.035-4.309,12.074a2.948,2.948,0,0,0-.049.475c.288-.49.481-.809.665-1.132a83.468,83.468,0,0,1,6.443-9.825c.922-1.191,1.944-2.314,2.975-3.416a5.868,5.868,0,0,1,1.5-1.124c1.088-.582,1.934-.145,1.9,1.021a12.377,12.377,0,0,1-.439,2.35,13.614,13.614,0,0,1-.486,1.37c.695-.246,1.284-.49,1.883-.661q3.477-.994,6.961-1.945a3.03,3.03,0,0,1,.872-.089C891.712,894.881,891.982,895.069,891.938,895.51Zm-12.915,4.366a.765.765,0,0,0-.223-.023,1.172,1.172,0,0,0-.279.12,21.243,21.243,0,0,0-5.714,4.542,17.916,17.916,0,0,0-1.567,2.346,3.662,3.662,0,0,0-.265.838,2.591,2.591,0,0,0,1.815-.8,30.615,30.615,0,0,0,6.077-6.671A1.883,1.883,0,0,0,879.023,899.877Zm2.467-4.871a1.689,1.689,0,0,0-.053-1.5,5.449,5.449,0,0,0-.957.5,10.585,10.585,0,0,0-1.215,1.157,52.447,52.447,0,0,0-4.769,6.382,2.883,2.883,0,0,0-.165.521,33.629,33.629,0,0,1,5.372-3.554,1.56,1.56,0,0,0,.614-.67C880.743,896.911,881.139,895.962,881.49,895.005Z" transform="translate(0 -13.839)" fill="#e083a8"/>
    <path id="Path_373" data-name="Path 373" d="M916.367,893.366a1.933,1.933,0,0,1-.718.38c-2.065.535-4.129,1.1-6.2,1.549a7.611,7.611,0,0,1-5.179-.563,1.681,1.681,0,0,0-.342-.094c-.309,1.314-.571,2.587-.914,3.85a16.628,16.628,0,0,1-2.01,4.728,13.045,13.045,0,0,1-1.43,1.805,1.4,1.4,0,0,1-1.523.532,1.15,1.15,0,0,1-.656-1.221,5.369,5.369,0,0,1,.1-1.079,31.866,31.866,0,0,1,3.2-8.828,13.575,13.575,0,0,1,1.091-1.661,2.909,2.909,0,0,1,.846-.763c.715-.409,1.49-.04,1.393.732a1.084,1.084,0,0,0,.715,1.231,5.12,5.12,0,0,0,3.666.515c1.807-.419,3.606-.975,5.4-1.526a14.875,14.875,0,0,0,1.862-.828c.464-.216.835-.174.992.165A.865.865,0,0,1,916.367,893.366Zm-13.959.645c-1.716,1.9-4.095,8.486-3.562,9.851C900.541,901.929,902.684,896,902.408,894.011Z" transform="translate(-8.926 -13.646)" fill="#e083a8"/>
    <path id="Path_374" data-name="Path 374" d="M938.1,888.406c-1.075.961-7.951,7.347-12.157,8.882-.379.138-.772.214-1.386.38a10.368,10.368,0,0,1-1.67-.159,2.4,2.4,0,0,1-1.936-2.081,10.868,10.868,0,0,1,1.019-5.648,1.2,1.2,0,0,1,1.386-.636c.368.237.425.7.032,1.2a7.682,7.682,0,0,0-1.377,3.5,3.868,3.868,0,0,0-.066.591,1.9,1.9,0,0,0,2.287,2.22,7.468,7.468,0,0,0,2.021-.555c3.761-1.589,7.475-5.031,10.626-8.1a5.945,5.945,0,0,1,.759-.553c.328-.179.505-.327.707-.03S938.352,888.116,938.1,888.406Zm-13.417-3.871a1.075,1.075,0,0,1-.058-1.268c.223-.507.44-1.025,1.021-1.187a.63.63,0,0,1,.768.8,7.578,7.578,0,0,1-.375,1.258A.837.837,0,0,1,924.683,884.536Z" transform="translate(-15.09 -11.081)" fill="#e083a8"/>
    <path id="Path_375" data-name="Path 375" d="M948.356,887.243c-2.136,1.21-8.907,10.713-10.669,10.581-.434-.179-.473-.611-.4-1.052.079-.491,2.4-4.048,4.354-8.147a13.14,13.14,0,0,1,1.24-2.05,2.406,2.406,0,0,1,.982-.715.651.651,0,0,1,.928.5.834.834,0,0,1-.587.959c-.806.17-1.119.778-1.414,1.393-.7,1.466-3.508,6.7-3.277,6.4a108.286,108.286,0,0,1,8.2-8.583c.9-.635,1.543-.365,1.6.653.048.866-.018,1.758.011,2.629a17.765,17.765,0,0,0,.19,2.586c.194,1.066.751,1.238,1.756.571a104.48,104.48,0,0,0,10.587-7.65,6.374,6.374,0,0,1,.9-.714c.4-.26.488.282-.193,1.124-.128.162-9.185,6.826-10.1,7.454-2.164,1.484-3.686,1.275-3.832-.9-.07-1.056-.021-2.138-.045-3.206A3.575,3.575,0,0,0,948.356,887.243Z" transform="translate(-19.392 -11.732)" fill="#e083a8"/>
    <path id="Path_376" data-name="Path 376" d="M1013.824,851.462c.019.408-.328.76-.885.817-.712.07-1.42.074-2.133.122-4.014.274-8.02.409-12.042.869-3.63.417-7.28,1.1-10.914,1.831-3.665.74-7.323,1.694-10.983,2.541a1.45,1.45,0,0,0-1.191.972C972.7,866.3,969.793,874,967.991,881.9c-.365,1.6-.609,3.222-.819,4.83a7.294,7.294,0,0,0,.086,2.116c.17,1.023.673,1.214,1.665.641a9.972,9.972,0,0,0,1.687-1.232c1.143-1.039,2.295-2.079,3.349-3.208q4.068-4.36,8.043-8.805c.748-.833,1.372-1.775,2.052-2.667.086-.111.149-.282.251-.328.26-.115.384-.277.609-.229.354.071.427.364.3.716a16.4,16.4,0,0,1-1.364,1.737c-3.635,4.023-6.955,7.8-10.871,11.548-.787.751-1.609,1.468-2.444,2.162a9.037,9.037,0,0,1-1.465.994c-1.332.718-2.23.387-2.583-.928a9.5,9.5,0,0,1-.091-3.57,67.539,67.539,0,0,1,2.337-10.521c1.5-5.256,3.4-10.432,5.274-15.613.125-.346.234-.7.4-1.2-.777.178-1.413.319-2.048.473-2.848.7-5.7,1.4-8.544,2.084a8.267,8.267,0,0,1-1.654.209c-.748.023-1.15-.313-1.2-.885a2.421,2.421,0,0,1,.938-1.861.668.668,0,0,1,.883.048.631.631,0,0,1,.021.888,5.832,5.832,0,0,1-.74.67,1.965,1.965,0,0,0,1.659.313,16.724,16.724,0,0,0,2.144-.325c2.883-.628,5.766-1.282,8.657-1.928.381-.9.706-1.729,1.084-2.538a4.357,4.357,0,0,1,.723-1.136.949.949,0,0,1,1.456-.094c.311.411.185.907-.434,1.338-.677.472-.821,1.155-1.2,1.953,1.33-.311,2.511-.591,3.69-.861q3.937-.9,7.874-1.793c5.456-1.231,10.916-1.978,16.374-2.734,2.307-.319,4.612-.553,6.918-.835.649-.077,1.3-.178,1.948-.282C1013.524,850.955,1013.8,851.082,1013.824,851.462Z" transform="translate(-25.617 -2.929)" fill="#e083a8"/>
    <path id="Path_377" data-name="Path 377" d="M1032.084,849.078c.54-.016,1.08-.038,1.619-.044a2.843,2.843,0,0,1,2.938,2.05,8.19,8.19,0,0,1,.313,4.092,26.945,26.945,0,0,1-.866,3.928,40,40,0,0,1-8.1,14.435,28.614,28.614,0,0,1-2.875,2.774,8.507,8.507,0,0,1-1.928,1.209c-1.82.854-3.179.231-3.484-1.608a10.733,10.733,0,0,1-.1-2.406,27.114,27.114,0,0,1,1.526-6.768,61.134,61.134,0,0,1,6.421-13.661c.093-.145.179-.294.386-.636a7.07,7.07,0,0,0-.721.45,10.672,10.672,0,0,0-3.327,4.973,8.385,8.385,0,0,1-.432,1.15.78.78,0,0,1-.822.488.6.6,0,0,1-.518-.749,3.417,3.417,0,0,1,.167-.686,12.885,12.885,0,0,1,6.562-7.766,6.693,6.693,0,0,0,1.934-1.534,24.113,24.113,0,0,1,2.321-2.29,8.367,8.367,0,0,1,1.768-1.064,1.109,1.109,0,0,1,1.265.1.758.758,0,0,1,.187.953.826.826,0,0,1-.787.567,1.933,1.933,0,0,0-1.5.238c-.683.525-1.359,1.059-2.039,1.59C1032.021,848.931,1032.053,849,1032.084,849.078Zm3.948,4.866c-.177-.824-.306-1.669-.546-2.464a1.568,1.568,0,0,0-1.293-1.158,7.278,7.278,0,0,0-3.47.461c-.838.275-1.187,1.052-1.66,1.681-.505.672-.968,1.379-1.411,2.091a53.849,53.849,0,0,0-6.208,14.151,32.1,32.1,0,0,0-.87,4.623,7.415,7.415,0,0,0,.173,2.481c.224,1.018.946,1.289,1.979.819a7.1,7.1,0,0,0,1.678-1.017,25.986,25.986,0,0,0,2.661-2.543,39.354,39.354,0,0,0,8.142-14.75A20.113,20.113,0,0,0,1036.032,853.944Z" transform="translate(-41.007 -1.418)" fill="#e083a8"/>
    <path id="Path_378" data-name="Path 378" d="M1051.91,868.256c3.077-2.265,5.956-4.636,7.894-7.96a13.162,13.162,0,0,0,.985-2.16,2.279,2.279,0,0,0-.661-2.751c-.371-.3-.776-.569-1.158-.858a12.478,12.478,0,0,1-1.066-.83,3.2,3.2,0,0,1-.868-3.21,14.033,14.033,0,0,1,1.793-4.046c.439-.749.922-1.476,1.417-2.259a6.185,6.185,0,0,1-.766-.148c-.628-.212-.709-.918-.109-1.37a2.112,2.112,0,0,1,1.184-.462,2.181,2.181,0,0,0,1.9-.692.812.812,0,0,1,1.147-.2,1.013,1.013,0,0,0,.889.12c1.623-.286,3.248-.539,4.871-.82a4.511,4.511,0,0,0,2.095-.611.536.536,0,0,1,.833.146.949.949,0,0,1,.018.793.968.968,0,0,1-.748.345c-2.006-.31-4.056.3-6.095.583a5.461,5.461,0,0,0-3.574,2.218,26.309,26.309,0,0,0-2.973,4.441,12.558,12.558,0,0,0-.654,1.515,2.441,2.441,0,0,0,.74,3.069c.437.321.884.628,1.314.956,1.72,1.312,2.043,2.747.947,5a20.739,20.739,0,0,1-2.029,3.285,37.9,37.9,0,0,1-6.943,6.875,4.656,4.656,0,0,1-1.242.731c-.765.279-1.255-.207-1.077-1a1.992,1.992,0,0,1,.18-.48,1.578,1.578,0,0,1,.918-.942C1051.634,867.381,1051.713,867.87,1051.91,868.256Z" transform="translate(-48.979 0)" fill="#e083a8"/>
  </g>
</svg>
