<svg xmlns="http://www.w3.org/2000/svg" xmlns:xlink="http://www.w3.org/1999/xlink" width="85" height="85" viewBox="0 0 85 85">
  <defs>
    <linearGradient id="linear-gradient" x1="0.5" x2="0.5" y2="1" gradientUnits="objectBoundingBox">
      <stop offset="0" stop-color="#920783"/>
      <stop offset="0.192" stop-color="#920783"/>
      <stop offset="1" stop-color="#f5bbef"/>
    </linearGradient>
  </defs>
  <g id="Group_1766" data-name="Group 1766" transform="translate(613 883)">
    <rect id="Rectangle_8541" data-name="Rectangle 8541" width="85" height="85" transform="translate(-613 -883)" fill="none" opacity="0.499"/>
    <g id="Group_1765" data-name="Group 1765" transform="translate(104 -4)">
      <g id="Group_216" data-name="Group 216" transform="translate(-1593 -734)">
        <g id="Group_115" data-name="Group 115" transform="translate(-296 44)">
          <g id="Path_11" data-name="Path 11" transform="translate(1034.143 -1086.438)">
            <path id="Path_93" data-name="Path 93" d="M180.24,960.348c-1.3,0-2.633-2.094-2.633-4.15a7.737,7.737,0,0,1,.908-3.409c.533-1,1.194-1.615,1.725-1.615,1.161,0,2.589,2.771,2.589,5.024C182.829,958.254,181.522,960.348,180.24,960.348Z" fill="#fff"/>
            <path id="Path_94" data-name="Path 94" d="M180.24,951.8c-.159,0-.655.314-1.174,1.285a7.165,7.165,0,0,0-.834,3.114c0,1.911,1.233,3.524,2.008,3.524a1.769,1.769,0,0,0,1.207-.94,4.916,4.916,0,0,0,.757-2.584,7.3,7.3,0,0,0-.817-3.123c-.506-.964-.991-1.276-1.15-1.276m0-1.25c1.726,0,3.214,3.3,3.214,5.65s-1.488,4.774-3.214,4.774-3.257-2.428-3.257-4.774,1.534-5.65,3.26-5.65Z" fill="#fff"/>
          </g>
          <g id="Group_217" data-name="Group 217">
            <path id="Path_10" data-name="Path 10" d="M180.482,956.145a44.663,44.663,0,0,0-4.855-3.138c-1.85-.92-3.125-1.444-3.125-1.444a20.713,20.713,0,0,0-7.336-1.955,39.42,39.42,0,0,0-13.044.543c-3.977.75-12.883,5.715-12.883,5.715s6.443,4.862,12.883,6.34a31.2,31.2,0,0,0,12.674.359c.578-.125,2.49-.375,3.931-.763,1.64-.441,4.033-1.321,4.033-1.321s1.7-.675,3.709-1.659A23.449,23.449,0,0,0,180.482,956.145Z" transform="translate(1034.143 -1086.438)" stroke="#fff" stroke-linecap="round" stroke-linejoin="round" stroke-width="2" fill="url(#linear-gradient)"/>
            <path id="Path_9" data-name="Path 9" d="M178.4,953.935a44.774,44.774,0,0,0-2.99-4.947c-1.261-1.638-2.177-2.667-2.177-2.667a20.725,20.725,0,0,0-5.739-4.971,39.452,39.452,0,0,0-11.964-5.225c-3.91-1.071-14.091-.508-14.091-.508s3.663,7.194,8.8,11.343a31.179,31.179,0,0,0,11.237,5.873c.574.141,2.4.754,3.868,1.037,1.664.32,4.2.577,4.2.577s1.823.137,4.061.133A23.412,23.412,0,0,0,178.4,953.935Z" transform="translate(1034.143 -1086.438)" stroke="#fff" stroke-linecap="round" stroke-linejoin="round" stroke-width="2" fill="url(#linear-gradient)"/>
            <path id="Path_12" data-name="Path 12" d="M179.558,954.9a44.958,44.958,0,0,0,.088-5.78c-.2-2.057-.432-3.415-.432-3.415a20.721,20.721,0,0,0-2.23-7.258,39.44,39.44,0,0,0-7.372-10.774c-2.75-2.981-11.677-7.9-11.677-7.9s-.709,8.042,1.45,14.286a31.178,31.178,0,0,0,6.411,10.938c.412.423,1.638,1.913,2.73,2.93,1.241,1.154,3.259,2.719,3.259,2.719s1.472,1.083,3.372,2.266A23.358,23.358,0,0,0,179.558,954.9Z" transform="translate(1034.143 -1086.438)" stroke="#fff" stroke-linecap="round" stroke-linejoin="round" stroke-width="2" fill="url(#linear-gradient)"/>
            <path id="Path_13" data-name="Path 13" d="M180.555,913.045a44.714,44.714,0,0,1,3.137,4.855c.92,1.85,1.444,3.125,1.444,3.125a20.709,20.709,0,0,1,1.95,7.35,39.441,39.441,0,0,1-.542,13.043c-.75,3.978-5.715,12.884-5.715,12.884s-4.863-6.444-6.34-12.884a31.159,31.159,0,0,1-.359-12.673c.125-.578.375-2.49.762-3.932.442-1.64,1.322-4.032,1.322-4.032s.675-1.7,1.658-3.709A23.437,23.437,0,0,1,180.555,913.045Z" transform="translate(1034.143 -1086.438)" stroke="#fff" stroke-linecap="round" stroke-linejoin="round" stroke-width="2" fill="url(#linear-gradient)"/>
            <path id="Path_14" data-name="Path 14" d="M180.726,954.915a44.6,44.6,0,0,1-.087-5.78c.2-2.057.431-3.415.431-3.415a20.725,20.725,0,0,1,2.24-7.265,39.423,39.423,0,0,1,7.373-10.773c2.744-2.976,11.675-7.9,11.675-7.9s.708,8.042-1.45,14.286a31.182,31.182,0,0,1-6.412,10.937c-.412.424-1.638,1.913-2.731,2.93-1.243,1.157-3.257,2.719-3.257,2.719s-1.473,1.083-3.372,2.266A23.466,23.466,0,0,1,180.726,954.915Z" transform="translate(1034.143 -1086.438)" stroke="#fff" stroke-linecap="round" stroke-linejoin="round" stroke-width="2" fill="url(#linear-gradient)"/>
            <path id="Path_15" data-name="Path 15" d="M181.533,953.775a44.625,44.625,0,0,1,2.991-4.947c1.261-1.638,2.177-2.667,2.177-2.667a20.7,20.7,0,0,1,5.75-4.972,39.421,39.421,0,0,1,11.963-5.225c3.9-1.068,14.086-.506,14.086-.506s-3.663,7.194-8.8,11.343a31.19,31.19,0,0,1-11.237,5.874c-.574.14-2.4.753-3.868,1.036-1.668.322-4.2.578-4.2.578s-1.823.138-4.061.134A23.406,23.406,0,0,1,181.533,953.775Z" transform="translate(1034.143 -1086.438)" stroke="#fff" stroke-linecap="round" stroke-linejoin="round" stroke-width="2" fill="url(#linear-gradient)"/>
            <path id="Path_16" data-name="Path 16" d="M179.9,956.145a44.567,44.567,0,0,1,4.855-3.138c1.85-.92,3.125-1.444,3.125-1.444a20.7,20.7,0,0,1,7.347-1.95,39.42,39.42,0,0,1,13.044.543c3.977.75,12.884,5.715,12.884,5.715s-6.444,4.862-12.884,6.34a31.181,31.181,0,0,1-12.674.358c-.577-.125-2.49-.375-3.931-.762-1.64-.441-4.033-1.321-4.033-1.321s-1.7-.675-3.708-1.659A23.439,23.439,0,0,1,179.9,956.145Z" transform="translate(1034.143 -1086.438)" stroke="#fff" stroke-linecap="round" stroke-linejoin="round" stroke-width="2" fill="url(#linear-gradient)"/>
            <path id="Path_95" data-name="Path 95" d="M180.24,960.348c-1.3,0-2.633-2.094-2.633-4.15a7.737,7.737,0,0,1,.908-3.409c.533-1,1.194-1.615,1.725-1.615,1.161,0,2.589,2.771,2.589,5.024C182.829,958.254,181.522,960.348,180.24,960.348Z" transform="translate(1034.143 -1086.438)" fill="#8b609e"/>
            <path id="Path_96" data-name="Path 96" d="M180.24,951.8c-.159,0-.655.314-1.174,1.285a7.165,7.165,0,0,0-.834,3.114c0,1.911,1.233,3.524,2.008,3.524a1.769,1.769,0,0,0,1.207-.94,4.916,4.916,0,0,0,.757-2.584,7.3,7.3,0,0,0-.817-3.123c-.506-.964-.991-1.276-1.15-1.276m0-1.25c1.726,0,3.214,3.3,3.214,5.65s-1.488,4.774-3.214,4.774-3.257-2.428-3.257-4.774,1.534-5.65,3.26-5.65Z" transform="translate(1034.143 -1086.438)" fill="#fff"/>
          </g>
        </g>
      </g>
    </g>
  </g>
</svg>
