<svg xmlns="http://www.w3.org/2000/svg" width="16" height="15.983" viewBox="0 0 16 15.983">
  <path id="Union_1" data-name="Union 1" d="M-3127.9,15.882a.349.349,0,0,1-.092-.329l.976-3.917a.349.349,0,0,1,.092-.161l8.8-8.8,3.431,3.431-8.8,8.8a.345.345,0,0,1-.161.091l-3.917.976a.342.342,0,0,1-.084.01A.347.347,0,0,1-3127.9,15.882Zm10.76-14.191,1.2-1.2a1.775,1.775,0,0,1,2.451,0l.98.98A1.722,1.722,0,0,1-3112,2.7a1.721,1.721,0,0,1-.507,1.225l-1.2,1.2Z" transform="translate(3128 0)" fill="#218ce8"/>
</svg>
