<svg xmlns="http://www.w3.org/2000/svg" width="43.717" height="82.969" viewBox="0 0 43.717 82.969">
  <g id="Group_43859" data-name="Group 43859" transform="translate(-1580.846 3541.68)">
    <path id="Path_352846" data-name="Path 352846" d="M1598.331-3528.946c1.168-2.046,1.011-7.606,1.41-8.771s1.532-2.964,3.227-2.964,2.905,1.534,3.333,3.348-.2,6.815.861,8.386,13.626,7.508,14.584,11.927S1610.387-3487,1609.5-3483.49s-1.308,5.779,0,7.706,10.683,4.751,13,8.749.523,6.514-2.744,7.059-5.585-.054-8.525-.889-3.7-1.961-8.182-1.961-6.934,1.741-8.836,2.317a16.881,16.881,0,0,1-8.783.534c-4.734-.727-4.088-5.128-1.97-7.566s11.142-5.545,12.9-8.242,1.008-4.225,0-7.706-13.074-29.082-12.272-33.529S1597.163-3526.9,1598.331-3528.946Z" fill="#fff" stroke="#3e393a" stroke-width="2"/>
    <g id="Group_43858" data-name="Group 43858">
      <path id="Path_352845" data-name="Path 352845" d="M1605.551-3506.106s.835,6.253,3.094,3.654,5.962-11.432,5.943-14.053-11.7-10.377-11.7-10.377-11.6,6.919-12.086,10.377,3.723,11.453,6.047,14.053,3.249-3.654,3.249-3.654Z" fill="none" stroke="#3e393a" stroke-width="2"/>
      <g id="Ellipse_629" data-name="Ellipse 629" transform="translate(1596 -3521)" fill="none" stroke="#3e393a" stroke-width="2">
        <ellipse cx="6.5" cy="8" rx="6.5" ry="8" stroke="none"/>
        <ellipse cx="6.5" cy="8" rx="5.5" ry="7" fill="none"/>
      </g>
    </g>
    <path id="Path_352847" data-name="Path 352847" d="M1601.218-3507.589l-.291,2.51,1.877.906,1.892-.906-.674-3.195-3.1-.545Z" fill="#fff"/>
  </g>
</svg>
