<svg xmlns="http://www.w3.org/2000/svg" width="18" height="18" viewBox="0 0 18 18">
  <path id="gear" d="M17.576,6.951l-1.383-.3a7.529,7.529,0,0,0-.445-1.074l.766-1.191a.538.538,0,0,0-.072-.671L14.286,1.558a.538.538,0,0,0-.671-.072l-1.191.766a7.529,7.529,0,0,0-1.074-.445l-.3-1.383A.538.538,0,0,0,10.524,0H7.476a.538.538,0,0,0-.526.424l-.3,1.383a7.529,7.529,0,0,0-1.074.445L4.385,1.486a.538.538,0,0,0-.671.072L1.558,3.714a.538.538,0,0,0-.072.671l.766,1.191A7.529,7.529,0,0,0,1.807,6.65l-1.383.3A.538.538,0,0,0,0,7.476v3.048a.538.538,0,0,0,.424.526l1.383.3a7.529,7.529,0,0,0,.445,1.074l-.766,1.191a.538.538,0,0,0,.072.671l2.155,2.155a.538.538,0,0,0,.671.072l1.191-.766a7.529,7.529,0,0,0,1.074.445l.3,1.383A.538.538,0,0,0,7.476,18h3.048a.538.538,0,0,0,.526-.424l.3-1.383a7.529,7.529,0,0,0,1.074-.445l1.191.766a.538.538,0,0,0,.671-.072l2.155-2.155a.538.538,0,0,0,.072-.671l-.766-1.191a7.529,7.529,0,0,0,.445-1.074l1.383-.3A.538.538,0,0,0,18,10.524V7.476A.538.538,0,0,0,17.576,6.951ZM12.227,9A3.227,3.227,0,1,1,9,5.773,3.231,3.231,0,0,1,12.227,9Zm0,0" fill="#fff"/>
</svg>
