<svg xmlns="http://www.w3.org/2000/svg" width="11.839" height="15.557" viewBox="0 0 11.839 15.557">
  <path id="Path_345794" data-name="Path 345794" d="M343.919,150c-3.269,0-5.919,2.183-5.919,4.876a4.183,4.183,0,0,0,.654,2.226c1.246,2.614,4.233,5.628,4.912,8.455h.738c.679-2.827,3.634-5.841,4.88-8.455a4.176,4.176,0,0,0,.655-2.226C349.839,152.183,347.189,150,343.919,150Zm0,7.7a2.99,2.99,0,0,1-3.265-2.825,3.051,3.051,0,0,1,3.265-2.983c1.635,0,3.349.988,3.338,2.841A3.16,3.16,0,0,1,343.919,157.7Z" transform="translate(-338 -150)" fill="#fff"/>
</svg>
