<svg xmlns="http://www.w3.org/2000/svg" width="12" height="15.425" viewBox="0 0 12 15.425">
  <path id="Union_2" data-name="Union 2" d="M-3125.081,15.425a.97.97,0,0,1-.967-.893l-.731-9.035a.41.41,0,0,1,.409-.443h8.74a.41.41,0,0,1,.409.443l-.731,9.035a.97.97,0,0,1-.967.893Zm.312-9.311a.465.465,0,0,0-.436.493l.458,7.418a.465.465,0,0,0,.464.437h.029a.465.465,0,0,0,.436-.493l-.458-7.418a.466.466,0,0,0-.465-.437Zm5.045.437-.437,7.418a.465.465,0,0,0,.437.492h.028a.465.465,0,0,0,.464-.438l.437-7.418a.466.466,0,0,0-.437-.492h-.028A.465.465,0,0,0-3119.724,6.552Zm-2.736.027V14a.466.466,0,0,0,.466.465.465.465,0,0,0,.465-.465V6.579a.466.466,0,0,0-.465-.466A.466.466,0,0,0-3122.46,6.579Zm-5.155-2.456a.38.38,0,0,1-.2-.059.383.383,0,0,1-.161-.447l.306-.917a.592.592,0,0,1,.562-.4h10.226a.592.592,0,0,1,.562.4l.306.917a.383.383,0,0,1-.161.447.379.379,0,0,1-.2.059Zm6.9-2.758V.931h-2.578v.434h-.931V.87a.871.871,0,0,1,.87-.87h2.7a.871.871,0,0,1,.87.87v.495Z" transform="translate(3128)" fill="#e5749b"/>
</svg>
