<svg xmlns="http://www.w3.org/2000/svg" width="75.385" height="74.389" viewBox="0 0 75.385 74.389">
  <g id="Group_43857" data-name="Group 43857" transform="translate(-914.909 3779.332)">
    <path id="Path_352835" data-name="Path 352835" d="M920.132-3777.832h39.4l10.088,9.218v58.32l-2.685,3.852H920.132l-3.724-3.852v-64.133Z" fill="#fff" stroke="#494949" stroke-width="3"/>
    <path id="Path_352836" data-name="Path 352836" d="M923.97-3755.911H956.8" transform="translate(1.202)" fill="none" stroke="#494949" stroke-linecap="round" stroke-width="3"/>
    <path id="Path_352837" data-name="Path 352837" d="M923.97-3755.911h23.288" transform="translate(1.202 9)" fill="none" stroke="#494949" stroke-linecap="round" stroke-width="3"/>
    <path id="Path_352838" data-name="Path 352838" d="M923.97-3755.911h23.288" transform="translate(1.202 18)" fill="none" stroke="#494949" stroke-linecap="round" stroke-width="3"/>
    <path id="Path_352839" data-name="Path 352839" d="M923.97-3755.911h23.288" transform="translate(1.202 27)" fill="none" stroke="#494949" stroke-linecap="round" stroke-width="3"/>
    <path id="Path_352840" data-name="Path 352840" d="M923.97-3755.911h13.769" transform="translate(19.202 40)" fill="none" stroke="#494949" stroke-linecap="round" stroke-width="3"/>
    <path id="Path_352841" data-name="Path 352841" d="M959.586-3734.212c-.187,1.854-1.972,8.143-1.972,8.143l9.167-1.794,21.227-20.985s1.565-3.792,0-5.439-6.26-1.15-6.26-1.15Z" fill="#fff" stroke="#494949" stroke-width="3"/>
    <path id="Path_352842" data-name="Path 352842" d="M977.121-3750.051l6.167,6.42" fill="none" stroke="#494949" stroke-width="3"/>
    <path id="Path_352843" data-name="Path 352843" d="M977.121-3750.051l6.167,6.42" transform="translate(-14 13)" fill="none" stroke="#494949" stroke-width="3"/>
    <path id="Path_352844" data-name="Path 352844" d="M956.253-3776.913v12.661h13.288" fill="none" stroke="#494949" stroke-width="3"/>
  </g>
</svg>
