<svg id="date" xmlns="http://www.w3.org/2000/svg" width="18" height="18" viewBox="0 0 18 18">
  <g id="Group_8" data-name="Group 8" transform="translate(3.857)">
    <g id="Group_7" data-name="Group 7">
      <path id="Path_4" data-name="Path 4" d="M103.043,0a.643.643,0,0,0-.643.643V1.929h1.286V.643A.643.643,0,0,0,103.043,0Z" transform="translate(-102.4)" fill="#fff"/>
    </g>
  </g>
  <g id="Group_10" data-name="Group 10" transform="translate(12.857)">
    <g id="Group_9" data-name="Group 9">
      <path id="Path_5" data-name="Path 5" d="M341.976,0a.643.643,0,0,0-.643.643V1.929h1.286V.643A.643.643,0,0,0,341.976,0Z" transform="translate(-341.333)" fill="#fff"/>
    </g>
  </g>
  <g id="Group_12" data-name="Group 12" transform="translate(0 1.929)">
    <g id="Group_11" data-name="Group 11">
      <path id="Path_6" data-name="Path 6" d="M16.071,51.2H14.143v2.571a.643.643,0,1,1-1.286,0V51.2H5.143v2.571a.643.643,0,1,1-1.286,0V51.2H1.929A1.929,1.929,0,0,0,0,53.129V65.343a1.929,1.929,0,0,0,1.929,1.929H16.071A1.929,1.929,0,0,0,18,65.343V53.129A1.929,1.929,0,0,0,16.071,51.2Zm.643,14.143a.643.643,0,0,1-.643.643H1.929a.643.643,0,0,1-.643-.643V56.986H16.714Z" transform="translate(0 -51.2)" fill="#fff"/>
    </g>
  </g>
  <g id="Group_14" data-name="Group 14" transform="translate(4.5 9)">
    <g id="Group_13" data-name="Group 13">
      <path id="Path_7" data-name="Path 7" d="M128.275,239.126a.643.643,0,0,0-.909,0l-4.688,4.688L120.56,241.7a.643.643,0,0,0-.909.91l2.571,2.571a.643.643,0,0,0,.909,0l5.143-5.143A.643.643,0,0,0,128.275,239.126Z" transform="translate(-119.463 -238.938)" fill="#fff"/>
    </g>
  </g>
</svg>
