<svg xmlns="http://www.w3.org/2000/svg" width="690.8" height="109.5"><path fill="#f0f1f1" d="M1 0h689.9v109.2H1z"/><path d="M226.8 109.2H0V2.4h226.8l18 53.4z"/><path fill="none" stroke="#fff" stroke-width="2" stroke-miterlimit="10" d="M454.5 2.4l18 53.4-18 53.4"/><path d="M62.3 47.9c.8 0 1.4.3 1.9.7.5.4.8 1 .9 1.7.2.7 0 1.6-.5 2.6-.8 1.4-1.7 2.2-2.8 2.4-.2 0-.3 0-.4-.1-.3-.4 0-1.2 1-2.3 1.4-2 1.6-3.1.8-3.2-.2-.1-.8 0-1.7.2-.9.2-1.3.3-1.3.4l-.1.2c-.1 0-.8.4-2.2 1.3-1.4.9-2.1 1.3-2.2 1.4 0 .2-.3.4-.7.6-.6.4-1.3 1.3-2.2 2.8-.3.5-.6 1-.7 1.5-.1.5-.1 1 0 1.3.1.3.4.8.9 1.2.5.5 1.2 1 2 1.4 2.2 1.2 3.5 2.2 3.9 3.1.7 1 .9 1.9.6 2.9-.2.3-.4.7-.7 1-.3.3-.6.5-.9.5-.2 0-.4.1-.6.2-.2.1-.3.2-.5.3-.1.1-.6.2-1.4.3s-1.6.1-2.3.1l-1.2-.4c0-.1 0-.2-.1-.3-.1-.1-.2-.1-.4-.1-.9-.6-1.5-1.3-1.8-2.1-.2-.3-.2-.5-.2-.6 0-.1.1-.2.4-.3.2-.1.4-.2.5-.1.1 0 .2.2.4.6.4.7 1.2 1.1 2.3 1.3 1.2.2 2.3 0 3.4-.5.7-.3 1.2-.6 1.4-1 .2-.3.1-.8-.2-1.3-.1-.2-.2-.4-.3-.5L56.2 64c-.4-.2-1-.4-1.5-.7-.6-.3-1.2-.7-2-1.3-.7-.6-1.2-1.1-1.4-1.5-.5-.4-.8-1.1-.9-2.1-.1-.9 0-1.8.4-2.5.2-.5.8-1.3 1.6-2.3.8-1 1.4-1.6 1.9-1.9l1-.9s.1-.1.3-.2c.5-.2 1-.5 1.4-.9 2.5-1.2 4.3-1.8 5.3-1.8zm3.1 9.8c-.1-.1-.1-.2-.1-.4 0-.1.1-.3.3-.5.2-.2.3-.3.5-.3h.9c.5 0 .8 0 .9-.1.2-.1.3-.2.3-.3.2-.5.4-1 .7-1.6.6-1.2 1.1-1.9 1.4-2.2.4-.3.8-.2 1.3.2.2.2.2.4.3.5 0 .1-.1.2-.2.5s-.3.6-.6 1.1c-.3.5-.5.8-.6 1-.3.5-.4.7-.1.8.2 0 .8 0 1.8-.2s1.5.1 1.6.8c.1.5 0 .8-.1.9-.2.1-.6.2-1.4.2-.6.1-1.2.2-1.8.2-.6 0-.9 0-1 .1-.2.1-.4.3-.6.6-.1 0-.1.2-.2.3-.1.2-.4.7-.7 1.4-.5 1.6-.9 2.9-1.1 4-.2 1.1-.2 1.7-.1 1.9.1.2.5.3 1.1.4 1 .1 2.1-.2 3.3-.9l.8-.5c.2-.3.4-.2.6.3v.5c0 .1-.1.3-.3.5-.2.2-.5.4-.9.7-1.5 1-3 1.3-4.4 1-.3-.1-.6-.3-1-.6-.3-.4-.5-.7-.6-1l-.4-.5c-.1-.1-.2-.6-.1-1.5 0-.9.1-1.6.2-2 .1-.4.3-.9.5-1.6.3-.7.4-1.2.5-1.4l.8-1.7-1.2-.3-.3-.3zM80.3 66s.1 0 0 0c.1 0 .1-.1.2-.1v-.1l.5-.5c.2-.2.4-.3.5-.3.1 0 .2 0 .3.1l.2.2c.3 0 .3.3-.1.8s-.9 1-1.5 1.4c-.6.6-1.4.8-2.3.6-.9-.1-1.6-.6-2.1-1.3-.6-.8-.9-2-.7-3.7.1-1.1.6-2.3 1.4-3.4.9-1.2 1.8-2 2.8-2.3.3-.2.5-.3.8-.3.2 0 .6 0 1.2.1s1 .3 1.3.7c.5.5.8 1.1.8 1.7-.1.5-.4 1-.9 1.7-.5.6-1.2 1.1-1.9 1.5-1.1.3-2 .3-2.7-.2-.4-.1-.6-.1-.7.1-.1.2-.2.7-.3 1.5-.2 1.4.2 2.1 1 2.3.1 0 .2 0 .4.1.2 0 .3 0 .3.1h.6c.2 0 .3-.1.5-.2s.3-.2.3-.2c-.1-.2 0-.2.1-.3zm0-4.8c.3-.1.7-.4 1-.8.3-.4.5-.7.5-.9 0-.3-.1-.5-.4-.7-.3-.2-.6-.2-1-.1s-.8.3-1.2.7c-.4.4-.7.7-1 1.1-.1.3-.2.5-.2.6.1.2.4.2 1 .3.5 0 1-.1 1.3-.2zm4.7 7.6l.2-1.1c.1-.5.5-1.8 1.2-3.8.7-2 1.3-3.7 1.7-4.9.4-1 .6-1.8.6-2.4 0-.1.1-.3.3-.5.2-.2.6-.2 1 .1.1 0 .1.1.3.3.1.2.2.3.2.4v.9c0 .4-.2.9-.5 1.5 1.6-.7 2.9-.8 3.8-.3.9.5 1.3 1.3 1.3 2.6 0 .4-.1.8-.3 1.3-.2.5-.4.9-.6 1-.1 0-.3.2-.5.6-.3.3-.7.7-1.3 1-.6.4-1 .5-1.3.4-.1 0-.2.1-.2.2s-.4.3-1.1.5c-.7.2-1.3.3-1.7.3-.4 0-.6-.1-.8-.2-.1.1-.2.3-.2.5s-.1.5-.3 1.1c-.2.6-.4.9-.5.9-.1.1-.1.2 0 .3 0 .4-.1.7-.2.9 0 .5-.1 1-.3 1.4 0 .2 0 .5-.1.7-.1.2-.1.3-.2.3s-.2.3-.2.8-.1.9-.3 1.2c-.2.3-.4.4-.6.4h-.3c-.4-.1-.6-.7-.3-1.8.2-.8.3-1.4.3-1.7l.1-1c.2-.4.3-.8.3-1.4.1-.1.2-.3.5-.5zm7.9-8.2c-.3-.4-.8-.4-1.6-.2-1.3.5-2.3 1.4-2.9 2.7-.6 1.3-.7 2-.4 2.1.3 0 .9-.2 1.8-.5s1.6-.7 2.1-1.1c.5-.4.8-.9 1-1.4.3-.4.3-1 0-1.6zm13-7.3c1.7-1 2.6-1.6 2.7-1.5.1 0 .3.1.5.3.2.2.4.3.4.5.1.1.1.4-.1.9-.2.4-.5 1.4-1 2.7s-.8 2.4-1 3.1c-.2.7-.4 1.4-.7 2-.2.7-.4 1.2-.6 1.8-.4.9-.8 2.2-1.1 3.8-.1.2-.2.5-.3.8-.2.6-.3 1-.4 1-.2.1-.5 0-1-.5-.1-.2-.2-.4-.2-.5 0-.3.3-1.8 1-4.3.2-.1.5-.9.9-2.3.4-1.5.8-2.8 1.2-3.9l.6-2.3c-1.1.6-2.1 1.3-3.2 2.1s-1.8 1.3-2 1.4c-.5.4-.9.7-1 .7-.1.1-.3 0-.5-.1-.6-.5-.7-.9-.5-1.3.1 0 .4-.3 1.1-.8.7-.5 1.1-.7 1.1-.8.1 0 .2-.1.2-.1.1-.1.2-.1.3-.3l.3-.3c.1-.1.2-.2.5-.4s.7-.5 1.2-.9c.8-.2 1.2-.5 1.6-.8zM131 50c-.8 0-1.7.1-2.9.2v-3.6c.9.1 1.5.2 2.8.2h4.8c1.2 0 2 0 2.7-.2-.1.9-.1 1.1-.1 1.9 0 4.3 1.1 8.2 3.2 11.9 1.3 2.1 2.7 3.9 4.8 5.8 1.5 1.4 2.4 2 4.4 3.2-1.1 1.1-1.7 1.9-2.5 3.4-3-2.1-5.2-4.3-7.3-7-1.1-1.5-1.8-2.6-2.6-4.4-.8-1.6-1-2.4-1.5-4.3-1.1 3.8-2.3 6.4-4.3 9.1-1.9 2.5-4.2 4.6-7.4 6.8-.6-1.3-1.3-2.2-2.5-3.1 2.5-1.5 4-2.6 6-4.7 2.3-2.4 4.2-5.6 5.1-8.9.6-2.1.9-3.6 1-6.1H131zm47.4 1.3c1.8 0 2.9 0 3.9-.1-.1 1.2-.1 1.2-.2 4.5-.1 4.1-.4 9.2-.7 11.2-.4 2.8-.8 3.8-1.7 4.5-.8.6-1.9.8-3.6.8-1.4 0-2.7-.1-4.6-.3-.2-1.5-.4-2.4-.8-3.6 1.9.4 3.7.6 5.2.6 1.4 0 1.9-.5 2.2-2.5.4-2.2.7-6.9.7-11.7h-8.1c-.5 4.4-1.3 7.5-2.7 10-1.7 3.1-4.5 5.7-8.6 8-.7-1.3-1.4-2.2-2.5-3.1 4.1-1.8 6.8-4.2 8.5-7.5.9-1.8 1.5-4.1 1.9-7.4h-5.2c-1.5 0-2.7.1-3.7.2v-3.6c1.1.2 2.1.2 3.8.2h5.3c.1-1.2.1-1.5.1-3.1 0-1.4-.1-2.3-.2-2.9h4c-.1.8-.1.8-.3 6h7.3z" fill="#fff"/><path d="M293.1 45.8c.8 0 1.4.3 1.9.7.5.4.8 1 .9 1.7.2.7 0 1.6-.5 2.6-.8 1.4-1.7 2.2-2.8 2.4-.2 0-.3 0-.4-.1-.3-.4 0-1.2 1-2.3 1.4-2 1.6-3.1.8-3.2-.2-.1-.8 0-1.7.2-.9.2-1.3.3-1.3.4l-.1.2c-.1 0-.8.4-2.2 1.3-1.4.9-2.1 1.3-2.2 1.4 0 .2-.3.4-.7.6-.6.4-1.3 1.3-2.2 2.8-.3.5-.6 1-.7 1.5-.1.5-.1 1 0 1.3.1.3.4.8.9 1.2.5.5 1.2 1 2 1.4 2.2 1.2 3.5 2.2 3.9 3.1.7 1 .9 1.9.6 2.9-.2.3-.4.7-.7 1-.3.3-.6.5-.9.5-.2 0-.4.1-.6.2-.2.1-.3.2-.5.3-.1.1-.6.2-1.4.3-.8.1-1.6.1-2.3.1l-1.2-.4c0-.1 0-.2-.1-.3-.1-.1-.2-.1-.4-.1-.9-.6-1.5-1.3-1.8-2.1-.2-.3-.2-.5-.2-.6 0-.1.1-.2.4-.3.2-.1.4-.2.5-.1.1 0 .2.2.4.6.4.7 1.2 1.1 2.3 1.3 1.2.2 2.3 0 3.4-.5.7-.3 1.2-.6 1.4-1 .2-.3.1-.8-.2-1.3-.1-.2-.1-.4-.3-.5l-1.1-1.1c-.4-.2-1-.4-1.5-.7-.6-.3-1.2-.7-2-1.3-.7-.6-1.2-1.1-1.4-1.5-.5-.4-.8-1.1-.9-2.1-.1-.9 0-1.8.4-2.5.2-.5.8-1.3 1.6-2.3.8-1 1.4-1.6 1.9-1.9l1-.9s.1-.1.3-.2c.5-.2 1-.5 1.4-.9 2.5-1.2 4.3-1.8 5.3-1.8zm3.1 9.8c-.1-.1-.1-.2-.1-.4 0-.1.1-.3.3-.5.2-.2.3-.3.5-.3h.9c.5 0 .8 0 .9-.1.2-.1.3-.2.3-.3.2-.5.4-1 .7-1.6.6-1.2 1.1-1.9 1.4-2.2.4-.3.8-.2 1.3.2.2.2.2.4.3.5 0 .1-.1.2-.2.5s-.3.6-.6 1.1c-.3.5-.5.8-.6 1-.3.5-.4.7-.1.8.2 0 .8 0 1.8-.2s1.5.1 1.6.8c.1.5 0 .8-.1.9-.2.1-.6.2-1.4.2-.6.1-1.2.2-1.8.2-.6 0-.9 0-1 .1-.2.1-.4.3-.6.6-.1 0-.1.2-.2.3-.1.2-.4.7-.7 1.4-.5 1.6-.9 2.9-1.1 4-.2 1.1-.2 1.7-.1 1.9.1.2.5.3 1 .4 1 .1 2.1-.2 3.3-.9l.8-.5c.2-.3.4-.2.6.3v.5c0 .1-.1.3-.3.5-.2.2-.5.4-.9.7-1.5 1-3 1.3-4.4 1-.3-.1-.6-.3-1-.6-.3-.4-.5-.7-.6-1l-.2-.2c-.1-.1-.2-.6-.1-1.5 0-.9.1-1.6.2-2 .1-.4.3-.9.5-1.6.3-.7.4-1.2.5-1.4l.8-1.7-1.2-.3c-.2-.4-.3-.5-.4-.6zm14.9 8.3s.1 0 0 0c.1 0 .1-.1.2-.1v-.1l.5-.5c.2-.2.4-.3.5-.3.1 0 .2 0 .3.1l.2.2c.3 0 .3.3-.1.8s-.9 1-1.5 1.4c-.6.6-1.4.8-2.3.6-.9-.1-1.6-.6-2.1-1.3-.6-.8-.9-2-.7-3.7.1-1.1.6-2.3 1.4-3.4.9-1.2 1.8-2 2.8-2.3.3-.2.5-.3.8-.3.2 0 .6 0 1.2.1s1 .3 1.3.7c.5.5.8 1.1.8 1.7-.1.5-.4 1-.9 1.7-.5.6-1.2 1.1-1.9 1.5-1.1.3-2 .3-2.7-.2-.4-.1-.6-.1-.7.1-.1.2-.2.7-.3 1.5-.2 1.4.2 2.1 1 2.3.1 0 .2 0 .4.1.2 0 .3 0 .3.1h.6c.2 0 .3-.1.5-.2s.3-.2.3-.2c-.1-.2 0-.2.1-.3zm0-4.8c.3-.1.7-.4 1-.8.3-.4.5-.7.5-.9s-.1-.5-.4-.7c-.3-.2-.6-.2-1-.1s-.8.3-1.2.7c-.4.4-.7.7-1 1.1-.3.4-.4.6-.3.6.1.2.4.2 1 .3.6 0 1.1-.1 1.4-.2zm4.7 7.6l.2-1.1c.1-.5.5-1.8 1.2-3.8.7-2 1.3-3.7 1.7-4.9.4-1 .6-1.8.6-2.4 0-.1.1-.3.3-.5.2-.2.6-.2 1 .1.1 0 .1.1.3.3.1.2.2.3.2.4v.9c0 .4-.2.9-.5 1.5 1.6-.7 2.9-.8 3.8-.3.9.5 1.3 1.3 1.3 2.6 0 .4-.1.8-.3 1.3-.2.5-.4.9-.6 1-.1 0-.3.2-.5.6-.3.3-.7.7-1.3 1-.6.4-1 .5-1.3.4-.1 0-.2.1-.2.2s-.4.3-1.1.5c-.8.2-1.3.3-1.7.3-.4 0-.6-.1-.8-.2-.1.1-.2.3-.2.5s-.1.5-.3 1.1c-.2.6-.4.9-.5.9-.1.1-.1.2 0 .3 0 .4-.1.7-.2.9 0 .5-.1 1-.3 1.4 0 .2 0 .5-.1.7-.1.2-.1.3-.2.3s-.2.3-.2.8-.1.9-.3 1.2c-.2.3-.4.4-.6.4h-.3c-.4-.1-.6-.7-.3-1.8.2-.8.3-1.4.3-1.7l.1-1c.2-.4.3-.8.3-1.4.1-.1.2-.3.5-.5zm7.9-8.2c-.3-.4-.8-.4-1.6-.2-1.3.5-2.3 1.4-2.9 2.7-.6 1.3-.7 2-.4 2.1.3 0 .9-.2 1.8-.5s1.6-.7 2.1-1.1c.5-.4.8-.9 1-1.4.3-.4.3-1 0-1.6zm12.9-7.8l.9.1c.2 0 .6.2.9.6.4.4.7.8.9 1.2.6.9.4 2-.6 3.4-.2.3-.8.9-1.8 2.1-1 1.1-1.6 1.8-1.8 1.9-.4.2-1 .8-1.8 1.8l-1.2 1.5c0 .1 0 .1.1.1s.3-.1.7-.2c.4-.1 1.2-.3 2.4-.4 1.2-.2 1.9-.2 2-.1l.1.1c.1-.1.3-.2.8-.1.4 0 .9.1 1.3.3.5.1.7.3.7.4 0 .1.1.3.3.4.5.4.4.6-.3.6-.3 0-.7-.1-1.1-.1h-1c-.2 0-.7.1-1.5.1-.6-.1-1.2 0-2 .3-.7.3-1.6.5-2.6.8-1 .3-1.6.4-1.7.3-.2-.1-.4-.2-.6-.4-.3-.2-.4-.4-.5-.5-.1-.1-.1-.3 0-.6s.1-.4.2-.4c.1.1.2-.1.5-.5s.4-.6.4-.7c0-.1.2-.2.4-.4 0 0 .2-.2.5-.6.3-.4.6-.7.8-.9 2.1-2 3.2-3.2 3.2-3.6.1-.1.3-.3.5-.4.2-.1.5-.3.7-.6.1-.4.4-.9.9-1.4.3-.5.6-.9.7-1.3.1-.3.1-.5.1-.6-.1 0-.3-.1-.8-.3-1.2-.4-2.3-.2-3.5.6-.1 0-.3.1-.5.2-.4.2-.7.2-.8.2-.1 0-.2-.1-.2-.1-.1-.1-.1-.2-.2-.3-.1-.1-.2-.2-.2-.3l-.3-.6.9-.5c1.7-1 3.1-1.4 4.1-1.1zm31 15.8c0 1.2 0 1.7.1 2.3h-2.8v-1.3h-2.1v2.8h-3c.1-.9.2-1.9.2-3.1V61c0-.6 0-1.5.1-2.3-.6 1.4-.8 1.8-1.6 2.7-.3-1.6-.6-2.5-1.1-3.7 1.5-1.7 2.5-3.7 3.3-6.3.5-1.4.7-2.5 1-4.3h-.7c-1.1 0-1.6 0-2.5.2v-3.2c.8.1 1.7.2 2.9.2h3.5c1.2 0 2-.1 2.9-.2v3.2c-.7-.1-1.1-.1-1.8-.1h-1.2c-.5 2.5-.8 4-1.8 6.6h2.9c.8 0 1.3 0 1.8-.1-.1.6-.1 1.3-.1 2.2v.7c2.3-2.1 3.9-4.4 5.4-7.9h-1.8v3.1h-3c.1-.6.1-1.3.1-1.9v-2.5c0-.5 0-.7-.1-1.5.7.1.9.1 2.2.1h3.5c.3-1.3.5-1.9.6-2.9l3.4.4c-.1.2-.3 1-.8 2.5h5.5c1.1 0 1.9 0 2.6-.1-.1.6-.1 1.1-.1 2.2v1.7c0 .8 0 1.3.1 1.9H382v-2.9h-5.9c-.6 1.6-1.1 2.5-2.1 4.2h2.9c.5-1 .9-2 1.2-3.3l2.9.6c-.4 1.2-.7 1.8-1.1 2.6h2.2c1.3 0 1.8 0 2.5-.1v2.9c-.8-.1-1.6-.1-2.4-.1h-2.8v2.2h2.2c1.3 0 1.8 0 2.5-.1v2.7c-.8-.1-1.5-.1-2.5-.1h-2.2v2.2h2.2c1.3 0 1.8 0 2.5-.1v2.7c-.8-.1-1.4-.1-2.5-.1h-2.2v2h2.9c1.4 0 2 0 2.8-.1v3c-1-.1-1.8-.2-2.9-.2H373V71h-3.2c.1-1 .2-1.8.2-3.4v-7.5c0-1.2.1-1.9.1-2.1-.4.6-.8 1-1.4 1.6-.3-.7-.6-1.1-1.1-1.9v8.8zm-4.8-1.9h2.1v-7.9h-2.1v7.9zm13.8-6.9v-2.2H373v2.2h3.6zm-3.6 4.6h3.6v-2.2H373v2.2zm0 4.7h3.6v-2.2H373V67zm19.6-18.7c.7.1 1.3.1 2.4.1h5.8c1.3 0 1.8 0 2.4-.1v3.1c-.7-.1-1.1-.1-2.3-.1H395c-1 0-1.6 0-2.4.1v-3.1zm1-4.2c.8.1 1.2.2 2.4.2h4c1.2 0 1.7 0 2.4-.2v3c-.8-.1-1.4-.1-2.4-.1h-4c-1 0-1.7 0-2.4.1v-3zm8.7 24.1c0 1.2 0 1.7.1 2.3h-2.8v-1h-3V71h-3c.1-1 .1-2 .1-2.9v-4.4c0-.9 0-1.5-.1-2.4.7.1 1.3.1 2.3.1h4.4c1.1 0 1.6 0 2-.1-.1.5-.1 1-.1 2.2v3.7c1.1-2.1 1.6-3.7 1.9-6.9l2.6.6c-.5 3.7-.8 5.2-2 8.2l-2.4-1.4v.5zm-8.6-15.4c.6.1 1 .1 1.9.1h5c1 0 1.4 0 1.8-.1v2.8c-.7-.1-1-.1-1.8-.1h-5c-.9 0-1.4 0-1.9.1v-2.8zm0 4.2c.6.1 1 .1 1.9.1h4.9c1 0 1.4 0 1.9-.1v2.8c-.5-.1-1-.1-1.9-.1h-4.9c-.9 0-1.2 0-1.9.1V57zm2.8 9.8h3.1v-3h-3.1v3zm8.5-18.2c1.7.5 2.3.8 3.4 1.2.3-.9.4-1.3.5-2.4h-2c-1.6 0-2.3 0-3.2.1v-3.2c.9.1 2 .2 3.3.2h9.5c1.2 0 2.1 0 2.8-.1-.1.5-.1.5-.2 2.6-.1 3-.5 6.1-.8 7.5-.5 2.4-1.4 3-3.8 3-.9 0-1.5 0-2.4-.1-.2-1.3-.3-1.8-.8-3l.2.1c-.7-.5-1-.7-1.7-1-1.4 2.3-2.9 3.6-5.5 5.2-.7-1.1-1.1-1.6-2.1-2.4 2.5-1.2 3.9-2.3 5-4.1-1.3-.5-1.8-.8-3.5-1.4l1.3-2.2zm5.2 18.2c0 .7.2.8 1.3.8 1.7 0 2.1-.1 2.3-.5.2-.4.3-1.6.3-3.3 1 .5 1.7.7 2.8.9-.3 5.2-.9 5.7-5.2 5.7-3.7 0-4.4-.4-4.4-2.2V62c0-.8-.1-1.4-.1-2.2h3.2c-.1.6-.2 1-.2 1.9v5.1zm.2-10.6c2.8 2.1 2.8 2.2 4.6 4.2l-2.2 1.9c-1.3-1.8-2.5-3-4.5-4.4l2.1-1.7zm1.5-8.8c-.2 1.7-.4 2.3-.8 3.6.9.4 1.3.7 2.5 1.3l-1.3 2.2c.6.1 1.1.1 1.7.1.9 0 1.2-.2 1.5-1.3.3-1.1.5-2.9.6-6h-4.2zm5.8 12.5c1.4 2.3 2.2 4 3.3 7l-2.5 1.6c-1-3.4-1.6-4.7-3.2-7.3l2.4-1.3zm102.8-14.7c.8 0 1.4.3 1.9.7.5.4.8 1 .9 1.7.2.7 0 1.6-.5 2.6-.8 1.4-1.7 2.2-2.8 2.4-.2 0-.3 0-.4-.1-.3-.4 0-1.2 1-2.3 1.4-2 1.6-3.1.8-3.2-.2-.1-.8 0-1.7.2-.9.2-1.3.3-1.3.4l-.1.2c-.1 0-.8.4-2.2 1.3-1.4.9-2.1 1.3-2.2 1.4 0 .2-.3.4-.7.6-.6.4-1.3 1.3-2.2 2.8-.3.5-.6 1-.7 1.5-.1.5-.1 1 0 1.3.1.3.4.8.9 1.2.5.5 1.2 1 2 1.4 2.2 1.2 3.5 2.2 3.9 3.1.7 1 .9 1.9.6 2.9-.2.3-.4.7-.8 1s-.6.5-.9.5c-.2 0-.4.1-.6.2-.2.1-.3.2-.5.3-.1.1-.6.2-1.4.3-.8.1-1.6.1-2.3.1l-1.2-.4c0-.1 0-.2-.1-.3-.1-.1-.2-.1-.4-.1-.9-.6-1.5-1.3-1.8-2.1-.2-.3-.2-.5-.2-.6 0-.1.1-.2.4-.3.2-.1.4-.2.5-.1.1 0 .2.2.4.6.4.7 1.2 1.1 2.3 1.3 1.2.2 2.3 0 3.4-.5.7-.3 1.2-.6 1.4-1 .2-.3.1-.8-.2-1.3-.1-.2-.1-.4-.3-.5l-1.1-1.1c-.4-.2-1-.4-1.5-.7-.6-.3-1.2-.7-2-1.3-.7-.6-1.2-1.1-1.4-1.5-.5-.4-.8-1.1-.9-2.1-.1-.9 0-1.8.4-2.5.2-.5.8-1.3 1.6-2.3.8-1 1.4-1.6 1.9-1.9l1-.9s.1-.1.3-.2c.5-.2 1-.5 1.4-.9 2.6-1.2 4.4-1.8 5.4-1.8zm3.1 9.8c-.1-.1-.1-.2-.1-.4 0-.1.1-.3.3-.5.2-.2.3-.3.5-.3h.9c.5 0 .8 0 .9-.1.2-.1.3-.2.3-.3.2-.5.4-1 .7-1.6.6-1.2 1.1-1.9 1.4-2.2.4-.3.8-.2 1.3.2.2.2.2.4.3.5 0 .1-.1.2-.2.5s-.3.6-.6 1.1c-.3.5-.5.8-.6 1-.3.5-.4.7-.1.8.2 0 .8 0 1.8-.2s1.5.1 1.6.8c.1.5 0 .8-.1.9-.2.1-.6.2-1.4.2-.6.1-1.2.2-1.8.2-.6 0-.9 0-1 .1-.2.1-.4.3-.6.6-.1 0-.1.2-.2.3-.1.2-.4.7-.7 1.4-.5 1.6-.9 2.9-1.1 4-.2 1.1-.2 1.7-.1 1.9.1.2.5.3 1 .4 1 .1 2.1-.2 3.3-.9l.8-.5c.2-.3.4-.2.6.3v.5c0 .1-.1.3-.3.5-.2.2-.5.4-.9.7-1.5 1-3 1.3-4.4 1-.3-.1-.6-.3-1-.6-.3-.4-.5-.7-.6-1l-.2-.2c-.1-.1-.2-.6-.1-1.5 0-.9.1-1.6.2-2 .1-.4.3-.9.5-1.6.3-.7.4-1.2.5-1.4l.8-1.7-1.2-.3c-.2-.4-.3-.5-.4-.6zm14.9 8.3s.1 0 0 0c.1 0 .1-.1.2-.1v-.1l.5-.5c.2-.2.4-.3.5-.3.1 0 .2 0 .3.1l.2.2c.3 0 .3.3-.1.8s-.9 1-1.5 1.4c-.6.6-1.4.8-2.3.6-.9-.1-1.6-.6-2.1-1.3-.6-.8-.9-2-.7-3.7.1-1.1.6-2.3 1.4-3.4.9-1.2 1.8-2 2.8-2.3.3-.2.5-.3.8-.3.2 0 .6 0 1.2.1s1 .3 1.3.7c.5.5.8 1.1.8 1.7-.1.5-.4 1-.9 1.7-.5.6-1.2 1.1-1.9 1.5-1.1.3-2 .3-2.7-.2-.4-.1-.6-.1-.7.1-.1.2-.2.7-.3 1.5-.2 1.4.2 2.1 1 2.3.1 0 .2 0 .4.1.2 0 .3 0 .3.1h.6c.2 0 .3-.1.5-.2s.3-.2.3-.2c-.1-.2 0-.2.1-.3zm0-4.8c.3-.1.7-.4 1-.8s.5-.7.5-.9-.1-.5-.4-.7c-.3-.2-.6-.2-1-.1s-.8.3-1.2.7c-.4.4-.7.7-1 1.1-.3.4-.4.6-.3.6.1.2.4.2 1 .3.6 0 1.1-.1 1.4-.2zm4.6 7.6l.2-1.1c.1-.5.5-1.8 1.2-3.8.7-2 1.3-3.7 1.7-4.9.4-1 .6-1.8.6-2.4 0-.1.1-.3.3-.5.2-.2.6-.2 1 .1.1 0 .1.1.3.3.1.2.2.3.2.4v.9c0 .4-.2.9-.5 1.5 1.6-.7 2.9-.8 3.8-.3.9.5 1.3 1.3 1.3 2.6 0 .4-.1.8-.3 1.3-.2.5-.4.9-.6 1-.1 0-.3.2-.5.6-.3.3-.7.7-1.3 1-.6.4-1 .5-1.3.4-.1 0-.2.1-.1.2 0 .1-.4.3-1.1.5-.8.2-1.3.3-1.7.3-.4 0-.6-.1-.8-.2-.1.1-.2.3-.2.5s-.1.5-.3 1.1c-.2.6-.4.9-.5.9-.1.1-.1.2 0 .3 0 .4-.1.7-.2.9 0 .5-.1 1-.3 1.4 0 .2 0 .5-.1.7-.1.2-.1.3-.2.3s-.2.3-.2.8-.1.9-.3 1.2c-.2.3-.4.4-.6.4h-.3c-.4-.1-.6-.7-.3-1.8.2-.8.3-1.4.3-1.7l.1-1c.2-.4.3-.8.3-1.4.1-.1.2-.3.4-.5zm8-8.2c-.3-.4-.8-.4-1.6-.2-1.3.5-2.3 1.4-2.9 2.7-.6 1.3-.7 2-.4 2.1.3 0 .9-.2 1.8-.5s1.6-.7 2.1-1.1c.5-.4.8-.9 1-1.4.3-.4.3-1 0-1.6zm12.4-6.5h-.1c-.1-.1-.5 0-1.2.1-.6.1-1 .2-1 .3 0 .1-.2.2-.6.3-.4.1-.7.2-.8.2-.1 0-.3-.2-.5-.5s-.3-.6-.2-.7c.1-.2.7-.5 1.9-1.1.4-.1 1-.2 1.9-.2.9-.1 1.5-.1 2 0 1.8.2 2.8.9 3.1 2.2.1.4.1.8 0 1-.1.2-.5.6-1 1.1-1.4.9-2.2 1.4-2.5 1.6-.2.1-.5.3-.7.5-.7.4-1 .7-1 .7.3.2.5.4.8.5 1 .4 1.9 1.1 2.6 2 .9 2 .3 3.6-1.9 4.8-1.2.7-2.5 1.1-4 1.2-.8 0-1.5-.1-2.1-.4-.6-.2-.9-.5-.9-.9 0-.3.1-.5.2-.5.1-.1.4 0 .8 0 1 .2 2.1.1 3.3-.2 1.2-.3 2.1-.8 2.7-1.4.6-.6.8-1.1.8-1.6-.1-.9-1-1.6-2.7-2.1-.8-.2-1.3-.3-1.7-.3-.4 0-.7 0-1.1-.2-.2-.2-.4-.5-.5-.8 0-.1.1-.3.4-.5.3-.2 1.3-.8 3.1-1.8s2.9-1.7 3.4-2.1c.4-.5.6-.8.5-.9 0-.1-.3-.3-.8-.4-1.5-.1-2.2-.1-2.2.1zm22.9 7.5c-1.5 0-2.4.1-3.2.2v-3.3c.8.2 1.7.2 3.2.2H606c1.5 0 2.3 0 3.2-.2v3.3c-.9-.1-1.8-.2-3.2-.2h-5.5v6.8c0 .7.4.8 2.9.8 2.2 0 2.9-.2 3.1-.8.2-.4.3-1.5.3-2.5v-.5c1.3.6 1.8.7 3.1.9-.1 3-.5 4.3-1.4 5.1-.8.7-2.1.9-5.9.9-4.5 0-5.4-.4-5.4-2.6v-8.1h-3.3c-.2 2.8-.6 4-1.5 5.7-1.5 2.6-3.4 3.9-8.2 5.8-.5-1.1-1-2.1-1.8-3.1 2.5-.7 3.4-1.1 4.6-1.7 1.9-1.1 3.2-2.8 3.5-5 .1-.5.1-.8.2-1.6h-4.3zm7.8-14.1c0-.9-.1-1.6-.2-2.2h3.7c-.1.6-.2 1.3-.2 2.2v.7h8.3c1.5 0 2.3 0 3.3-.1-.1.7-.1 1.2-.1 2.3v2.5c0 1 0 1.6.1 2.3H606v-4h-19.5v4h-3.3c.1-.7.2-1.3.2-2.3v-2.4c0-1 0-1.6-.1-2.3 1 .1 1.8.1 3.3.1h7.7v-.8zm-6.7 5.8c.8.1 1.5.1 2.8.1h11.8c1.3 0 2 0 2.9-.1v3.2c-.8-.1-1.6-.2-2.9-.2h-11.8c-1.3 0-2 0-2.8.2v-3.2zm33.8-3.4c-1.6 0-2.8.1-4.1.2v-3.6c1.1.1 2.3.2 4.1.2h15.3c1.6 0 2.6-.1 3.3-.2l2 2.3c-.6.6-.7.7-1.2 1.1-3.3 3.3-5.6 5-9.5 7.4v12.2c0 2.2-1.1 2.9-4.4 2.9-1.1 0-1.5 0-4.2-.2-.2-1.4-.4-2.2-.9-3.5 2 .3 3.4.4 4.7.4 1 0 1.4-.2 1.4-.7V54.6c0-1.2-.1-2.2-.2-3h2.7c2.4-1.3 3.9-2.4 6.1-4.4h-15.1z" fill="#747373"/></svg>