<svg xmlns="http://www.w3.org/2000/svg" width="714.6" height="45.3" overflow="inherit"><path fill="#f0f1f1" d="M1 0h713.6v45H1z"/><path d="M236.7 45H0V1h236.7l18.8 22z"/><path fill="none" stroke="#fff" stroke-miterlimit="10" d="M474.4 1l18.8 22-18.8 22"/><path d="M79.5 16.3c.5 0 .8.2 1.2.4.3.3.5.6.6 1 .1.4 0 .9-.3 1.5-.5.8-1 1.3-1.7 1.5H79c-.2-.2 0-.7.6-1.4.8-1.2 1-1.8.5-1.9-.1 0-.5 0-1 .1s-.8.2-.8.2l-.1.1s-.5.2-1.3.8c-.8.5-1.3.8-1.3.9 0 .1-.2.3-.4.4-.4.2-.8.8-1.3 1.7-.2.3-.3.6-.4.9-.1.3-.1.6 0 .8.1.2.2.5.6.7.3.3.7.6 1.2.9 1.3.7 2.1 1.3 2.3 1.8.4.6.5 1.2.4 1.7-.1.2-.2.4-.4.6-.2.2-.4.3-.5.3-.1 0-.2.1-.3.1-.1.1-.2.1-.3.2-.1 0-.4.1-.9.2s-1 .1-1.4 0l-.7-.2v-.2s-.1-.1-.3-.1c-.5-.3-.9-.8-1.1-1.3-.1-.2-.1-.3-.1-.3l.2-.2c.1-.1.2-.1.3-.1.1 0 .1.1.2.4.2.4.7.7 1.4.8.7.1 1.4 0 2-.3.4-.2.7-.4.8-.6.1-.2.1-.5-.1-.8 0-.1-.1-.2-.2-.3-.2-.2-.4-.4-.7-.6-.3-.1-.6-.3-.9-.4-.4-.2-.7-.4-1.2-.8l-.9-.9c-.3-.3-.5-.7-.5-1.2-.1-.6 0-1.1.2-1.5.1-.3.5-.8 1-1.4.5-.6.9-1 1.1-1.1l.6-.5s.1 0 .2-.1c.3-.1.6-.3.9-.6 1.4-.8 2.5-1.2 3.1-1.2zm1.8 5.9c-.1-.1-.1-.1-.1-.2s.1-.2.2-.3c.1-.1.2-.2.3-.2h.5c.3 0 .5 0 .6-.1.1 0 .2-.1.2-.2.1-.3.3-.6.4-1 .4-.7.6-1.1.9-1.3.2-.2.5-.1.8.1.1.1.1.2.2.3 0 0 0 .1-.1.3-.1.2-.2.4-.4.7-.2.3-.3.5-.3.6-.2.3-.2.4-.1.5.1 0 .5 0 1.1-.1.6-.1.9.1.9.5 0 .3 0 .5-.1.5-.1.1-.4.1-.8.1-.4.1-.7.1-1.1.1h-.6c-.1 0-.3.2-.3.3 0 0-.1.1-.1.2-.1.1-.2.4-.4.8-.3 1-.5 1.8-.6 2.4-.1.7-.1 1-.1 1.2.1.1.3.2.6.2.6.1 1.3-.1 2-.5l.5-.3c.1-.2.2-.1.4.2v.3c0 .1-.1.2-.2.3-.1.1-.3.3-.5.4-.9.6-1.8.8-2.6.6-.2 0-.4-.2-.6-.4s-.3-.4-.4-.6l-.1-.1c-.4-.1-.4-.4-.4-.9s.1-1 .1-1.2c.1-.2.2-.6.3-1 .2-.4.3-.7.3-.8l.5-1-.7-.2-.2-.2zm9 5l.1-.1.3-.3c.1-.1.2-.2.3-.2s.1 0 .2.1l.1.1c.2 0 .2.2-.1.5s-.5.6-.9.8c-.4.3-.8.5-1.4.4-.5-.1-.9-.3-1.3-.8s-.5-1.2-.4-2.2c0-.7.3-1.4.9-2.1.5-.7 1.1-1.2 1.7-1.4.2-.1.3-.2.5-.2.1 0 .4 0 .7.1.3 0 .6.2.8.4.3.3.5.6.5 1 0 .3-.2.6-.6 1-.3.4-.7.7-1.2.9-.7.2-1.2.2-1.6-.1-.2-.1-.4-.1-.4.1-.1.1-.1.4-.2.9-.1.8.1 1.3.6 1.4h.8c.1 0 .2-.1.3-.1.1-.1.2-.1.2-.1s0-.1.1-.1zm0-2.9c.2-.1.4-.2.6-.5.2-.2.3-.4.3-.6 0-.2-.1-.3-.3-.4-.2-.1-.4-.1-.6-.1-.2.1-.5.2-.7.4l-.6.6c-.2.2-.2.3-.2.4 0 .1.2.2.6.2.4.1.7.1.9 0zm2.8 4.6l.1-.6c.1-.3.3-1.1.7-2.3.4-1.2.8-2.2 1-2.9.3-.6.4-1.1.4-1.4 0-.1.1-.2.2-.3.1-.1.3-.1.6.1l.2.2c.1.1.1.2.1.3v.5c0 .3-.1.6-.3.9 1-.4 1.7-.5 2.3-.2.5.3.8.8.8 1.5 0 .2-.1.5-.2.8-.1.3-.2.5-.4.6-.1 0-.2.1-.3.4-.2.2-.4.4-.8.6-.4.2-.6.3-.8.2-.1 0-.1 0-.1.1s-.2.2-.7.3c-.5.1-.8.2-1 .2-.2 0-.4 0-.5-.1-.1.1-.1.2-.1.3 0 .1-.1.3-.2.7-.1.3-.2.5-.3.5-.1.1-.1.1 0 .2 0 .3 0 .4-.1.6 0 .3-.1.6-.2.9 0 .1 0 .3-.1.4 0 .1-.1.2-.1.2-.1 0-.1.2-.1.5s-.1.6-.2.7-.2.3-.4.3h-.2c-.3-.1-.3-.4-.2-1.1.1-.5.2-.9.2-1l.1-.6c.1-.2.2-.5.2-.8.1-.5.2-.6.4-.7zm4.7-4.9c-.2-.2-.5-.3-.9-.1-.8.3-1.4.8-1.8 1.6-.4.8-.4 1.2-.2 1.3.2 0 .5-.1 1.1-.3.5-.2 1-.4 1.2-.6.3-.2.5-.5.6-.8.2-.4.2-.8 0-1.1zm7.8-4.4c1-.6 1.5-.9 1.6-.9s.2.1.3.2c.1.1.2.2.2.3.1.1 0 .3-.1.5s-.3.8-.6 1.6-.5 1.5-.6 1.9c-.1.4-.2.8-.4 1.2s-.3.7-.3 1.1c-.2.6-.5 1.3-.7 2.3 0 .1-.1.3-.2.5-.1.4-.2.6-.3.6-.1.1-.3 0-.6-.3-.1-.1-.1-.2-.1-.3 0-.2.2-1.1.6-2.6.1 0 .3-.5.5-1.4.3-.9.5-1.7.7-2.4l.4-1.4c-.6.3-1.3.8-1.9 1.3-.7.5-1.1.8-1.2.9-.3.3-.5.4-.6.4h-.3c-.3-.3-.4-.6-.3-.8 0 0 .3-.2.7-.5.4-.3.6-.4.7-.5 0 0 .1 0 .1-.1l.2-.2.2-.2.3-.3c.2-.1.4-.3.7-.5.5 0 .8-.2 1-.4zm19.1-2.4c-.5 0-1 0-1.7.1v-2.2c.5.1.9.1 1.7.1h2.9c.7 0 1.2 0 1.6-.1-.1.5-.1.7-.1 1.1 0 2.6.6 4.9 1.9 7.1.8 1.3 1.6 2.3 2.9 3.5.9.8 1.4 1.2 2.7 1.9-.7.7-1 1.1-1.5 2-1.8-1.3-3.2-2.6-4.4-4.2-.7-.9-1.1-1.6-1.6-2.7-.5-1-.6-1.4-.9-2.6-.6 2.3-1.4 3.8-2.6 5.4-1.2 1.5-2.5 2.8-4.5 4.1-.4-.8-.8-1.3-1.5-1.9 1.5-.9 2.4-1.6 3.6-2.8 1.4-1.5 2.5-3.4 3.1-5.3.4-1.2.5-2.2.6-3.6h-2.2zm28.4.8c1.1 0 1.7 0 2.3-.1-.1.7-.1.7-.1 2.7-.1 2.5-.2 5.5-.4 6.7-.2 1.7-.5 2.3-1 2.7-.5.3-1.1.5-2.1.5-.8 0-1.6-.1-2.8-.2-.1-.9-.2-1.4-.5-2.2 1.2.2 2.2.4 3.1.4.8 0 1.1-.3 1.3-1.5.2-1.4.4-4.1.4-7h-4.9c-.3 2.7-.8 4.5-1.6 6-1 1.9-2.7 3.4-5.2 4.8-.4-.8-.9-1.3-1.5-1.9 2.5-1.1 4.1-2.5 5.1-4.5.6-1.1.9-2.5 1.1-4.4h-3.1c-.9 0-1.6 0-2.2.1v-2.2c.6.1 1.3.1 2.3.1h3.2v-1.8c0-.9 0-1.4-.1-1.7h2.4c-.1.5-.1.5-.2 3.6h4.5z" fill="#fff"/><path d="M298.5 16.3c.5 0 .8.2 1.2.4.3.3.5.6.6 1 .1.4 0 .9-.3 1.5-.5.8-1 1.3-1.7 1.5h-.3c-.2-.2 0-.7.6-1.4.8-1.2 1-1.8.5-1.9-.1 0-.5 0-1 .1s-.8.2-.8.2l-.1.1s-.5.2-1.3.8c-.8.5-1.3.8-1.3.9 0 .1-.2.3-.4.4-.4.2-.8.8-1.3 1.7-.2.3-.3.6-.4.9-.1.3-.1.6 0 .8.1.2.2.5.6.7.3.3.7.6 1.2.9 1.3.7 2.1 1.3 2.3 1.8.4.6.5 1.2.4 1.7-.1.2-.2.4-.4.6-.2.2-.4.3-.5.3-.1 0-.2.1-.3.1-.1.1-.2.1-.3.2-.1 0-.4.1-.9.2s-1 .1-1.4 0l-.7-.2v-.2s-.1-.1-.3-.1c-.5-.3-.9-.8-1.1-1.3-.1-.2-.1-.3-.1-.3l.2-.2c.1-.1.2-.1.3-.1.1 0 .1.1.2.4.2.4.7.7 1.4.8.7.1 1.4 0 2-.3.4-.2.7-.4.8-.6s.1-.5-.1-.8c0-.1-.1-.2-.2-.3-.2-.2-.4-.4-.7-.6-.3-.1-.6-.3-.9-.4-.4-.2-.7-.4-1.2-.8s-.7-.7-.9-.9c-.3-.3-.5-.7-.5-1.2-.1-.6 0-1.1.2-1.5.1-.3.5-.8 1-1.4.5-.6.9-1 1.1-1.1l.6-.5s.1 0 .2-.1c.3-.1.6-.3.9-.6 1.4-.8 2.5-1.2 3.1-1.2zm1.8 5.9c-.1-.1-.1-.1-.1-.2s.1-.2.2-.3.2-.2.3-.2h.5c.3 0 .5 0 .6-.1.1 0 .2-.1.2-.2.1-.3.3-.6.4-1 .4-.7.6-1.1.9-1.3.2-.2.5-.1.8.1.1.1.1.2.2.3s0 .1-.1.3-.2.4-.4.7c-.2.3-.3.5-.3.6-.2.3-.2.4-.1.5.1 0 .5 0 1.1-.1.6-.1.9.1.9.5 0 .3 0 .5-.1.5-.1.1-.4.1-.8.1-.4.1-.7.1-1.1.1h-.6c-.1 0-.3.2-.3.3 0 0-.1.1-.1.2-.1.1-.2.4-.4.8-.3 1-.5 1.8-.6 2.4-.1.7-.1 1-.1 1.2.1.1.3.2.6.2.6.1 1.3-.1 2-.5l.5-.3c.1-.2.2-.1.4.2v.3c0 .1-.1.2-.2.3-.1.1-.3.3-.5.4-.9.6-1.8.8-2.6.6-.2 0-.4-.2-.6-.4s-.3-.4-.4-.6l-.1-.1c-.1-.1-.1-.4-.1-.9 0-.6.1-1 .1-1.2.1-.2.2-.6.3-1 .2-.4.3-.7.3-.8l.5-1-.7-.2c-.4-.1-.4-.1-.5-.2zm9 5l.1-.1.3-.3c.1-.1.2-.2.3-.2.1 0 .1 0 .2.1l.1.1c.2 0 .2.2-.1.5-.2.3-.5.6-.9.8-.4.3-.8.5-1.4.4-.5-.1-.9-.3-1.3-.8s-.5-1.2-.4-2.2c0-.7.3-1.4.9-2.1.5-.7 1.1-1.2 1.7-1.4.2-.1.3-.2.5-.2.1 0 .4 0 .7.1.3 0 .6.2.8.4.3.3.5.6.5 1 0 .3-.2.6-.6 1-.3.4-.7.7-1.2.9-.7.2-1.2.2-1.6-.1-.2-.1-.4-.1-.4.1-.1.1-.1.4-.2.9-.1.8.1 1.3.6 1.4h.8c.1 0 .2-.1.3-.1.1-.1.2-.1.2-.1s0-.1.1-.1zm0-2.9c.2-.1.4-.2.6-.5.2-.2.3-.4.3-.6s-.1-.3-.3-.4c-.2-.1-.4-.1-.6-.1-.2.1-.5.2-.7.4l-.6.6c-.2.2-.2.3-.2.4 0 .1.2.2.6.2s.7.1.9 0zm2.8 4.6l.1-.6c.1-.3.3-1.1.7-2.3.4-1.2.8-2.2 1-2.9.3-.6.4-1.1.4-1.4 0-.1.1-.2.2-.3.1-.1.3-.1.6.1l.2.2c.1.1.1.2.1.3v.5c0 .3-.1.6-.3.9 1-.4 1.7-.5 2.3-.2s.8.8.8 1.5c0 .2-.1.5-.2.8-.1.3-.2.5-.4.6-.1 0-.2.1-.3.4-.2.2-.4.4-.8.6-.4.2-.6.3-.8.2-.1 0-.1 0-.1.1s-.2.2-.7.3c-.5.1-.8.2-1 .2s-.4 0-.5-.1c-.1.1-.1.2-.1.3 0 .1-.1.3-.2.7-.1.3-.2.5-.3.5-.1.1-.1.1 0 .2 0 .3 0 .4-.1.6 0 .3-.1.6-.2.9 0 .1 0 .3-.1.4 0 .1-.1.2-.1.2-.1 0-.1.2-.1.5s-.1.6-.2.7-.2.3-.4.3h-.2c-.3-.1-.3-.4-.2-1.1.1-.5.2-.9.2-1l.1-.6c.1-.2.2-.5.2-.8.1-.5.2-.6.4-.7zm4.7-4.9c-.2-.2-.5-.3-.9-.1-.8.3-1.4.8-1.8 1.6-.4.8-.4 1.2-.2 1.3.2 0 .5-.1 1.1-.3.5-.2 1-.4 1.2-.6s.5-.5.6-.8c.2-.4.2-.8 0-1.1zm7.8-4.7l.5.1c.1 0 .3.1.6.3.2.2.4.5.5.7.3.5.2 1.2-.4 2.1-.1.2-.5.6-1.1 1.2-.6.7-1 1-1.1 1.1-.2.1-.6.5-1.1 1.1-.5.6-.7.9-.7.9v.1s.2 0 .4-.1.7-.2 1.5-.3c.7-.1 1.1-.1 1.2-.1h.1c0-.1.2-.1.4-.1.3 0 .5.1.8.2.3.1.4.2.4.2 0 .1.1.2.2.3.3.2.2.4-.2.3-.2 0-.4 0-.7-.1h-.6c-.1 0-.4 0-.9.1-.3 0-.7 0-1.2.2-.4.2-.9.3-1.5.5s-.9.2-1 .2c-.1 0-.2-.1-.4-.3-.2-.1-.3-.2-.3-.3v-.4c0-.2.1-.2.1-.2l.3-.3c.2-.2.2-.4.3-.4 0 0 .1-.1.3-.2l.3-.3.5-.5c1.2-1.2 1.9-1.9 1.9-2.1.1-.1.2-.2.3-.2.1-.1.3-.2.4-.4 0-.2.2-.5.6-.8.2-.3.3-.6.4-.8s.1-.3 0-.4c0 0-.2-.1-.5-.2-.7-.2-1.4-.1-2.1.4-.1 0-.2.1-.3.1-.3.1-.4.1-.5.1 0 0-.1 0-.1-.1 0 0-.1-.1-.1-.2-.1-.1-.1-.1-.1-.2l-.2-.4.6-.3c1-.4 1.8-.7 2.5-.5zm27.9 5.5c-.4.5-.8 1-1.2 1.7-1.9-1.2-3.4-2.9-4.3-4.6-.3.7-.5 1.2-.9 1.7-.8 1.3-1.8 2.2-3.4 3.2-.3-.5-.6-1-1.2-1.5v3.5c0 1.1 0 1.7.1 2.1h-2.2c.1-.6.1-1.3.1-2.2V18.5c0-.7 0-1.2-.1-1.7.6.1 1.2.1 2.1.1h4.4v-1c0-.7 0-1.1-.1-1.6h2.3c-.1.3-.1.5-.1.9 0 .3 0 .3-.1 1v.7h4.6c1 0 1.4 0 2.1-.1-.1.5-.1 1-.1 1.7v10.3c0 .8-.1 1-.3 1.3-.4.5-1 .6-2.7.6-.5 0-1 0-1.7-.1-.1-.9-.3-1.4-.6-2.1.9.1 1.6.2 2.3.2.9 0 1-.1 1-.6v-3.3zm-11 .3c1.5-.9 2.3-1.6 3-2.7.6-1 1-2.2 1.3-3.7h-4.3v6.4zm6.2-6.4c-.1.5-.1.5-.1.9.5 1.1 1.2 2.2 2 3 .8.8 1.6 1.4 2.8 2.1v-6h-4.7zm14.5 7.2c-.6.4-1 .5-1.9 1-.3-.8-.5-1.1-.9-1.8 1.6-.6 2.9-1.3 4.1-2.1.8-.5 1.6-1.2 2.4-1.9.4-.4.6-.6.9-1.1h1.8c.7 1.1 2 2.2 3.6 3.2 1.2.7 2.5 1.3 3.9 1.8-.5.7-.6.9-.9 1.9-.8-.4-1-.5-2.1-1v3.4c0 .8 0 1.2.1 1.8h-2v-.8h-7.1v.8h-2c.1-.6.1-1.1.1-1.8v-3.4zm4.3-10.4c0-.5 0-.7-.1-1.1h2.2c-.1.4-.1.7-.1 1.1v.2h5c.7 0 1.3 0 2-.1-.1.4-.1.8-.1 1.3v1.3c0 .5 0 .9.1 1.4h-1.9v-2.1h-11.7v2.1h-2c.1-.5.1-.8.1-1.4V17c0-.5 0-.9-.1-1.3.6.1 1.3.1 2 .1h4.6v-.3zm-.1 3.2c-.9 1.1-1.4 1.6-2.5 2.4-.9.7-1.4 1-2.6 1.6-.4-.6-.7-1-1.3-1.5 1.1-.5 1.6-.7 2.4-1.2 1-.6 1.5-1.1 2.4-2.2l1.6.9zm-2.3 9.8h7.1v-2.3h-7.1v2.3zm6.6-4.1c-1.4-1-2-1.6-3-2.8-.9 1.1-2 2-3.1 2.8h6.1zm-.4-6.7c1.8 1.8 2.8 2.4 5.1 3.2-.4.6-.6.8-1 1.7-2.5-1.1-3.5-1.8-5.6-3.9l1.5-1zm15.5 10.7c0 .7 0 1 .1 1.4h-1.7V29h-1.3v1.7h-1.8c.1-.5.1-1.1.1-1.9v-3.7c0-.4 0-.9.1-1.4-.4.8-.5 1.1-1 1.6-.2-1-.3-1.5-.7-2.2.9-1 1.5-2.2 2-3.8.3-.9.4-1.5.6-2.6h-.4c-.7 0-1 0-1.5.1v-1.9c.5.1 1 .1 1.7.1h2.1c.7 0 1.2 0 1.7-.1v1.9c-.4-.1-.6-.1-1.1-.1h-.7c-.3 1.5-.5 2.4-1.1 4h1.8c.5 0 .8 0 1.1-.1 0 .4-.1.8-.1 1.3v.4c1.4-1.3 2.3-2.6 3.2-4.7h-.9v1.8h-1.8c.1-.4.1-.8.1-1.2v-1.5c0-.3 0-.4-.1-.9.4.1.5.1 1.3.1h2.1c.2-.8.3-1.2.4-1.8l2 .3c0 .1-.2.6-.5 1.5h3.3c.6 0 1.1 0 1.6-.1 0 .3-.1.7-.1 1.3v1c0 .5 0 .8.1 1.2h-1.9v-1.7H391c-.4.9-.7 1.5-1.3 2.5h1.7c.3-.6.5-1.2.7-2l1.8.4c-.3.7-.4 1.1-.7 1.6h1.3c.8 0 1.1 0 1.5-.1v1.7c-.5-.1-.9-.1-1.4-.1H393v1.3h1.3c.8 0 1.1 0 1.5-.1v1.6c-.5-.1-.9-.1-1.5-.1H393v1.3h1.3c.8 0 1.1 0 1.5-.1v1.6c-.5-.1-.9-.1-1.5-.1H393v1.3h1.8c.8 0 1.2 0 1.7-.1V30c-.6-.1-1.1-.1-1.7-.1h-5.6v.8h-1.9c.1-.6.1-1.1.1-2V23c-.2.4-.5.6-.8 1-.2-.4-.3-.7-.7-1.2v5.6zm-2.9-1.1h1.3v-4.8h-1.3v4.8zm8.3-4.2v-1.3H389v1.3h2.2zm-2.1 2.8h2.2v-1.3h-2.2v1.3zm0 2.8h2.2v-1.3h-2.2v1.3zm11.7-11.2c.4.1.8.1 1.4.1h3.5c.8 0 1.1 0 1.4-.1v1.8c-.4 0-.7-.1-1.4-.1h-3.5c-.6 0-1 0-1.4.1v-1.8zm.6-2.6c.5.1.7.1 1.5.1h2.4c.7 0 1 0 1.5-.1v1.8c-.5-.1-.8-.1-1.5-.1h-2.4c-.6 0-1 0-1.5.1v-1.8zm5.2 14.5c0 .7 0 1 .1 1.4H405v-.6h-1.8v.9h-1.8c.1-.6.1-1.2.1-1.8v-2.7c0-.6 0-.9-.1-1.4.4.1.8.1 1.4.1h2.6c.6 0 1 0 1.2-.1 0 .3-.1.6-.1 1.3v2.3c.7-1.3.9-2.2 1.1-4.2l1.5.3c-.3 2.3-.5 3.1-1.2 4.9l-1.5-.9v.5zm-5.1-9.2c.3 0 .6.1 1.1.1h3c.6 0 .8 0 1.1-.1v1.7c-.4 0-.6-.1-1.1-.1h-3c-.5 0-.8 0-1.1.1v-1.7zm0 2.5c.3 0 .6.1 1.1.1h3c.6 0 .8 0 1.1-.1v1.7c-.3 0-.6-.1-1.1-.1h-3c-.5 0-.7 0-1.1.1v-1.7zm1.7 5.9h1.8v-1.8h-1.8v1.8zm5-11c1 .3 1.4.5 2.1.7.2-.5.2-.8.3-1.5h-1.2c-1 0-1.4 0-1.9.1V15c.5.1 1.2.1 2 .1h5.7c.7 0 1.3 0 1.7-.1 0 .3 0 .3-.1 1.6-.1 1.8-.3 3.7-.5 4.5-.3 1.4-.8 1.8-2.3 1.8-.5 0-.9 0-1.4-.1-.1-.8-.2-1.1-.4-1.8h.1c-.4-.3-.6-.4-1-.6-.9 1.4-1.7 2.2-3.3 3.1-.4-.6-.7-.9-1.3-1.4 1.5-.7 2.3-1.4 3-2.5-.8-.3-1.1-.5-2.1-.8l.6-1.2zm3.2 11c0 .4.1.5.8.5 1 0 1.3-.1 1.4-.3.1-.2.2-1 .2-2 .6.3 1 .4 1.7.6-.2 3.1-.5 3.4-3.1 3.4-2.2 0-2.7-.2-2.7-1.3v-3.7c0-.5 0-.9-.1-1.3h1.9c-.1.4-.1.6-.1 1.2v2.9zm.1-6.4c1.7 1.3 1.7 1.3 2.8 2.5l-1.4 1.2c-.8-1.1-1.5-1.8-2.7-2.7l1.3-1zm.9-5.3c-.1 1-.2 1.4-.5 2.2.5.3.8.4 1.5.8l-.8 1.3c.3.1.7.1 1 .1.6 0 .7-.1.9-.8.2-.7.3-1.7.4-3.6h-2.5zm3.5 7.6c.8 1.4 1.3 2.4 2 4.2l-1.5.9c-.6-2-.9-2.8-1.9-4.4l1.4-.7zm142.5-8.2c.5 0 .8.2 1.2.4.3.3.5.6.6 1 .1.4 0 .9-.3 1.5-.5.8-1 1.3-1.7 1.5h-.3c-.2-.2 0-.7.6-1.4.8-1.2 1-1.8.5-1.9-.1 0-.5 0-1 .1s-.8.2-.8.2l-.1.1s-.5.2-1.3.8c-.8.5-1.3.8-1.3.9 0 .1-.2.3-.4.4-.4.2-.8.8-1.3 1.7-.2.3-.3.6-.4.9-.1.3-.1.6 0 .8.1.2.2.5.6.7.3.3.7.6 1.2.9 1.3.7 2.1 1.3 2.3 1.8.4.6.5 1.2.4 1.7-.1.2-.2.4-.4.6s-.4.3-.5.3c-.1 0-.2.1-.3.1-.1.1-.2.1-.3.2s-.4.1-.9.2-1 .1-1.4 0l-.7-.2v-.2s-.1-.1-.3-.1c-.5-.3-.9-.8-1.1-1.3-.1-.2-.1-.3-.1-.3l.2-.2c.1-.1.2-.1.3-.1.1 0 .1.1.2.4.2.4.7.7 1.4.8.7.1 1.4 0 2-.3.4-.2.7-.4.8-.6.1-.2.1-.5-.1-.8 0-.1-.1-.2-.2-.3-.2-.2-.4-.4-.7-.6-.3-.1-.6-.3-.9-.4-.4-.2-.7-.4-1.2-.8l-.9-.9c-.3-.3-.5-.7-.5-1.2-.1-.6 0-1.1.2-1.5.1-.3.5-.8 1-1.4.5-.6.9-1 1.1-1.1l.6-.5s.1 0 .2-.1c.3-.1.6-.3.9-.6 1.4-.8 2.5-1.2 3.1-1.2zm1.8 5.9c-.1-.1-.1-.1-.1-.2s0-.2.2-.3c.1-.1.2-.2.3-.2h.5c.3 0 .5 0 .6-.1s.2-.1.2-.2c.1-.3.3-.6.4-1 .4-.7.6-1.1.9-1.3.2-.2.5-.1.8.1.1.1.1.2.2.3 0 0 0 .1-.1.3-.1.2-.2.4-.4.7-.2.3-.3.5-.3.6-.2.3-.2.4-.1.5.1 0 .5 0 1.1-.1s.9.1.9.5c0 .3 0 .5-.1.5-.1.1-.4.1-.8.1-.4.1-.7.1-1.1.1h-.6c-.1 0-.3.2-.3.3 0 0-.1.1-.1.2-.1.1-.2.4-.4.8-.3 1-.5 1.8-.6 2.4-.1.7-.1 1-.1 1.2s.3.2.6.2c.6.1 1.3-.1 2-.5l.5-.3c.1-.2.2-.1.4.2v.3c0 .1-.1.2-.2.3-.1.1-.3.3-.5.4-.9.6-1.8.8-2.6.6-.2 0-.4-.2-.6-.4s-.3-.4-.4-.6l-.1-.1c-.1-.1-.1-.4-.1-.9 0-.6.1-1 .1-1.2.1-.2.2-.6.3-1 .2-.4.2-.7.3-.8l.5-1-.7-.2c-.4-.1-.4-.1-.5-.2zm9 5l.1-.1.3-.3c.1-.1.2-.2.3-.2.1 0 .1 0 .2.1l.1.1c.2 0 .2.2-.1.5-.2.3-.5.6-.9.8-.4.3-.8.5-1.4.4s-.9-.3-1.3-.8-.5-1.2-.4-2.2c0-.7.3-1.4.9-2.1.5-.7 1.1-1.2 1.7-1.4.2-.1.3-.2.5-.2.1 0 .4 0 .7.1.3 0 .6.2.8.4.3.3.5.6.5 1 0 .3-.2.6-.6 1-.3.4-.7.7-1.2.9-.7.2-1.2.2-1.6-.1-.2-.1-.4-.1-.4.1-.1.1-.1.4-.2.9-.1.8.1 1.3.6 1.4h.8c.1 0 .2-.1.3-.1.1-.1.2-.1.2-.1s0-.1.1-.1zm0-2.9c.2-.1.4-.2.6-.5.2-.2.3-.4.3-.6 0-.2-.1-.3-.3-.4-.2-.1-.4-.1-.6-.1-.2.1-.5.2-.7.4l-.6.6c-.2.2-.2.3-.2.4 0 .1.2.2.6.2.4.1.7.1.9 0zm2.8 4.6l.1-.6c.1-.3.3-1.1.7-2.3s.8-2.2 1-2.9c.3-.6.4-1.1.4-1.4 0-.1.1-.2.2-.3.1-.1.3-.1.6.1l.2.2c.1.1.1.2.1.3v.5c0 .3-.1.6-.3.9 1-.4 1.7-.5 2.3-.2.5.3.8.8.8 1.5 0 .2-.1.5-.2.8-.1.3-.2.5-.4.6-.1 0-.2.1-.3.4-.2.2-.4.4-.8.6-.4.2-.6.3-.8.2-.1 0-.1 0-.1.1s-.2.2-.7.3c-.5.1-.8.2-1 .2-.2 0-.4 0-.5-.1-.1.1-.1.2-.1.3 0 .1-.1.3-.2.7-.1.3-.2.5-.3.5-.1.1-.1.1 0 .2 0 .3 0 .4-.1.6 0 .3-.1.6-.2.9 0 .1 0 .3-.1.4 0 .1-.1.2-.1.2-.1 0-.1.2-.1.5s-.1.6-.2.7-.2.3-.4.3h-.2c-.3-.1-.3-.4-.2-1.1.1-.5.2-.9.2-1l.1-.6c.1-.2.2-.5.2-.8.1-.5.2-.6.4-.7zm4.7-4.9c-.2-.2-.5-.3-.9-.1-.8.3-1.4.8-1.8 1.6-.4.8-.4 1.2-.2 1.3.2 0 .5-.1 1.1-.3.5-.2 1-.4 1.2-.6.3-.2.5-.5.6-.8.2-.4.2-.8 0-1.1zm7.4-3.9c-.2 0-.4 0-.8.1s-.6.1-.6.2c0 0-.1.1-.4.2-.2.1-.4.1-.5.1s-.2-.1-.3-.3-.2-.4-.1-.5c0-.1.4-.3 1.1-.7.2-.1.6-.1 1.1-.1h1.2c1.1.1 1.7.6 1.8 1.3.1.3.1.5 0 .6-.1.1-.3.3-.6.7-.9.5-1.3.9-1.5.9-.1.1-.3.2-.4.3-.4.3-.6.4-.6.4.2.1.3.2.5.3.6.2 1.1.6 1.6 1.2.5 1.2.2 2.1-1.1 2.9-.7.4-1.5.6-2.4.7-.5 0-.9-.1-1.3-.2s-.5-.3-.5-.5.1-.3.1-.3h.5c.6.1 1.2.1 2-.1.7-.2 1.2-.5 1.6-.8s.5-.7.5-1c0-.5-.6-1-1.6-1.2-.5-.1-.8-.2-1-.2-.2 0-.4 0-.7-.1-.1-.1-.2-.3-.3-.5 0-.1.1-.2.2-.3.2-.1.8-.5 1.9-1 1.1-.6 1.7-1 2.1-1.3.2-.3.3-.5.3-.6 0-.1-.2-.2-.5-.2-.8-.1-1.3-.1-1.3 0zm16.9 4.1c-.9 0-1.4 0-1.9.1v-2c.5.1 1 .1 1.9.1h11.8c.9 0 1.4 0 1.9-.1v2c-.5-.1-1.1-.1-1.9-.1h-3.3v4.1c0 .4.2.5 1.7.5 1.3 0 1.7-.1 1.9-.5.1-.2.2-.9.2-1.5v-.3c.8.3 1.1.4 1.9.6-.1 1.8-.3 2.6-.8 3-.5.4-1.3.5-3.6.5-2.7 0-3.2-.3-3.2-1.5v-4.9h-2c-.1 1.7-.3 2.4-.9 3.4-.9 1.5-2 2.3-4.9 3.5-.3-.7-.6-1.2-1.1-1.9 1.5-.5 2.1-.7 2.7-1 1.2-.6 1.9-1.7 2.1-3 .1-.3.1-.5.1-1H601zm4.7-8.5c0-.5 0-.9-.1-1.3h2.2c-.1.3-.1.8-.1 1.3v.4h5c.9 0 1.4 0 2-.1-.1.4-.1.7-.1 1.4v1.5c0 .6 0 1 .1 1.4h-1.9v-2.4h-11.7v2.4h-2c.1-.4.1-.8.1-1.4v-1.5c0-.6 0-1-.1-1.4.6.1 1.1.1 2 .1h4.6v-.4zm-4 3.5c.5.1.9.1 1.7.1h7.1c.8 0 1.2 0 1.7-.1v1.9c-.5-.1-.9-.1-1.7-.1h-7.1c-.8 0-1.2 0-1.7.1v-1.9zm20.3-2c-1 0-1.7 0-2.5.1v-2.1c.7.1 1.4.1 2.4.1h9.2c1 0 1.5 0 2-.1l1.2 1.4-.7.7c-2 2-3.4 3-5.7 4.4V29c0 1.3-.7 1.8-2.7 1.8-.7 0-.9 0-2.5-.1-.1-.8-.2-1.3-.5-2.1 1.2.2 2 .3 2.8.3.6 0 .8-.1.8-.4v-6.7c0-.7 0-1.3-.1-1.8h1.6c1.4-.8 2.4-1.4 3.6-2.6H622z" fill="#747373"/></svg>