<!-- Generator: Adobe Illustrator 22.1.0, SVG Export Plug-In  -->
<svg version="1.1"
xmlns="http://www.w3.org/2000/svg" xmlns:xlink="http://www.w3.org/1999/xlink" xmlns:a="http://ns.adobe.com/AdobeSVGViewerExtensions/3.0/"
x="0px" y="0px" width="689.9px" height="109.5px" viewBox="0 0 689.9 109.5" style="enable-background:new 0 0 689.9 109.5;"
xml:space="preserve">
<style type="text/css">
.st0{fill:#F0F1F1;}
.st1{fill:none;stroke:#FFFFFF;stroke-width:2;stroke-miterlimit:10;}
.st2{fill:#747373;}
.st3{fill:#FFFFFF;}
</style>
<defs>
</defs>
<g>
<rect y="0" class="st0" width="689.9" height="109.2"/>
</g>
<polygon points="688.7,0 562.4,0 451.1,0 468.8,53.9 451.1,107.8 562.4,107.8 688.7,107.8 "/>
<polyline class="st1" points="226.5,2.4 244.5,55.8 226.5,109.2 "/>
<g>
<g>
<path class="st2" d="M61.4,47.9c0.8,0,1.4,0.3,1.9,0.7s0.8,1,0.9,1.7c0.2,0.7,0,1.6-0.5,2.6c-0.8,1.4-1.7,2.2-2.8,2.4
c-0.2,0-0.3,0-0.4-0.1c-0.3-0.4,0-1.2,1-2.3c1.4-2,1.6-3.1,0.8-3.2c-0.2-0.1-0.8,0-1.7,0.2c-0.9,0.2-1.3,0.3-1.3,0.4l-0.1,0.2
c-0.1,0-0.8,0.4-2.2,1.3s-2.1,1.3-2.2,1.4c0,0.2-0.3,0.4-0.7,0.6c-0.6,0.4-1.3,1.3-2.2,2.8c-0.3,0.5-0.6,1-0.7,1.5
c-0.1,0.5-0.1,1,0,1.3c0.1,0.3,0.4,0.8,0.9,1.2c0.5,0.5,1.2,1,2,1.4c2.2,1.2,3.5,2.2,3.9,3.1c0.7,1,0.9,1.9,0.6,2.9
c-0.2,0.3-0.4,0.7-0.7,1c-0.3,0.3-0.6,0.5-0.9,0.5c-0.2,0-0.4,0.1-0.6,0.2c-0.2,0.1-0.3,0.2-0.5,0.3s-0.6,0.2-1.4,0.3
s-1.6,0.1-2.3,0.1l-1.2-0.4c0-0.1,0-0.2-0.1-0.3c-0.1-0.1-0.2-0.1-0.4-0.1c-0.9-0.6-1.5-1.3-1.8-2.1c-0.2-0.3-0.2-0.5-0.2-0.6
s0.1-0.2,0.4-0.3c0.2-0.1,0.4-0.2,0.5-0.1c0.1,0,0.2,0.2,0.4,0.6c0.4,0.7,1.2,1.1,2.3,1.3c1.2,0.2,2.3,0,3.4-0.5
c0.7-0.3,1.2-0.6,1.4-1c0.2-0.3,0.1-0.8-0.2-1.3c-0.1-0.2-0.2-0.4-0.3-0.5c-0.4-0.4-0.7-0.7-1.1-1.1c-0.4-0.2-1-0.4-1.5-0.7
s-1.2-0.7-2-1.3s-1.2-1.1-1.4-1.5c-0.5-0.4-0.8-1.1-0.9-2.1c-0.1-0.9,0-1.8,0.4-2.5c0.2-0.5,0.8-1.3,1.6-2.3
c0.8-1,1.4-1.6,1.9-1.9l1-0.9c0,0,0.1-0.1,0.3-0.2c0.5-0.2,1-0.5,1.4-0.9C58.6,48.5,60.4,47.9,61.4,47.9z"/>
<path class="st2" d="M64.4,57.7c-0.1-0.1-0.1-0.2-0.1-0.4s0.1-0.3,0.3-0.5c0.2-0.2,0.3-0.3,0.5-0.3c0.1,0,0.4,0,0.9,0
c0.5,0,0.8,0,0.9-0.1c0.2-0.1,0.3-0.2,0.3-0.3c0.2-0.5,0.4-1,0.7-1.6c0.6-1.2,1.1-1.9,1.4-2.2c0.4-0.3,0.8-0.2,1.3,0.2
c0.2,0.2,0.2,0.4,0.3,0.5c0,0.1-0.1,0.2-0.2,0.5c-0.1,0.3-0.3,0.6-0.6,1.1s-0.5,0.8-0.6,1c-0.3,0.5-0.4,0.7-0.1,0.8
c0.2,0,0.8,0,1.8-0.2s1.5,0.1,1.6,0.8c0.1,0.5,0,0.8-0.1,0.9c-0.2,0.1-0.6,0.2-1.4,0.2c-0.6,0.1-1.2,0.2-1.8,0.2s-0.9,0-1,0.1
c-0.2,0.1-0.4,0.3-0.6,0.6c-0.1,0-0.1,0.2-0.2,0.3c-0.1,0.2-0.4,0.7-0.7,1.4c-0.5,1.6-0.9,2.9-1.1,4s-0.2,1.7-0.1,1.9
c0.1,0.2,0.5,0.3,1.1,0.4c1,0.1,2.1-0.2,3.3-0.9l0.8-0.5c0.2-0.3,0.4-0.2,0.6,0.3c0,0.2,0,0.4,0,0.5s-0.1,0.3-0.3,0.5
c-0.2,0.2-0.5,0.4-0.9,0.7c-1.5,1-3,1.3-4.4,1c-0.3-0.1-0.6-0.3-1-0.6c-0.3-0.4-0.5-0.7-0.6-1L64,66.5c-0.1-0.1-0.2-0.6-0.1-1.5
c0-0.9,0.1-1.6,0.2-2c0.1-0.4,0.3-0.9,0.5-1.6c0.3-0.7,0.4-1.2,0.5-1.4l0.8-1.7l-1.2-0.3C64.6,57.9,64.5,57.8,64.4,57.7z"/>
<path class="st2" d="M79.3,66C79.4,66,79.4,66,79.3,66c0.1,0,0.1-0.1,0.2-0.1c0,0,0,0,0-0.1c0.1-0.1,0.3-0.3,0.5-0.5
c0.2-0.2,0.4-0.3,0.5-0.3c0.1,0,0.2,0,0.3,0.1c0.1,0.1,0.2,0.2,0.2,0.2c0.3,0,0.3,0.3-0.1,0.8c-0.4,0.5-0.9,1-1.5,1.4
c-0.6,0.6-1.4,0.8-2.3,0.6c-0.9-0.1-1.6-0.6-2.1-1.3c-0.6-0.8-0.9-2-0.7-3.7c0.1-1.1,0.6-2.3,1.4-3.4c0.9-1.2,1.8-2,2.8-2.3
c0.3-0.2,0.5-0.3,0.8-0.3c0.2,0,0.6,0,1.2,0.1c0.6,0.1,1,0.3,1.3,0.7c0.5,0.5,0.8,1.1,0.8,1.7c-0.1,0.5-0.4,1-0.9,1.7
c-0.5,0.6-1.2,1.1-1.9,1.5c-1.1,0.3-2,0.3-2.7-0.2c-0.4-0.1-0.6-0.1-0.7,0.1c-0.1,0.2-0.2,0.7-0.3,1.5c-0.2,1.4,0.2,2.1,1,2.3
c0.1,0,0.2,0,0.4,0.1c0.2,0,0.3,0,0.3,0.1c0,0,0.1,0,0.3,0s0.2,0,0.3,0c0.2,0,0.3-0.1,0.5-0.2c0.2-0.1,0.3-0.2,0.3-0.2
C79.2,66.1,79.3,66.1,79.3,66z M79.4,61.2c0.3-0.1,0.7-0.4,1-0.8c0.3-0.4,0.5-0.7,0.5-0.9c0-0.3-0.1-0.5-0.4-0.7s-0.6-0.2-1-0.1
c-0.4,0.1-0.8,0.3-1.2,0.7c-0.4,0.4-0.7,0.7-1,1.1c-0.3,0.4-0.4,0.6-0.3,0.6c0.1,0.2,0.4,0.2,1,0.3C78.6,61.4,79,61.3,79.4,61.2z"
/>
<path class="st2" d="M84,68.8l0.2-1.1c0.1-0.5,0.5-1.8,1.2-3.8c0.7-2,1.3-3.7,1.7-4.9c0.4-1,0.6-1.8,0.6-2.4
c0-0.1,0.1-0.3,0.3-0.5c0.2-0.2,0.6-0.2,1,0.1c0.1,0,0.1,0.1,0.3,0.3c0.1,0.2,0.2,0.3,0.2,0.4c0,0.1,0,0.4,0,0.9
c0,0.4-0.2,0.9-0.5,1.5c1.6-0.7,2.9-0.8,3.8-0.3c0.9,0.5,1.3,1.3,1.3,2.6c0,0.4-0.1,0.8-0.3,1.3c-0.2,0.5-0.4,0.9-0.6,1
c-0.1,0-0.3,0.2-0.5,0.6c-0.3,0.3-0.7,0.7-1.3,1c-0.6,0.4-1,0.5-1.3,0.4c-0.1,0-0.2,0.1-0.2,0.2c0,0.1-0.4,0.3-1.1,0.5
c-0.7,0.2-1.3,0.3-1.7,0.3c-0.4,0-0.6-0.1-0.8-0.2c-0.1,0.1-0.2,0.3-0.2,0.5c0,0.2-0.1,0.5-0.3,1.1c-0.2,0.6-0.4,0.9-0.5,0.9
c-0.1,0.1-0.1,0.2,0,0.3c0,0.4-0.1,0.7-0.2,0.9c0,0.5-0.1,1-0.3,1.4c0,0.2,0,0.5-0.1,0.7c-0.1,0.2-0.1,0.3-0.2,0.3
c-0.1,0-0.2,0.3-0.2,0.8c0,0.5-0.1,0.9-0.3,1.2c-0.2,0.3-0.4,0.4-0.6,0.4c0,0-0.1,0-0.1,0c-0.1,0-0.1,0-0.2,0
c-0.4-0.1-0.6-0.7-0.3-1.8c0.2-0.8,0.3-1.4,0.3-1.7l0.1-1c0.2-0.4,0.3-0.8,0.3-1.4C83.6,69.2,83.8,69,84,68.8z M91.9,60.6
c-0.3-0.4-0.8-0.4-1.6-0.2c-1.3,0.5-2.3,1.4-2.9,2.7c-0.6,1.3-0.7,2-0.4,2.1c0.3,0,0.9-0.2,1.8-0.5c0.9-0.3,1.6-0.7,2.1-1.1
c0.5-0.4,0.8-0.9,1-1.4C92.2,61.8,92.2,61.2,91.9,60.6z"/>
<path class="st2" d="M104.9,53.3c1.7-1,2.6-1.6,2.7-1.5c0.1,0,0.3,0.1,0.5,0.3c0.2,0.2,0.4,0.3,0.4,0.5c0.1,0.1,0.1,0.4-0.1,0.9
c-0.2,0.4-0.5,1.4-1,2.7s-0.8,2.4-1,3.1s-0.4,1.4-0.7,2c-0.2,0.7-0.4,1.2-0.6,1.8c-0.4,0.9-0.8,2.2-1.1,3.8
c-0.1,0.2-0.2,0.5-0.3,0.8c-0.2,0.6-0.3,1-0.4,1c-0.2,0.1-0.5,0-1-0.5c-0.1-0.2-0.2-0.4-0.2-0.5c0-0.3,0.3-1.8,1-4.3
c0.2-0.1,0.5-0.9,0.9-2.3c0.4-1.5,0.8-2.8,1.2-3.9l0.6-2.3c-1.1,0.6-2.1,1.3-3.2,2.1c-1.1,0.8-1.8,1.3-2,1.4
c-0.5,0.4-0.9,0.7-1,0.7s-0.3,0-0.5-0.1c-0.6-0.5-0.7-0.9-0.5-1.3c0.1,0,0.4-0.3,1.1-0.8c0.7-0.5,1.1-0.7,1.1-0.8s0.2-0.1,0.2-0.1
c0.1-0.1,0.2-0.1,0.3-0.3c0.1-0.1,0.2-0.2,0.3-0.3c0.1-0.1,0.2-0.2,0.5-0.4c0.3-0.2,0.7-0.5,1.2-0.9
C104.1,53.9,104.5,53.6,104.9,53.3z"/>
</g>
</g>
<g>
<path class="st2" d="M130,50c-0.8,0-1.7,0.1-2.9,0.2v-3.6c0.9,0.1,1.5,0.1,2.8,0.1h4.8c1.2,0,2,0,2.7-0.1c-0.1,0.9-0.1,1.1-0.1,1.9
c0,4.3,1.1,8.2,3.2,11.9c1.3,2.1,2.7,3.9,4.8,5.8c1.5,1.4,2.4,2,4.4,3.2c-1.1,1.1-1.7,1.9-2.5,3.4c-3-2.1-5.2-4.3-7.3-7
c-1.1-1.5-1.8-2.6-2.6-4.4c-0.8-1.6-1-2.4-1.5-4.3c-1.1,3.8-2.3,6.4-4.3,9.1c-1.9,2.5-4.2,4.6-7.4,6.8c-0.6-1.3-1.3-2.2-2.5-3.2
c2.5-1.5,4-2.6,6-4.7c2.3-2.4,4.2-5.6,5.1-8.9c0.6-2.1,0.9-3.6,1-6.1H130z"/>
<path class="st2" d="M177.4,51.3c1.8,0,2.9,0,3.9-0.1c-0.1,1.2-0.1,1.2-0.2,4.5c-0.1,4.1-0.4,9.2-0.7,11.2
c-0.4,2.8-0.8,3.8-1.7,4.5c-0.8,0.6-1.9,0.8-3.6,0.8c-1.4,0-2.7-0.1-4.6-0.3c-0.2-1.5-0.4-2.4-0.8-3.6c1.9,0.4,3.7,0.6,5.2,0.6
c1.4,0,1.9-0.5,2.2-2.6c0.4-2.2,0.7-6.9,0.7-11.7h-8.1c-0.5,4.4-1.3,7.5-2.7,10c-1.7,3.1-4.5,5.7-8.6,8c-0.7-1.3-1.4-2.2-2.5-3.1
c4.1-1.8,6.8-4.2,8.5-7.5c0.9-1.8,1.5-4.1,1.9-7.4h-5.2c-1.5,0-2.7,0.1-3.7,0.2v-3.6c1.1,0.2,2.1,0.2,3.8,0.2h5.3
c0.1-1.2,0.1-1.5,0.1-3.1c0-1.4-0.1-2.3-0.2-2.9h4c-0.1,0.8-0.1,0.8-0.3,6H177.4z"/>
</g>
<g>
<path class="st2" d="M292.2,45.8c0.8,0,1.4,0.3,1.9,0.7c0.5,0.4,0.8,1,0.9,1.7c0.2,0.7,0,1.6-0.5,2.6c-0.8,1.4-1.7,2.2-2.8,2.4
c-0.2,0-0.3,0-0.4-0.1c-0.3-0.4,0-1.2,1-2.3c1.4-2,1.6-3.1,0.8-3.2c-0.2-0.1-0.8,0-1.7,0.2c-0.9,0.2-1.3,0.3-1.3,0.4l-0.1,0.2
c-0.1,0-0.8,0.4-2.2,1.3c-1.4,0.9-2.1,1.3-2.2,1.4c0,0.2-0.3,0.4-0.7,0.6c-0.6,0.4-1.3,1.3-2.2,2.8c-0.3,0.5-0.6,1-0.7,1.5
c-0.1,0.5-0.1,1,0,1.3c0.1,0.3,0.4,0.8,0.9,1.2c0.5,0.5,1.2,1,2,1.4c2.2,1.2,3.5,2.2,3.9,3.1c0.7,1,0.9,1.9,0.6,2.9
c-0.2,0.3-0.4,0.7-0.7,1c-0.3,0.3-0.6,0.5-0.9,0.5c-0.2,0-0.4,0.1-0.6,0.2c-0.2,0.1-0.3,0.2-0.5,0.3c-0.1,0.1-0.6,0.2-1.4,0.3
c-0.8,0.1-1.6,0.1-2.3,0.1l-1.2-0.4c0-0.1,0-0.2-0.1-0.3c-0.1-0.1-0.2-0.1-0.4-0.1c-0.9-0.6-1.5-1.3-1.8-2.1
c-0.2-0.3-0.2-0.5-0.2-0.6s0.1-0.2,0.4-0.3c0.2-0.1,0.4-0.2,0.5-0.1c0.1,0,0.2,0.2,0.4,0.6c0.4,0.7,1.2,1.1,2.3,1.3
c1.2,0.2,2.3,0,3.4-0.5c0.7-0.3,1.2-0.6,1.4-1c0.2-0.3,0.1-0.8-0.2-1.3c-0.1-0.2-0.1-0.4-0.3-0.5c-0.4-0.4-0.7-0.7-1.1-1.1
c-0.4-0.2-1-0.4-1.5-0.7c-0.6-0.3-1.2-0.7-2-1.3c-0.7-0.6-1.2-1.1-1.4-1.5c-0.5-0.4-0.8-1.1-0.9-2.1c-0.1-0.9,0-1.8,0.4-2.5
c0.2-0.5,0.8-1.3,1.6-2.3c0.8-1,1.4-1.6,1.9-1.9l1-0.9c0,0,0.1-0.1,0.3-0.2c0.5-0.2,1-0.5,1.4-0.9
C289.4,46.4,291.2,45.8,292.2,45.8z"/>
<path class="st2" d="M295.2,55.6c-0.1-0.1-0.1-0.2-0.1-0.4c0-0.1,0.1-0.3,0.3-0.5c0.2-0.2,0.3-0.3,0.5-0.3c0.1,0,0.4,0,0.9,0
c0.5,0,0.8,0,0.9-0.1c0.2-0.1,0.3-0.2,0.3-0.3c0.2-0.5,0.4-1,0.7-1.6c0.6-1.2,1.1-1.9,1.4-2.2c0.4-0.3,0.8-0.2,1.3,0.2
c0.2,0.2,0.2,0.4,0.3,0.5c0,0.1-0.1,0.2-0.2,0.5c-0.1,0.3-0.3,0.6-0.6,1.1c-0.3,0.5-0.5,0.8-0.6,1c-0.3,0.5-0.4,0.7-0.1,0.8
c0.2,0,0.8,0,1.8-0.2c1-0.2,1.5,0.1,1.6,0.8c0.1,0.5,0,0.8-0.1,0.9c-0.2,0.1-0.6,0.2-1.4,0.2c-0.6,0.1-1.2,0.2-1.8,0.2
s-0.9,0-1,0.1c-0.2,0.1-0.4,0.3-0.6,0.6c-0.1,0-0.1,0.2-0.2,0.3c-0.1,0.2-0.4,0.7-0.7,1.4c-0.5,1.6-0.9,2.9-1.1,4
c-0.2,1.1-0.2,1.7-0.1,1.9c0.1,0.2,0.5,0.3,1,0.4c1,0.1,2.1-0.2,3.3-0.9l0.8-0.5c0.2-0.3,0.4-0.2,0.6,0.3c0,0.2,0,0.4,0,0.5
s-0.1,0.3-0.3,0.5s-0.5,0.4-0.9,0.7c-1.5,1-3,1.3-4.4,1c-0.3-0.1-0.6-0.3-1-0.6c-0.3-0.4-0.5-0.7-0.6-1l-0.2-0.2
c-0.1-0.1-0.2-0.6-0.1-1.5c0-0.9,0.1-1.6,0.2-2s0.3-0.9,0.5-1.6c0.3-0.7,0.4-1.2,0.5-1.4l0.8-1.7l-1.2-0.3
C295.4,55.8,295.3,55.7,295.2,55.6z"/>
<path class="st2" d="M310.1,63.9C310.2,63.9,310.2,63.9,310.1,63.9c0.1,0,0.1-0.1,0.2-0.1c0,0,0,0,0-0.1c0.1-0.1,0.3-0.3,0.5-0.5
s0.4-0.3,0.5-0.3c0.1,0,0.2,0,0.3,0.1c0.1,0.1,0.2,0.2,0.2,0.2c0.3,0,0.3,0.3-0.1,0.8c-0.4,0.5-0.9,1-1.5,1.4
c-0.6,0.6-1.4,0.8-2.3,0.6c-0.9-0.1-1.6-0.6-2.1-1.3c-0.6-0.8-0.9-2-0.7-3.7c0.1-1.1,0.6-2.3,1.4-3.4s1.8-2,2.8-2.3
c0.3-0.2,0.5-0.3,0.8-0.3c0.2,0,0.6,0,1.2,0.1c0.6,0.1,1,0.3,1.3,0.7c0.5,0.5,0.8,1.1,0.8,1.7c-0.1,0.5-0.4,1-0.9,1.7
c-0.5,0.6-1.2,1.1-1.9,1.5c-1.1,0.3-2,0.3-2.7-0.2c-0.4-0.1-0.6-0.1-0.7,0.1c-0.1,0.2-0.2,0.7-0.3,1.5c-0.2,1.4,0.2,2.1,1,2.3
c0.1,0,0.2,0,0.4,0.1s0.3,0,0.3,0.1c0,0,0.1,0,0.3,0s0.2,0,0.3,0c0.2,0,0.3-0.1,0.5-0.2s0.3-0.2,0.3-0.2
C310,64,310.1,64,310.1,63.9z M310.2,59.1c0.3-0.1,0.7-0.4,1-0.8c0.3-0.4,0.5-0.7,0.5-0.9c0-0.3-0.1-0.5-0.4-0.7
c-0.3-0.2-0.6-0.2-1-0.1c-0.4,0.1-0.8,0.3-1.2,0.7c-0.4,0.4-0.7,0.7-1,1.1c-0.3,0.4-0.4,0.6-0.3,0.6c0.1,0.2,0.4,0.2,1,0.3
C309.4,59.3,309.8,59.2,310.2,59.1z"/>
<path class="st2" d="M314.8,66.7l0.2-1.1c0.1-0.5,0.5-1.8,1.2-3.8c0.7-2,1.3-3.7,1.7-4.9c0.4-1,0.6-1.8,0.6-2.4
c0-0.1,0.1-0.3,0.3-0.5c0.2-0.2,0.6-0.2,1,0.1c0.1,0,0.1,0.1,0.3,0.3c0.1,0.2,0.2,0.3,0.2,0.4s0,0.4,0,0.9c0,0.4-0.2,0.9-0.5,1.5
c1.6-0.7,2.9-0.8,3.8-0.3s1.3,1.3,1.3,2.6c0,0.4-0.1,0.8-0.3,1.3c-0.2,0.5-0.4,0.9-0.6,1c-0.1,0-0.3,0.2-0.5,0.6
c-0.3,0.3-0.7,0.7-1.3,1c-0.6,0.4-1,0.5-1.3,0.4c-0.1,0-0.2,0.1-0.2,0.2c0,0.1-0.4,0.3-1.1,0.5s-1.3,0.3-1.7,0.3
c-0.4,0-0.6-0.1-0.8-0.2c-0.1,0.1-0.2,0.3-0.2,0.5c0,0.2-0.1,0.5-0.3,1.1c-0.2,0.6-0.4,0.9-0.5,0.9c-0.1,0.1-0.1,0.2,0,0.3
c0,0.4-0.1,0.7-0.2,0.9c0,0.5-0.1,1-0.3,1.4c0,0.2,0,0.5-0.1,0.7c-0.1,0.2-0.1,0.3-0.2,0.3c-0.1,0-0.2,0.3-0.2,0.8
c0,0.5-0.1,0.9-0.3,1.2c-0.2,0.3-0.4,0.4-0.6,0.4c0,0-0.1,0-0.1,0c-0.1,0-0.1,0-0.2,0c-0.4-0.1-0.6-0.7-0.3-1.8
c0.2-0.8,0.3-1.4,0.3-1.7l0.1-1c0.2-0.4,0.3-0.8,0.3-1.4C314.4,67.1,314.6,66.9,314.8,66.7z M322.7,58.5c-0.3-0.4-0.8-0.4-1.6-0.2
c-1.3,0.5-2.3,1.4-2.9,2.7c-0.6,1.3-0.7,2-0.4,2.1c0.3,0,0.9-0.2,1.8-0.5c0.9-0.3,1.6-0.7,2.1-1.1s0.8-0.9,1-1.4
C323.1,59.7,323,59.1,322.7,58.5z"/>
<path class="st2" d="M335.7,50.7l0.9,0.1c0.2,0,0.6,0.2,0.9,0.6c0.4,0.4,0.7,0.8,0.9,1.2c0.6,0.9,0.4,2-0.6,3.4
c-0.2,0.3-0.8,0.9-1.8,2.1c-1,1.1-1.6,1.8-1.8,1.9c-0.4,0.2-1,0.8-1.8,1.8c-0.8,1-1.2,1.5-1.2,1.5c0,0.1,0,0.1,0.1,0.1
c0.1,0,0.3-0.1,0.7-0.2c0.4-0.1,1.2-0.3,2.4-0.4c1.2-0.2,1.9-0.2,2-0.1l0.1,0.1c0.1-0.1,0.3-0.2,0.8-0.1s0.9,0.1,1.3,0.3
c0.5,0.1,0.7,0.3,0.7,0.4c0,0.1,0.1,0.3,0.3,0.4c0.5,0.4,0.4,0.6-0.3,0.6c-0.3,0-0.7-0.1-1.1-0.1c-0.5,0-0.9,0-1,0
c-0.2,0-0.7,0.1-1.5,0.1c-0.6-0.1-1.2,0-2,0.3s-1.6,0.5-2.6,0.8c-1,0.3-1.6,0.4-1.7,0.3c-0.2-0.1-0.4-0.2-0.6-0.4s-0.4-0.4-0.5-0.5
c-0.1-0.1-0.1-0.3,0-0.6s0.1-0.4,0.2-0.4c0.1,0.1,0.2-0.1,0.5-0.5c0.3-0.4,0.4-0.6,0.4-0.7c0-0.1,0.2-0.2,0.4-0.4
c0,0,0.2-0.2,0.5-0.6c0.3-0.4,0.6-0.7,0.8-0.9c2.1-2,3.2-3.2,3.2-3.6c0.1-0.1,0.3-0.3,0.5-0.4c0.2-0.1,0.5-0.3,0.7-0.6
c0.1-0.4,0.4-0.9,0.9-1.4c0.3-0.5,0.6-0.9,0.7-1.3c0.1-0.3,0.1-0.5,0.1-0.6c-0.1,0-0.3-0.1-0.8-0.3c-1.2-0.4-2.3-0.2-3.5,0.6
c-0.1,0-0.3,0.1-0.5,0.2c-0.4,0.2-0.7,0.2-0.8,0.2c-0.1,0-0.2-0.1-0.2-0.1c-0.1-0.1-0.1-0.2-0.2-0.3S331,53.1,331,53l-0.3-0.6
l0.9-0.5C333.3,50.8,334.6,50.4,335.7,50.7z"/>
</g>
<g>
<path class="st2" d="M366.7,66.5c0,1.2,0,1.7,0.1,2.3H364v-1.3h-2.1v2.8h-3c0.1-0.9,0.2-1.9,0.2-3.1v-6.2c0-0.6,0-1.5,0.1-2.3
c-0.6,1.4-0.8,1.8-1.6,2.7c-0.3-1.7-0.6-2.6-1.1-3.7c1.5-1.7,2.5-3.7,3.3-6.3c0.5-1.4,0.7-2.6,1-4.3H360c-1.1,0-1.6,0-2.5,0.1v-3.2
c0.8,0.1,1.7,0.2,2.9,0.2h3.5c1.2,0,2-0.1,2.9-0.2v3.2c-0.7-0.1-1.1-0.1-1.8-0.1h-1.2c-0.5,2.5-0.8,4-1.8,6.6h2.9
c0.8,0,1.3,0,1.8-0.1c-0.1,0.6-0.1,1.3-0.1,2.2v0.7c2.3-2.1,3.9-4.4,5.4-7.9h-1.8v3.1h-3c0.1-0.6,0.1-1.3,0.1-2v-2.5
c0-0.5,0-0.7-0.1-1.5c0.7,0.1,0.9,0.1,2.2,0.1h3.5c0.3-1.3,0.5-1.9,0.6-2.9l3.4,0.4c-0.1,0.2-0.3,1-0.8,2.5h5.5
c1.1,0,1.9,0,2.6-0.1c-0.1,0.6-0.1,1.1-0.1,2.2v1.7c0,0.8,0,1.3,0.1,1.9h-3.2v-2.9h-5.9c-0.6,1.6-1.1,2.5-2.1,4.2h2.9
c0.5-1,0.9-2,1.2-3.3l2.9,0.6c-0.4,1.2-0.7,1.8-1.1,2.6h2.2c1.3,0,1.8,0,2.5-0.1v2.9c-0.8-0.1-1.6-0.1-2.4-0.1h-2.8v2.2h2.2
c1.3,0,1.8,0,2.5-0.1v2.7c-0.8-0.1-1.5-0.1-2.5-0.1h-2.2v2.2h2.2c1.3,0,1.8,0,2.5-0.1v2.7c-0.8-0.1-1.4-0.1-2.5-0.1h-2.2V67h2.9
c1.4,0,2,0,2.8-0.1v3c-1-0.1-1.8-0.2-2.9-0.2h-9.4V71h-3.2c0.1-1,0.2-1.8,0.2-3.4v-7.5c0-1.2,0.1-1.9,0.1-2.1
c-0.4,0.6-0.8,1-1.4,1.7c-0.3-0.7-0.6-1.1-1.1-2V66.5z M361.9,64.6h2.1v-7.9h-2.1V64.6z M375.6,57.7v-2.2H372v2.2H375.6z M372,62.3
h3.6v-2.2H372V62.3z M372,67h3.6v-2.2H372V67z"/>
<path class="st2" d="M391.6,48.3c0.7,0.1,1.3,0.2,2.4,0.2h5.8c1.3,0,1.8,0,2.4-0.1v3.1c-0.7-0.1-1.1-0.1-2.3-0.1H394
c-1,0-1.6,0-2.4,0.1V48.3z M392.6,44.1c0.8,0.1,1.2,0.1,2.4,0.1h4c1.2,0,1.7,0,2.4-0.1v3c-0.8-0.1-1.4-0.1-2.4-0.1h-4
c-1,0-1.7,0-2.4,0.1V44.1z M401.3,68.2c0,1.2,0,1.7,0.1,2.3h-2.8v-1h-3v1.5h-3c0.1-1,0.1-2,0.1-2.9v-4.4c0-0.9,0-1.5-0.1-2.4
c0.7,0.1,1.3,0.1,2.3,0.1h4.4c1.1,0,1.6,0,2-0.1c-0.1,0.5-0.1,1-0.1,2.2v3.8c1.1-2.1,1.6-3.7,1.9-6.9l2.6,0.6
c-0.5,3.8-0.8,5.2-2,8.2l-2.4-1.4V68.2z M392.7,52.8c0.6,0.1,1,0.1,1.9,0.1h5c1,0,1.4,0,1.8-0.1v2.8c-0.7-0.1-1-0.1-1.8-0.1h-5
c-0.9,0-1.4,0-1.9,0.1V52.8z M392.7,57c0.6,0.1,1,0.1,1.9,0.1h4.9c1,0,1.4,0,1.9-0.1v2.8c-0.5-0.1-1-0.1-1.9-0.1h-4.9
c-0.9,0-1.2,0-1.9,0.1V57z M395.5,66.8h3.1v-3h-3.1V66.8z M404,48.6c1.7,0.5,2.3,0.8,3.4,1.2c0.3-0.9,0.4-1.3,0.5-2.4h-2
c-1.6,0-2.3,0-3.2,0.1v-3.2c0.9,0.1,2,0.2,3.3,0.2h9.5c1.2,0,2.1,0,2.8-0.1c-0.1,0.5-0.1,0.5-0.2,2.6c-0.1,3-0.5,6.1-0.8,7.5
c-0.5,2.4-1.4,3-3.8,3c-0.9,0-1.5,0-2.4-0.1c-0.2-1.3-0.3-1.8-0.8-3l0.2,0.1c-0.7-0.5-1-0.7-1.7-1c-1.4,2.3-2.9,3.6-5.5,5.2
c-0.7-1-1.1-1.6-2.1-2.4c2.5-1.2,3.9-2.3,5-4.1c-1.3-0.5-1.8-0.8-3.5-1.4L404,48.6z M409.2,66.8c0,0.7,0.2,0.8,1.3,0.8
c1.7,0,2.1-0.1,2.3-0.5c0.2-0.4,0.3-1.6,0.3-3.3c1,0.5,1.7,0.7,2.8,0.9c-0.3,5.2-0.9,5.7-5.2,5.7c-3.7,0-4.4-0.4-4.4-2.2V62
c0-0.8-0.1-1.4-0.1-2.2h3.2c-0.1,0.6-0.2,1-0.2,1.9V66.8z M409.5,56.2c2.8,2.1,2.8,2.2,4.6,4.2l-2.2,1.9c-1.3-1.8-2.5-3-4.5-4.4
L409.5,56.2z M410.9,47.4c-0.2,1.7-0.4,2.3-0.8,3.6c0.9,0.5,1.3,0.7,2.5,1.3l-1.3,2.2c0.6,0.1,1.1,0.1,1.7,0.1
c0.9,0,1.2-0.2,1.5-1.3c0.3-1.1,0.5-2.9,0.6-6H410.9z M416.8,59.9c1.4,2.3,2.2,4,3.3,7l-2.5,1.6c-1-3.4-1.6-4.7-3.2-7.3L416.8,59.9
z"/>
</g>
<g>
<path class="st3" d="M519.6,45.2c0.8,0,1.4,0.3,1.9,0.7c0.5,0.4,0.8,1,0.9,1.7c0.2,0.7,0,1.6-0.5,2.6c-0.8,1.4-1.7,2.2-2.8,2.4
c-0.2,0-0.3,0-0.4-0.1c-0.3-0.4,0-1.2,1-2.3c1.4-2,1.6-3.1,0.8-3.2c-0.2-0.1-0.8,0-1.7,0.2c-0.9,0.2-1.3,0.3-1.3,0.4l-0.1,0.2
c-0.1,0-0.8,0.4-2.2,1.3c-1.4,0.9-2.1,1.3-2.2,1.4c0,0.2-0.3,0.4-0.7,0.6c-0.6,0.4-1.3,1.3-2.2,2.8c-0.3,0.5-0.6,1-0.7,1.5
c-0.1,0.5-0.1,1,0,1.3c0.1,0.3,0.4,0.8,0.9,1.2c0.5,0.5,1.2,1,2,1.4c2.2,1.2,3.5,2.2,3.9,3.1c0.7,1,0.9,1.9,0.6,2.9
c-0.2,0.3-0.4,0.7-0.8,1c-0.3,0.3-0.6,0.5-0.9,0.5c-0.2,0-0.4,0.1-0.6,0.2c-0.2,0.1-0.3,0.2-0.5,0.3c-0.1,0.1-0.6,0.2-1.4,0.3
s-1.6,0.1-2.3,0.1l-1.2-0.4c0-0.1,0-0.2-0.1-0.3c-0.1-0.1-0.2-0.1-0.4-0.1c-0.9-0.6-1.5-1.3-1.8-2.1c-0.2-0.3-0.2-0.5-0.2-0.6
s0.1-0.2,0.4-0.3c0.2-0.1,0.4-0.2,0.5-0.1c0.1,0,0.2,0.2,0.4,0.6c0.4,0.7,1.2,1.1,2.3,1.3c1.2,0.2,2.3,0,3.4-0.5
c0.7-0.3,1.2-0.6,1.4-1c0.2-0.3,0.1-0.8-0.2-1.3c-0.1-0.2-0.1-0.4-0.3-0.5c-0.4-0.4-0.7-0.7-1.1-1.1c-0.4-0.2-1-0.4-1.5-0.7
c-0.6-0.3-1.2-0.7-2-1.3c-0.7-0.6-1.2-1.1-1.4-1.5c-0.5-0.4-0.8-1.1-0.9-2.1c-0.1-0.9,0-1.8,0.4-2.5c0.2-0.5,0.8-1.3,1.6-2.3
s1.4-1.6,1.9-1.9l1-0.9c0,0,0.1-0.1,0.3-0.2c0.5-0.2,1-0.5,1.4-0.9C516.8,45.8,518.6,45.2,519.6,45.2z"/>
<path class="st3" d="M522.6,55c-0.1-0.1-0.1-0.2-0.1-0.4c0-0.1,0.1-0.3,0.3-0.5c0.2-0.2,0.3-0.3,0.5-0.3c0.1,0,0.4,0,0.9,0
c0.5,0,0.8,0,0.9-0.1c0.2-0.1,0.3-0.2,0.3-0.3c0.2-0.5,0.4-1,0.7-1.6c0.6-1.2,1.1-1.9,1.4-2.2c0.4-0.3,0.8-0.2,1.3,0.2
c0.2,0.2,0.2,0.4,0.3,0.5c0,0.1-0.1,0.2-0.2,0.5c-0.1,0.3-0.3,0.6-0.6,1.1c-0.3,0.5-0.5,0.8-0.6,1c-0.3,0.5-0.4,0.7-0.1,0.8
c0.2,0,0.8,0,1.8-0.2c1-0.2,1.5,0.1,1.6,0.8c0.1,0.5,0,0.8-0.1,0.9c-0.2,0.1-0.6,0.2-1.4,0.2c-0.6,0.1-1.2,0.2-1.8,0.2
s-0.9,0-1,0.1c-0.2,0.1-0.4,0.3-0.6,0.6c-0.1,0-0.1,0.2-0.2,0.3c-0.1,0.2-0.4,0.7-0.7,1.4c-0.5,1.6-0.9,2.9-1.1,4
c-0.2,1.1-0.2,1.7-0.1,1.9c0.1,0.2,0.5,0.3,1,0.4c1,0.1,2.1-0.2,3.3-0.9l0.8-0.5c0.2-0.3,0.4-0.2,0.6,0.3c0,0.2,0,0.4,0,0.5
s-0.1,0.3-0.3,0.5s-0.5,0.4-0.9,0.7c-1.5,1-3,1.3-4.4,1c-0.3-0.1-0.6-0.3-1-0.6c-0.3-0.4-0.5-0.7-0.6-1l-0.2-0.2
c-0.1-0.1-0.2-0.6-0.1-1.5c0-0.9,0.1-1.6,0.2-2s0.3-0.9,0.5-1.6c0.3-0.7,0.4-1.2,0.5-1.4l0.8-1.7l-1.2-0.3
C522.8,55.2,522.7,55.1,522.6,55z"/>
<path class="st3" d="M537.5,63.3C537.6,63.3,537.6,63.3,537.5,63.3c0.1,0,0.1-0.1,0.2-0.1c0,0,0,0,0-0.1c0.1-0.1,0.3-0.3,0.5-0.5
s0.4-0.3,0.5-0.3c0.1,0,0.2,0,0.3,0.1c0.1,0.1,0.2,0.2,0.2,0.2c0.3,0,0.3,0.3-0.1,0.8c-0.4,0.5-0.9,1-1.5,1.4
c-0.6,0.6-1.4,0.8-2.3,0.6c-0.9-0.1-1.6-0.6-2.1-1.3c-0.6-0.8-0.9-2-0.7-3.7c0.1-1.1,0.6-2.3,1.4-3.4s1.8-2,2.8-2.3
c0.3-0.2,0.5-0.3,0.8-0.3c0.2,0,0.6,0,1.2,0.1c0.6,0.1,1,0.3,1.3,0.7c0.5,0.5,0.8,1.1,0.8,1.7c-0.1,0.5-0.4,1-0.9,1.7
c-0.5,0.6-1.2,1.1-1.9,1.5c-1.1,0.3-2,0.3-2.7-0.2c-0.4-0.1-0.6-0.1-0.7,0.1c-0.1,0.2-0.2,0.7-0.3,1.5c-0.2,1.4,0.2,2.1,1,2.3
c0.1,0,0.2,0,0.4,0.1s0.3,0,0.3,0.1c0,0,0.1,0,0.3,0s0.2,0,0.3,0c0.2,0,0.3-0.1,0.5-0.2s0.3-0.2,0.3-0.2
C537.4,63.4,537.5,63.4,537.5,63.3z M537.6,58.5c0.3-0.1,0.7-0.4,1-0.8c0.3-0.4,0.5-0.7,0.5-0.9c0-0.3-0.1-0.5-0.4-0.7
c-0.3-0.2-0.6-0.2-1-0.1c-0.4,0.1-0.8,0.3-1.2,0.7c-0.4,0.4-0.7,0.7-1,1.1c-0.3,0.4-0.4,0.6-0.3,0.6c0.1,0.2,0.4,0.2,1,0.3
C536.8,58.7,537.2,58.6,537.6,58.5z"/>
<path class="st3" d="M542.2,66.1l0.2-1.1c0.1-0.5,0.5-1.8,1.2-3.8c0.7-2,1.3-3.7,1.7-4.9c0.4-1,0.6-1.8,0.6-2.4
c0-0.1,0.1-0.3,0.3-0.5c0.2-0.2,0.6-0.2,1,0.1c0.1,0,0.1,0.1,0.3,0.3c0.1,0.2,0.2,0.3,0.2,0.4s0,0.4,0,0.9c0,0.4-0.2,0.9-0.5,1.5
c1.6-0.7,2.9-0.8,3.8-0.3c0.9,0.5,1.3,1.3,1.3,2.6c0,0.4-0.1,0.8-0.3,1.3c-0.2,0.5-0.4,0.9-0.6,1c-0.1,0-0.3,0.2-0.5,0.6
c-0.3,0.3-0.7,0.7-1.3,1c-0.6,0.4-1,0.5-1.3,0.4c-0.1,0-0.2,0.1-0.1,0.2c0,0.1-0.4,0.3-1.1,0.5s-1.3,0.3-1.7,0.3
c-0.4,0-0.6-0.1-0.8-0.2c-0.1,0.1-0.2,0.3-0.2,0.5s-0.1,0.5-0.3,1.1c-0.2,0.6-0.4,0.9-0.5,0.9c-0.1,0.1-0.1,0.2,0,0.3
c0,0.4-0.1,0.7-0.2,0.9c0,0.5-0.1,1-0.3,1.4c0,0.2,0,0.5-0.1,0.7c-0.1,0.2-0.1,0.3-0.2,0.3c-0.1,0-0.2,0.3-0.2,0.8
c0,0.5-0.1,0.9-0.3,1.2c-0.2,0.3-0.4,0.4-0.6,0.4c0,0-0.1,0-0.1,0c-0.1,0-0.1,0-0.2,0c-0.4-0.1-0.6-0.7-0.3-1.8
c0.2-0.8,0.3-1.4,0.3-1.7l0.1-1c0.2-0.4,0.3-0.8,0.3-1.4C541.8,66.5,542,66.3,542.2,66.1z M550.1,57.9c-0.3-0.4-0.8-0.4-1.6-0.2
c-1.3,0.5-2.3,1.4-2.9,2.7c-0.6,1.3-0.7,2-0.4,2.1c0.3,0,0.9-0.2,1.8-0.5c0.9-0.3,1.6-0.7,2.1-1.1s0.8-0.9,1-1.4
S550.4,58.5,550.1,57.9z"/>
<path class="st3" d="M562.5,51.4l-0.1,0c-0.1-0.1-0.5,0-1.2,0.1s-1,0.2-1,0.3c0,0.1-0.2,0.2-0.6,0.3c-0.4,0.1-0.7,0.2-0.8,0.2
c-0.1,0-0.3-0.2-0.5-0.5c-0.2-0.3-0.3-0.6-0.2-0.8c0.1-0.2,0.7-0.5,1.9-1.1c0.4-0.1,1-0.2,1.9-0.2c0.9-0.1,1.5-0.1,2,0
c1.8,0.2,2.8,0.9,3.1,2.2c0.1,0.4,0.1,0.8,0,1c-0.1,0.2-0.5,0.6-1,1.1c-1.4,0.9-2.2,1.4-2.5,1.6c-0.2,0.1-0.5,0.3-0.7,0.5
c-0.7,0.4-1,0.7-1,0.7c0.3,0.2,0.5,0.4,0.8,0.5c1,0.4,1.9,1.1,2.6,2c0.9,2,0.3,3.6-1.9,4.8c-1.2,0.7-2.5,1.1-4,1.2
c-0.8,0-1.5-0.1-2.1-0.4s-0.9-0.5-0.9-0.9c0-0.3,0.1-0.5,0.2-0.5c0.1,0,0.4,0,0.8,0c1,0.2,2.1,0.1,3.3-0.2c1.2-0.3,2.1-0.8,2.7-1.4
c0.6-0.6,0.8-1.1,0.8-1.6c-0.1-0.9-1-1.6-2.7-2.1c-0.8-0.2-1.3-0.3-1.7-0.3c-0.4,0-0.7,0-1.1-0.2c-0.2-0.2-0.4-0.5-0.5-0.8
c0-0.1,0.1-0.3,0.4-0.5s1.3-0.8,3.1-1.8c1.8-1,2.9-1.7,3.4-2.1c0.4-0.5,0.6-0.8,0.5-0.9c0-0.1-0.3-0.3-0.8-0.4
C563.2,51.2,562.5,51.2,562.5,51.4z"/>
</g>
<g>
<path class="st3" d="M585.5,58.9c-1.5,0-2.4,0.1-3.2,0.2v-3.3c0.8,0.2,1.7,0.2,3.2,0.2h19.6c1.5,0,2.3,0,3.2-0.2v3.3
c-0.9-0.1-1.8-0.2-3.2-0.2h-5.5v6.8c0,0.7,0.4,0.8,2.9,0.8c2.2,0,2.9-0.2,3.1-0.8c0.2-0.4,0.3-1.5,0.3-2.5c0-0.1,0-0.3,0-0.5
c1.3,0.6,1.8,0.7,3.1,0.9c-0.1,3-0.5,4.3-1.4,5.1c-0.8,0.7-2.1,0.9-5.9,0.9c-4.5,0-5.4-0.4-5.4-2.6v-8.1H593
c-0.2,2.8-0.6,4-1.5,5.7c-1.5,2.6-3.4,3.9-8.2,5.8c-0.5-1.1-1-2.1-1.8-3.1c2.5-0.8,3.4-1.1,4.6-1.7c1.9-1.1,3.2-2.8,3.5-5
c0.1-0.5,0.1-0.8,0.2-1.6H585.5z M593.3,44.8c0-0.9-0.1-1.6-0.2-2.2h3.7c-0.1,0.6-0.2,1.3-0.2,2.2v0.7h8.3c1.5,0,2.3,0,3.3-0.1
c-0.1,0.7-0.1,1.2-0.1,2.3v2.5c0,1,0,1.6,0.1,2.3H605v-4h-19.5v4h-3.3c0.1-0.7,0.2-1.3,0.2-2.3v-2.4c0-1,0-1.6-0.1-2.3
c1,0.1,1.8,0.1,3.3,0.1h7.7V44.8z M586.5,50.6c0.8,0.1,1.5,0.2,2.8,0.2h11.8c1.3,0,2,0,2.9-0.2v3.2c-0.8-0.1-1.6-0.1-2.9-0.1h-11.8
c-1.3,0-2,0-2.8,0.1V50.6z"/>
<path class="st3" d="M620.3,47.2c-1.6,0-2.8,0.1-4.1,0.2v-3.6c1.1,0.1,2.3,0.2,4.1,0.2h15.3c1.6,0,2.6-0.1,3.3-0.1l2,2.3
c-0.6,0.6-0.7,0.7-1.2,1.1c-3.3,3.3-5.6,5-9.5,7.4v12.2c0,2.2-1.1,2.9-4.4,2.9c-1.1,0-1.5,0-4.2-0.2c-0.2-1.4-0.4-2.2-0.9-3.5
c2,0.3,3.4,0.5,4.7,0.5c1,0,1.4-0.2,1.4-0.7V54.6c0-1.2-0.1-2.2-0.2-3h2.7c2.4-1.3,3.9-2.4,6.1-4.4H620.3z"/>
</g>
</svg>
