<svg xmlns="http://www.w3.org/2000/svg" width="344" height="56" viewBox="0 0 344 56">
  <g id="Group_1686" data-name="Group 1686" transform="translate(-15 -15687)">
    <g id="Rectangle_7735" data-name="Rectangle 7735" transform="translate(16 15687)" fill="#fff" stroke="#c1c1c1" stroke-width="1">
      <rect width="343" height="56" stroke="none"/>
      <rect x="0.5" y="0.5" width="342" height="55" fill="none"/>
    </g>
    <g id="Path_382" data-name="Path 382" transform="translate(126.321 15687)" fill="#fff">
      <path d="M 117.7399749755859 55.5 L 0.5 55.5 L 0.5 0.5 L 117.7459411621094 0.5 L 129.4565124511719 27.35876655578613 L 117.7399749755859 55.5 Z" stroke="none"/>
      <path d="M 1 1 L 1 55 L 117.4065322875977 55 L 128.9130249023438 27.36327934265137 L 117.4184799194336 1 L 1 1 M 0 0 L 118.0734024047852 0 L 130 27.35423278808594 L 118.0734024047852 56 L 0 56 L 0 0 Z" stroke="none" fill="#c1c1c1"/>
    </g>
    <path id="Path_381" data-name="Path 381" d="M0,0H117.255L130,27.354,117.255,56H0Z" transform="translate(15 15687)"/>
    <g id="Group_1645" data-name="Group 1645" transform="translate(13 -4)">
      <path id="Path_667" data-name="Path 667" d="M4.352-5.728c1.568.8,2.336,1.472,2.336,2.768A2.224,2.224,0,0,1,4.288-.7c-1.3,0-2.512-1.088-3.168-2.72-.032-.08-.08-.128-.256-.1C.72-3.488.7-3.408.7-3.328A21.084,21.084,0,0,0,1.232-.752a8.854,8.854,0,0,0,2.88.56c2.8,0,4.016-1.536,4.016-3.392,0-1.872-1.1-2.672-2.976-3.552L4.336-7.52C2.928-8.192,2.544-8.9,2.544-9.68a1.894,1.894,0,0,1,2-1.984c1.2,0,2.192.912,2.72,2.4.016.08.048.128.192.112.16-.032.192-.08.192-.16-.064-.832-.16-1.76-.176-2.56a3.929,3.929,0,0,1-1.552-.08,4.476,4.476,0,0,0-1.408-.224c-2.08,0-3.392,1.312-3.392,2.848,0,1.616.88,2.4,2.48,3.216ZM16.3-3.36a5.64,5.64,0,0,1-.176,2.1c-.176.3-.64.32-1.168.384-.112.016-.144.048-.144.224,0,.16.032.208.144.208.608-.048,1.44-.064,2.1-.064.64,0,1.536.016,2.208.064.112,0,.144-.048.144-.224,0-.16-.032-.192-.144-.208-.576-.064-1.12-.08-1.3-.384-.192-.336-.176-.512-.176-2.1V-9.04A4.548,4.548,0,0,1,18-11.024c.224-.352.64-.32,1.04-.32a2.952,2.952,0,0,1,1.92.5A3.666,3.666,0,0,1,22.016-9.2c.032.1.064.144.256.112.144-.032.16-.08.16-.192-.1-.8-.208-1.824-.272-2.64-1.76.08-3.456.08-5.088.08-1.648,0-3.28,0-5.04-.08-.064.816-.176,1.84-.288,2.64,0,.112.016.16.176.192s.208-.016.24-.112a3.888,3.888,0,0,1,1.072-1.648,2.948,2.948,0,0,1,1.872-.5c.4,0,.864,0,1.024.288.16.32.176.56.176,2.016Zm12.64-2.832c.256-.016.64-.016.992-.016a4.44,4.44,0,0,1,2.032.336,1.832,1.832,0,0,1,.56,1.184c.016.1.048.16.192.16.208,0,.224-.048.224-.16-.016-.576-.032-1.216-.032-1.808,0-.544.016-1.056.032-1.616,0-.1-.016-.144-.224-.144-.16,0-.176.048-.192.144A1.44,1.44,0,0,1,32-7.072a3.806,3.806,0,0,1-2.064.336c-.352,0-.736,0-.992-.016V-9.04a5.007,5.007,0,0,1,.16-1.9c.224-.368.768-.4,1.376-.4a3.533,3.533,0,0,1,2.384.512A3.614,3.614,0,0,1,33.9-9.248c.032.1.08.144.272.112.128-.032.16-.1.144-.192-.112-.8-.208-1.776-.272-2.592-1.376.08-2.688.08-3.952.08-1.312,0-2.736,0-4.064-.08-.112,0-.144.048-.144.256,0,.16.032.176.144.192.608.064,1.056.08,1.232.368.176.352.176.544.176,2.064v5.68a5.59,5.59,0,0,1-.192,2.112c-.192.3-.576.32-1.136.384-.1.016-.128.048-.128.208s.032.208.128.208C27.472-.5,28.944-.512,30.3-.512c1.3,0,2.656.016,4.032.064a16.953,16.953,0,0,0,.832-2.7c.032-.1.032-.16-.16-.224-.16-.048-.192,0-.24.1a4.988,4.988,0,0,1-1.232,1.616,4.224,4.224,0,0,1-2.784.656c-.72,0-1.328-.016-1.584-.432a4.553,4.553,0,0,1-.224-1.92ZM41.7-5.744a10.331,10.331,0,0,0,1.248.064c3.824,0,4.864-1.552,4.864-3.248,0-1.776-1.088-3.008-4.24-3.008-1.04,0-2.032.1-2.64.1-.656,0-1.536-.032-2.208-.08-.112,0-.144.048-.144.24,0,.176.032.192.144.208.592.064,1.152.08,1.328.384.16.352.16.528.16,2.048v5.68a5.967,5.967,0,0,1-.176,2.1c-.192.336-.608.352-1.184.4-.1.016-.128.032-.128.208,0,.192.016.208.128.208.624-.048,1.472-.064,2.144-.064.64,0,1.472.016,2.16.064.128,0,.16-.048.16-.208s-.032-.192-.16-.208c-.608-.064-1.12-.08-1.3-.4-.16-.288-.16-.512-.16-2.1Zm0-3.312a4.445,4.445,0,0,1,.224-2c.208-.3.832-.336,1.312-.336,1.84,0,2.928.864,2.928,2.528,0,1.456-.88,2.64-3.28,2.64a6.566,6.566,0,0,1-1.184-.1Zm11.68-1.3a1.881,1.881,0,0,1,.576-.112.455.455,0,0,1,.416.192,2.513,2.513,0,0,1,.176,1.184v5.664a5.967,5.967,0,0,1-.176,2.1c-.192.336-.752.352-1.392.4-.112.016-.16.064-.16.24,0,.192.032.224.16.224.752-.032,1.536-.064,2.3-.064.672,0,1.536.032,2.24.064.112,0,.144-.032.144-.224,0-.176-.032-.224-.144-.24-.656-.064-1.248-.08-1.424-.4-.16-.32-.176-.512-.176-2.1V-8.336c0-1.3.048-2.208.064-3.472,0-.1-.1-.192-.256-.192a25.246,25.246,0,0,1-3.088,1.376c-.192.064-.208.1-.16.288.064.208.128.224.288.176Z" transform="translate(30 15715)" fill="#fff"/>
      <path id="Path_666" data-name="Path 666" d="M5.472-12.1a7.162,7.162,0,0,1-1.328-.128l.16.64A6.8,6.8,0,0,1,5.5-11.7H7.648a17.615,17.615,0,0,1-1.9,6.816A14.756,14.756,0,0,1,.736.8c-.1.064.032.288.128.24A13.061,13.061,0,0,0,6.032-3.248,14.729,14.729,0,0,0,8.3-8.08,14.117,14.117,0,0,0,10.16-3.056,10.658,10.658,0,0,0,13.6.544a1.379,1.379,0,0,0,.624.3c.1,0,.176-.064.256-.224a1.261,1.261,0,0,1,.816-.88c.08-.032.1-.16.016-.192a10.534,10.534,0,0,1-4.224-3.088,12.667,12.667,0,0,1-2.864-7.792c.64-.3.72-.384.72-.528,0-.1-.064-.192-.256-.368-.432-.368-.528-.432-.64-.432s-.192.064-.64.56ZM26.384-9.52c.032-.512.064-1.056.08-1.616,0-.352.016-.688.016-1.072.416-.16.528-.272.528-.416,0-.24-.128-.32-1.92-.512a7.968,7.968,0,0,1,.1,1.5c0,.752-.016,1.456-.064,2.112H21.36a7.473,7.473,0,0,1-1.44-.112l.176.624A5.313,5.313,0,0,1,21.36-9.12h3.728a13.728,13.728,0,0,1-1.12,4.9A11.424,11.424,0,0,1,19.184.8c-.1.064,0,.288.112.24a10.206,10.206,0,0,0,5.488-4.368A12.869,12.869,0,0,0,26.352-9.12h4.48a32.851,32.851,0,0,1-.72,7.248c-.24.9-.528,1.264-1.04,1.264a14.069,14.069,0,0,1-2.416-.3c-.112-.016-.128.224-.016.256,1.584.512,1.872.784,1.968,1.28a.265.265,0,0,0,.3.256A2.408,2.408,0,0,0,30.064.592,2.839,2.839,0,0,0,31.184-1.2a33.256,33.256,0,0,0,.848-7.5c.4-.272.464-.352.464-.448s-.064-.208-.32-.464c-.608-.528-.688-.576-.8-.576s-.192.064-.7.672Z" transform="translate(43 15735)" fill="#fff"/>
    </g>
    <g id="Group_1646" data-name="Group 1646" transform="translate(136 -4)">
      <path id="Path_668" data-name="Path 668" d="M4.352-5.728c1.568.8,2.336,1.472,2.336,2.768A2.224,2.224,0,0,1,4.288-.7c-1.3,0-2.512-1.088-3.168-2.72-.032-.08-.08-.128-.256-.1C.72-3.488.7-3.408.7-3.328A21.084,21.084,0,0,0,1.232-.752a8.854,8.854,0,0,0,2.88.56c2.8,0,4.016-1.536,4.016-3.392,0-1.872-1.1-2.672-2.976-3.552L4.336-7.52C2.928-8.192,2.544-8.9,2.544-9.68a1.894,1.894,0,0,1,2-1.984c1.2,0,2.192.912,2.72,2.4.016.08.048.128.192.112.16-.032.192-.08.192-.16-.064-.832-.16-1.76-.176-2.56a3.929,3.929,0,0,1-1.552-.08,4.476,4.476,0,0,0-1.408-.224c-2.08,0-3.392,1.312-3.392,2.848,0,1.616.88,2.4,2.48,3.216ZM16.3-3.36a5.64,5.64,0,0,1-.176,2.1c-.176.3-.64.32-1.168.384-.112.016-.144.048-.144.224,0,.16.032.208.144.208.608-.048,1.44-.064,2.1-.064.64,0,1.536.016,2.208.064.112,0,.144-.048.144-.224,0-.16-.032-.192-.144-.208-.576-.064-1.12-.08-1.3-.384-.192-.336-.176-.512-.176-2.1V-9.04A4.548,4.548,0,0,1,18-11.024c.224-.352.64-.32,1.04-.32a2.952,2.952,0,0,1,1.92.5A3.666,3.666,0,0,1,22.016-9.2c.032.1.064.144.256.112.144-.032.16-.08.16-.192-.1-.8-.208-1.824-.272-2.64-1.76.08-3.456.08-5.088.08-1.648,0-3.28,0-5.04-.08-.064.816-.176,1.84-.288,2.64,0,.112.016.16.176.192s.208-.016.24-.112a3.888,3.888,0,0,1,1.072-1.648,2.948,2.948,0,0,1,1.872-.5c.4,0,.864,0,1.024.288.16.32.176.56.176,2.016Zm12.64-2.832c.256-.016.64-.016.992-.016a4.44,4.44,0,0,1,2.032.336,1.832,1.832,0,0,1,.56,1.184c.016.1.048.16.192.16.208,0,.224-.048.224-.16-.016-.576-.032-1.216-.032-1.808,0-.544.016-1.056.032-1.616,0-.1-.016-.144-.224-.144-.16,0-.176.048-.192.144A1.44,1.44,0,0,1,32-7.072a3.806,3.806,0,0,1-2.064.336c-.352,0-.736,0-.992-.016V-9.04a5.007,5.007,0,0,1,.16-1.9c.224-.368.768-.4,1.376-.4a3.533,3.533,0,0,1,2.384.512A3.614,3.614,0,0,1,33.9-9.248c.032.1.08.144.272.112.128-.032.16-.1.144-.192-.112-.8-.208-1.776-.272-2.592-1.376.08-2.688.08-3.952.08-1.312,0-2.736,0-4.064-.08-.112,0-.144.048-.144.256,0,.16.032.176.144.192.608.064,1.056.08,1.232.368.176.352.176.544.176,2.064v5.68a5.59,5.59,0,0,1-.192,2.112c-.192.3-.576.32-1.136.384-.1.016-.128.048-.128.208s.032.208.128.208C27.472-.5,28.944-.512,30.3-.512c1.3,0,2.656.016,4.032.064a16.953,16.953,0,0,0,.832-2.7c.032-.1.032-.16-.16-.224-.16-.048-.192,0-.24.1a4.988,4.988,0,0,1-1.232,1.616,4.224,4.224,0,0,1-2.784.656c-.72,0-1.328-.016-1.584-.432a4.553,4.553,0,0,1-.224-1.92ZM41.7-5.744a10.331,10.331,0,0,0,1.248.064c3.824,0,4.864-1.552,4.864-3.248,0-1.776-1.088-3.008-4.24-3.008-1.04,0-2.032.1-2.64.1-.656,0-1.536-.032-2.208-.08-.112,0-.144.048-.144.24,0,.176.032.192.144.208.592.064,1.152.08,1.328.384.16.352.16.528.16,2.048v5.68a5.967,5.967,0,0,1-.176,2.1c-.192.336-.608.352-1.184.4-.1.016-.128.032-.128.208,0,.192.016.208.128.208.624-.048,1.472-.064,2.144-.064.64,0,1.472.016,2.16.064.128,0,.16-.048.16-.208s-.032-.192-.16-.208c-.608-.064-1.12-.08-1.3-.4-.16-.288-.16-.512-.16-2.1Zm0-3.312a4.445,4.445,0,0,1,.224-2c.208-.3.832-.336,1.312-.336,1.84,0,2.928.864,2.928,2.528,0,1.456-.88,2.64-3.28,2.64a6.566,6.566,0,0,1-1.184-.1Zm10.96,7.312A14.228,14.228,0,0,1,55.3-4.88c1.5-1.488,2.8-2.256,2.8-4.256a2.8,2.8,0,0,0-3.088-2.784,3.234,3.234,0,0,0-3.216,2.688c0,.448.256.576.592.576.528,0,1.088-.288,1.088-.72a2.987,2.987,0,0,1,.16-1.152,1.424,1.424,0,0,1,1.376-.9c.992,0,1.52.96,1.52,2.224,0,1.456-.752,2.32-2.064,4.016a38.164,38.164,0,0,0-2.8,4.032.521.521,0,0,0-.112.416c0,.256.048.288.192.288C52.768-.5,53.68-.5,54.72-.5c1.024,0,1.936,0,2.96.048.272-.832.592-1.968.8-2.784.016-.1-.016-.144-.16-.192-.16-.048-.208-.032-.256.08A3.518,3.518,0,0,1,57.216-2.1c-.3.256-.608.352-1.936.352Z" transform="translate(30 15715)" fill="#4b4b4b"/>
      <path id="Path_669" data-name="Path 669" d="M-22.736-9.984V-.7c0,.208-.08.3-.288.3-.528,0-1.12-.032-2.144-.112-.1,0-.112.208-.016.224,1.472.3,1.808.48,1.872.928.032.272.112.352.32.352A2.52,2.52,0,0,0-22.16.8a1.161,1.161,0,0,0,.7-1.2c0-.576-.064-1.184-.064-6.64V-9.616c.336-.24.432-.336.432-.464,0-.112-.064-.208-.3-.4-.576-.48-.672-.544-.768-.544-.112,0-.208.064-.72.64H-27.2c.048-.608.064-1.28.08-2.032.432-.192.528-.272.528-.416,0-.24-.432-.352-1.824-.448a7.439,7.439,0,0,1,.08,1.408c0,.528-.016,1.024-.032,1.488H-32.3a9.306,9.306,0,0,0-1.44-.72c.08,1.008.08,2.032.08,4.784,0,4.512-.08,6.032-.08,7.024,0,.3.16.432.528.432.512,0,.784-.16.784-.5,0-1.024-.016-2.4-.016-6.624v-4H-28.4a7.149,7.149,0,0,1-3.68,6.368c-.1.064,0,.288.1.24a8.16,8.16,0,0,0,3.456-2.448,5.2,5.2,0,0,0,.8-1.5A8.621,8.621,0,0,1-24.96-4.384c.464.784.576.912.88.912.32,0,.56-.32.56-.752,0-1.056-1.584-2.4-4.112-3.376a10.923,10.923,0,0,0,.4-2.384ZM-12.24.272h5.792V.7c0,.352.128.48.512.48.5,0,.7-.16.7-.544,0-.256-.048-1.088-.048-2.848v-1.04a.965.965,0,0,0,.336-.224c.32.176.672.352,1.008.5a2.863,2.863,0,0,0,.944.32c.16,0,.24-.064.3-.32.16-.5.336-.72.672-.816.08-.016.1-.176.016-.176A10.442,10.442,0,0,1-6.048-5.216,9.23,9.23,0,0,1-8.88-7.648c.384-.064.5-.144.5-.272,0-.16-.256-.288-1.536-.768a6.091,6.091,0,0,1-.928,1.68A15.884,15.884,0,0,1-16.32-2.656c-.1.048-.016.272.1.24a14.343,14.343,0,0,0,2.832-1.2c.016.352.016.8.016,1.488,0,2.048-.064,2.592-.064,2.944,0,.32.128.464.512.464.448,0,.688-.16.688-.512Zm.128-4.24c-.128-.08-.224-.144-.368-.224A12.428,12.428,0,0,0-9.136-7.5,10.426,10.426,0,0,0-6.672-4.64a5.685,5.685,0,0,0,.5.368c-.08.08-.16.176-.272.3Zm5.664,3.84H-12.24v-3.44h5.792Zm2.352-10.8a12.463,12.463,0,0,1-.656,1.584c-.032.064.08.16.144.112a6.678,6.678,0,0,0,1.232-.928.78.78,0,0,1,.72-.224c.432,0,.592-.1.592-.288,0-.112-.064-.192-.448-.576-.72-.688-.88-.784-1.008-.784-.112,0-.192.048-.768.7H-8.736v-1.1c.432-.176.544-.288.544-.416,0-.192-.192-.336-1.808-.512a10.167,10.167,0,0,1,.048,1.216v.816h-4.384a5.427,5.427,0,0,0-.112-.832c-.016-.1-.208-.08-.208.016a2.059,2.059,0,0,1-1.2,1.92c-.336.208-.448.368-.448.656a.656.656,0,0,0,.672.672c.72,0,1.28-.816,1.312-2.032ZM-4.4-6.5a.583.583,0,0,0,.544-.656c0-1.024-1.488-2.112-4.128-2.9-.1-.032-.16.16-.08.208A11.218,11.218,0,0,1-5.136-7.1C-4.816-6.64-4.64-6.5-4.4-6.5Zm-11.2.32a10.36,10.36,0,0,0,4.352-2.96c.448-.016.624-.08.624-.256,0-.16-.464-.4-1.5-.832a6.052,6.052,0,0,1-.8,1.344,10.247,10.247,0,0,1-2.784,2.464C-15.808-6.352-15.712-6.144-15.6-6.176ZM9.584-7.744a12.953,12.953,0,0,0,1.744-3.2h3.44a7.69,7.69,0,0,1-.512,1.312c-.032.064.08.144.128.112A6.228,6.228,0,0,0,15.44-10.3a.62.62,0,0,1,.512-.24c.448,0,.592-.064.592-.24,0-.1-.048-.208-.368-.512-.672-.624-.768-.688-.9-.688-.112,0-.192.064-.688.64h-3.1c.112-.336.24-.672.352-1.04.416-.08.56-.176.56-.352,0-.208-.208-.288-1.632-.64a7.851,7.851,0,0,1-.448,2.032H8.752a3.4,3.4,0,0,0-.112-.7c-.016-.08-.192-.08-.192,0a2.036,2.036,0,0,1-.976,1.728c-.368.224-.464.368-.464.656A.546.546,0,0,0,7.6-9.1c.736,0,1.136-.864,1.168-1.84h1.424A15.491,15.491,0,0,1,7.04-5.52c-.064.064.08.24.16.176.416-.336.784-.656,1.136-.992-.016.512-.016,1.024-.016,1.552C8.288-.672,8.224.3,8.224.9c0,.288.128.416.48.416.448,0,.656-.176.656-.512V.3h6.816c.16,0,.208-.048.208-.144s-.08-.208-.352-.448c-.624-.608-.752-.688-.848-.688s-.224.08-.816.88H12.656V-2.432h2.992c.16,0,.224-.048.224-.144s-.08-.224-.336-.432c-.592-.48-.688-.56-.8-.56-.1,0-.208.08-.72.736h-1.36V-4.88H15.6c.16,0,.208-.064.208-.16s-.064-.208-.3-.432c-.576-.464-.688-.544-.784-.544-.112,0-.224.08-.72.736H12.656V-7.344h3.28c.16,0,.224-.064.224-.16s-.064-.176-.352-.448c-.608-.5-.7-.576-.832-.576-.1,0-.176.08-.752.784h-2.16A9.305,9.305,0,0,0,13.28-9.216c.464-.064.592-.128.592-.288,0-.208-.176-.288-1.488-.7a8.146,8.146,0,0,1-.224,1.024,11.185,11.185,0,0,1-.576,1.44ZM9.36-.1V-2.432h2.256V-.1Zm0-2.736V-4.88h2.256v2.048Zm0-2.448V-7.344h2.256V-5.28ZM4.08-1.216H5.712v.544c0,.336.112.448.432.448.432,0,.672-.176.672-.48,0-.416-.064-1.792-.064-4.512V-6.752c.3-.208.368-.3.368-.432,0-.1-.064-.176-.272-.384-.432-.368-.512-.416-.624-.416-.1,0-.176.048-.64.528H4.192l-.144-.112A13.377,13.377,0,0,0,5.168-11.5H7.584c.16,0,.224-.048.224-.16s-.08-.208-.368-.464c-.64-.528-.752-.592-.864-.592-.1,0-.208.064-.8.816H3.024a4.792,4.792,0,0,1-1.136-.112l.16.608a5.385,5.385,0,0,1,.944-.1H4.016A15.462,15.462,0,0,1,1.568-4.5c-.048.08.112.224.176.16A10.756,10.756,0,0,0,3.056-5.872c0,.656-.016,1.312-.016,1.968,0,2.1-.08,3.728-.08,4.128,0,.208.176.32.464.32.432,0,.656-.16.656-.512Zm1.632-.4H4.08v-5.44H5.712ZM33.04-11.984a25.134,25.134,0,0,1-.448,4.176c-.176.72-.352.992-.768.992-.336,0-.8-.032-1.68-.1-.1,0-.112.208-.016.224,1.184.24,1.408.4,1.472.832.032.176.112.24.32.24a1.615,1.615,0,0,0,.992-.336,2.267,2.267,0,0,0,.64-1.1,20.66,20.66,0,0,0,.608-4.592c.336-.224.4-.32.4-.416s-.064-.176-.288-.384c-.512-.464-.608-.512-.72-.512-.1,0-.176.048-.64.576h-5.1a8.308,8.308,0,0,1-1.232-.1l.16.608a4.055,4.055,0,0,1,1.088-.112h1.44a14.6,14.6,0,0,1-.192,1.856,8.6,8.6,0,0,0-1.808-.368c-.08-.016-.144.16-.064.192a9.327,9.327,0,0,1,1.7.848,7.006,7.006,0,0,1-3.168,4.064c-.08.048.016.24.112.208A6.512,6.512,0,0,0,29.776-8.8c.176.16.368.336.56.528.336.336.56.432.752.432a.444.444,0,0,0,.4-.464c0-.464-.528-.992-1.392-1.424a11.813,11.813,0,0,0,.336-2.256ZM22.064.1h1.984V.608c0,.256.144.384.448.384.432,0,.656-.144.656-.464,0-.24-.048-1.136-.048-2.8V-3.12c.336-.256.384-.32.384-.416s-.048-.208-.272-.4c-.448-.384-.528-.448-.64-.448-.1,0-.176.064-.624.576H22.16a8.633,8.633,0,0,0-1.232-.576,20.128,20.128,0,0,1,.08,2.16c0,2-.064,2.656-.064,3.008,0,.256.16.368.5.368.432,0,.624-.176.624-.48Zm1.984-.4H22.064v-3.1h1.984ZM34.464-.16c.384,0,.608-.352.608-.816a3.421,3.421,0,0,0-1.968-2.5c-.064-.032-.16.08-.112.144a4.6,4.6,0,0,1,.9,2.352C33.968-.336,34.144-.16,34.464-.16Zm-3.2-2.928c.32,0,.528-.272.528-.656,0-.752-1.024-1.424-2.56-1.648-.064-.016-.112.08-.064.112A3.921,3.921,0,0,1,30.7-3.568C30.912-3.184,31.04-3.088,31.264-3.088ZM26.112-.128c.656,0,1.04-.864,1.04-2a5.893,5.893,0,0,0-.144-1.264c-.016-.064-.176-.064-.176,0a2.6,2.6,0,0,1-.88,1.984c-.32.256-.416.416-.416.672A.581.581,0,0,0,26.112-.128Zm-5.12-11.744a5.554,5.554,0,0,1,.96-.1h3.424c.16,0,.208-.048.208-.144s-.08-.208-.336-.416c-.608-.512-.72-.576-.832-.576-.1,0-.224.064-.768.736h-1.7a7.385,7.385,0,0,1-1.12-.1Zm-.608,2.144a5.121,5.121,0,0,1,.944-.08h4.88c.16,0,.208-.048.208-.16,0-.1-.064-.208-.336-.4-.64-.528-.752-.592-.848-.592-.112,0-.224.064-.784.752h-3.12a5.5,5.5,0,0,1-1.1-.112Zm.624,2.112a5.694,5.694,0,0,1,.944-.1H25.3c.144,0,.208-.048.208-.144s-.1-.208-.3-.4c-.56-.5-.672-.576-.784-.576-.1,0-.224.08-.7.72h-1.76a5.774,5.774,0,0,1-1.12-.1Zm.048,2.08a5.3,5.3,0,0,1,.928-.08H25.3c.144,0,.208-.064.208-.16s-.08-.208-.3-.4c-.576-.5-.688-.576-.8-.576-.1,0-.224.08-.72.736H22.016a7.416,7.416,0,0,1-1.136-.1ZM32.512-2.064c0-.08-.176-.1-.192-.016-.3,1.2-.432,1.536-.688,1.744s-.576.224-1.392.224c-.88,0-1.056-.128-1.056-.592v-2.64c.4-.176.48-.272.48-.432,0-.192-.112-.256-1.6-.416a9.517,9.517,0,0,1,.08,1.488c0,1.536-.032,1.92-.032,2.224,0,.976.464,1.312,2.16,1.312A7.745,7.745,0,0,0,32.416.624c.416-.144.672-.368.672-.672a.384.384,0,0,0-.224-.4c-.288-.08-.352-.144-.352-.368Z" transform="translate(60 15735)" fill="#4b4b4b"/>
    </g>
    <g id="Group_1647" data-name="Group 1647" transform="translate(247 -4)">
      <path id="Path_670" data-name="Path 670" d="M4.352-5.728c1.568.8,2.336,1.472,2.336,2.768A2.224,2.224,0,0,1,4.288-.7c-1.3,0-2.512-1.088-3.168-2.72-.032-.08-.08-.128-.256-.1C.72-3.488.7-3.408.7-3.328A21.084,21.084,0,0,0,1.232-.752a8.854,8.854,0,0,0,2.88.56c2.8,0,4.016-1.536,4.016-3.392,0-1.872-1.1-2.672-2.976-3.552L4.336-7.52C2.928-8.192,2.544-8.9,2.544-9.68a1.894,1.894,0,0,1,2-1.984c1.2,0,2.192.912,2.72,2.4.016.08.048.128.192.112.16-.032.192-.08.192-.16-.064-.832-.16-1.76-.176-2.56a3.929,3.929,0,0,1-1.552-.08,4.476,4.476,0,0,0-1.408-.224c-2.08,0-3.392,1.312-3.392,2.848,0,1.616.88,2.4,2.48,3.216ZM16.3-3.36a5.64,5.64,0,0,1-.176,2.1c-.176.3-.64.32-1.168.384-.112.016-.144.048-.144.224,0,.16.032.208.144.208.608-.048,1.44-.064,2.1-.064.64,0,1.536.016,2.208.064.112,0,.144-.048.144-.224,0-.16-.032-.192-.144-.208-.576-.064-1.12-.08-1.3-.384-.192-.336-.176-.512-.176-2.1V-9.04A4.548,4.548,0,0,1,18-11.024c.224-.352.64-.32,1.04-.32a2.952,2.952,0,0,1,1.92.5A3.666,3.666,0,0,1,22.016-9.2c.032.1.064.144.256.112.144-.032.16-.08.16-.192-.1-.8-.208-1.824-.272-2.64-1.76.08-3.456.08-5.088.08-1.648,0-3.28,0-5.04-.08-.064.816-.176,1.84-.288,2.64,0,.112.016.16.176.192s.208-.016.24-.112a3.888,3.888,0,0,1,1.072-1.648,2.948,2.948,0,0,1,1.872-.5c.4,0,.864,0,1.024.288.16.32.176.56.176,2.016Zm12.64-2.832c.256-.016.64-.016.992-.016a4.44,4.44,0,0,1,2.032.336,1.832,1.832,0,0,1,.56,1.184c.016.1.048.16.192.16.208,0,.224-.048.224-.16-.016-.576-.032-1.216-.032-1.808,0-.544.016-1.056.032-1.616,0-.1-.016-.144-.224-.144-.16,0-.176.048-.192.144A1.44,1.44,0,0,1,32-7.072a3.806,3.806,0,0,1-2.064.336c-.352,0-.736,0-.992-.016V-9.04a5.007,5.007,0,0,1,.16-1.9c.224-.368.768-.4,1.376-.4a3.533,3.533,0,0,1,2.384.512A3.614,3.614,0,0,1,33.9-9.248c.032.1.08.144.272.112.128-.032.16-.1.144-.192-.112-.8-.208-1.776-.272-2.592-1.376.08-2.688.08-3.952.08-1.312,0-2.736,0-4.064-.08-.112,0-.144.048-.144.256,0,.16.032.176.144.192.608.064,1.056.08,1.232.368.176.352.176.544.176,2.064v5.68a5.59,5.59,0,0,1-.192,2.112c-.192.3-.576.32-1.136.384-.1.016-.128.048-.128.208s.032.208.128.208C27.472-.5,28.944-.512,30.3-.512c1.3,0,2.656.016,4.032.064a16.953,16.953,0,0,0,.832-2.7c.032-.1.032-.16-.16-.224-.16-.048-.192,0-.24.1a4.988,4.988,0,0,1-1.232,1.616,4.224,4.224,0,0,1-2.784.656c-.72,0-1.328-.016-1.584-.432a4.553,4.553,0,0,1-.224-1.92ZM41.7-5.744a10.331,10.331,0,0,0,1.248.064c3.824,0,4.864-1.552,4.864-3.248,0-1.776-1.088-3.008-4.24-3.008-1.04,0-2.032.1-2.64.1-.656,0-1.536-.032-2.208-.08-.112,0-.144.048-.144.24,0,.176.032.192.144.208.592.064,1.152.08,1.328.384.16.352.16.528.16,2.048v5.68a5.967,5.967,0,0,1-.176,2.1c-.192.336-.608.352-1.184.4-.1.016-.128.032-.128.208,0,.192.016.208.128.208.624-.048,1.472-.064,2.144-.064.64,0,1.472.016,2.16.064.128,0,.16-.048.16-.208s-.032-.192-.16-.208c-.608-.064-1.12-.08-1.3-.4-.16-.288-.16-.512-.16-2.1Zm0-3.312a4.445,4.445,0,0,1,.224-2c.208-.3.832-.336,1.312-.336,1.84,0,2.928.864,2.928,2.528,0,1.456-.88,2.64-3.28,2.64a6.566,6.566,0,0,1-1.184-.1Zm13.792,2.48a2.729,2.729,0,0,0,2.384-2.656,2.7,2.7,0,0,0-2.96-2.688,2.917,2.917,0,0,0-3.04,2.3c0,.32.208.48.576.48.592,0,1.072-.32,1.072-.784a1.79,1.79,0,0,1,.16-.8,1.3,1.3,0,0,1,1.232-.7c1.024,0,1.488.992,1.488,2.192,0,1.728-.976,2.464-1.872,2.464-.176,0-.384-.048-.544-.048s-.256.064-.32.352c-.048.288.016.3.176.3.144,0,.464-.032.656-.048,1.7-.112,2.176,1.456,2.176,2.576,0,1.824-.688,2.944-1.872,2.944a1.324,1.324,0,0,1-1.3-.9c-.192-.416-.384-1.2-.864-1.2-.624,0-1.024.3-1.024.688,0,.512.512.992.992,1.3A3.84,3.84,0,0,0,54.8-.176a3.217,3.217,0,0,0,3.44-3.408c0-1.552-1.024-2.592-2.752-2.928Z" transform="translate(30 15715)" fill="#4b4b4b"/>
      <path id="Path_671" data-name="Path 671" d="M-4.032-10.688A5.712,5.712,0,0,1-4.56-9.216c-.032.064.08.112.128.08a5.889,5.889,0,0,0,1.168-.9.423.423,0,0,1,.368-.16c.544-.016.7-.1.7-.32,0-.112-.064-.208-.4-.544-.672-.608-.8-.72-.928-.72-.1,0-.192.08-.688.688H-8.88v-1.328c.432-.176.576-.32.576-.448,0-.192-.192-.32-1.84-.5.048.5.064.88.064,1.184v1.088h-4.288a5.425,5.425,0,0,0-.144-.944c-.016-.1-.224-.1-.224,0a2,2,0,0,1-1.136,1.888c-.336.208-.448.368-.448.656a.66.66,0,0,0,.688.672c.672,0,1.2-.72,1.264-1.872ZM-8.48-5.6v2.864c0,1.232-.032,1.616-.032,1.9C-8.512.56-7.872.88-5.584.88A10.028,10.028,0,0,0-3.136.672c.688-.16.992-.448.992-.816a.42.42,0,0,0-.272-.432c-.256-.1-.288-.16-.288-.352,0-.3.064-1.216.1-1.776,0-.08-.16-.112-.176-.032A5.732,5.732,0,0,1-3.7-.512c-.3.256-.816.3-1.872.3C-6.96-.208-7.28-.336-7.28-.944V-5.6h4.624c.16,0,.224-.048.224-.144s-.08-.208-.448-.5c-.752-.608-.864-.7-.976-.7-.1,0-.208.1-.96.944h-9.728a7.707,7.707,0,0,1-1.424-.112l.16.608a9.262,9.262,0,0,1,1.264-.1h2.64c-.128,3.408-1.3,5.088-4.624,6.512-.1.048-.032.272.08.24,4.016-.9,5.632-2.848,5.792-6.752Zm-5.04-2.448a7.026,7.026,0,0,1,1.136-.08h7.568c.16,0,.208-.048.208-.16,0-.1-.064-.224-.384-.48-.688-.576-.8-.64-.912-.64-.1,0-.224.064-.912.88h-5.568a7.471,7.471,0,0,1-1.3-.112ZM4.544-12.08a7.258,7.258,0,0,1-1.456-.112l.16.624a6.744,6.744,0,0,1,1.328-.112h8.48a15.778,15.778,0,0,1-3.184,2.9C9.6-8.832,9.2-8.9,8.592-8.992a13.317,13.317,0,0,1,.064,1.968v6.24c0,.192-.08.272-.288.272-.5,0-1.3-.064-2.416-.16-.112-.016-.112.256,0,.272C7.568-.1,7.9.1,8.016.56c.064.352.1.4.4.4A1.456,1.456,0,0,0,9.456.608,1.4,1.4,0,0,0,9.92-.528c0-.416-.048-.848-.048-3.2V-8.064c.416-.176.528-.288.528-.448,0-.064-.016-.1-.1-.144a16.744,16.744,0,0,0,4.032-2.592c.528-.032.736-.128.736-.32,0-.1-.08-.224-.352-.5-.624-.576-.752-.64-.864-.64s-.24.08-.784.624Z" transform="translate(60 15735)" fill="#4b4b4b"/>
    </g>
  </g>
</svg>
