<!-- Generator: Adobe Illustrator 22.1.0, SVG Export Plug-In  -->
<svg version="1.1"
xmlns="http://www.w3.org/2000/svg" xmlns:xlink="http://www.w3.org/1999/xlink" xmlns:a="http://ns.adobe.com/AdobeSVGViewerExtensions/3.0/"
x="0px" y="0px" width="690.8px" height="109.5px" viewBox="0 0 690.8 109.5" style="enable-background:new 0 0 690.8 109.5;"
xml:space="preserve">
<defs>
</defs>
<g>
<rect x="1" y="0" style="fill:#F0F1F1;" width="689.9" height="109.2"/>
</g>
<polygon points="226.8,109.2 113.4,109.2 0,109.2 0,55.8 0,2.4 113.4,2.4 226.8,2.4 244.8,55.8 "/>
<polyline style="fill:none;stroke:#FFFFFF;stroke-width:2;stroke-miterlimit:10;" points="454.5,2.4 472.5,55.8 454.5,109.2 "/>
<g>
<g>
<path style="fill:#FFFFFF;" d="M62.3,47.9c0.8,0,1.4,0.3,1.9,0.7c0.5,0.4,0.8,1,0.9,1.7c0.2,0.7,0,1.6-0.5,2.6
c-0.8,1.4-1.7,2.2-2.8,2.4c-0.2,0-0.3,0-0.4-0.1c-0.3-0.4,0-1.2,1-2.3c1.4-2,1.6-3.1,0.8-3.2c-0.2-0.1-0.8,0-1.7,0.2
c-0.9,0.2-1.3,0.3-1.3,0.4l-0.1,0.2c-0.1,0-0.8,0.4-2.2,1.3c-1.4,0.9-2.1,1.3-2.2,1.4c0,0.2-0.3,0.4-0.7,0.6
c-0.6,0.4-1.3,1.3-2.2,2.8c-0.3,0.5-0.6,1-0.7,1.5c-0.1,0.5-0.1,1,0,1.3c0.1,0.3,0.4,0.8,0.9,1.2c0.5,0.5,1.2,1,2,1.4
c2.2,1.2,3.5,2.2,3.9,3.1c0.7,1,0.9,1.9,0.6,2.9c-0.2,0.3-0.4,0.7-0.7,1c-0.3,0.3-0.6,0.5-0.9,0.5c-0.2,0-0.4,0.1-0.6,0.2
c-0.2,0.1-0.3,0.2-0.5,0.3c-0.1,0.1-0.6,0.2-1.4,0.3s-1.6,0.1-2.3,0.1l-1.2-0.4c0-0.1,0-0.2-0.1-0.3c-0.1-0.1-0.2-0.1-0.4-0.1
c-0.9-0.6-1.5-1.3-1.8-2.1c-0.2-0.3-0.2-0.5-0.2-0.6c0-0.1,0.1-0.2,0.4-0.3c0.2-0.1,0.4-0.2,0.5-0.1c0.1,0,0.2,0.2,0.4,0.6
c0.4,0.7,1.2,1.1,2.3,1.3c1.2,0.2,2.3,0,3.4-0.5c0.7-0.3,1.2-0.6,1.4-1c0.2-0.3,0.1-0.8-0.2-1.3c-0.1-0.2-0.2-0.4-0.3-0.5
c-0.4-0.4-0.7-0.7-1.1-1.1c-0.4-0.2-1-0.4-1.5-0.7c-0.6-0.3-1.2-0.7-2-1.3c-0.7-0.6-1.2-1.1-1.4-1.5c-0.5-0.4-0.8-1.1-0.9-2.1
c-0.1-0.9,0-1.8,0.4-2.5c0.2-0.5,0.8-1.3,1.6-2.3c0.8-1,1.4-1.6,1.9-1.9l1-0.9c0,0,0.1-0.1,0.3-0.2c0.5-0.2,1-0.5,1.4-0.9
C59.5,48.5,61.3,47.9,62.3,47.9z"/>
<path style="fill:#FFFFFF;" d="M65.4,57.7c-0.1-0.1-0.1-0.2-0.1-0.4c0-0.1,0.1-0.3,0.3-0.5c0.2-0.2,0.3-0.3,0.5-0.3
c0.1,0,0.4,0,0.9,0c0.5,0,0.8,0,0.9-0.1c0.2-0.1,0.3-0.2,0.3-0.3c0.2-0.5,0.4-1,0.7-1.6c0.6-1.2,1.1-1.9,1.4-2.2
c0.4-0.3,0.8-0.2,1.3,0.2c0.2,0.2,0.2,0.4,0.3,0.5c0,0.1-0.1,0.2-0.2,0.5c-0.1,0.3-0.3,0.6-0.6,1.1c-0.3,0.5-0.5,0.8-0.6,1
c-0.3,0.5-0.4,0.7-0.1,0.8c0.2,0,0.8,0,1.8-0.2c1-0.2,1.5,0.1,1.6,0.8c0.1,0.5,0,0.8-0.1,0.9c-0.2,0.1-0.6,0.2-1.4,0.2
c-0.6,0.1-1.2,0.2-1.8,0.2c-0.6,0-0.9,0-1,0.1c-0.2,0.1-0.4,0.3-0.6,0.6c-0.1,0-0.1,0.2-0.2,0.3c-0.1,0.2-0.4,0.7-0.7,1.4
c-0.5,1.6-0.9,2.9-1.1,4c-0.2,1.1-0.2,1.7-0.1,1.9c0.1,0.2,0.5,0.3,1.1,0.4c1,0.1,2.1-0.2,3.3-0.9l0.8-0.5
c0.2-0.3,0.4-0.2,0.6,0.3c0,0.2,0,0.4,0,0.5s-0.1,0.3-0.3,0.5c-0.2,0.2-0.5,0.4-0.9,0.7c-1.5,1-3,1.3-4.4,1
c-0.3-0.1-0.6-0.3-1-0.6c-0.3-0.4-0.5-0.7-0.6-1L65,66.5c-0.1-0.1-0.2-0.6-0.1-1.5c0-0.9,0.1-1.6,0.2-2c0.1-0.4,0.3-0.9,0.5-1.6
c0.3-0.7,0.4-1.2,0.5-1.4l0.8-1.7l-1.2-0.3C65.6,57.9,65.5,57.8,65.4,57.7z"/>
<path style="fill:#FFFFFF;" d="M80.3,66C80.3,66,80.4,66,80.3,66c0.1,0,0.1-0.1,0.2-0.1c0,0,0,0,0-0.1c0.1-0.1,0.3-0.3,0.5-0.5
c0.2-0.2,0.4-0.3,0.5-0.3c0.1,0,0.2,0,0.3,0.1c0.1,0.1,0.2,0.2,0.2,0.2c0.3,0,0.3,0.3-0.1,0.8c-0.4,0.5-0.9,1-1.5,1.4
c-0.6,0.6-1.4,0.8-2.3,0.6c-0.9-0.1-1.6-0.6-2.1-1.3c-0.6-0.8-0.9-2-0.7-3.7c0.1-1.1,0.6-2.3,1.4-3.4c0.9-1.2,1.8-2,2.8-2.3
c0.3-0.2,0.5-0.3,0.8-0.3c0.2,0,0.6,0,1.2,0.1c0.6,0.1,1,0.3,1.3,0.7c0.5,0.5,0.8,1.1,0.8,1.7c-0.1,0.5-0.4,1-0.9,1.7
c-0.5,0.6-1.2,1.1-1.9,1.5c-1.1,0.3-2,0.3-2.7-0.2c-0.4-0.1-0.6-0.1-0.7,0.1c-0.1,0.2-0.2,0.7-0.3,1.5c-0.2,1.4,0.2,2.1,1,2.3
c0.1,0,0.2,0,0.4,0.1c0.2,0,0.3,0,0.3,0.1c0,0,0.1,0,0.3,0c0.1,0,0.2,0,0.3,0c0.2,0,0.3-0.1,0.5-0.2c0.2-0.1,0.3-0.2,0.3-0.2
C80.1,66.1,80.2,66.1,80.3,66z M80.3,61.2c0.3-0.1,0.7-0.4,1-0.8c0.3-0.4,0.5-0.7,0.5-0.9c0-0.3-0.1-0.5-0.4-0.7
c-0.3-0.2-0.6-0.2-1-0.1c-0.4,0.1-0.8,0.3-1.2,0.7c-0.4,0.4-0.7,0.7-1,1.1C78.1,60.8,78,61,78,61.1c0.1,0.2,0.4,0.2,1,0.3
C79.5,61.4,80,61.3,80.3,61.2z"/>
<path style="fill:#FFFFFF;" d="M85,68.8l0.2-1.1c0.1-0.5,0.5-1.8,1.2-3.8c0.7-2,1.3-3.7,1.7-4.9c0.4-1,0.6-1.8,0.6-2.4
c0-0.1,0.1-0.3,0.3-0.5c0.2-0.2,0.6-0.2,1,0.1c0.1,0,0.1,0.1,0.3,0.3c0.1,0.2,0.2,0.3,0.2,0.4c0,0.1,0,0.4,0,0.9
c0,0.4-0.2,0.9-0.5,1.5c1.6-0.7,2.9-0.8,3.8-0.3c0.9,0.5,1.3,1.3,1.3,2.6c0,0.4-0.1,0.8-0.3,1.3c-0.2,0.5-0.4,0.9-0.6,1
c-0.1,0-0.3,0.2-0.5,0.6c-0.3,0.3-0.7,0.7-1.3,1c-0.6,0.4-1,0.5-1.3,0.4c-0.1,0-0.2,0.1-0.2,0.2c0,0.1-0.4,0.3-1.1,0.5
c-0.7,0.2-1.3,0.3-1.7,0.3c-0.4,0-0.6-0.1-0.8-0.2c-0.1,0.1-0.2,0.3-0.2,0.5c0,0.2-0.1,0.5-0.3,1.1c-0.2,0.6-0.4,0.9-0.5,0.9
c-0.1,0.1-0.1,0.2,0,0.3c0,0.4-0.1,0.7-0.2,0.9c0,0.5-0.1,1-0.3,1.4c0,0.2,0,0.5-0.1,0.7c-0.1,0.2-0.1,0.3-0.2,0.3
c-0.1,0-0.2,0.3-0.2,0.8c0,0.5-0.1,0.9-0.3,1.2c-0.2,0.3-0.4,0.4-0.6,0.4c0,0-0.1,0-0.1,0c-0.1,0-0.1,0-0.2,0
c-0.4-0.1-0.6-0.7-0.3-1.8c0.2-0.8,0.3-1.4,0.3-1.7l0.1-1c0.2-0.4,0.3-0.8,0.3-1.4C84.6,69.2,84.7,69,85,68.8z M92.9,60.6
c-0.3-0.4-0.8-0.4-1.6-0.2c-1.3,0.5-2.3,1.4-2.9,2.7c-0.6,1.3-0.7,2-0.4,2.1c0.3,0,0.9-0.2,1.8-0.5c0.9-0.3,1.6-0.7,2.1-1.1
c0.5-0.4,0.8-0.9,1-1.4C93.2,61.8,93.2,61.2,92.9,60.6z"/>
<path style="fill:#FFFFFF;" d="M105.9,53.3c1.7-1,2.6-1.6,2.7-1.5c0.1,0,0.3,0.1,0.5,0.3c0.2,0.2,0.4,0.3,0.4,0.5
c0.1,0.1,0.1,0.4-0.1,0.9c-0.2,0.4-0.5,1.4-1,2.7s-0.8,2.4-1,3.1c-0.2,0.7-0.4,1.4-0.7,2c-0.2,0.7-0.4,1.2-0.6,1.8
c-0.4,0.9-0.8,2.2-1.1,3.8c-0.1,0.2-0.2,0.5-0.3,0.8c-0.2,0.6-0.3,1-0.4,1c-0.2,0.1-0.5,0-1-0.5c-0.1-0.2-0.2-0.4-0.2-0.5
c0-0.3,0.3-1.8,1-4.3c0.2-0.1,0.5-0.9,0.9-2.3c0.4-1.5,0.8-2.8,1.2-3.9l0.6-2.3c-1.1,0.6-2.1,1.3-3.2,2.1c-1.1,0.8-1.8,1.3-2,1.4
c-0.5,0.4-0.9,0.7-1,0.7c-0.1,0.1-0.3,0-0.5-0.1c-0.6-0.5-0.7-0.9-0.5-1.3c0.1,0,0.4-0.3,1.1-0.8c0.7-0.5,1.1-0.7,1.1-0.8
c0.1,0,0.2-0.1,0.2-0.1c0.1-0.1,0.2-0.1,0.3-0.3c0.1-0.1,0.2-0.2,0.3-0.3c0.1-0.1,0.2-0.2,0.5-0.4c0.3-0.2,0.7-0.5,1.2-0.9
C105.1,53.9,105.5,53.6,105.9,53.3z"/>
</g>
</g>
<g>
<path style="fill:#FFFFFF;" d="M131,50c-0.8,0-1.7,0.1-2.9,0.2v-3.6c0.9,0.1,1.5,0.2,2.8,0.2h4.8c1.2,0,2,0,2.7-0.2
c-0.1,0.9-0.1,1.1-0.1,1.9c0,4.3,1.1,8.2,3.2,11.9c1.3,2.1,2.7,3.9,4.8,5.8c1.5,1.4,2.4,2,4.4,3.2c-1.1,1.1-1.7,1.9-2.5,3.4
c-3-2.1-5.2-4.3-7.3-7c-1.1-1.5-1.8-2.6-2.6-4.4c-0.8-1.6-1-2.4-1.5-4.3c-1.1,3.8-2.3,6.4-4.3,9.1c-1.9,2.5-4.2,4.6-7.4,6.8
c-0.6-1.3-1.3-2.2-2.5-3.1c2.5-1.5,4-2.6,6-4.7c2.3-2.4,4.2-5.6,5.1-8.9c0.6-2.1,0.9-3.6,1-6.1H131z"/>
<path style="fill:#FFFFFF;" d="M178.4,51.3c1.8,0,2.9,0,3.9-0.1c-0.1,1.2-0.1,1.2-0.2,4.5c-0.1,4.1-0.4,9.2-0.7,11.2
c-0.4,2.8-0.8,3.8-1.7,4.5c-0.8,0.6-1.9,0.8-3.6,0.8c-1.4,0-2.7-0.1-4.6-0.3c-0.2-1.5-0.4-2.4-0.8-3.6c1.9,0.4,3.7,0.6,5.2,0.6
c1.4,0,1.9-0.5,2.2-2.5c0.4-2.2,0.7-6.9,0.7-11.7h-8.1c-0.5,4.4-1.3,7.5-2.7,10c-1.7,3.1-4.5,5.7-8.6,8c-0.7-1.3-1.4-2.2-2.5-3.1
c4.1-1.8,6.8-4.2,8.5-7.5c0.9-1.8,1.5-4.1,1.9-7.4h-5.2c-1.5,0-2.7,0.1-3.7,0.2v-3.6c1.1,0.2,2.1,0.2,3.8,0.2h5.3
c0.1-1.2,0.1-1.5,0.1-3.1c0-1.4-0.1-2.3-0.2-2.9h4c-0.1,0.8-0.1,0.8-0.3,6H178.4z"/>
</g>
<g>
<path style="fill:#747373;" d="M293.1,45.8c0.8,0,1.4,0.3,1.9,0.7c0.5,0.4,0.8,1,0.9,1.7c0.2,0.7,0,1.6-0.5,2.6
c-0.8,1.4-1.7,2.2-2.8,2.4c-0.2,0-0.3,0-0.4-0.1c-0.3-0.4,0-1.2,1-2.3c1.4-2,1.6-3.1,0.8-3.2c-0.2-0.1-0.8,0-1.7,0.2
c-0.9,0.2-1.3,0.3-1.3,0.4l-0.1,0.2c-0.1,0-0.8,0.4-2.2,1.3c-1.4,0.9-2.1,1.3-2.2,1.4c0,0.2-0.3,0.4-0.7,0.6
c-0.6,0.4-1.3,1.3-2.2,2.8c-0.3,0.5-0.6,1-0.7,1.5c-0.1,0.5-0.1,1,0,1.3c0.1,0.3,0.4,0.8,0.9,1.2c0.5,0.5,1.2,1,2,1.4
c2.2,1.2,3.5,2.2,3.9,3.1c0.7,1,0.9,1.9,0.6,2.9c-0.2,0.3-0.4,0.7-0.7,1c-0.3,0.3-0.6,0.5-0.9,0.5c-0.2,0-0.4,0.1-0.6,0.2
c-0.2,0.1-0.3,0.2-0.5,0.3c-0.1,0.1-0.6,0.2-1.4,0.3c-0.8,0.1-1.6,0.1-2.3,0.1l-1.2-0.4c0-0.1,0-0.2-0.1-0.3
c-0.1-0.1-0.2-0.1-0.4-0.1c-0.9-0.6-1.5-1.3-1.8-2.1c-0.2-0.3-0.2-0.5-0.2-0.6c0-0.1,0.1-0.2,0.4-0.3c0.2-0.1,0.4-0.2,0.5-0.1
c0.1,0,0.2,0.2,0.4,0.6c0.4,0.7,1.2,1.1,2.3,1.3c1.2,0.2,2.3,0,3.4-0.5c0.7-0.3,1.2-0.6,1.4-1c0.2-0.3,0.1-0.8-0.2-1.3
c-0.1-0.2-0.1-0.4-0.3-0.5c-0.4-0.4-0.7-0.7-1.1-1.1c-0.4-0.2-1-0.4-1.5-0.7c-0.6-0.3-1.2-0.7-2-1.3c-0.7-0.6-1.2-1.1-1.4-1.5
c-0.5-0.4-0.8-1.1-0.9-2.1c-0.1-0.9,0-1.8,0.4-2.5c0.2-0.5,0.8-1.3,1.6-2.3c0.8-1,1.4-1.6,1.9-1.9l1-0.9c0,0,0.1-0.1,0.3-0.2
c0.5-0.2,1-0.5,1.4-0.9C290.3,46.4,292.1,45.8,293.1,45.8z"/>
<path style="fill:#747373;" d="M296.2,55.6c-0.1-0.1-0.1-0.2-0.1-0.4c0-0.1,0.1-0.3,0.3-0.5c0.2-0.2,0.3-0.3,0.5-0.3
c0.1,0,0.4,0,0.9,0c0.5,0,0.8,0,0.9-0.1c0.2-0.1,0.3-0.2,0.3-0.3c0.2-0.5,0.4-1,0.7-1.6c0.6-1.2,1.1-1.9,1.4-2.2
c0.4-0.3,0.8-0.2,1.3,0.2c0.2,0.2,0.2,0.4,0.3,0.5c0,0.1-0.1,0.2-0.2,0.5c-0.1,0.3-0.3,0.6-0.6,1.1c-0.3,0.5-0.5,0.8-0.6,1
c-0.3,0.5-0.4,0.7-0.1,0.8c0.2,0,0.8,0,1.8-0.2c1-0.2,1.5,0.1,1.6,0.8c0.1,0.5,0,0.8-0.1,0.9c-0.2,0.1-0.6,0.2-1.4,0.2
c-0.6,0.1-1.2,0.2-1.8,0.2c-0.6,0-0.9,0-1,0.1c-0.2,0.1-0.4,0.3-0.6,0.6c-0.1,0-0.1,0.2-0.2,0.3c-0.1,0.2-0.4,0.7-0.7,1.4
c-0.5,1.6-0.9,2.9-1.1,4c-0.2,1.1-0.2,1.7-0.1,1.9c0.1,0.2,0.5,0.3,1,0.4c1,0.1,2.1-0.2,3.3-0.9l0.8-0.5c0.2-0.3,0.4-0.2,0.6,0.3
c0,0.2,0,0.4,0,0.5c0,0.1-0.1,0.3-0.3,0.5c-0.2,0.2-0.5,0.4-0.9,0.7c-1.5,1-3,1.3-4.4,1c-0.3-0.1-0.6-0.3-1-0.6
c-0.3-0.4-0.5-0.7-0.6-1l-0.2-0.2c-0.1-0.1-0.2-0.6-0.1-1.5c0-0.9,0.1-1.6,0.2-2c0.1-0.4,0.3-0.9,0.5-1.6c0.3-0.7,0.4-1.2,0.5-1.4
l0.8-1.7l-1.2-0.3C296.4,55.8,296.3,55.7,296.2,55.6z"/>
<path style="fill:#747373;" d="M311.1,63.9C311.1,63.9,311.2,63.9,311.1,63.9c0.1,0,0.1-0.1,0.2-0.1c0,0,0,0,0-0.1
c0.1-0.1,0.3-0.3,0.5-0.5s0.4-0.3,0.5-0.3c0.1,0,0.2,0,0.3,0.1c0.1,0.1,0.2,0.2,0.2,0.2c0.3,0,0.3,0.3-0.1,0.8
c-0.4,0.5-0.9,1-1.5,1.4c-0.6,0.6-1.4,0.8-2.3,0.6c-0.9-0.1-1.6-0.6-2.1-1.3c-0.6-0.8-0.9-2-0.7-3.7c0.1-1.1,0.6-2.3,1.4-3.4
c0.9-1.2,1.8-2,2.8-2.3c0.3-0.2,0.5-0.3,0.8-0.3c0.2,0,0.6,0,1.2,0.1c0.6,0.1,1,0.3,1.3,0.7c0.5,0.5,0.8,1.1,0.8,1.7
c-0.1,0.5-0.4,1-0.9,1.7c-0.5,0.6-1.2,1.1-1.9,1.5c-1.1,0.3-2,0.3-2.7-0.2c-0.4-0.1-0.6-0.1-0.7,0.1c-0.1,0.2-0.2,0.7-0.3,1.5
c-0.2,1.4,0.2,2.1,1,2.3c0.1,0,0.2,0,0.4,0.1c0.2,0,0.3,0,0.3,0.1c0,0,0.1,0,0.3,0c0.1,0,0.2,0,0.3,0c0.2,0,0.3-0.1,0.5-0.2
c0.2-0.1,0.3-0.2,0.3-0.2C310.9,64,311,64,311.1,63.9z M311.1,59.1c0.3-0.1,0.7-0.4,1-0.8c0.3-0.4,0.5-0.7,0.5-0.9
s-0.1-0.5-0.4-0.7c-0.3-0.2-0.6-0.2-1-0.1c-0.4,0.1-0.8,0.3-1.2,0.7c-0.4,0.4-0.7,0.7-1,1.1c-0.3,0.4-0.4,0.6-0.3,0.6
c0.1,0.2,0.4,0.2,1,0.3C310.3,59.3,310.8,59.2,311.1,59.1z"/>
<path style="fill:#747373;" d="M315.8,66.7l0.2-1.1c0.1-0.5,0.5-1.8,1.2-3.8c0.7-2,1.3-3.7,1.7-4.9c0.4-1,0.6-1.8,0.6-2.4
c0-0.1,0.1-0.3,0.3-0.5c0.2-0.2,0.6-0.2,1,0.1c0.1,0,0.1,0.1,0.3,0.3c0.1,0.2,0.2,0.3,0.2,0.4c0,0.1,0,0.4,0,0.9
c0,0.4-0.2,0.9-0.5,1.5c1.6-0.7,2.9-0.8,3.8-0.3c0.9,0.5,1.3,1.3,1.3,2.6c0,0.4-0.1,0.8-0.3,1.3c-0.2,0.5-0.4,0.9-0.6,1
c-0.1,0-0.3,0.2-0.5,0.6c-0.3,0.3-0.7,0.7-1.3,1c-0.6,0.4-1,0.5-1.3,0.4c-0.1,0-0.2,0.1-0.2,0.2c0,0.1-0.4,0.3-1.1,0.5
c-0.8,0.2-1.3,0.3-1.7,0.3c-0.4,0-0.6-0.1-0.8-0.2c-0.1,0.1-0.2,0.3-0.2,0.5c0,0.2-0.1,0.5-0.3,1.1c-0.2,0.6-0.4,0.9-0.5,0.9
c-0.1,0.1-0.1,0.2,0,0.3c0,0.4-0.1,0.7-0.2,0.9c0,0.5-0.1,1-0.3,1.4c0,0.2,0,0.5-0.1,0.7c-0.1,0.2-0.1,0.3-0.2,0.3
c-0.1,0-0.2,0.3-0.2,0.8c0,0.5-0.1,0.9-0.3,1.2c-0.2,0.3-0.4,0.4-0.6,0.4c0,0-0.1,0-0.1,0c-0.1,0-0.1,0-0.2,0
c-0.4-0.1-0.6-0.7-0.3-1.8c0.2-0.8,0.3-1.4,0.3-1.7l0.1-1c0.2-0.4,0.3-0.8,0.3-1.4C315.4,67.1,315.5,66.9,315.8,66.7z M323.7,58.5
c-0.3-0.4-0.8-0.4-1.6-0.2c-1.3,0.5-2.3,1.4-2.9,2.7c-0.6,1.3-0.7,2-0.4,2.1c0.3,0,0.9-0.2,1.8-0.5c0.9-0.3,1.6-0.7,2.1-1.1
c0.5-0.4,0.8-0.9,1-1.4C324,59.7,324,59.1,323.7,58.5z"/>
<path style="fill:#747373;" d="M336.6,50.7l0.9,0.1c0.2,0,0.6,0.2,0.9,0.6c0.4,0.4,0.7,0.8,0.9,1.2c0.6,0.9,0.4,2-0.6,3.4
c-0.2,0.3-0.8,0.9-1.8,2.1c-1,1.1-1.6,1.8-1.8,1.9c-0.4,0.2-1,0.8-1.8,1.8c-0.8,1-1.2,1.5-1.2,1.5c0,0.1,0,0.1,0.1,0.1
c0.1,0,0.3-0.1,0.7-0.2c0.4-0.1,1.2-0.3,2.4-0.4c1.2-0.2,1.9-0.2,2-0.1l0.1,0.1c0.1-0.1,0.3-0.2,0.8-0.1c0.4,0,0.9,0.1,1.3,0.3
c0.5,0.1,0.7,0.3,0.7,0.4c0,0.1,0.1,0.3,0.3,0.4c0.5,0.4,0.4,0.6-0.3,0.6c-0.3,0-0.7-0.1-1.1-0.1c-0.5,0-0.9,0-1,0
c-0.2,0-0.7,0.1-1.5,0.1c-0.6-0.1-1.2,0-2,0.3c-0.7,0.3-1.6,0.5-2.6,0.8c-1,0.3-1.6,0.4-1.7,0.3c-0.2-0.1-0.4-0.2-0.6-0.4
c-0.3-0.2-0.4-0.4-0.5-0.5c-0.1-0.1-0.1-0.3,0-0.6s0.1-0.4,0.2-0.4c0.1,0.1,0.2-0.1,0.5-0.5c0.3-0.4,0.4-0.6,0.4-0.7
c0-0.1,0.2-0.2,0.4-0.4c0,0,0.2-0.2,0.5-0.6c0.3-0.4,0.6-0.7,0.8-0.9c2.1-2,3.2-3.2,3.2-3.6c0.1-0.1,0.3-0.3,0.5-0.4
c0.2-0.1,0.5-0.3,0.7-0.6c0.1-0.4,0.4-0.9,0.9-1.4c0.3-0.5,0.6-0.9,0.7-1.3c0.1-0.3,0.1-0.5,0.1-0.6c-0.1,0-0.3-0.1-0.8-0.3
c-1.2-0.4-2.3-0.2-3.5,0.6c-0.1,0-0.3,0.1-0.5,0.2c-0.4,0.2-0.7,0.2-0.8,0.2c-0.1,0-0.2-0.1-0.2-0.1c-0.1-0.1-0.1-0.2-0.2-0.3
c-0.1-0.1-0.2-0.2-0.2-0.3l-0.3-0.6l0.9-0.5C334.2,50.8,335.6,50.4,336.6,50.7z"/>
</g>
<g>
<path style="fill:#747373;" d="M367.6,66.5c0,1.2,0,1.7,0.1,2.3h-2.8v-1.3h-2.1v2.8h-3c0.1-0.9,0.2-1.9,0.2-3.1v-6.2
c0-0.6,0-1.5,0.1-2.3c-0.6,1.4-0.8,1.8-1.6,2.7c-0.3-1.6-0.6-2.5-1.1-3.7c1.5-1.7,2.5-3.7,3.3-6.3c0.5-1.4,0.7-2.5,1-4.3h-0.7
c-1.1,0-1.6,0-2.5,0.2v-3.2c0.8,0.1,1.7,0.2,2.9,0.2h3.5c1.2,0,2-0.1,2.9-0.2v3.2c-0.7-0.1-1.1-0.1-1.8-0.1h-1.2
c-0.5,2.5-0.8,4-1.8,6.6h2.9c0.8,0,1.3,0,1.8-0.1c-0.1,0.6-0.1,1.3-0.1,2.2v0.7c2.3-2.1,3.9-4.4,5.4-7.9h-1.8v3.1h-3
c0.1-0.6,0.1-1.3,0.1-1.9v-2.5c0-0.5,0-0.7-0.1-1.5c0.7,0.1,0.9,0.1,2.2,0.1h3.5c0.3-1.3,0.5-1.9,0.6-2.9l3.4,0.4
c-0.1,0.2-0.3,1-0.8,2.5h5.5c1.1,0,1.9,0,2.6-0.1c-0.1,0.6-0.1,1.1-0.1,2.2v1.7c0,0.8,0,1.3,0.1,1.9h-3.2v-2.9h-5.9
c-0.6,1.6-1.1,2.5-2.1,4.2h2.9c0.5-1,0.9-2,1.2-3.3l2.9,0.6c-0.4,1.2-0.7,1.8-1.1,2.6h2.2c1.3,0,1.8,0,2.5-0.1v2.9
c-0.8-0.1-1.6-0.1-2.4-0.1h-2.8v2.2h2.2c1.3,0,1.8,0,2.5-0.1v2.7c-0.8-0.1-1.5-0.1-2.5-0.1h-2.2v2.2h2.2c1.3,0,1.8,0,2.5-0.1v2.7
c-0.8-0.1-1.4-0.1-2.5-0.1h-2.2V67h2.9c1.4,0,2,0,2.8-0.1v3c-1-0.1-1.8-0.2-2.9-0.2H373V71h-3.2c0.1-1,0.2-1.8,0.2-3.4v-7.5
c0-1.2,0.1-1.9,0.1-2.1c-0.4,0.6-0.8,1-1.4,1.6c-0.3-0.7-0.6-1.1-1.1-1.9V66.5z M362.8,64.6h2.1v-7.9h-2.1V64.6z M376.6,57.7v-2.2
H373v2.2H376.6z M373,62.3h3.6v-2.2H373V62.3z M373,67h3.6v-2.2H373V67z"/>
<path style="fill:#747373;" d="M392.6,48.3c0.7,0.1,1.3,0.1,2.4,0.1h5.8c1.3,0,1.8,0,2.4-0.1v3.1c-0.7-0.1-1.1-0.1-2.3-0.1H395
c-1,0-1.6,0-2.4,0.1V48.3z M393.6,44.1c0.8,0.1,1.2,0.2,2.4,0.2h4c1.2,0,1.7,0,2.4-0.2v3c-0.8-0.1-1.4-0.1-2.4-0.1h-4
c-1,0-1.7,0-2.4,0.1V44.1z M402.3,68.2c0,1.2,0,1.7,0.1,2.3h-2.8v-1h-3v1.5h-3c0.1-1,0.1-2,0.1-2.9v-4.4c0-0.9,0-1.5-0.1-2.4
c0.7,0.1,1.3,0.1,2.3,0.1h4.4c1.1,0,1.6,0,2-0.1c-0.1,0.5-0.1,1-0.1,2.2v3.7c1.1-2.1,1.6-3.7,1.9-6.9l2.6,0.6
c-0.5,3.7-0.8,5.2-2,8.2l-2.4-1.4V68.2z M393.7,52.8c0.6,0.1,1,0.1,1.9,0.1h5c1,0,1.4,0,1.8-0.1v2.8c-0.7-0.1-1-0.1-1.8-0.1h-5
c-0.9,0-1.4,0-1.9,0.1V52.8z M393.7,57c0.6,0.1,1,0.1,1.9,0.1h4.9c1,0,1.4,0,1.9-0.1v2.8c-0.5-0.1-1-0.1-1.9-0.1h-4.9
c-0.9,0-1.2,0-1.9,0.1V57z M396.5,66.8h3.1v-3h-3.1V66.8z M405,48.6c1.7,0.5,2.3,0.8,3.4,1.2c0.3-0.9,0.4-1.3,0.5-2.4h-2
c-1.6,0-2.3,0-3.2,0.1v-3.2c0.9,0.1,2,0.2,3.3,0.2h9.5c1.2,0,2.1,0,2.8-0.1c-0.1,0.5-0.1,0.5-0.2,2.6c-0.1,3-0.5,6.1-0.8,7.5
c-0.5,2.4-1.4,3-3.8,3c-0.9,0-1.5,0-2.4-0.1c-0.2-1.3-0.3-1.8-0.8-3l0.2,0.1c-0.7-0.5-1-0.7-1.7-1c-1.4,2.3-2.9,3.6-5.5,5.2
c-0.7-1.1-1.1-1.6-2.1-2.4c2.5-1.2,3.9-2.3,5-4.1c-1.3-0.5-1.8-0.8-3.5-1.4L405,48.6z M410.2,66.8c0,0.7,0.2,0.8,1.3,0.8
c1.7,0,2.1-0.1,2.3-0.5c0.2-0.4,0.3-1.6,0.3-3.3c1,0.5,1.7,0.7,2.8,0.9c-0.3,5.2-0.9,5.7-5.2,5.7c-3.7,0-4.4-0.4-4.4-2.2V62
c0-0.8-0.1-1.4-0.1-2.2h3.2c-0.1,0.6-0.2,1-0.2,1.9V66.8z M410.4,56.2c2.8,2.1,2.8,2.2,4.6,4.2l-2.2,1.9c-1.3-1.8-2.5-3-4.5-4.4
L410.4,56.2z M411.9,47.4c-0.2,1.7-0.4,2.3-0.8,3.6c0.9,0.4,1.3,0.7,2.5,1.3l-1.3,2.2c0.6,0.1,1.1,0.1,1.7,0.1
c0.9,0,1.2-0.2,1.5-1.3c0.3-1.1,0.5-2.9,0.6-6H411.9z M417.7,59.9c1.4,2.3,2.2,4,3.3,7l-2.5,1.6c-1-3.4-1.6-4.7-3.2-7.3L417.7,59.9
z"/>
</g>
<g>
<path style="fill:#747373;" d="M520.5,45.2c0.8,0,1.4,0.3,1.9,0.7c0.5,0.4,0.8,1,0.9,1.7c0.2,0.7,0,1.6-0.5,2.6
c-0.8,1.4-1.7,2.2-2.8,2.4c-0.2,0-0.3,0-0.4-0.1c-0.3-0.4,0-1.2,1-2.3c1.4-2,1.6-3.1,0.8-3.2c-0.2-0.1-0.8,0-1.7,0.2
c-0.9,0.2-1.3,0.3-1.3,0.4l-0.1,0.2c-0.1,0-0.8,0.4-2.2,1.3c-1.4,0.9-2.1,1.3-2.2,1.4c0,0.2-0.3,0.4-0.7,0.6
c-0.6,0.4-1.3,1.3-2.2,2.8c-0.3,0.5-0.6,1-0.7,1.5c-0.1,0.5-0.1,1,0,1.3c0.1,0.3,0.4,0.8,0.9,1.2c0.5,0.5,1.2,1,2,1.4
c2.2,1.2,3.5,2.2,3.9,3.1c0.7,1,0.9,1.9,0.6,2.9c-0.2,0.3-0.4,0.7-0.8,1s-0.6,0.5-0.9,0.5c-0.2,0-0.4,0.1-0.6,0.2
c-0.2,0.1-0.3,0.2-0.5,0.3c-0.1,0.1-0.6,0.2-1.4,0.3c-0.8,0.1-1.6,0.1-2.3,0.1l-1.2-0.4c0-0.1,0-0.2-0.1-0.3
c-0.1-0.1-0.2-0.1-0.4-0.1c-0.9-0.6-1.5-1.3-1.8-2.1c-0.2-0.3-0.2-0.5-0.2-0.6c0-0.1,0.1-0.2,0.4-0.3c0.2-0.1,0.4-0.2,0.5-0.1
c0.1,0,0.2,0.2,0.4,0.6c0.4,0.7,1.2,1.1,2.3,1.3c1.2,0.2,2.3,0,3.4-0.5c0.7-0.3,1.2-0.6,1.4-1c0.2-0.3,0.1-0.8-0.2-1.3
c-0.1-0.2-0.1-0.4-0.3-0.5c-0.4-0.4-0.7-0.7-1.1-1.1c-0.4-0.2-1-0.4-1.5-0.7c-0.6-0.3-1.2-0.7-2-1.3c-0.7-0.6-1.2-1.1-1.4-1.5
c-0.5-0.4-0.8-1.1-0.9-2.1c-0.1-0.9,0-1.8,0.4-2.5c0.2-0.5,0.8-1.3,1.6-2.3c0.8-1,1.4-1.6,1.9-1.9l1-0.9c0,0,0.1-0.1,0.3-0.2
c0.5-0.2,1-0.5,1.4-0.9C517.7,45.8,519.5,45.2,520.5,45.2z"/>
<path style="fill:#747373;" d="M523.6,55c-0.1-0.1-0.1-0.2-0.1-0.4c0-0.1,0.1-0.3,0.3-0.5c0.2-0.2,0.3-0.3,0.5-0.3
c0.1,0,0.4,0,0.9,0c0.5,0,0.8,0,0.9-0.1c0.2-0.1,0.3-0.2,0.3-0.3c0.2-0.5,0.4-1,0.7-1.6c0.6-1.2,1.1-1.9,1.4-2.2
c0.4-0.3,0.8-0.2,1.3,0.2c0.2,0.2,0.2,0.4,0.3,0.5c0,0.1-0.1,0.2-0.2,0.5c-0.1,0.3-0.3,0.6-0.6,1.1c-0.3,0.5-0.5,0.8-0.6,1
c-0.3,0.5-0.4,0.7-0.1,0.8c0.2,0,0.8,0,1.8-0.2c1-0.2,1.5,0.1,1.6,0.8c0.1,0.5,0,0.8-0.1,0.9c-0.2,0.1-0.6,0.2-1.4,0.2
c-0.6,0.1-1.2,0.2-1.8,0.2c-0.6,0-0.9,0-1,0.1c-0.2,0.1-0.4,0.3-0.6,0.6c-0.1,0-0.1,0.2-0.2,0.3c-0.1,0.2-0.4,0.7-0.7,1.4
c-0.5,1.6-0.9,2.9-1.1,4c-0.2,1.1-0.2,1.7-0.1,1.9c0.1,0.2,0.5,0.3,1,0.4c1,0.1,2.1-0.2,3.3-0.9l0.8-0.5c0.2-0.3,0.4-0.2,0.6,0.3
c0,0.2,0,0.4,0,0.5c0,0.1-0.1,0.3-0.3,0.5c-0.2,0.2-0.5,0.4-0.9,0.7c-1.5,1-3,1.3-4.4,1c-0.3-0.1-0.6-0.3-1-0.6
c-0.3-0.4-0.5-0.7-0.6-1l-0.2-0.2c-0.1-0.1-0.2-0.6-0.1-1.5c0-0.9,0.1-1.6,0.2-2c0.1-0.4,0.3-0.9,0.5-1.6c0.3-0.7,0.4-1.2,0.5-1.4
l0.8-1.7l-1.2-0.3C523.8,55.2,523.7,55.1,523.6,55z"/>
<path style="fill:#747373;" d="M538.5,63.3C538.5,63.3,538.6,63.3,538.5,63.3c0.1,0,0.1-0.1,0.2-0.1c0,0,0,0,0-0.1
c0.1-0.1,0.3-0.3,0.5-0.5s0.4-0.3,0.5-0.3c0.1,0,0.2,0,0.3,0.1c0.1,0.1,0.2,0.2,0.2,0.2c0.3,0,0.3,0.3-0.1,0.8
c-0.4,0.5-0.9,1-1.5,1.4c-0.6,0.6-1.4,0.8-2.3,0.6c-0.9-0.1-1.6-0.6-2.1-1.3c-0.6-0.8-0.9-2-0.7-3.7c0.1-1.1,0.6-2.3,1.4-3.4
c0.9-1.2,1.8-2,2.8-2.3c0.3-0.2,0.5-0.3,0.8-0.3c0.2,0,0.6,0,1.2,0.1c0.6,0.1,1,0.3,1.3,0.7c0.5,0.5,0.8,1.1,0.8,1.7
c-0.1,0.5-0.4,1-0.9,1.7c-0.5,0.6-1.2,1.1-1.9,1.5c-1.1,0.3-2,0.3-2.7-0.2c-0.4-0.1-0.6-0.1-0.7,0.1c-0.1,0.2-0.2,0.7-0.3,1.5
c-0.2,1.4,0.2,2.1,1,2.3c0.1,0,0.2,0,0.4,0.1c0.2,0,0.3,0,0.3,0.1c0,0,0.1,0,0.3,0c0.1,0,0.2,0,0.3,0c0.2,0,0.3-0.1,0.5-0.2
s0.3-0.2,0.3-0.2C538.3,63.4,538.4,63.4,538.5,63.3z M538.5,58.5c0.3-0.1,0.7-0.4,1-0.8s0.5-0.7,0.5-0.9s-0.1-0.5-0.4-0.7
c-0.3-0.2-0.6-0.2-1-0.1c-0.4,0.1-0.8,0.3-1.2,0.7c-0.4,0.4-0.7,0.7-1,1.1c-0.3,0.4-0.4,0.6-0.3,0.6c0.1,0.2,0.4,0.2,1,0.3
C537.7,58.7,538.2,58.6,538.5,58.5z"/>
<path style="fill:#747373;" d="M543.1,66.1l0.2-1.1c0.1-0.5,0.5-1.8,1.2-3.8c0.7-2,1.3-3.7,1.7-4.9c0.4-1,0.6-1.8,0.6-2.4
c0-0.1,0.1-0.3,0.3-0.5c0.2-0.2,0.6-0.2,1,0.1c0.1,0,0.1,0.1,0.3,0.3c0.1,0.2,0.2,0.3,0.2,0.4c0,0.1,0,0.4,0,0.9
c0,0.4-0.2,0.9-0.5,1.5c1.6-0.7,2.9-0.8,3.8-0.3c0.9,0.5,1.3,1.3,1.3,2.6c0,0.4-0.1,0.8-0.3,1.3c-0.2,0.5-0.4,0.9-0.6,1
c-0.1,0-0.3,0.2-0.5,0.6c-0.3,0.3-0.7,0.7-1.3,1c-0.6,0.4-1,0.5-1.3,0.4c-0.1,0-0.2,0.1-0.1,0.2c0,0.1-0.4,0.3-1.1,0.5
c-0.8,0.2-1.3,0.3-1.7,0.3c-0.4,0-0.6-0.1-0.8-0.2c-0.1,0.1-0.2,0.3-0.2,0.5c0,0.2-0.1,0.5-0.3,1.1c-0.2,0.6-0.4,0.9-0.5,0.9
c-0.1,0.1-0.1,0.2,0,0.3c0,0.4-0.1,0.7-0.2,0.9c0,0.5-0.1,1-0.3,1.4c0,0.2,0,0.5-0.1,0.7c-0.1,0.2-0.1,0.3-0.2,0.3
c-0.1,0-0.2,0.3-0.2,0.8c0,0.5-0.1,0.9-0.3,1.2c-0.2,0.3-0.4,0.4-0.6,0.4c0,0-0.1,0-0.1,0c-0.1,0-0.1,0-0.2,0
c-0.4-0.1-0.6-0.7-0.3-1.8c0.2-0.8,0.3-1.4,0.3-1.7l0.1-1c0.2-0.4,0.3-0.8,0.3-1.4C542.8,66.5,542.9,66.3,543.1,66.1z M551.1,57.9
c-0.3-0.4-0.8-0.4-1.6-0.2c-1.3,0.5-2.3,1.4-2.9,2.7c-0.6,1.3-0.7,2-0.4,2.1c0.3,0,0.9-0.2,1.8-0.5c0.9-0.3,1.6-0.7,2.1-1.1
c0.5-0.4,0.8-0.9,1-1.4C551.4,59.1,551.4,58.5,551.1,57.9z"/>
<path style="fill:#747373;" d="M563.5,51.4l-0.1,0c-0.1-0.1-0.5,0-1.2,0.1c-0.6,0.1-1,0.2-1,0.3c0,0.1-0.2,0.2-0.6,0.3
c-0.4,0.1-0.7,0.2-0.8,0.2c-0.1,0-0.3-0.2-0.5-0.5c-0.2-0.3-0.3-0.6-0.2-0.7c0.1-0.2,0.7-0.5,1.9-1.1c0.4-0.1,1-0.2,1.9-0.2
c0.9-0.1,1.5-0.1,2,0c1.8,0.2,2.8,0.9,3.1,2.2c0.1,0.4,0.1,0.8,0,1c-0.1,0.2-0.5,0.6-1,1.1c-1.4,0.9-2.2,1.4-2.5,1.6
c-0.2,0.1-0.5,0.3-0.7,0.5c-0.7,0.4-1,0.7-1,0.7c0.3,0.2,0.5,0.4,0.8,0.5c1,0.4,1.9,1.1,2.6,2c0.9,2,0.3,3.6-1.9,4.8
c-1.2,0.7-2.5,1.1-4,1.2c-0.8,0-1.5-0.1-2.1-0.4c-0.6-0.2-0.9-0.5-0.9-0.9c0-0.3,0.1-0.5,0.2-0.5c0.1-0.1,0.4,0,0.8,0
c1,0.2,2.1,0.1,3.3-0.2c1.2-0.3,2.1-0.8,2.7-1.4c0.6-0.6,0.8-1.1,0.8-1.6c-0.1-0.9-1-1.6-2.7-2.1c-0.8-0.2-1.3-0.3-1.7-0.3
c-0.4,0-0.7,0-1.1-0.2c-0.2-0.2-0.4-0.5-0.5-0.8c0-0.1,0.1-0.3,0.4-0.5c0.3-0.2,1.3-0.8,3.1-1.8c1.8-1,2.9-1.7,3.4-2.1
c0.4-0.5,0.6-0.8,0.5-0.9c0-0.1-0.3-0.3-0.8-0.4C564.2,51.2,563.5,51.2,563.5,51.4z"/>
</g>
<g>
<path style="fill:#747373;" d="M586.4,58.9c-1.5,0-2.4,0.1-3.2,0.2v-3.3c0.8,0.2,1.7,0.2,3.2,0.2h19.6c1.5,0,2.3,0,3.2-0.2v3.3
c-0.9-0.1-1.8-0.2-3.2-0.2h-5.5v6.8c0,0.7,0.4,0.8,2.9,0.8c2.2,0,2.9-0.2,3.1-0.8c0.2-0.4,0.3-1.5,0.3-2.5c0-0.1,0-0.3,0-0.5
c1.3,0.6,1.8,0.7,3.1,0.9c-0.1,3-0.5,4.3-1.4,5.1c-0.8,0.7-2.1,0.9-5.9,0.9c-4.5,0-5.4-0.4-5.4-2.6v-8.1h-3.3
c-0.2,2.8-0.6,4-1.5,5.7c-1.5,2.6-3.4,3.9-8.2,5.8c-0.5-1.1-1-2.1-1.8-3.1c2.5-0.7,3.4-1.1,4.6-1.7c1.9-1.1,3.2-2.8,3.5-5
c0.1-0.5,0.1-0.8,0.2-1.6H586.4z M594.2,44.8c0-0.9-0.1-1.6-0.2-2.2h3.7c-0.1,0.6-0.2,1.3-0.2,2.2v0.7h8.3c1.5,0,2.3,0,3.3-0.1
c-0.1,0.7-0.1,1.2-0.1,2.3v2.5c0,1,0,1.6,0.1,2.3H606v-4h-19.5v4h-3.3c0.1-0.7,0.2-1.3,0.2-2.3v-2.4c0-1,0-1.6-0.1-2.3
c1,0.1,1.8,0.1,3.3,0.1h7.7V44.8z M587.5,50.6c0.8,0.1,1.5,0.1,2.8,0.1h11.8c1.3,0,2,0,2.9-0.1v3.2c-0.8-0.1-1.6-0.2-2.9-0.2h-11.8
c-1.3,0-2,0-2.8,0.2V50.6z"/>
<path style="fill:#747373;" d="M621.3,47.2c-1.6,0-2.8,0.1-4.1,0.2v-3.6c1.1,0.1,2.3,0.2,4.1,0.2h15.3c1.6,0,2.6-0.1,3.3-0.2l2,2.3
c-0.6,0.6-0.7,0.7-1.2,1.1c-3.3,3.3-5.6,5-9.5,7.4v12.2c0,2.2-1.1,2.9-4.4,2.9c-1.1,0-1.5,0-4.2-0.2c-0.2-1.4-0.4-2.2-0.9-3.5
c2,0.3,3.4,0.4,4.7,0.4c1,0,1.4-0.2,1.4-0.7V54.6c0-1.2-0.1-2.2-0.2-3h2.7c2.4-1.3,3.9-2.4,6.1-4.4H621.3z"/>
</g>
</svg>
