<!-- Generator: Adobe Illustrator 22.1.0, SVG Export Plug-In  -->
<svg version="1.1"
xmlns="http://www.w3.org/2000/svg" xmlns:xlink="http://www.w3.org/1999/xlink" xmlns:a="http://ns.adobe.com/AdobeSVGViewerExtensions/3.0/"
x="0px" y="0px" width="713.6px" height="45.3px" viewBox="0 0 713.6 45.3" style="enable-background:new 0 0 713.6 45.3;"
xml:space="preserve">
<style type="text/css">
.st0{fill:#F0F1F1;}
.st1{fill:none;stroke:#FFFFFF;stroke-miterlimit:10;}
.st2{fill:#747373;}
.st3{fill:#FFFFFF;}
</style>
<defs>
</defs>
<g>
<rect class="st0" width="713.6" height="45"/>
</g>
<polygon points="713.6,1 589.4,1 472.2,1 491.2,23 472.2,45 589.4,45 713.6,45 "/>
<polyline class="st1" points="236.4,1 255.2,23 236.4,45 "/>
<g>
<g>
<path class="st2" d="M78.5,16.3c0.5,0,0.8,0.2,1.2,0.4c0.3,0.3,0.5,0.6,0.6,1c0.1,0.4,0,0.9-0.3,1.5c-0.5,0.8-1,1.3-1.7,1.5
c-0.1,0-0.2,0-0.3,0c-0.2-0.2,0-0.7,0.6-1.4c0.8-1.2,1-1.8,0.5-1.9c-0.1,0-0.5,0-1,0.1c-0.5,0.1-0.8,0.2-0.8,0.2l-0.1,0.1
c0,0-0.5,0.2-1.3,0.8c-0.8,0.5-1.3,0.8-1.3,0.9c0,0.1-0.2,0.3-0.4,0.4c-0.4,0.2-0.8,0.8-1.3,1.7c-0.2,0.3-0.3,0.6-0.4,0.9
c-0.1,0.3-0.1,0.6,0,0.8c0.1,0.2,0.2,0.5,0.6,0.7c0.3,0.3,0.7,0.6,1.2,0.9c1.3,0.7,2.1,1.3,2.3,1.8c0.4,0.6,0.5,1.2,0.4,1.7
c-0.1,0.2-0.2,0.4-0.4,0.6c-0.2,0.2-0.4,0.3-0.5,0.3c-0.1,0-0.2,0.1-0.3,0.1c-0.1,0.1-0.2,0.1-0.3,0.2c-0.1,0-0.4,0.1-0.9,0.2
c-0.5,0.1-1,0.1-1.4,0l-0.7-0.2c0-0.1,0-0.1,0-0.2c0,0-0.1-0.1-0.3-0.1c-0.5-0.3-0.9-0.8-1.1-1.3c-0.1-0.2-0.1-0.3-0.1-0.3
c0,0,0.1-0.1,0.2-0.2c0.1-0.1,0.2-0.1,0.3-0.1c0.1,0,0.1,0.1,0.2,0.4c0.2,0.4,0.7,0.7,1.4,0.8c0.7,0.1,1.4,0,2-0.3
c0.4-0.2,0.7-0.4,0.8-0.6c0.1-0.2,0.1-0.5-0.1-0.8c0-0.1-0.1-0.2-0.2-0.3c-0.2-0.2-0.4-0.4-0.7-0.6c-0.3-0.1-0.6-0.3-0.9-0.4
c-0.4-0.2-0.7-0.4-1.2-0.8c-0.4-0.4-0.7-0.7-0.9-0.9c-0.3-0.3-0.5-0.7-0.5-1.2c-0.1-0.6,0-1.1,0.2-1.5c0.1-0.3,0.5-0.8,1-1.4
c0.5-0.6,0.9-1,1.1-1.1l0.6-0.5c0,0,0.1,0,0.2-0.1c0.3-0.1,0.6-0.3,0.9-0.6C76.8,16.7,77.9,16.3,78.5,16.3z"/>
<path class="st2" d="M80.3,22.2c-0.1-0.1-0.1-0.1-0.1-0.2c0-0.1,0.1-0.2,0.2-0.3c0.1-0.1,0.2-0.2,0.3-0.2c0.1,0,0.3,0,0.5,0
c0.3,0,0.5,0,0.6-0.1c0.1,0,0.2-0.1,0.2-0.2c0.1-0.3,0.3-0.6,0.4-1c0.4-0.7,0.6-1.1,0.9-1.3c0.2-0.2,0.5-0.1,0.8,0.1
c0.1,0.1,0.1,0.2,0.2,0.3c0,0,0,0.1-0.1,0.3c-0.1,0.2-0.2,0.4-0.4,0.7c-0.2,0.3-0.3,0.5-0.3,0.6c-0.2,0.3-0.2,0.4-0.1,0.5
c0.1,0,0.5,0,1.1-0.1c0.6-0.1,0.9,0.1,0.9,0.5c0,0.3,0,0.5-0.1,0.5c-0.1,0.1-0.4,0.1-0.8,0.1c-0.4,0.1-0.7,0.1-1.1,0.1
c-0.3,0-0.5,0-0.6,0c-0.1,0-0.3,0.2-0.3,0.3c0,0-0.1,0.1-0.1,0.2c-0.1,0.1-0.2,0.4-0.4,0.8c-0.3,1-0.5,1.8-0.6,2.4
c-0.1,0.7-0.1,1-0.1,1.2c0.1,0.1,0.3,0.2,0.6,0.2c0.6,0.1,1.3-0.1,2-0.5l0.5-0.3c0.1-0.2,0.2-0.1,0.4,0.2c0,0.1,0,0.2,0,0.3
c0,0.1-0.1,0.2-0.2,0.3c-0.1,0.1-0.3,0.3-0.5,0.4c-0.9,0.6-1.8,0.8-2.6,0.6c-0.2,0-0.4-0.2-0.6-0.4s-0.3-0.4-0.4-0.6l-0.1-0.1
C80,27.4,80,27.1,80,26.6s0.1-1,0.1-1.2c0.1-0.2,0.2-0.6,0.3-1c0.2-0.4,0.3-0.7,0.3-0.8l0.5-1l-0.7-0.2
C80.4,22.3,80.4,22.3,80.3,22.2z"/>
<path class="st2" d="M89.3,27.2C89.3,27.2,89.3,27.2,89.3,27.2C89.3,27.2,89.3,27.2,89.3,27.2c0.1-0.1,0.1-0.1,0.1-0.1
c0.1-0.1,0.2-0.2,0.3-0.3c0.1-0.1,0.2-0.2,0.3-0.2s0.1,0,0.2,0.1c0.1,0.1,0.1,0.1,0.1,0.1c0.2,0,0.2,0.2-0.1,0.5s-0.5,0.6-0.9,0.8
c-0.4,0.3-0.8,0.5-1.4,0.4c-0.5-0.1-0.9-0.3-1.3-0.8c-0.4-0.5-0.5-1.2-0.4-2.2c0-0.7,0.3-1.4,0.9-2.1c0.5-0.7,1.1-1.2,1.7-1.4
c0.2-0.1,0.3-0.2,0.5-0.2c0.1,0,0.4,0,0.7,0.1c0.3,0,0.6,0.2,0.8,0.4c0.3,0.3,0.5,0.6,0.5,1c0,0.3-0.2,0.6-0.6,1
c-0.3,0.4-0.7,0.7-1.2,0.9c-0.7,0.2-1.2,0.2-1.6-0.1c-0.2-0.1-0.4-0.1-0.4,0.1c-0.1,0.1-0.1,0.4-0.2,0.9c-0.1,0.8,0.1,1.3,0.6,1.4
c0,0,0.1,0,0.2,0c0.1,0,0.2,0,0.2,0c0,0,0.1,0,0.2,0c0.1,0,0.1,0,0.2,0c0.1,0,0.2-0.1,0.3-0.1c0.1-0.1,0.2-0.1,0.2-0.1
C89.2,27.3,89.2,27.2,89.3,27.2z M89.3,24.3c0.2-0.1,0.4-0.2,0.6-0.5c0.2-0.2,0.3-0.4,0.3-0.6c0-0.2-0.1-0.3-0.3-0.4
c-0.2-0.1-0.4-0.1-0.6-0.1c-0.2,0.1-0.5,0.2-0.7,0.4c-0.2,0.2-0.4,0.4-0.6,0.6c-0.2,0.2-0.2,0.3-0.2,0.4c0,0.1,0.2,0.2,0.6,0.2
C88.8,24.4,89.1,24.4,89.3,24.3z"/>
<path class="st2" d="M92.1,28.9l0.1-0.6c0.1-0.3,0.3-1.1,0.7-2.3c0.4-1.2,0.8-2.2,1-2.9c0.3-0.6,0.4-1.1,0.4-1.4
c0-0.1,0.1-0.2,0.2-0.3c0.1-0.1,0.3-0.1,0.6,0.1c0,0,0.1,0.1,0.2,0.2c0.1,0.1,0.1,0.2,0.1,0.3s0,0.2,0,0.5c0,0.3-0.1,0.6-0.3,0.9
c1-0.4,1.7-0.5,2.3-0.2c0.5,0.3,0.8,0.8,0.8,1.5c0,0.2-0.1,0.5-0.2,0.8c-0.1,0.3-0.2,0.5-0.4,0.6c-0.1,0-0.2,0.1-0.3,0.4
c-0.2,0.2-0.4,0.4-0.8,0.6c-0.4,0.2-0.6,0.3-0.8,0.2c-0.1,0-0.1,0-0.1,0.1c0,0.1-0.2,0.2-0.7,0.3c-0.5,0.1-0.8,0.2-1,0.2
c-0.2,0-0.4,0-0.5-0.1c-0.1,0.1-0.1,0.2-0.1,0.3c0,0.1-0.1,0.3-0.2,0.7c-0.1,0.3-0.2,0.5-0.3,0.5c-0.1,0.1-0.1,0.1,0,0.2
c0,0.3,0,0.4-0.1,0.6c0,0.3-0.1,0.6-0.2,0.9c0,0.1,0,0.3-0.1,0.4c0,0.1-0.1,0.2-0.1,0.2c-0.1,0-0.1,0.2-0.1,0.5
c0,0.3-0.1,0.6-0.2,0.7s-0.2,0.3-0.4,0.3c0,0,0,0-0.1,0c0,0-0.1,0-0.1,0c-0.3-0.1-0.3-0.4-0.2-1.1c0.1-0.5,0.2-0.9,0.2-1l0.1-0.6
c0.1-0.2,0.2-0.5,0.2-0.8C91.8,29.1,91.9,29,92.1,28.9z M96.8,24c-0.2-0.2-0.5-0.3-0.9-0.1c-0.8,0.3-1.4,0.8-1.8,1.6
c-0.4,0.8-0.4,1.2-0.2,1.3c0.2,0,0.5-0.1,1.1-0.3c0.5-0.2,1-0.4,1.2-0.6c0.3-0.2,0.5-0.5,0.6-0.8C97,24.7,97,24.3,96.8,24z"/>
<path class="st2" d="M104.6,19.6c1-0.6,1.5-0.9,1.6-0.9s0.2,0.1,0.3,0.2c0.1,0.1,0.2,0.2,0.2,0.3c0.1,0.1,0,0.3-0.1,0.5
s-0.3,0.8-0.6,1.6c-0.3,0.8-0.5,1.5-0.6,1.9c-0.1,0.4-0.2,0.8-0.4,1.2s-0.3,0.7-0.3,1.1c-0.2,0.6-0.5,1.3-0.7,2.3
c0,0.1-0.1,0.3-0.2,0.5c-0.1,0.4-0.2,0.6-0.3,0.6c-0.1,0.1-0.3,0-0.6-0.3c-0.1-0.1-0.1-0.2-0.1-0.3c0-0.2,0.2-1.1,0.6-2.6
c0.1,0,0.3-0.5,0.5-1.4c0.3-0.9,0.5-1.7,0.7-2.4l0.4-1.4c-0.6,0.3-1.3,0.8-1.9,1.3c-0.7,0.5-1.1,0.8-1.2,0.9
c-0.3,0.3-0.5,0.4-0.6,0.4c-0.1,0-0.2,0-0.3,0c-0.3-0.3-0.4-0.6-0.3-0.8c0,0,0.3-0.2,0.7-0.5c0.4-0.3,0.6-0.4,0.7-0.5
c0,0,0.1,0,0.1-0.1c0,0,0.1-0.1,0.2-0.2c0.1-0.1,0.1-0.1,0.2-0.2c0,0,0.1-0.1,0.3-0.3c0.2-0.1,0.4-0.3,0.7-0.5
C104.1,20,104.4,19.8,104.6,19.6z"/>
</g>
</g>
<g>
<path class="st2" d="M123.7,17.2c-0.5,0-1,0-1.7,0.1v-2.2c0.5,0.1,0.9,0.1,1.7,0.1h2.9c0.7,0,1.2,0,1.6-0.1
c-0.1,0.5-0.1,0.7-0.1,1.1c0,2.6,0.6,4.9,1.9,7.1c0.8,1.3,1.6,2.3,2.9,3.5c0.9,0.8,1.4,1.2,2.7,1.9c-0.7,0.7-1,1.1-1.5,2
c-1.8-1.3-3.2-2.6-4.4-4.2c-0.7-0.9-1.1-1.6-1.6-2.7c-0.5-1-0.6-1.4-0.9-2.6c-0.6,2.3-1.4,3.8-2.6,5.4c-1.2,1.5-2.5,2.8-4.5,4.1
c-0.4-0.8-0.8-1.3-1.5-1.9c1.5-0.9,2.4-1.6,3.6-2.8c1.4-1.5,2.5-3.4,3.1-5.3c0.4-1.2,0.5-2.2,0.6-3.6H123.7z"/>
<path class="st2" d="M152.1,18c1.1,0,1.7,0,2.3-0.1c-0.1,0.7-0.1,0.7-0.1,2.7c-0.1,2.5-0.2,5.5-0.4,6.7c-0.2,1.7-0.5,2.3-1,2.7
c-0.5,0.3-1.1,0.5-2.1,0.5c-0.8,0-1.6-0.1-2.8-0.2c-0.1-0.9-0.2-1.4-0.5-2.2c1.2,0.2,2.2,0.4,3.1,0.4c0.8,0,1.1-0.3,1.3-1.5
c0.2-1.4,0.4-4.1,0.4-7h-4.9c-0.3,2.7-0.8,4.5-1.6,6c-1,1.9-2.7,3.4-5.2,4.8c-0.4-0.8-0.9-1.3-1.5-1.9c2.5-1.1,4.1-2.5,5.1-4.5
c0.6-1.1,0.9-2.5,1.1-4.4h-3.1c-0.9,0-1.6,0-2.2,0.1v-2.2c0.6,0.1,1.3,0.1,2.3,0.1h3.2c0-0.7,0-0.9,0-1.8c0-0.9,0-1.4-0.1-1.7h2.4
c-0.1,0.5-0.1,0.5-0.2,3.6H152.1z"/>
</g>
<g>
<path class="st2" d="M297.5,16.3c0.5,0,0.8,0.2,1.2,0.4c0.3,0.3,0.5,0.6,0.6,1c0.1,0.4,0,0.9-0.3,1.5c-0.5,0.8-1,1.3-1.7,1.5
c-0.1,0-0.2,0-0.3,0c-0.2-0.2,0-0.7,0.6-1.4c0.8-1.2,1-1.8,0.5-1.9c-0.1,0-0.5,0-1,0.1c-0.5,0.1-0.8,0.2-0.8,0.2l-0.1,0.1
c0,0-0.5,0.2-1.3,0.8c-0.8,0.5-1.3,0.8-1.3,0.9c0,0.1-0.2,0.3-0.4,0.4c-0.4,0.2-0.8,0.8-1.3,1.7c-0.2,0.3-0.3,0.6-0.4,0.9
c-0.1,0.3-0.1,0.6,0,0.8c0.1,0.2,0.2,0.5,0.6,0.7c0.3,0.3,0.7,0.6,1.2,0.9c1.3,0.7,2.1,1.3,2.3,1.8c0.4,0.6,0.5,1.2,0.4,1.7
c-0.1,0.2-0.2,0.4-0.4,0.6c-0.2,0.2-0.4,0.3-0.5,0.3c-0.1,0-0.2,0.1-0.3,0.1c-0.1,0.1-0.2,0.1-0.3,0.2c-0.1,0-0.4,0.1-0.9,0.2
c-0.5,0.1-1,0.1-1.4,0l-0.7-0.2c0-0.1,0-0.1,0-0.2c0,0-0.1-0.1-0.3-0.1c-0.5-0.3-0.9-0.8-1.1-1.3c-0.1-0.2-0.1-0.3-0.1-0.3
c0,0,0.1-0.1,0.2-0.2c0.1-0.1,0.2-0.1,0.3-0.1c0.1,0,0.1,0.1,0.2,0.4c0.2,0.4,0.7,0.7,1.4,0.8c0.7,0.1,1.4,0,2-0.3
c0.4-0.2,0.7-0.4,0.8-0.6c0.1-0.2,0.1-0.5-0.1-0.8c0-0.1-0.1-0.2-0.2-0.3c-0.2-0.2-0.4-0.4-0.7-0.6c-0.3-0.1-0.6-0.3-0.9-0.4
c-0.4-0.2-0.7-0.4-1.2-0.8c-0.4-0.4-0.7-0.7-0.9-0.9c-0.3-0.3-0.5-0.7-0.5-1.2c-0.1-0.6,0-1.1,0.2-1.5c0.1-0.3,0.5-0.8,1-1.4
c0.5-0.6,0.9-1,1.1-1.1l0.6-0.5c0,0,0.1,0,0.2-0.1c0.3-0.1,0.6-0.3,0.9-0.6C295.8,16.7,296.9,16.3,297.5,16.3z"/>
<path class="st2" d="M299.3,22.2c-0.1-0.1-0.1-0.1-0.1-0.2c0-0.1,0.1-0.2,0.2-0.3c0.1-0.1,0.2-0.2,0.3-0.2c0.1,0,0.3,0,0.5,0
c0.3,0,0.5,0,0.6-0.1c0.1,0,0.2-0.1,0.2-0.2c0.1-0.3,0.3-0.6,0.4-1c0.4-0.7,0.6-1.1,0.9-1.3c0.2-0.2,0.5-0.1,0.8,0.1
c0.1,0.1,0.1,0.2,0.2,0.3c0,0,0,0.1-0.1,0.3c-0.1,0.2-0.2,0.4-0.4,0.7c-0.2,0.3-0.3,0.5-0.3,0.6c-0.2,0.3-0.2,0.4-0.1,0.5
c0.1,0,0.5,0,1.1-0.1c0.6-0.1,0.9,0.1,0.9,0.5c0,0.3,0,0.5-0.1,0.5c-0.1,0.1-0.4,0.1-0.8,0.1c-0.4,0.1-0.7,0.1-1.1,0.1
c-0.3,0-0.5,0-0.6,0c-0.1,0-0.3,0.2-0.3,0.3c0,0-0.1,0.1-0.1,0.2c-0.1,0.1-0.2,0.4-0.4,0.8c-0.3,1-0.5,1.8-0.6,2.4
c-0.1,0.7-0.1,1-0.1,1.2c0.1,0.1,0.3,0.2,0.6,0.2c0.6,0.1,1.3-0.1,2-0.5l0.5-0.3c0.1-0.2,0.2-0.1,0.4,0.2c0,0.1,0,0.2,0,0.3
c0,0.1-0.1,0.2-0.2,0.3c-0.1,0.1-0.3,0.3-0.5,0.4c-0.9,0.6-1.8,0.8-2.6,0.6c-0.2,0-0.4-0.2-0.6-0.4s-0.3-0.4-0.4-0.6l-0.1-0.1
c-0.1-0.1-0.1-0.4-0.1-0.9s0.1-1,0.1-1.2c0.1-0.2,0.2-0.6,0.3-1c0.2-0.4,0.3-0.7,0.3-0.8l0.5-1l-0.7-0.2
C299.4,22.3,299.4,22.3,299.3,22.2z"/>
<path class="st2" d="M308.3,27.2C308.3,27.2,308.3,27.2,308.3,27.2C308.3,27.2,308.3,27.2,308.3,27.2c0.1-0.1,0.1-0.1,0.1-0.1
c0.1-0.1,0.2-0.2,0.3-0.3c0.1-0.1,0.2-0.2,0.3-0.2s0.1,0,0.2,0.1c0.1,0.1,0.1,0.1,0.1,0.1c0.2,0,0.2,0.2-0.1,0.5s-0.5,0.6-0.9,0.8
c-0.4,0.3-0.8,0.5-1.4,0.4c-0.5-0.1-0.9-0.3-1.3-0.8c-0.4-0.5-0.5-1.2-0.4-2.2c0-0.7,0.3-1.4,0.9-2.1c0.5-0.7,1.1-1.2,1.7-1.4
c0.2-0.1,0.3-0.2,0.5-0.2c0.1,0,0.4,0,0.7,0.1c0.3,0,0.6,0.2,0.8,0.4c0.3,0.3,0.5,0.6,0.5,1c0,0.3-0.2,0.6-0.6,1
c-0.3,0.4-0.7,0.7-1.2,0.9c-0.7,0.2-1.2,0.2-1.6-0.1c-0.2-0.1-0.4-0.1-0.4,0.1c-0.1,0.1-0.1,0.4-0.2,0.9c-0.1,0.8,0.1,1.3,0.6,1.4
c0,0,0.1,0,0.2,0c0.1,0,0.2,0,0.2,0c0,0,0.1,0,0.2,0c0.1,0,0.1,0,0.2,0c0.1,0,0.2-0.1,0.3-0.1c0.1-0.1,0.2-0.1,0.2-0.1
C308.2,27.3,308.2,27.2,308.3,27.2z M308.3,24.3c0.2-0.1,0.4-0.2,0.6-0.5c0.2-0.2,0.3-0.4,0.3-0.6c0-0.2-0.1-0.3-0.3-0.4
c-0.2-0.1-0.4-0.1-0.6-0.1c-0.2,0.1-0.5,0.2-0.7,0.4c-0.2,0.2-0.4,0.4-0.6,0.6c-0.2,0.2-0.2,0.3-0.2,0.4c0,0.1,0.2,0.2,0.6,0.2
C307.8,24.4,308.1,24.4,308.3,24.3z"/>
<path class="st2" d="M311.1,28.9l0.1-0.6c0.1-0.3,0.3-1.1,0.7-2.3c0.4-1.2,0.8-2.2,1-2.9c0.3-0.6,0.4-1.1,0.4-1.4
c0-0.1,0.1-0.2,0.2-0.3c0.1-0.1,0.3-0.1,0.6,0.1c0,0,0.1,0.1,0.2,0.2c0.1,0.1,0.1,0.2,0.1,0.3s0,0.2,0,0.5c0,0.3-0.1,0.6-0.3,0.9
c1-0.4,1.7-0.5,2.3-0.2c0.5,0.3,0.8,0.8,0.8,1.5c0,0.2-0.1,0.5-0.2,0.8c-0.1,0.3-0.2,0.5-0.4,0.6c-0.1,0-0.2,0.1-0.3,0.4
c-0.2,0.2-0.4,0.4-0.8,0.6c-0.4,0.2-0.6,0.3-0.8,0.2c-0.1,0-0.1,0-0.1,0.1c0,0.1-0.2,0.2-0.7,0.3c-0.5,0.1-0.8,0.2-1,0.2
c-0.2,0-0.4,0-0.5-0.1c-0.1,0.1-0.1,0.2-0.1,0.3c0,0.1-0.1,0.3-0.2,0.7c-0.1,0.3-0.2,0.5-0.3,0.5c-0.1,0.1-0.1,0.1,0,0.2
c0,0.3,0,0.4-0.1,0.6c0,0.3-0.1,0.6-0.2,0.9c0,0.1,0,0.3-0.1,0.4c0,0.1-0.1,0.2-0.1,0.2c-0.1,0-0.1,0.2-0.1,0.5
c0,0.3-0.1,0.6-0.2,0.7s-0.2,0.3-0.4,0.3c0,0,0,0-0.1,0c0,0-0.1,0-0.1,0c-0.3-0.1-0.3-0.4-0.2-1.1c0.1-0.5,0.2-0.9,0.2-1l0.1-0.6
c0.1-0.2,0.2-0.5,0.2-0.8C310.8,29.1,310.9,29,311.1,28.9z M315.8,24c-0.2-0.2-0.5-0.3-0.9-0.1c-0.8,0.3-1.4,0.8-1.8,1.6
c-0.4,0.8-0.4,1.2-0.2,1.3c0.2,0,0.5-0.1,1.1-0.3c0.5-0.2,1-0.4,1.2-0.6c0.3-0.2,0.5-0.5,0.6-0.8C316,24.7,316,24.3,315.8,24z"/>
<path class="st2" d="M323.6,19.3l0.5,0.1c0.1,0,0.3,0.1,0.6,0.3c0.2,0.2,0.4,0.5,0.5,0.7c0.3,0.5,0.2,1.2-0.4,2.1
c-0.1,0.2-0.5,0.6-1.1,1.2c-0.6,0.7-1,1-1.1,1.1c-0.2,0.1-0.6,0.5-1.1,1.1c-0.5,0.6-0.7,0.9-0.7,0.9c0,0,0,0.1,0,0.1s0.2,0,0.4-0.1
c0.2-0.1,0.7-0.2,1.5-0.3c0.7-0.1,1.1-0.1,1.2-0.1l0.1,0c0-0.1,0.2-0.1,0.4-0.1c0.3,0,0.5,0.1,0.8,0.2c0.3,0.1,0.4,0.2,0.4,0.2
c0,0.1,0.1,0.2,0.2,0.3c0.3,0.2,0.2,0.4-0.2,0.3c-0.2,0-0.4,0-0.7-0.1c-0.3,0-0.5,0-0.6,0c-0.1,0-0.4,0-0.9,0.1
c-0.3,0-0.7,0-1.2,0.2c-0.4,0.2-0.9,0.3-1.5,0.5c-0.6,0.2-0.9,0.2-1,0.2c-0.1,0-0.2-0.1-0.4-0.3c-0.2-0.1-0.3-0.2-0.3-0.3
c0-0.1,0-0.2,0-0.4s0.1-0.2,0.1-0.2c0,0,0.1-0.1,0.3-0.3c0.2-0.2,0.2-0.4,0.3-0.4c0,0,0.1-0.1,0.3-0.2c0,0,0.1-0.1,0.3-0.3
c0.2-0.2,0.4-0.4,0.5-0.5c1.2-1.2,1.9-1.9,1.9-2.1c0.1-0.1,0.2-0.2,0.3-0.2c0.1-0.1,0.3-0.2,0.4-0.4c0-0.2,0.2-0.5,0.6-0.8
c0.2-0.3,0.3-0.6,0.4-0.8c0.1-0.2,0.1-0.3,0-0.4c0,0-0.2-0.1-0.5-0.2c-0.7-0.2-1.4-0.1-2.1,0.4c-0.1,0-0.2,0.1-0.3,0.1
c-0.3,0.1-0.4,0.1-0.5,0.1c0,0-0.1,0-0.1-0.1c0,0-0.1-0.1-0.1-0.2c-0.1-0.1-0.1-0.1-0.1-0.2l-0.2-0.4l0.6-0.3
C322.1,19.4,322.9,19.1,323.6,19.3z"/>
</g>
<g>
<path class="st2" d="M351.5,24.8c-0.4,0.5-0.8,1-1.2,1.7c-1.9-1.2-3.4-2.9-4.3-4.6c-0.3,0.7-0.5,1.2-0.9,1.7
c-0.8,1.3-1.8,2.2-3.4,3.2c-0.3-0.5-0.6-1-1.2-1.5v3.5c0,1.1,0,1.7,0.1,2.1h-2.2c0.1-0.6,0.1-1.3,0.1-2.2V18.5c0-0.7,0-1.2-0.1-1.7
c0.6,0.1,1.2,0.1,2.1,0.1h4.4c0-0.4,0-0.7,0-1c0-0.7,0-1.1-0.1-1.6h2.3c-0.1,0.3-0.1,0.5-0.1,0.9c0,0.3,0,0.3-0.1,1
c0,0.4,0,0.4,0,0.7h4.6c1,0,1.4,0,2.1-0.1c-0.1,0.5-0.1,1-0.1,1.7v10.3c0,0.8-0.1,1-0.3,1.3c-0.4,0.5-1,0.6-2.7,0.6
c-0.5,0-1,0-1.7-0.1c-0.1-0.9-0.3-1.4-0.6-2.1c0.9,0.1,1.6,0.2,2.3,0.2c0.9,0,1-0.1,1-0.6V24.8z M340.5,25.1c1.5-0.9,2.3-1.6,3-2.7
c0.6-1,1-2.2,1.3-3.7h-4.3V25.1z M346.7,18.7c-0.1,0.5-0.1,0.5-0.1,0.9c0.5,1.1,1.2,2.2,2,3c0.8,0.8,1.6,1.4,2.8,2.1v-6H346.7z"/>
<path class="st2" d="M361.2,25.9c-0.6,0.4-1,0.5-1.9,1c-0.3-0.8-0.5-1.1-0.9-1.8c1.6-0.6,2.9-1.3,4.1-2.1c0.8-0.5,1.6-1.2,2.4-1.9
c0.4-0.4,0.6-0.6,0.9-1.1h1.8c0.7,1.1,2,2.2,3.6,3.2c1.2,0.7,2.5,1.3,3.9,1.8c-0.5,0.7-0.6,0.9-0.9,1.9c-0.8-0.4-1-0.5-2.1-1v3.4
c0,0.8,0,1.2,0.1,1.8h-2v-0.8h-7.1v0.8h-2c0.1-0.6,0.1-1.1,0.1-1.8V25.9z M365.5,15.5c0-0.5,0-0.7-0.1-1.1h2.2
c-0.1,0.4-0.1,0.7-0.1,1.1v0.2h5c0.7,0,1.3,0,2-0.1c-0.1,0.4-0.1,0.8-0.1,1.3v1.3c0,0.5,0,0.9,0.1,1.4h-1.9v-2.1h-11.7v2.1h-2
c0.1-0.5,0.1-0.8,0.1-1.4V17c0-0.5,0-0.9-0.1-1.3c0.6,0.1,1.3,0.1,2,0.1h4.6V15.5z M365.4,18.7c-0.9,1.1-1.4,1.6-2.5,2.4
c-0.9,0.7-1.4,1-2.6,1.6c-0.4-0.6-0.7-1-1.3-1.5c1.1-0.5,1.6-0.7,2.4-1.2c1-0.6,1.5-1.1,2.4-2.2L365.4,18.7z M363.1,28.5h7.1v-2.3
h-7.1V28.5z M369.7,24.4c-1.4-1-2-1.6-3-2.8c-0.9,1.1-2,2-3.1,2.8H369.7z M369.3,17.7c1.8,1.8,2.8,2.4,5.1,3.2
c-0.4,0.6-0.6,0.8-1,1.7c-2.5-1.1-3.5-1.8-5.6-3.9L369.3,17.7z"/>
<path class="st2" d="M384.8,28.4c0,0.7,0,1,0.1,1.4h-1.7V29h-1.3v1.7h-1.8c0.1-0.5,0.1-1.1,0.1-1.9v-3.7c0-0.4,0-0.9,0.1-1.4
c-0.4,0.8-0.5,1.1-1,1.6c-0.2-1-0.3-1.5-0.7-2.2c0.9-1,1.5-2.2,2-3.8c0.3-0.9,0.4-1.5,0.6-2.6h-0.4c-0.7,0-1,0-1.5,0.1v-1.9
c0.5,0.1,1,0.1,1.7,0.1h2.1c0.7,0,1.2,0,1.7-0.1v1.9c-0.4-0.1-0.6-0.1-1.1-0.1h-0.7c-0.3,1.5-0.5,2.4-1.1,4h1.8
c0.5,0,0.8,0,1.1-0.1c0,0.4-0.1,0.8-0.1,1.3v0.4c1.4-1.3,2.3-2.6,3.2-4.7H387v1.8h-1.8c0.1-0.4,0.1-0.8,0.1-1.2v-1.5
c0-0.3,0-0.4-0.1-0.9c0.4,0.1,0.5,0.1,1.3,0.1h2.1c0.2-0.8,0.3-1.2,0.4-1.8l2,0.3c0,0.1-0.2,0.6-0.5,1.5h3.3c0.6,0,1.1,0,1.6-0.1
c0,0.3-0.1,0.7-0.1,1.3v1c0,0.5,0,0.8,0.1,1.2h-1.9v-1.7H390c-0.4,0.9-0.7,1.5-1.3,2.5h1.7c0.3-0.6,0.5-1.2,0.7-2l1.8,0.4
c-0.3,0.7-0.4,1.1-0.7,1.6h1.3c0.8,0,1.1,0,1.5-0.1v1.7c-0.5-0.1-0.9-0.1-1.4-0.1H392v1.3h1.3c0.8,0,1.1,0,1.5-0.1v1.6
c-0.5-0.1-0.9-0.1-1.5-0.1H392v1.3h1.3c0.8,0,1.1,0,1.5-0.1v1.6c-0.5-0.1-0.9-0.1-1.5-0.1H392v1.3h1.8c0.8,0,1.2,0,1.7-0.1v1.8
c-0.6-0.1-1.1-0.1-1.7-0.1h-5.6v0.8h-1.9c0.1-0.6,0.1-1.1,0.1-2v-4.5c0-0.7,0-1.1,0-1.2c-0.2,0.4-0.5,0.6-0.8,1
c-0.2-0.4-0.3-0.7-0.7-1.2V28.4z M381.9,27.3h1.3v-4.8h-1.3V27.3z M390.2,23.1v-1.3h-2.2v1.3H390.2z M388.1,25.9h2.2v-1.3h-2.2
V25.9z M388.1,28.7h2.2v-1.3h-2.2V28.7z"/>
<path class="st2" d="M399.8,17.5c0.4,0.1,0.8,0.1,1.4,0.1h3.5c0.8,0,1.1,0,1.4-0.1v1.8c-0.4,0-0.7-0.1-1.4-0.1h-3.5
c-0.6,0-1,0-1.4,0.1V17.5z M400.4,14.9c0.5,0.1,0.7,0.1,1.5,0.1h2.4c0.7,0,1,0,1.5-0.1v1.8c-0.5-0.1-0.8-0.1-1.5-0.1h-2.4
c-0.6,0-1,0-1.5,0.1V14.9z M405.6,29.4c0,0.7,0,1,0.1,1.4H404v-0.6h-1.8v0.9h-1.8c0.1-0.6,0.1-1.2,0.1-1.8v-2.7
c0-0.6,0-0.9-0.1-1.4c0.4,0.1,0.8,0.1,1.4,0.1h2.6c0.6,0,1,0,1.2-0.1c0,0.3-0.1,0.6-0.1,1.3v2.3c0.7-1.3,0.9-2.2,1.1-4.2l1.5,0.3
c-0.3,2.3-0.5,3.1-1.2,4.9l-1.5-0.9V29.4z M400.5,20.2c0.3,0,0.6,0.1,1.1,0.1h3c0.6,0,0.8,0,1.1-0.1v1.7c-0.4,0-0.6-0.1-1.1-0.1h-3
c-0.5,0-0.8,0-1.1,0.1V20.2z M400.5,22.7c0.3,0,0.6,0.1,1.1,0.1h3c0.6,0,0.8,0,1.1-0.1v1.7c-0.3,0-0.6-0.1-1.1-0.1h-3
c-0.5,0-0.7,0-1.1,0.1V22.7z M402.2,28.6h1.8v-1.8h-1.8V28.6z M407.2,17.6c1,0.3,1.4,0.5,2.1,0.7c0.2-0.5,0.2-0.8,0.3-1.5h-1.2
c-1,0-1.4,0-1.9,0.1v-1.9c0.5,0.1,1.2,0.1,2,0.1h5.7c0.7,0,1.3,0,1.7-0.1c0,0.3,0,0.3-0.1,1.6c-0.1,1.8-0.3,3.7-0.5,4.5
c-0.3,1.4-0.8,1.8-2.3,1.8c-0.5,0-0.9,0-1.4-0.1c-0.1-0.8-0.2-1.1-0.5-1.8l0.1,0c-0.4-0.3-0.6-0.4-1-0.6c-0.9,1.4-1.7,2.2-3.3,3.1
c-0.4-0.6-0.7-0.9-1.3-1.4c1.5-0.7,2.3-1.4,3-2.5c-0.8-0.3-1.1-0.5-2.1-0.8L407.2,17.6z M410.4,28.6c0,0.4,0.1,0.5,0.8,0.5
c1,0,1.3-0.1,1.4-0.3c0.1-0.2,0.2-1,0.2-2c0.6,0.3,1,0.4,1.7,0.6c-0.2,3.1-0.5,3.4-3.1,3.4c-2.2,0-2.7-0.2-2.7-1.3v-3.7
c0-0.5,0-0.9-0.1-1.3h1.9c-0.1,0.4-0.1,0.6-0.1,1.2V28.6z M410.5,22.2c1.7,1.3,1.7,1.3,2.8,2.5l-1.4,1.2c-0.8-1.1-1.5-1.8-2.7-2.7
L410.5,22.2z M411.4,16.9c-0.1,1-0.2,1.4-0.5,2.2c0.5,0.3,0.8,0.4,1.5,0.8l-0.8,1.3c0.3,0.1,0.7,0.1,1,0.1c0.6,0,0.7-0.1,0.9-0.8
c0.2-0.7,0.3-1.7,0.4-3.6H411.4z M414.9,24.5c0.8,1.4,1.3,2.4,2,4.2l-1.5,0.9c-0.6-2-0.9-2.8-1.9-4.4L414.9,24.5z"/>
</g>
<g>
<path class="st3" d="M557.4,16.3c0.5,0,0.8,0.2,1.2,0.4c0.3,0.3,0.5,0.6,0.6,1c0.1,0.4,0,0.9-0.3,1.5c-0.5,0.8-1,1.3-1.7,1.5
c-0.1,0-0.2,0-0.3,0c-0.2-0.2,0-0.7,0.6-1.4c0.8-1.2,1-1.8,0.5-1.9c-0.1,0-0.5,0-1,0.1c-0.5,0.1-0.8,0.2-0.8,0.2l-0.1,0.1
c0,0-0.5,0.2-1.3,0.8c-0.8,0.5-1.3,0.8-1.3,0.9c0,0.1-0.2,0.3-0.4,0.4c-0.4,0.2-0.8,0.8-1.3,1.7c-0.2,0.3-0.3,0.6-0.4,0.9
c-0.1,0.3-0.1,0.6,0,0.8c0.1,0.2,0.2,0.5,0.6,0.7c0.3,0.3,0.7,0.6,1.2,0.9c1.3,0.7,2.1,1.3,2.3,1.8c0.4,0.6,0.5,1.2,0.4,1.7
c-0.1,0.2-0.2,0.4-0.4,0.6c-0.2,0.2-0.4,0.3-0.5,0.3c-0.1,0-0.2,0.1-0.3,0.1c-0.1,0.1-0.2,0.1-0.3,0.2c-0.1,0-0.4,0.1-0.9,0.2
c-0.5,0.1-1,0.1-1.4,0l-0.7-0.2c0-0.1,0-0.1,0-0.2c0,0-0.1-0.1-0.3-0.1c-0.5-0.3-0.9-0.8-1.1-1.3c-0.1-0.2-0.1-0.3-0.1-0.3
c0,0,0.1-0.1,0.2-0.2c0.1-0.1,0.2-0.1,0.3-0.1c0.1,0,0.1,0.1,0.2,0.4c0.2,0.4,0.7,0.7,1.4,0.8c0.7,0.1,1.4,0,2-0.3
c0.4-0.2,0.7-0.4,0.8-0.6c0.1-0.2,0.1-0.5-0.1-0.8c0-0.1-0.1-0.2-0.2-0.3c-0.2-0.2-0.4-0.4-0.7-0.6c-0.3-0.1-0.6-0.3-0.9-0.4
c-0.4-0.2-0.7-0.4-1.2-0.8c-0.4-0.4-0.7-0.7-0.9-0.9c-0.3-0.3-0.5-0.7-0.5-1.2c-0.1-0.6,0-1.1,0.2-1.5c0.1-0.3,0.5-0.8,1-1.4
c0.5-0.6,0.9-1,1.1-1.1l0.6-0.5c0,0,0.1,0,0.2-0.1c0.3-0.1,0.6-0.3,0.9-0.6C555.7,16.7,556.8,16.3,557.4,16.3z"/>
<path class="st3" d="M559.2,22.2c-0.1-0.1-0.1-0.1-0.1-0.2c0-0.1,0.1-0.2,0.2-0.3c0.1-0.1,0.2-0.2,0.3-0.2c0.1,0,0.3,0,0.5,0
c0.3,0,0.5,0,0.6-0.1c0.1,0,0.2-0.1,0.2-0.2c0.1-0.3,0.3-0.6,0.4-1c0.4-0.7,0.6-1.1,0.9-1.3c0.2-0.2,0.5-0.1,0.8,0.1
c0.1,0.1,0.1,0.2,0.2,0.3c0,0,0,0.1-0.1,0.3c-0.1,0.2-0.2,0.4-0.4,0.7c-0.2,0.3-0.3,0.5-0.3,0.6c-0.2,0.3-0.2,0.4-0.1,0.5
c0.1,0,0.5,0,1.1-0.1c0.6-0.1,0.9,0.1,0.9,0.5c0,0.3,0,0.5-0.1,0.5c-0.1,0.1-0.4,0.1-0.8,0.1c-0.4,0.1-0.7,0.1-1.1,0.1
c-0.3,0-0.5,0-0.6,0c-0.1,0-0.3,0.2-0.3,0.3c0,0-0.1,0.1-0.1,0.2c-0.1,0.1-0.2,0.4-0.4,0.8c-0.3,1-0.5,1.8-0.6,2.4
c-0.1,0.7-0.1,1-0.1,1.2c0.1,0.1,0.3,0.2,0.6,0.2c0.6,0.1,1.3-0.1,2-0.5l0.5-0.3c0.1-0.2,0.2-0.1,0.4,0.2c0,0.1,0,0.2,0,0.3
c0,0.1-0.1,0.2-0.2,0.3c-0.1,0.1-0.3,0.3-0.5,0.4c-0.9,0.6-1.8,0.8-2.6,0.6c-0.2,0-0.4-0.2-0.6-0.4s-0.3-0.4-0.4-0.6l-0.1-0.1
c-0.1-0.1-0.1-0.4-0.1-0.9s0.1-1,0.1-1.2c0.1-0.2,0.2-0.6,0.3-1c0.2-0.4,0.3-0.7,0.3-0.8l0.5-1l-0.7-0.2
C559.3,22.3,559.3,22.3,559.2,22.2z"/>
<path class="st3" d="M568.2,27.2C568.2,27.2,568.2,27.2,568.2,27.2C568.2,27.2,568.2,27.2,568.2,27.2c0.1-0.1,0.1-0.1,0.1-0.1
c0.1-0.1,0.2-0.2,0.3-0.3c0.1-0.1,0.2-0.2,0.3-0.2s0.1,0,0.2,0.1c0.1,0.1,0.1,0.1,0.1,0.1c0.2,0,0.2,0.2-0.1,0.5s-0.5,0.6-0.9,0.8
c-0.4,0.3-0.8,0.5-1.4,0.4c-0.5-0.1-0.9-0.3-1.3-0.8c-0.4-0.5-0.5-1.2-0.4-2.2c0-0.7,0.3-1.4,0.9-2.1c0.5-0.7,1.1-1.2,1.7-1.4
c0.2-0.1,0.3-0.2,0.5-0.2c0.1,0,0.4,0,0.7,0.1c0.3,0,0.6,0.2,0.8,0.4c0.3,0.3,0.5,0.6,0.5,1c0,0.3-0.2,0.6-0.6,1
c-0.3,0.4-0.7,0.7-1.2,0.9c-0.7,0.2-1.2,0.2-1.6-0.1c-0.2-0.1-0.4-0.1-0.4,0.1c-0.1,0.1-0.1,0.4-0.2,0.9c-0.1,0.8,0.1,1.3,0.6,1.4
c0,0,0.1,0,0.2,0c0.1,0,0.2,0,0.2,0c0,0,0.1,0,0.2,0c0.1,0,0.1,0,0.2,0c0.1,0,0.2-0.1,0.3-0.1c0.1-0.1,0.2-0.1,0.2-0.1
C568.1,27.3,568.1,27.2,568.2,27.2z M568.2,24.3c0.2-0.1,0.4-0.2,0.6-0.5c0.2-0.2,0.3-0.4,0.3-0.6c0-0.2-0.1-0.3-0.3-0.4
c-0.2-0.1-0.4-0.1-0.6-0.1c-0.2,0.1-0.5,0.2-0.7,0.4c-0.2,0.2-0.4,0.4-0.6,0.6c-0.2,0.2-0.2,0.3-0.2,0.4c0,0.1,0.2,0.2,0.6,0.2
C567.7,24.4,568,24.4,568.2,24.3z"/>
<path class="st3" d="M571,28.9l0.1-0.6c0.1-0.3,0.3-1.1,0.7-2.3c0.4-1.2,0.8-2.2,1-2.9c0.3-0.6,0.4-1.1,0.4-1.4
c0-0.1,0.1-0.2,0.2-0.3c0.1-0.1,0.3-0.1,0.6,0.1c0,0,0.1,0.1,0.2,0.2c0.1,0.1,0.1,0.2,0.1,0.3s0,0.2,0,0.5c0,0.3-0.1,0.6-0.3,0.9
c1-0.4,1.7-0.5,2.3-0.2c0.5,0.3,0.8,0.8,0.8,1.5c0,0.2-0.1,0.5-0.2,0.8c-0.1,0.3-0.2,0.5-0.4,0.6c-0.1,0-0.2,0.1-0.3,0.4
c-0.2,0.2-0.4,0.4-0.8,0.6c-0.4,0.2-0.6,0.3-0.8,0.2c-0.1,0-0.1,0-0.1,0.1c0,0.1-0.2,0.2-0.7,0.3c-0.5,0.1-0.8,0.2-1,0.2
c-0.2,0-0.4,0-0.5-0.1c-0.1,0.1-0.1,0.2-0.1,0.3c0,0.1-0.1,0.3-0.2,0.7c-0.1,0.3-0.2,0.5-0.3,0.5c-0.1,0.1-0.1,0.1,0,0.2
c0,0.3,0,0.4-0.1,0.6c0,0.3-0.1,0.6-0.2,0.9c0,0.1,0,0.3-0.1,0.4c0,0.1-0.1,0.2-0.1,0.2c-0.1,0-0.1,0.2-0.1,0.5
c0,0.3-0.1,0.6-0.2,0.7s-0.2,0.3-0.4,0.3c0,0,0,0-0.1,0c0,0-0.1,0-0.1,0c-0.3-0.1-0.3-0.4-0.2-1.1c0.1-0.5,0.2-0.9,0.2-1l0.1-0.6
c0.1-0.2,0.2-0.5,0.2-0.8C570.7,29.1,570.8,29,571,28.9z M575.7,24c-0.2-0.2-0.5-0.3-0.9-0.1c-0.8,0.3-1.4,0.8-1.8,1.6
c-0.4,0.8-0.4,1.2-0.2,1.3c0.2,0,0.5-0.1,1.1-0.3c0.5-0.2,1-0.4,1.2-0.6c0.3-0.2,0.5-0.5,0.6-0.8C575.9,24.7,575.9,24.3,575.7,24z"
/>
<path class="st3" d="M583.1,20.1L583.1,20.1c-0.2,0-0.4,0-0.8,0.1c-0.4,0.1-0.6,0.1-0.6,0.2c0,0-0.1,0.1-0.4,0.2
c-0.2,0.1-0.4,0.1-0.5,0.1s-0.2-0.1-0.3-0.3c-0.1-0.2-0.2-0.4-0.1-0.5c0-0.1,0.4-0.3,1.1-0.7c0.2-0.1,0.6-0.1,1.1-0.1
c0.5,0,0.9,0,1.2,0c1.1,0.1,1.7,0.6,1.8,1.3c0.1,0.3,0.1,0.5,0,0.6c-0.1,0.1-0.3,0.3-0.6,0.7c-0.9,0.5-1.3,0.9-1.5,0.9
c-0.1,0.1-0.3,0.2-0.4,0.3c-0.4,0.3-0.6,0.4-0.6,0.4c0.2,0.1,0.3,0.2,0.5,0.3c0.6,0.2,1.1,0.6,1.6,1.2c0.5,1.2,0.2,2.1-1.1,2.9
c-0.7,0.4-1.5,0.6-2.4,0.7c-0.5,0-0.9-0.1-1.3-0.2s-0.5-0.3-0.5-0.5c0-0.2,0.1-0.3,0.1-0.3c0.1,0,0.2,0,0.5,0
c0.6,0.1,1.2,0.1,2-0.1c0.7-0.2,1.2-0.5,1.6-0.8c0.3-0.3,0.5-0.7,0.5-1c0-0.5-0.6-1-1.6-1.2c-0.5-0.1-0.8-0.2-1-0.2
c-0.2,0-0.4,0-0.7-0.1c-0.1-0.1-0.2-0.3-0.3-0.5c0-0.1,0.1-0.2,0.2-0.3c0.2-0.1,0.8-0.5,1.9-1c1.1-0.6,1.7-1,2.1-1.3
c0.2-0.3,0.3-0.5,0.3-0.6c0-0.1-0.2-0.2-0.5-0.2C583.6,20,583.1,20,583.1,20.1z"/>
</g>
<g>
<path class="st3" d="M600,24.2c-0.9,0-1.4,0-1.9,0.1v-2c0.5,0.1,1,0.1,1.9,0.1h11.8c0.9,0,1.4,0,1.9-0.1v2
c-0.5-0.1-1.1-0.1-1.9-0.1h-3.3v4.1c0,0.4,0.2,0.5,1.7,0.5c1.3,0,1.7-0.1,1.9-0.5c0.1-0.2,0.2-0.9,0.2-1.5c0-0.1,0-0.2,0-0.3
c0.8,0.3,1.1,0.4,1.9,0.6c-0.1,1.8-0.3,2.6-0.8,3c-0.5,0.4-1.3,0.5-3.6,0.5c-2.7,0-3.2-0.3-3.2-1.5v-4.9h-2
c-0.1,1.7-0.3,2.4-0.9,3.4c-0.9,1.5-2,2.3-4.9,3.5c-0.3-0.7-0.6-1.2-1.1-1.9c1.5-0.4,2.1-0.7,2.7-1c1.2-0.6,1.9-1.7,2.1-3
c0.1-0.3,0.1-0.5,0.1-1H600z M604.7,15.7c0-0.5,0-0.9-0.1-1.3h2.2c-0.1,0.3-0.1,0.8-0.1,1.3v0.4h5c0.9,0,1.4,0,2-0.1
c-0.1,0.4-0.1,0.7-0.1,1.4v1.5c0,0.6,0,1,0.1,1.4h-1.9v-2.4h-11.7v2.4h-2c0.1-0.4,0.1-0.8,0.1-1.4v-1.5c0-0.6,0-1-0.1-1.4
c0.6,0.1,1.1,0.1,2,0.1h4.6V15.7z M600.7,19.2c0.5,0.1,0.9,0.1,1.7,0.1h7.1c0.8,0,1.2,0,1.7-0.1v1.9c-0.5-0.1-0.9-0.1-1.7-0.1h-7.1
c-0.8,0-1.2,0-1.7,0.1V19.2z"/>
<path class="st3" d="M621,17.2c-1,0-1.7,0-2.5,0.1v-2.1c0.7,0.1,1.4,0.1,2.4,0.1h9.2c1,0,1.5,0,2-0.1l1.2,1.4
c-0.3,0.3-0.4,0.4-0.7,0.7c-2,2-3.4,3-5.7,4.4V29c0,1.3-0.7,1.8-2.7,1.8c-0.7,0-0.9,0-2.5-0.1c-0.1-0.8-0.2-1.3-0.5-2.1
c1.2,0.2,2,0.3,2.8,0.3c0.6,0,0.8-0.1,0.8-0.4v-6.7c0-0.7,0-1.3-0.1-1.8h1.6c1.4-0.8,2.4-1.4,3.6-2.6H621z"/>
</g>
</svg>
