<svg xmlns="http://www.w3.org/2000/svg" width="20.299" height="20.586" viewBox="0 0 20.299 20.586">
  <g id="Group_3108" data-name="Group 3108" transform="translate(2636.299 -273)">
    <path id="Path_1400" data-name="Path 1400" d="M785.438,567.872l-6.881,6.9v3.713h3.071l.814-1.225V575.72h1.648v-1.249h1.348v-1.4h1.552l1.691-1.827" transform="translate(-3414.119 -285.543)" fill="none" stroke="#767778" stroke-linejoin="round" stroke-width="1.3"/>
    <g id="Group_3107" data-name="Group 3107" transform="translate(-3415.119 -306.543)">
      <g id="Path_1402" data-name="Path 1402" transform="translate(785.119 579.543)" fill="none">
        <path d="M7,0A7,7,0,1,1,0,7,7,7,0,0,1,7,0Z" stroke="none"/>
        <path d="M 7 1.300000190734863 C 3.857009887695312 1.300000190734863 1.300000190734863 3.857009887695312 1.300000190734863 7 C 1.300000190734863 10.14299011230469 3.857009887695312 12.69999980926514 7 12.69999980926514 C 10.14299011230469 12.69999980926514 12.69999980926514 10.14299011230469 12.69999980926514 7 C 12.69999980926514 3.857009887695312 10.14299011230469 1.300000190734863 7 1.300000190734863 M 7 0 C 10.86598968505859 0 14 3.134010314941406 14 7 C 14 10.86598968505859 10.86598968505859 14 7 14 C 3.134010314941406 14 0 10.86598968505859 0 7 C 0 3.134010314941406 3.134010314941406 0 7 0 Z" stroke="none" fill="#767778"/>
      </g>
      <path id="Path_1401" data-name="Path 1401" d="M784.814,570.826l-6.287,6.141" transform="translate(1 21.217)" fill="none" stroke="#767778" stroke-linecap="round" stroke-width="1"/>
      <g id="Path_1403" data-name="Path 1403" transform="translate(792.119 582.543)" fill="none">
        <path d="M2,0A2,2,0,1,1,0,2,2,2,0,0,1,2,0Z" stroke="none"/>
        <path d="M 2 1.200000047683716 C 1.558880090713501 1.200000047683716 1.200000047683716 1.558880090713501 1.200000047683716 2 C 1.200000047683716 2.441120147705078 1.558880090713501 2.799999952316284 2 2.799999952316284 C 2.441120147705078 2.799999952316284 2.799999952316284 2.441120147705078 2.799999952316284 2 C 2.799999952316284 1.558880090713501 2.441120147705078 1.200000047683716 2 1.200000047683716 M 2 0 C 3.104569911956787 0 4 0.8954300880432129 4 2 C 4 3.104569911956787 3.104569911956787 4 2 4 C 0.8954300880432129 4 0 3.104569911956787 0 2 C 0 0.8954300880432129 0.8954300880432129 0 2 0 Z" stroke="none" fill="#777879"/>
      </g>
    </g>
  </g>
</svg>
