<svg xmlns="http://www.w3.org/2000/svg" width="17.704" height="22.374" viewBox="0 0 17.704 22.374">
  <g id="Group_3098" data-name="Group 3098" transform="translate(-465.429 -14985.861)">
    <g id="Group_12" data-name="Group 12">
      <g id="Path_1374" data-name="Path 1374">
        <path id="Path_1384" data-name="Path 1384" d="M474.46,14985.861c2.88,0,5.217,2.694,5.217,6.016s-2.335,6.017-5.217,6.017-5.216-2.7-5.216-6.017S471.58,14985.861,474.46,14985.861Z" fill="none"/>
        <path id="Path_1385" data-name="Path 1385" d="M474.46,14987.466c-1.991,0-3.611,1.98-3.611,4.416s1.62,4.417,3.611,4.417,3.612-1.98,3.612-4.417-1.62-4.416-3.612-4.416m0-1.6c2.88,0,5.217,2.693,5.217,6.016s-2.335,6.017-5.217,6.017-5.216-2.694-5.216-6.017S471.58,14985.861,474.46,14985.861Z" fill="#767778"/>
      </g>
      <path id="Path_20" data-name="Path 20" d="M466.29,15007.433s-.378-4.589,1.7-7.021,6.626-2.712,6.626-2.712,4.518.276,6.388,2.712,1.1,7.021,1.1,7.021Z" fill="none" stroke="#767778" stroke-width="1.605"/>
    </g>
  </g>
</svg>
