<?xml version="1.0" encoding="utf-8"?>
<!-- Generator: Adobe Illustrator 23.0.0, SVG Export Plug-In . SVG Version: 6.00 Build 0)  -->
<svg version="1.1" id="Layer_1" xmlns="http://www.w3.org/2000/svg" xmlns:xlink="http://www.w3.org/1999/xlink" x="0px" y="0px"
viewBox="0 0 138 34" style="enable-background:new 0 0 138 34;" xml:space="preserve">
<g>
<path d="M26.83,4.55h3.18v22h10.54v2.67H26.83V4.55z"/>
<path d="M63.77,16.63c0,8.49-5.16,13-11.46,13c-6.52,0-11.09-5.05-11.09-12.52c0-7.83,4.87-12.96,11.46-12.96
C59.41,4.15,63.77,9.31,63.77,16.63z M44.62,17.03c0,5.27,2.86,9.99,7.87,9.99c5.05,0,7.91-4.65,7.91-10.25
c0-4.91-2.56-10.03-7.87-10.03C47.26,6.75,44.62,11.62,44.62,17.03z"/>
<path d="M86.69,28.12c-1.43,0.51-4.25,1.35-7.58,1.35c-3.73,0-6.81-0.95-9.22-3.26c-2.12-2.05-3.44-5.34-3.44-9.19
C66.48,9.68,71.53,4.29,79.8,4.29c2.86,0,5.09,0.62,6.15,1.13l-0.77,2.6c-1.32-0.59-2.97-1.06-5.45-1.06c-6,0-9.92,3.73-9.92,9.92
c0,6.26,3.77,9.96,9.52,9.96c2.09,0,3.51-0.29,4.25-0.66v-7.36h-5.01v-2.56h8.13V28.12z"/>
<path d="M112.64,16.63c0,8.49-5.16,13-11.46,13c-6.52,0-11.09-5.05-11.09-12.52c0-7.83,4.87-12.96,11.46-12.96
C108.29,4.15,112.64,9.31,112.64,16.63z M93.5,17.03c0,5.27,2.86,9.99,7.87,9.99c5.05,0,7.91-4.65,7.91-10.25
c0-4.91-2.56-10.03-7.87-10.03C96.13,6.75,93.5,11.62,93.5,17.03z"/>
</g>
</svg>
