<svg xmlns="http://www.w3.org/2000/svg" width="576" height="42" viewBox="0 0 576 42">
  <g id="Group_1685" data-name="Group 1685" transform="translate(-395.322 -10491)">
    <rect id="Rectangle_7735" data-name="Rectangle 7735" width="251" height="42" transform="translate(720.322 10491)"/>
    <g id="Path_382" data-name="Path 382" transform="translate(574.322 10491)" fill="#fff">
      <path d="M 197.7823333740234 41.5 L 0.5 41.5 L 0.5 0.5 L 197.7891540527344 0.5 L 217.3094635009766 20.52361869812012 L 197.7823333740234 41.5 Z" stroke="none"/>
      <path d="M 1 1 L 1 41 L 197.5646820068359 41 L 216.6189575195312 20.53158378601074 L 197.5782928466797 1 L 1 1 M 0 0 L 198 0 L 218 20.51566696166992 L 198 42 L 0 42 L 0 0 Z" stroke="none" fill="#c1c1c1"/>
    </g>
    <g id="Path_381" data-name="Path 381" transform="translate(395.322 10491)" fill="#fff">
      <path d="M 183.7823333740234 41.5 L 0.5 41.5 L 0.5 0.5 L 183.7891540527344 0.5 L 203.3094787597656 20.52361297607422 L 183.7823333740234 41.5 Z" stroke="none"/>
      <path d="M 1 1 L 1 41 L 183.5646667480469 41 L 202.6189422607422 20.53156661987305 L 183.5783081054688 1 L 1 1 M 0 0 L 184 0 L 204 20.51565742492676 L 184 42 L 0 42 L 0 0 Z" stroke="none" fill="#c1c1c1"/>
    </g>
    <g id="Group_148" data-name="Group 148" transform="translate(6.322 2023)">
      <path id="Path_660" data-name="Path 660" d="M4.352-5.728c1.568.8,2.336,1.472,2.336,2.768A2.224,2.224,0,0,1,4.288-.7c-1.3,0-2.512-1.088-3.168-2.72-.032-.08-.08-.128-.256-.1C.72-3.488.7-3.408.7-3.328A21.084,21.084,0,0,0,1.232-.752a8.854,8.854,0,0,0,2.88.56c2.8,0,4.016-1.536,4.016-3.392,0-1.872-1.1-2.672-2.976-3.552L4.336-7.52C2.928-8.192,2.544-8.9,2.544-9.68a1.894,1.894,0,0,1,2-1.984c1.2,0,2.192.912,2.72,2.4.016.08.048.128.192.112.16-.032.192-.08.192-.16-.064-.832-.16-1.76-.176-2.56a3.929,3.929,0,0,1-1.552-.08,4.476,4.476,0,0,0-1.408-.224c-2.08,0-3.392,1.312-3.392,2.848,0,1.616.88,2.4,2.48,3.216ZM16.3-3.36a5.64,5.64,0,0,1-.176,2.1c-.176.3-.64.32-1.168.384-.112.016-.144.048-.144.224,0,.16.032.208.144.208.608-.048,1.44-.064,2.1-.064.64,0,1.536.016,2.208.064.112,0,.144-.048.144-.224,0-.16-.032-.192-.144-.208-.576-.064-1.12-.08-1.3-.384-.192-.336-.176-.512-.176-2.1V-9.04A4.548,4.548,0,0,1,18-11.024c.224-.352.64-.32,1.04-.32a2.952,2.952,0,0,1,1.92.5A3.666,3.666,0,0,1,22.016-9.2c.032.1.064.144.256.112.144-.032.16-.08.16-.192-.1-.8-.208-1.824-.272-2.64-1.76.08-3.456.08-5.088.08-1.648,0-3.28,0-5.04-.08-.064.816-.176,1.84-.288,2.64,0,.112.016.16.176.192s.208-.016.24-.112a3.888,3.888,0,0,1,1.072-1.648,2.948,2.948,0,0,1,1.872-.5c.4,0,.864,0,1.024.288.16.32.176.56.176,2.016Zm12.64-2.832c.256-.016.64-.016.992-.016a4.44,4.44,0,0,1,2.032.336,1.832,1.832,0,0,1,.56,1.184c.016.1.048.16.192.16.208,0,.224-.048.224-.16-.016-.576-.032-1.216-.032-1.808,0-.544.016-1.056.032-1.616,0-.1-.016-.144-.224-.144-.16,0-.176.048-.192.144A1.44,1.44,0,0,1,32-7.072a3.806,3.806,0,0,1-2.064.336c-.352,0-.736,0-.992-.016V-9.04a5.007,5.007,0,0,1,.16-1.9c.224-.368.768-.4,1.376-.4a3.533,3.533,0,0,1,2.384.512A3.614,3.614,0,0,1,33.9-9.248c.032.1.08.144.272.112.128-.032.16-.1.144-.192-.112-.8-.208-1.776-.272-2.592-1.376.08-2.688.08-3.952.08-1.312,0-2.736,0-4.064-.08-.112,0-.144.048-.144.256,0,.16.032.176.144.192.608.064,1.056.08,1.232.368.176.352.176.544.176,2.064v5.68a5.59,5.59,0,0,1-.192,2.112c-.192.3-.576.32-1.136.384-.1.016-.128.048-.128.208s.032.208.128.208C27.472-.5,28.944-.512,30.3-.512c1.3,0,2.656.016,4.032.064a16.953,16.953,0,0,0,.832-2.7c.032-.1.032-.16-.16-.224-.16-.048-.192,0-.24.1a4.988,4.988,0,0,1-1.232,1.616,4.224,4.224,0,0,1-2.784.656c-.72,0-1.328-.016-1.584-.432a4.553,4.553,0,0,1-.224-1.92ZM41.7-5.744a10.331,10.331,0,0,0,1.248.064c3.824,0,4.864-1.552,4.864-3.248,0-1.776-1.088-3.008-4.24-3.008-1.04,0-2.032.1-2.64.1-.656,0-1.536-.032-2.208-.08-.112,0-.144.048-.144.24,0,.176.032.192.144.208.592.064,1.152.08,1.328.384.16.352.16.528.16,2.048v5.68a5.967,5.967,0,0,1-.176,2.1c-.192.336-.608.352-1.184.4-.1.016-.128.032-.128.208,0,.192.016.208.128.208.624-.048,1.472-.064,2.144-.064.64,0,1.472.016,2.16.064.128,0,.16-.048.16-.208s-.032-.192-.16-.208c-.608-.064-1.12-.08-1.3-.4-.16-.288-.16-.512-.16-2.1Zm0-3.312a4.445,4.445,0,0,1,.224-2c.208-.3.832-.336,1.312-.336,1.84,0,2.928.864,2.928,2.528,0,1.456-.88,2.64-3.28,2.64a6.566,6.566,0,0,1-1.184-.1Zm11.68-1.3a1.881,1.881,0,0,1,.576-.112.455.455,0,0,1,.416.192,2.513,2.513,0,0,1,.176,1.184v5.664a5.967,5.967,0,0,1-.176,2.1c-.192.336-.752.352-1.392.4-.112.016-.16.064-.16.24,0,.192.032.224.16.224.752-.032,1.536-.064,2.3-.064.672,0,1.536.032,2.24.064.112,0,.144-.032.144-.224,0-.176-.032-.224-.144-.24-.656-.064-1.248-.08-1.424-.4-.16-.32-.176-.512-.176-2.1V-8.336c0-1.3.048-2.208.064-3.472,0-.1-.1-.192-.256-.192a25.246,25.246,0,0,1-3.088,1.376c-.192.064-.208.1-.16.288.064.208.128.224.288.176Z" transform="translate(434 8495)" fill="#4b4b4b"/>
      <path id="Path_661" data-name="Path 661" d="M5.472-12.1a7.162,7.162,0,0,1-1.328-.128l.16.64A6.8,6.8,0,0,1,5.5-11.7H7.648a17.615,17.615,0,0,1-1.9,6.816A14.756,14.756,0,0,1,.736.8c-.1.064.032.288.128.24A13.061,13.061,0,0,0,6.032-3.248,14.729,14.729,0,0,0,8.3-8.08,14.117,14.117,0,0,0,10.16-3.056,10.658,10.658,0,0,0,13.6.544a1.379,1.379,0,0,0,.624.3c.1,0,.176-.064.256-.224a1.261,1.261,0,0,1,.816-.88c.08-.032.1-.16.016-.192a10.534,10.534,0,0,1-4.224-3.088,12.667,12.667,0,0,1-2.864-7.792c.64-.3.72-.384.72-.528,0-.1-.064-.192-.256-.368-.432-.368-.528-.432-.64-.432s-.192.064-.64.56ZM26.384-9.52c.032-.512.064-1.056.08-1.616,0-.352.016-.688.016-1.072.416-.16.528-.272.528-.416,0-.24-.128-.32-1.92-.512a7.968,7.968,0,0,1,.1,1.5c0,.752-.016,1.456-.064,2.112H21.36a7.473,7.473,0,0,1-1.44-.112l.176.624A5.313,5.313,0,0,1,21.36-9.12h3.728a13.728,13.728,0,0,1-1.12,4.9A11.424,11.424,0,0,1,19.184.8c-.1.064,0,.288.112.24a10.206,10.206,0,0,0,5.488-4.368A12.869,12.869,0,0,0,26.352-9.12h4.48a32.851,32.851,0,0,1-.72,7.248c-.24.9-.528,1.264-1.04,1.264a14.069,14.069,0,0,1-2.416-.3c-.112-.016-.128.224-.016.256,1.584.512,1.872.784,1.968,1.28a.265.265,0,0,0,.3.256A2.408,2.408,0,0,0,30.064.592,2.839,2.839,0,0,0,31.184-1.2a33.256,33.256,0,0,0,.848-7.5c.4-.272.464-.352.464-.448s-.064-.208-.32-.464c-.608-.528-.688-.576-.8-.576s-.192.064-.7.672Z" transform="translate(499 8495)" fill="#4b4b4b"/>
    </g>
    <g id="Group_149" data-name="Group 149" transform="translate(10.322 2023)">
      <path id="Path_662" data-name="Path 662" d="M4.08-5.37c1.47.75,2.19,1.38,2.19,2.6A2.085,2.085,0,0,1,4.02-.66c-1.215,0-2.355-1.02-2.97-2.55C1.02-3.285.975-3.33.81-3.3c-.135.03-.15.105-.15.18A19.766,19.766,0,0,0,1.155-.7a8.3,8.3,0,0,0,2.7.525C6.48-.18,7.62-1.62,7.62-3.36S6.585-5.865,4.83-6.69l-.765-.36c-1.32-.63-1.68-1.29-1.68-2.025a1.775,1.775,0,0,1,1.875-1.86,2.888,2.888,0,0,1,2.55,2.25c.015.075.045.12.18.1.15-.03.18-.075.18-.15-.06-.78-.15-1.65-.165-2.4A3.684,3.684,0,0,1,5.55-11.2a4.2,4.2,0,0,0-1.32-.21c-1.95,0-3.18,1.23-3.18,2.67,0,1.515.825,2.25,2.325,3.015Zm11.2,2.22a5.287,5.287,0,0,1-.165,1.965c-.165.285-.6.3-1.1.36-.1.015-.135.045-.135.21,0,.15.03.195.135.195.57-.045,1.35-.06,1.965-.06s1.44.015,2.07.06c.1,0,.135-.045.135-.21s-.03-.18-.135-.195c-.54-.06-1.05-.075-1.215-.36-.18-.315-.165-.48-.165-1.965V-8.475a4.263,4.263,0,0,1,.195-1.86c.21-.33.6-.3.975-.3a2.768,2.768,0,0,1,1.8.465,3.437,3.437,0,0,1,.99,1.545c.03.09.06.135.24.1.135-.03.15-.075.15-.18-.09-.75-.2-1.71-.255-2.475-1.65.075-3.24.075-4.77.075-1.545,0-3.075,0-4.725-.075-.06.765-.165,1.725-.27,2.475,0,.1.015.15.165.18s.195-.015.225-.1a3.645,3.645,0,0,1,1.005-1.545,2.764,2.764,0,0,1,1.755-.465c.375,0,.81,0,.96.27.15.3.165.525.165,1.89ZM27.135-5.8c.24-.015.6-.015.93-.015a4.162,4.162,0,0,1,1.905.315,1.718,1.718,0,0,1,.525,1.11c.015.09.045.15.18.15.195,0,.21-.045.21-.15-.015-.54-.03-1.14-.03-1.695,0-.51.015-.99.03-1.515,0-.09-.015-.135-.21-.135-.15,0-.165.045-.18.135a1.35,1.35,0,0,1-.5.975,3.568,3.568,0,0,1-1.935.315c-.33,0-.69,0-.93-.015V-8.475a4.694,4.694,0,0,1,.15-1.785c.21-.345.72-.375,1.29-.375a3.312,3.312,0,0,1,2.235.48,3.388,3.388,0,0,1,.975,1.485c.03.09.075.135.255.105.12-.03.15-.09.135-.18-.105-.75-.2-1.665-.255-2.43-1.29.075-2.52.075-3.705.075-1.23,0-2.565,0-3.81-.075-.1,0-.135.045-.135.24,0,.15.03.165.135.18.57.06.99.075,1.155.345.165.33.165.51.165,1.935V-3.15a5.241,5.241,0,0,1-.18,1.98c-.18.285-.54.3-1.065.36-.09.015-.12.045-.12.195s.03.195.12.195c1.275-.045,2.655-.06,3.93-.06,1.215,0,2.49.015,3.78.06a15.894,15.894,0,0,0,.78-2.535c.03-.09.03-.15-.15-.21-.15-.045-.18,0-.225.09A4.676,4.676,0,0,1,31.44-1.56a3.96,3.96,0,0,1-2.61.615c-.675,0-1.245-.015-1.485-.405a4.269,4.269,0,0,1-.21-1.8Zm11.955.42a9.685,9.685,0,0,0,1.17.06c3.585,0,4.56-1.455,4.56-3.045,0-1.665-1.02-2.82-3.975-2.82-.975,0-1.905.09-2.475.09-.615,0-1.44-.03-2.07-.075-.1,0-.135.045-.135.225s.03.18.135.2c.555.06,1.08.075,1.245.36.15.33.15.495.15,1.92V-3.15a5.594,5.594,0,0,1-.165,1.965c-.18.315-.57.33-1.11.375-.09.015-.12.03-.12.195s.015.195.12.195c.585-.045,1.38-.06,2.01-.06.6,0,1.38.015,2.025.06.12,0,.15-.045.15-.195s-.03-.18-.15-.195c-.57-.06-1.05-.075-1.215-.375-.15-.27-.15-.48-.15-1.965Zm0-3.105a4.167,4.167,0,0,1,.21-1.875c.195-.285.78-.315,1.23-.315,1.725,0,2.745.81,2.745,2.37,0,1.365-.825,2.475-3.075,2.475a6.156,6.156,0,0,1-1.11-.09ZM49.365-1.635a13.339,13.339,0,0,1,2.475-2.94c1.41-1.395,2.625-2.115,2.625-3.99a2.62,2.62,0,0,0-2.9-2.61,3.032,3.032,0,0,0-3.015,2.52c0,.42.24.54.555.54.495,0,1.02-.27,1.02-.675a2.8,2.8,0,0,1,.15-1.08,1.335,1.335,0,0,1,1.29-.84c.93,0,1.425.9,1.425,2.085,0,1.365-.7,2.175-1.935,3.765a35.778,35.778,0,0,0-2.625,3.78.488.488,0,0,0-.105.39c0,.24.045.27.18.27.96-.045,1.815-.045,2.79-.045s1.815,0,2.775.045c.255-.78.555-1.845.75-2.61.015-.09-.015-.135-.15-.18s-.195-.03-.24.075a3.3,3.3,0,0,1-.8,1.17c-.285.24-.57.33-1.815.33Z" transform="translate(621 8495)" fill="#4b4b4b"/>
      <path id="Path_663" data-name="Path 663" d="M12.06-9.36v8.7c0,.195-.075.285-.27.285-.495,0-1.05-.03-2.01-.105-.09,0-.105.2-.015.21,1.38.285,1.695.45,1.755.87.03.255.1.33.3.33A2.362,2.362,0,0,0,12.6.75a1.088,1.088,0,0,0,.66-1.125c0-.54-.06-1.11-.06-6.225V-9.015c.315-.225.405-.315.405-.435s-.06-.2-.285-.375c-.54-.45-.63-.51-.72-.51s-.195.06-.675.6H7.875c.045-.57.06-1.2.075-1.905.4-.18.5-.255.5-.39,0-.225-.405-.33-1.71-.42a6.974,6.974,0,0,1,.075,1.32c0,.495-.015.96-.03,1.4H3.09a8.724,8.724,0,0,0-1.35-.675c.075.945.075,1.905.075,4.485C1.815-1.695,1.74-.27,1.74.66c0,.285.15.405.5.405.48,0,.735-.15.735-.465,0-.96-.015-2.25-.015-6.21V-9.36h3.8A6.7,6.7,0,0,1,3.3-3.39c-.09.06,0,.27.09.225a7.65,7.65,0,0,0,3.24-2.3,4.874,4.874,0,0,0,.75-1.41,8.082,8.082,0,0,1,2.6,2.76c.435.735.54.855.825.855s.525-.3.525-.705c0-.99-1.485-2.25-3.855-3.165A10.24,10.24,0,0,0,7.845-9.36ZM21.9.255h5.43v.4c0,.33.12.45.48.45.465,0,.66-.15.66-.51,0-.24-.045-1.02-.045-2.67v-.975a.905.905,0,0,0,.315-.21c.3.165.63.33.945.465a2.684,2.684,0,0,0,.885.3c.15,0,.225-.06.285-.3.15-.465.315-.675.63-.765.075-.015.09-.165.015-.165a9.789,9.789,0,0,1-3.8-1.17A8.653,8.653,0,0,1,25.05-7.17c.36-.06.465-.135.465-.255,0-.15-.24-.27-1.44-.72A5.71,5.71,0,0,1,23.2-6.57a14.891,14.891,0,0,1-5.13,4.08c-.09.045-.015.255.09.225A13.447,13.447,0,0,0,20.82-3.39c.015.33.015.75.015,1.395,0,1.92-.06,2.43-.06,2.76,0,.3.12.435.48.435.42,0,.645-.15.645-.48Zm.12-3.975c-.12-.075-.21-.135-.345-.21A11.651,11.651,0,0,0,24.81-7.035,9.774,9.774,0,0,0,27.12-4.35,5.33,5.33,0,0,0,27.585-4c-.075.075-.15.165-.255.285Zm5.31,3.6H21.9V-3.345h5.43Zm2.2-10.125A11.684,11.684,0,0,1,28.92-8.76c-.03.06.075.15.135.1a6.26,6.26,0,0,0,1.155-.87.731.731,0,0,1,.675-.21c.405,0,.555-.09.555-.27,0-.105-.06-.18-.42-.54-.675-.645-.825-.735-.945-.735s-.18.045-.72.66h-4.17v-1.035c.405-.165.51-.27.51-.39,0-.18-.18-.315-1.695-.48a9.532,9.532,0,0,1,.045,1.14v.765h-4.11a5.088,5.088,0,0,0-.1-.78c-.015-.09-.195-.075-.195.015a1.931,1.931,0,0,1-1.125,1.8c-.315.2-.42.345-.42.615a.615.615,0,0,0,.63.63c.675,0,1.2-.765,1.23-1.905ZM29.25-6.09a.546.546,0,0,0,.51-.615c0-.96-1.4-1.98-3.87-2.715-.09-.03-.15.15-.075.195A10.517,10.517,0,0,1,28.56-6.66C28.86-6.225,29.025-6.09,29.25-6.09Zm-10.5.3a9.712,9.712,0,0,0,4.08-2.775c.42-.015.585-.075.585-.24,0-.15-.435-.375-1.41-.78a5.674,5.674,0,0,1-.75,1.26,9.607,9.607,0,0,1-2.61,2.31C18.555-5.955,18.645-5.76,18.75-5.79ZM42.36-7.26a12.143,12.143,0,0,0,1.635-3H47.22a7.209,7.209,0,0,1-.48,1.23c-.03.06.075.135.12.1a5.838,5.838,0,0,0,.99-.735.581.581,0,0,1,.48-.225c.42,0,.555-.06.555-.225,0-.09-.045-.195-.345-.48-.63-.585-.72-.645-.84-.645s-.18.06-.645.6h-2.91c.1-.315.225-.63.33-.975.39-.075.525-.165.525-.33,0-.195-.195-.27-1.53-.6a7.36,7.36,0,0,1-.42,1.9H41.58a3.19,3.19,0,0,0-.105-.66c-.015-.075-.18-.075-.18,0a1.908,1.908,0,0,1-.915,1.62c-.345.21-.435.345-.435.615a.512.512,0,0,0,.555.525c.69,0,1.065-.81,1.1-1.725H42.93a14.523,14.523,0,0,1-2.955,5.085c-.06.06.075.225.15.165.39-.315.735-.615,1.065-.93-.015.48-.015.96-.015,1.455-.03,3.855-.09,4.77-.09,5.325,0,.27.12.39.45.39.42,0,.615-.165.615-.48V.285h6.39c.15,0,.195-.045.195-.135s-.075-.195-.33-.42c-.585-.57-.7-.645-.795-.645s-.21.075-.765.825h-1.6V-2.28h2.8c.15,0,.21-.045.21-.135s-.075-.21-.315-.4c-.555-.45-.645-.525-.75-.525s-.2.075-.675.69H45.24v-1.92H48c.15,0,.195-.06.195-.15s-.06-.2-.285-.405c-.54-.435-.645-.51-.735-.51s-.21.075-.675.69H45.24V-6.885h3.075c.15,0,.21-.06.21-.15s-.06-.165-.33-.42c-.57-.465-.66-.54-.78-.54-.09,0-.165.075-.705.735H44.685a8.724,8.724,0,0,0,1.14-1.38c.435-.06.555-.12.555-.27,0-.195-.165-.27-1.4-.66a7.638,7.638,0,0,1-.21.96,10.487,10.487,0,0,1-.54,1.35ZM42.15-.09V-2.28h2.115V-.09Zm0-2.565v-1.92h2.115v1.92Zm0-2.3V-6.885h2.115V-4.95ZM37.2-1.14h1.53v.51c0,.315.1.42.4.42.405,0,.63-.165.63-.45,0-.39-.06-1.68-.06-4.23V-6.33c.285-.2.345-.285.345-.405,0-.09-.06-.165-.255-.36-.4-.345-.48-.39-.585-.39s-.165.045-.6.5H37.305l-.135-.105a12.541,12.541,0,0,0,1.05-3.69h2.265c.15,0,.21-.045.21-.15s-.075-.2-.345-.435c-.6-.495-.7-.555-.81-.555s-.195.06-.75.765H36.21a4.493,4.493,0,0,1-1.065-.1l.15.57a5.049,5.049,0,0,1,.885-.09h.96a14.5,14.5,0,0,1-2.295,6.57c-.045.075.1.21.165.15a10.084,10.084,0,0,0,1.23-1.44c0,.615-.015,1.23-.015,1.845,0,1.965-.075,3.5-.075,3.87,0,.195.165.3.435.3.405,0,.615-.15.615-.48Zm1.53-.375H37.2v-5.1h1.53Zm25.62-9.72a23.563,23.563,0,0,1-.42,3.915c-.165.675-.33.93-.72.93-.315,0-.75-.03-1.575-.09-.09,0-.1.2-.015.21,1.11.225,1.32.375,1.38.78.03.165.1.225.3.225a1.514,1.514,0,0,0,.93-.315,2.125,2.125,0,0,0,.6-1.035,19.369,19.369,0,0,0,.57-4.3c.315-.21.375-.3.375-.39s-.06-.165-.27-.36c-.48-.435-.57-.48-.675-.48s-.165.045-.6.54H59.445a7.789,7.789,0,0,1-1.155-.09l.15.57a3.8,3.8,0,0,1,1.02-.105h1.35a13.686,13.686,0,0,1-.18,1.74,8.067,8.067,0,0,0-1.695-.345c-.075-.015-.135.15-.06.18a8.744,8.744,0,0,1,1.59.795,6.568,6.568,0,0,1-2.97,3.81c-.075.045.015.225.1.2a6.105,6.105,0,0,0,3.69-3.39c.165.15.345.315.525.495.315.315.525.4.7.4a.416.416,0,0,0,.375-.435c0-.435-.495-.93-1.305-1.335a11.074,11.074,0,0,0,.315-2.115ZM54.06.09h1.86V.57c0,.24.135.36.42.36.4,0,.615-.135.615-.435,0-.225-.045-1.065-.045-2.625v-.795c.315-.24.36-.3.36-.39s-.045-.195-.255-.375c-.42-.36-.495-.42-.6-.42s-.165.06-.585.54H54.15a8.093,8.093,0,0,0-1.155-.54,18.87,18.87,0,0,1,.075,2.025c0,1.875-.06,2.49-.06,2.82,0,.24.15.345.465.345.405,0,.585-.165.585-.45Zm1.86-.375H54.06v-2.91h1.86Zm9.765.135c.36,0,.57-.33.57-.765a3.207,3.207,0,0,0-1.845-2.34c-.06-.03-.15.075-.105.135a4.313,4.313,0,0,1,.84,2.205C65.22-.315,65.385-.15,65.685-.15Zm-3-2.745c.3,0,.5-.255.5-.615,0-.7-.96-1.335-2.4-1.545-.06-.015-.1.075-.06.105a3.676,3.676,0,0,1,1.44,1.605C62.355-2.985,62.475-2.895,62.685-2.895ZM57.855-.12c.615,0,.975-.81.975-1.875a5.524,5.524,0,0,0-.135-1.185c-.015-.06-.165-.06-.165,0a2.44,2.44,0,0,1-.825,1.86c-.3.24-.39.39-.39.63A.545.545,0,0,0,57.855-.12Zm-4.8-11.01a5.207,5.207,0,0,1,.9-.09h3.21c.15,0,.195-.045.195-.135s-.075-.195-.315-.39c-.57-.48-.675-.54-.78-.54s-.21.06-.72.69h-1.59a6.924,6.924,0,0,1-1.05-.09Zm-.57,2.01a4.8,4.8,0,0,1,.885-.075h4.575c.15,0,.195-.045.195-.15,0-.09-.06-.195-.315-.375-.6-.495-.705-.555-.8-.555s-.21.06-.735.7H53.37a5.154,5.154,0,0,1-1.035-.1Zm.585,1.98a5.338,5.338,0,0,1,.885-.09H57.09c.135,0,.195-.045.195-.135s-.09-.2-.285-.375c-.525-.465-.63-.54-.735-.54s-.21.075-.66.675h-1.65A5.413,5.413,0,0,1,52.9-7.7Zm.045,1.95a4.973,4.973,0,0,1,.87-.075h3.1c.135,0,.195-.06.195-.15S57.21-5.61,57-5.79c-.54-.465-.645-.54-.75-.54s-.21.075-.675.69h-1.56a6.953,6.953,0,0,1-1.065-.09Zm10.74,3.255c0-.075-.165-.09-.18-.015-.285,1.125-.4,1.44-.645,1.635s-.54.21-1.305.21c-.825,0-.99-.12-.99-.555V-3.135c.375-.165.45-.255.45-.4,0-.18-.1-.24-1.5-.39a8.923,8.923,0,0,1,.075,1.395c0,1.44-.03,1.8-.03,2.085,0,.915.435,1.23,2.025,1.23a7.261,7.261,0,0,0,2.01-.195c.39-.135.63-.345.63-.63a.36.36,0,0,0-.21-.375c-.27-.075-.33-.135-.33-.345Z" transform="translate(683 8495)" fill="#4b4b4b"/>
    </g>
    <path id="Path_664" data-name="Path 664" d="M4.08-5.37c1.47.75,2.19,1.38,2.19,2.6A2.085,2.085,0,0,1,4.02-.66c-1.215,0-2.355-1.02-2.97-2.55C1.02-3.285.975-3.33.81-3.3c-.135.03-.15.105-.15.18A19.766,19.766,0,0,0,1.155-.7a8.3,8.3,0,0,0,2.7.525C6.48-.18,7.62-1.62,7.62-3.36S6.585-5.865,4.83-6.69l-.765-.36c-1.32-.63-1.68-1.29-1.68-2.025a1.775,1.775,0,0,1,1.875-1.86,2.888,2.888,0,0,1,2.55,2.25c.015.075.045.12.18.1.15-.03.18-.075.18-.15-.06-.78-.15-1.65-.165-2.4A3.684,3.684,0,0,1,5.55-11.2a4.2,4.2,0,0,0-1.32-.21c-1.95,0-3.18,1.23-3.18,2.67,0,1.515.825,2.25,2.325,3.015Zm11.2,2.22a5.287,5.287,0,0,1-.165,1.965c-.165.285-.6.3-1.1.36-.1.015-.135.045-.135.21,0,.15.03.195.135.195.57-.045,1.35-.06,1.965-.06s1.44.015,2.07.06c.1,0,.135-.045.135-.21s-.03-.18-.135-.195c-.54-.06-1.05-.075-1.215-.36-.18-.315-.165-.48-.165-1.965V-8.475a4.263,4.263,0,0,1,.195-1.86c.21-.33.6-.3.975-.3a2.768,2.768,0,0,1,1.8.465,3.437,3.437,0,0,1,.99,1.545c.03.09.06.135.24.1.135-.03.15-.075.15-.18-.09-.75-.2-1.71-.255-2.475-1.65.075-3.24.075-4.77.075-1.545,0-3.075,0-4.725-.075-.06.765-.165,1.725-.27,2.475,0,.1.015.15.165.18s.195-.015.225-.1a3.645,3.645,0,0,1,1.005-1.545,2.764,2.764,0,0,1,1.755-.465c.375,0,.81,0,.96.27.15.3.165.525.165,1.89ZM27.135-5.8c.24-.015.6-.015.93-.015a4.162,4.162,0,0,1,1.905.315,1.718,1.718,0,0,1,.525,1.11c.015.09.045.15.18.15.195,0,.21-.045.21-.15-.015-.54-.03-1.14-.03-1.695,0-.51.015-.99.03-1.515,0-.09-.015-.135-.21-.135-.15,0-.165.045-.18.135a1.35,1.35,0,0,1-.5.975,3.568,3.568,0,0,1-1.935.315c-.33,0-.69,0-.93-.015V-8.475a4.694,4.694,0,0,1,.15-1.785c.21-.345.72-.375,1.29-.375a3.312,3.312,0,0,1,2.235.48,3.388,3.388,0,0,1,.975,1.485c.03.09.075.135.255.105.12-.03.15-.09.135-.18-.105-.75-.2-1.665-.255-2.43-1.29.075-2.52.075-3.705.075-1.23,0-2.565,0-3.81-.075-.1,0-.135.045-.135.24,0,.15.03.165.135.18.57.06.99.075,1.155.345.165.33.165.51.165,1.935V-3.15a5.241,5.241,0,0,1-.18,1.98c-.18.285-.54.3-1.065.36-.09.015-.12.045-.12.195s.03.195.12.195c1.275-.045,2.655-.06,3.93-.06,1.215,0,2.49.015,3.78.06a15.894,15.894,0,0,0,.78-2.535c.03-.09.03-.15-.15-.21-.15-.045-.18,0-.225.09A4.676,4.676,0,0,1,31.44-1.56a3.96,3.96,0,0,1-2.61.615c-.675,0-1.245-.015-1.485-.405a4.269,4.269,0,0,1-.21-1.8Zm11.955.42a9.685,9.685,0,0,0,1.17.06c3.585,0,4.56-1.455,4.56-3.045,0-1.665-1.02-2.82-3.975-2.82-.975,0-1.905.09-2.475.09-.615,0-1.44-.03-2.07-.075-.1,0-.135.045-.135.225s.03.18.135.2c.555.06,1.08.075,1.245.36.15.33.15.495.15,1.92V-3.15a5.594,5.594,0,0,1-.165,1.965c-.18.315-.57.33-1.11.375-.09.015-.12.03-.12.195s.015.195.12.195c.585-.045,1.38-.06,2.01-.06.6,0,1.38.015,2.025.06.12,0,.15-.045.15-.195s-.03-.18-.15-.195c-.57-.06-1.05-.075-1.215-.375-.15-.27-.15-.48-.15-1.965Zm0-3.105a4.167,4.167,0,0,1,.21-1.875c.195-.285.78-.315,1.23-.315,1.725,0,2.745.81,2.745,2.37,0,1.365-.825,2.475-3.075,2.475a6.156,6.156,0,0,1-1.11-.09ZM52.02-6.165a2.558,2.558,0,0,0,2.235-2.49,2.529,2.529,0,0,0-2.775-2.52,2.735,2.735,0,0,0-2.85,2.16c0,.3.195.45.54.45.555,0,1.005-.3,1.005-.735a1.678,1.678,0,0,1,.15-.75,1.218,1.218,0,0,1,1.155-.66c.96,0,1.4.93,1.4,2.055,0,1.62-.915,2.31-1.755,2.31-.165,0-.36-.045-.51-.045s-.24.06-.3.33.015.285.165.285.435-.03.615-.045c1.59-.105,2.04,1.365,2.04,2.415,0,1.71-.645,2.76-1.755,2.76a1.241,1.241,0,0,1-1.215-.84c-.18-.39-.36-1.125-.81-1.125-.585,0-.96.285-.96.645,0,.48.48.93.93,1.215a3.6,3.6,0,0,0,2.055.585A3.016,3.016,0,0,0,54.6-3.36a2.774,2.774,0,0,0-2.58-2.745Z" transform="translate(836.322 10518)" fill="#fff"/>
    <path id="Path_665" data-name="Path 665" d="M12.345-10.02a5.355,5.355,0,0,1-.495,1.38c-.03.06.075.1.12.075a5.521,5.521,0,0,0,1.1-.84.4.4,0,0,1,.345-.15c.51-.015.66-.09.66-.3,0-.1-.06-.195-.375-.51-.63-.57-.75-.675-.87-.675-.09,0-.18.075-.645.645H7.8V-11.64c.405-.165.54-.3.54-.42,0-.18-.18-.3-1.725-.465.045.465.06.825.06,1.11v1.02H2.655a5.086,5.086,0,0,0-.135-.885c-.015-.09-.21-.09-.21,0A1.879,1.879,0,0,1,1.245-9.51c-.315.2-.42.345-.42.615a.619.619,0,0,0,.645.63c.63,0,1.125-.675,1.185-1.755ZM8.175-5.25v2.685c0,1.155-.03,1.515-.03,1.785,0,1.305.6,1.605,2.745,1.605a9.4,9.4,0,0,0,2.3-.195c.645-.15.93-.42.93-.765a.394.394,0,0,0-.255-.4c-.24-.09-.27-.15-.27-.33,0-.285.06-1.14.09-1.665,0-.075-.15-.1-.165-.03A5.374,5.374,0,0,1,12.66-.48c-.285.24-.765.285-1.755.285C9.6-.2,9.3-.315,9.3-.885V-5.25h4.335c.15,0,.21-.045.21-.135s-.075-.2-.42-.465c-.7-.57-.81-.66-.915-.66-.09,0-.2.09-.9.885H2.49A7.225,7.225,0,0,1,1.155-5.73l.15.57A8.683,8.683,0,0,1,2.49-5.25H4.965C4.845-2.055,3.75-.48.63.855.54.9.6,1.11.7,1.08,4.47.24,5.985-1.59,6.135-5.25ZM3.45-7.545A6.587,6.587,0,0,1,4.515-7.62H11.61c.15,0,.2-.045.2-.15,0-.09-.06-.21-.36-.45-.645-.54-.75-.6-.855-.6-.09,0-.21.06-.855.825H4.515A7,7,0,0,1,3.3-8.1Zm16.935-3.78a6.8,6.8,0,0,1-1.365-.105l.15.585a6.322,6.322,0,0,1,1.245-.105h7.95A14.792,14.792,0,0,1,25.38-8.235c-.255-.045-.63-.1-1.2-.195a12.485,12.485,0,0,1,.06,1.845v5.85c0,.18-.075.255-.27.255-.465,0-1.215-.06-2.265-.15-.1-.015-.1.24,0,.255,1.515.285,1.83.465,1.935.9.06.33.09.375.375.375A1.365,1.365,0,0,0,24.99.57,1.312,1.312,0,0,0,25.425-.5c0-.39-.045-.8-.045-3V-7.56c.39-.165.495-.27.495-.42,0-.06-.015-.09-.09-.135a15.7,15.7,0,0,0,3.78-2.43c.5-.03.69-.12.69-.3,0-.09-.075-.21-.33-.465-.585-.54-.7-.6-.81-.6s-.225.075-.735.585Z" transform="translate(898.322 10518)" fill="#fff"/>
  </g>
</svg>
