<svg xmlns="http://www.w3.org/2000/svg" width="292.59" height="31.725" viewBox="0 0 292.59 31.725">
  <path id="Path_352846" data-name="Path 352846" d="M27.36,0,24.345-7.02H9.585L6.57,0H-.5l14.58-31.725H19.71L34.29,0ZM11.88-12.33H22.05L16.965-24.21ZM64.8-31.725h5.445V0H64.08V-18.81L56.79-5.22h-4.5L45-18.63V0H38.835V-31.725H44.37L54.585-12.33ZM78.435,0V-31.725h7.02V0Zm15.12,0V-31.725h7.02V0Zm15.12-31.725h12.33a19.524,19.524,0,0,1,8.91,1.89,13.2,13.2,0,0,1,5.715,5.445,17.221,17.221,0,0,1,1.98,8.505,17.513,17.513,0,0,1-1.958,8.527A13.028,13.028,0,0,1,129.96-1.89,19.632,19.632,0,0,1,121.005,0h-12.33ZM120.51-5.67q10.125,0,10.125-10.215,0-10.17-10.125-10.17h-4.815V-5.67ZM168.12,0,165.1-7.02h-14.76L147.33,0h-7.065l14.58-31.725h5.625L175.05,0ZM152.64-12.33h10.17l-5.085-11.88ZM178.6-9.405v-5.31h13.9v5.31ZM200.43,0V-31.725h7.02v26.01h14.175V0Zm27.135,0V-31.725h7.02V0Zm15.12,0V-31.725h21.42v5.535h-14.49v7.29h13.59v5.535h-13.59V0Zm27.54,0V-31.725H292.1v5.445h-15.03v7.425H291.2v5.445h-14.13v7.965H292.1V0Z" transform="translate(0.495 31.725)" fill="#fff"/>
</svg>
