<svg xmlns="http://www.w3.org/2000/svg" width="72.604" height="79.99" viewBox="0 0 72.604 79.99">
  <g id="Group_43955" data-name="Group 43955" transform="translate(-178 -4851)">
    <g id="Group_43932" data-name="Group 43932" transform="translate(-267 -274)">
      <g id="Group_43908" data-name="Group 43908" transform="translate(125 300)">
        <circle id="Ellipse_6864" data-name="Ellipse 6864" cx="32" cy="32" r="32" transform="translate(324 4831)"/>
        <path id="Polygon_24" data-name="Polygon 24" d="M8.5,0,17,23H0Z" transform="translate(392.604 4892.16) rotate(131)"/>
      </g>
      <g id="Group_43909" data-name="Group 43909" transform="translate(121 294)">
        <circle id="Ellipse_6864-2" data-name="Ellipse 6864" cx="32" cy="32" r="32" transform="translate(324 4831)" fill="#d5d5d5"/>
        <path id="Polygon_24-2" data-name="Polygon 24" d="M8.5,0,17,23H0Z" transform="translate(392.604 4892.16) rotate(131)" fill="#d5d5d5"/>
      </g>
      <g id="Group_43910" data-name="Group 43910" transform="translate(454 5133.148)">
        <path id="Path_470" data-name="Path 470" d="M1134.6,372.3c0,3.833,4.259,6.815,4.259,6.815-2.206,2.206-7.77,2.453-10.223,0v2.5c0,2.215,7.965,3.067,11.722,7.147a22.969,22.969,0,0,1-32.021.068c3.723-4.14,11.781-4.992,11.781-7.216v-2.5c-2.445,2.453-8.008,2.206-10.222,0,0,0,4.259-2.981,4.259-6.815v-8.519a8.326,8.326,0,0,1,8.519-7.666,12.33,12.33,0,0,1,5.537,1.278c2.981-1.226,6.389,2.743,6.389,6.389Z" transform="translate(-1101.306 -349.296)" fill="#fff"/>
      </g>
    </g>
  </g>
</svg>
