<svg xmlns="http://www.w3.org/2000/svg" width="72.604" height="79.99" viewBox="0 0 72.604 79.99">
  <g id="Group_43956" data-name="Group 43956" transform="translate(-1115.396 -5091)">
    <g id="Group_43911" data-name="Group 43911" transform="translate(1115.396 5091)">
      <g id="Group_43908" data-name="Group 43908" transform="translate(0 6)">
        <circle id="Ellipse_6864" data-name="Ellipse 6864" cx="32" cy="32" r="32" transform="translate(4.604)"/>
        <path id="Polygon_24" data-name="Polygon 24" d="M8.5,0,17,23H0Z" transform="translate(11.153 73.99) rotate(-131)"/>
      </g>
      <g id="Group_43909" data-name="Group 43909" transform="translate(4)">
        <circle id="Ellipse_6864-2" data-name="Ellipse 6864" cx="32" cy="32" r="32" transform="translate(4.604)" fill="#a2a2a2"/>
        <path id="Polygon_24-2" data-name="Polygon 24" d="M8.5,0,17,23H0Z" transform="translate(11.153 73.99) rotate(-131)" fill="#a2a2a2"/>
      </g>
      <g id="Group_43910" data-name="Group 43910" transform="translate(17.604 8.148)">
        <path id="Path_470" data-name="Path 470" d="M1114.092,372.3c0,3.833-4.259,6.815-4.259,6.815,2.206,2.206,7.77,2.453,10.223,0v2.5c0,2.215-7.965,3.067-11.722,7.147a22.969,22.969,0,0,0,32.021.068c-3.723-4.14-11.781-4.992-11.781-7.216v-2.5c2.445,2.453,8.008,2.206,10.222,0,0,0-4.259-2.981-4.259-6.815v-8.519a8.326,8.326,0,0,0-8.519-7.666,12.33,12.33,0,0,0-5.537,1.278c-2.981-1.226-6.389,2.743-6.389,6.389Z" transform="translate(-1101.383 -349.296)" fill="#fff"/>
        <path id="Path_471" data-name="Path 471" d="M1058,285a22.994,22.994,0,0,0-16.049,39.466c3.757-4.08,11.722-4.932,11.722-7.147v-2.5c-2.453,2.453-8.016,2.206-10.222,0,0,0,4.259-2.981,4.259-6.815v-8.519c0-3.645,3.408-7.615,6.389-6.389a12.333,12.333,0,0,1,5.537-1.278,8.326,8.326,0,0,1,8.519,7.666V308c0,3.833,4.259,6.815,4.259,6.815-2.214,2.206-7.777,2.453-10.222,0v2.5c0,2.224,8.059,3.075,11.781,7.216A22.989,22.989,0,0,0,1058,285Z" transform="translate(-1035 -285)" fill="#a2a2a2"/>
      </g>
    </g>
    <g id="Group_43915" data-name="Group 43915" transform="translate(1115.396 5091)">
      <g id="Group_43908-2" data-name="Group 43908" transform="translate(0 6)">
        <circle id="Ellipse_6864-3" data-name="Ellipse 6864" cx="32" cy="32" r="32" transform="translate(4.604)"/>
        <path id="Polygon_24-3" data-name="Polygon 24" d="M8.5,0,17,23H0Z" transform="translate(11.153 73.99) rotate(-131)"/>
      </g>
      <g id="Group_43909-2" data-name="Group 43909" transform="translate(4)">
        <circle id="Ellipse_6864-4" data-name="Ellipse 6864" cx="32" cy="32" r="32" transform="translate(4.604)" fill="#d5d5d5"/>
        <path id="Polygon_24-4" data-name="Polygon 24" d="M8.5,0,17,23H0Z" transform="translate(11.153 73.99) rotate(-131)" fill="#d5d5d5"/>
      </g>
    </g>
    <g id="Group_43929" data-name="Group 43929" transform="translate(845.328 4813)">
      <g id="Group_188" data-name="Group 188" transform="translate(291.672 294.481)">
        <path id="Path_473" data-name="Path 473" d="M372.715,387.171c.115.115.222.231.328.346a23.947,23.947,0,0,1-38,.089c.124-.151.257-.293.4-.435,1.917-1.917,14.2-3.248,14.2-6.265v-3.114l-.106-.107c-1.3-1.3-3.443-5.005-3.443-6.487a3.571,3.571,0,0,1-1.829-3.443c0-2.157,1.829-1.881,1.829-1.881,0-4.1-1.607-9.762,7.916-9.762h.142c9.522,0,7.916,5.662,7.916,9.762,0,0,1.828-.275,1.828,1.881a3.571,3.571,0,0,1-1.828,3.443c0,1.482-2.139,5.182-3.435,6.487a1.317,1.317,0,0,0-.115.107v3.114C358.516,383.923,370.8,385.254,372.715,387.171Z" transform="translate(-335.043 -356.111)" fill="#fff"/>
      </g>
    </g>
  </g>
</svg>
