<!-- Generator: Adobe Illustrator 22.1.0, SVG Export Plug-In  -->
<svg version="1.1"
xmlns="http://www.w3.org/2000/svg" xmlns:xlink="http://www.w3.org/1999/xlink" xmlns:a="http://ns.adobe.com/AdobeSVGViewerExtensions/3.0/"
x="0px" y="0px" width="714.6px" height="45.3px" viewBox="0 0 714.6 45.3"
style="overflow:inherit;enable-background:new 0 0 714.6 45.3;" xml:space="preserve">
<defs>
</defs>
<g>
<rect x="1" style="fill:#F0F1F1;" width="713.6" height="45"/>
</g>
<polygon points="236.7,45 118.4,45 0,45 0,23 0,1 118.4,1 236.7,1 255.5,23 "/>
<polyline style="fill:none;stroke:#FFFFFF;stroke-miterlimit:10;" points="474.4,1 493.2,23 474.4,45 "/>
<g>
<g>
<path style="fill:#FFFFFF;" d="M79.5,16.3c0.5,0,0.8,0.2,1.2,0.4c0.3,0.3,0.5,0.6,0.6,1c0.1,0.4,0,0.9-0.3,1.5
c-0.5,0.8-1,1.3-1.7,1.5c-0.1,0-0.2,0-0.3,0c-0.2-0.2,0-0.7,0.6-1.4c0.8-1.2,1-1.8,0.5-1.9c-0.1,0-0.5,0-1,0.1
c-0.5,0.1-0.8,0.2-0.8,0.2l-0.1,0.1c0,0-0.5,0.2-1.3,0.8c-0.8,0.5-1.3,0.8-1.3,0.9c0,0.1-0.2,0.3-0.4,0.4
c-0.4,0.2-0.8,0.8-1.3,1.7c-0.2,0.3-0.3,0.6-0.4,0.9c-0.1,0.3-0.1,0.6,0,0.8c0.1,0.2,0.2,0.5,0.6,0.7c0.3,0.3,0.7,0.6,1.2,0.9
c1.3,0.7,2.1,1.3,2.3,1.8c0.4,0.6,0.5,1.2,0.4,1.7c-0.1,0.2-0.2,0.4-0.4,0.6c-0.2,0.2-0.4,0.3-0.5,0.3c-0.1,0-0.2,0.1-0.3,0.1
c-0.1,0.1-0.2,0.1-0.3,0.2c-0.1,0-0.4,0.1-0.9,0.2c-0.5,0.1-1,0.1-1.4,0l-0.7-0.2c0-0.1,0-0.1,0-0.2c0,0-0.1-0.1-0.3-0.1
c-0.5-0.3-0.9-0.8-1.1-1.3c-0.1-0.2-0.1-0.3-0.1-0.3c0,0,0.1-0.1,0.2-0.2c0.1-0.1,0.2-0.1,0.3-0.1c0.1,0,0.1,0.1,0.2,0.4
c0.2,0.4,0.7,0.7,1.4,0.8c0.7,0.1,1.4,0,2-0.3c0.4-0.2,0.7-0.4,0.8-0.6c0.1-0.2,0.1-0.5-0.1-0.8c0-0.1-0.1-0.2-0.2-0.3
c-0.2-0.2-0.4-0.4-0.7-0.6c-0.3-0.1-0.6-0.3-0.9-0.4c-0.4-0.2-0.7-0.4-1.2-0.8c-0.4-0.4-0.7-0.7-0.9-0.9c-0.3-0.3-0.5-0.7-0.5-1.2
c-0.1-0.6,0-1.1,0.2-1.5c0.1-0.3,0.5-0.8,1-1.4c0.5-0.6,0.9-1,1.1-1.1l0.6-0.5c0,0,0.1,0,0.2-0.1c0.3-0.1,0.6-0.3,0.9-0.6
C77.8,16.7,78.9,16.3,79.5,16.3z"/>
<path style="fill:#FFFFFF;" d="M81.3,22.2c-0.1-0.1-0.1-0.1-0.1-0.2c0-0.1,0.1-0.2,0.2-0.3c0.1-0.1,0.2-0.2,0.3-0.2
c0.1,0,0.3,0,0.5,0c0.3,0,0.5,0,0.6-0.1c0.1,0,0.2-0.1,0.2-0.2c0.1-0.3,0.3-0.6,0.4-1c0.4-0.7,0.6-1.1,0.9-1.3
c0.2-0.2,0.5-0.1,0.8,0.1c0.1,0.1,0.1,0.2,0.2,0.3c0,0,0,0.1-0.1,0.3c-0.1,0.2-0.2,0.4-0.4,0.7c-0.2,0.3-0.3,0.5-0.3,0.6
c-0.2,0.3-0.2,0.4-0.1,0.5c0.1,0,0.5,0,1.1-0.1c0.6-0.1,0.9,0.1,0.9,0.5c0,0.3,0,0.5-0.1,0.5c-0.1,0.1-0.4,0.1-0.8,0.1
c-0.4,0.1-0.7,0.1-1.1,0.1c-0.3,0-0.5,0-0.6,0c-0.1,0-0.3,0.2-0.3,0.3c0,0-0.1,0.1-0.1,0.2c-0.1,0.1-0.2,0.4-0.4,0.8
c-0.3,1-0.5,1.8-0.6,2.4c-0.1,0.7-0.1,1-0.1,1.2c0.1,0.1,0.3,0.2,0.6,0.2c0.6,0.1,1.3-0.1,2-0.5l0.5-0.3c0.1-0.2,0.2-0.1,0.4,0.2
c0,0.1,0,0.2,0,0.3c0,0.1-0.1,0.2-0.2,0.3c-0.1,0.1-0.3,0.3-0.5,0.4c-0.9,0.6-1.8,0.8-2.6,0.6c-0.2,0-0.4-0.2-0.6-0.4
s-0.3-0.4-0.4-0.6l-0.1-0.1C81,27.4,81,27.1,81,26.6s0.1-1,0.1-1.2c0.1-0.2,0.2-0.6,0.3-1c0.2-0.4,0.3-0.7,0.3-0.8l0.5-1l-0.7-0.2
C81.4,22.3,81.4,22.3,81.3,22.2z"/>
<path style="fill:#FFFFFF;" d="M90.3,27.2C90.3,27.2,90.3,27.2,90.3,27.2C90.3,27.2,90.3,27.2,90.3,27.2c0.1-0.1,0.1-0.1,0.1-0.1
c0.1-0.1,0.2-0.2,0.3-0.3c0.1-0.1,0.2-0.2,0.3-0.2s0.1,0,0.2,0.1c0.1,0.1,0.1,0.1,0.1,0.1c0.2,0,0.2,0.2-0.1,0.5s-0.5,0.6-0.9,0.8
c-0.4,0.3-0.8,0.5-1.4,0.4c-0.5-0.1-0.9-0.3-1.3-0.8c-0.4-0.5-0.5-1.2-0.4-2.2c0-0.7,0.3-1.4,0.9-2.1c0.5-0.7,1.1-1.2,1.7-1.4
c0.2-0.1,0.3-0.2,0.5-0.2c0.1,0,0.4,0,0.7,0.1c0.3,0,0.6,0.2,0.8,0.4c0.3,0.3,0.5,0.6,0.5,1c0,0.3-0.2,0.6-0.6,1
c-0.3,0.4-0.7,0.7-1.2,0.9c-0.7,0.2-1.2,0.2-1.6-0.1c-0.2-0.1-0.4-0.1-0.4,0.1c-0.1,0.1-0.1,0.4-0.2,0.9c-0.1,0.8,0.1,1.3,0.6,1.4
c0,0,0.1,0,0.2,0c0.1,0,0.2,0,0.2,0c0,0,0.1,0,0.2,0c0.1,0,0.1,0,0.2,0c0.1,0,0.2-0.1,0.3-0.1c0.1-0.1,0.2-0.1,0.2-0.1
C90.2,27.3,90.2,27.2,90.3,27.2z M90.3,24.3c0.2-0.1,0.4-0.2,0.6-0.5c0.2-0.2,0.3-0.4,0.3-0.6c0-0.2-0.1-0.3-0.3-0.4
c-0.2-0.1-0.4-0.1-0.6-0.1c-0.2,0.1-0.5,0.2-0.7,0.4c-0.2,0.2-0.4,0.4-0.6,0.6c-0.2,0.2-0.2,0.3-0.2,0.4c0,0.1,0.2,0.2,0.6,0.2
C89.8,24.4,90.1,24.4,90.3,24.3z"/>
<path style="fill:#FFFFFF;" d="M93.1,28.9l0.1-0.6c0.1-0.3,0.3-1.1,0.7-2.3c0.4-1.2,0.8-2.2,1-2.9c0.3-0.6,0.4-1.1,0.4-1.4
c0-0.1,0.1-0.2,0.2-0.3c0.1-0.1,0.3-0.1,0.6,0.1c0,0,0.1,0.1,0.2,0.2c0.1,0.1,0.1,0.2,0.1,0.3s0,0.2,0,0.5c0,0.3-0.1,0.6-0.3,0.9
c1-0.4,1.7-0.5,2.3-0.2c0.5,0.3,0.8,0.8,0.8,1.5c0,0.2-0.1,0.5-0.2,0.8c-0.1,0.3-0.2,0.5-0.4,0.6c-0.1,0-0.2,0.1-0.3,0.4
c-0.2,0.2-0.4,0.4-0.8,0.6c-0.4,0.2-0.6,0.3-0.8,0.2c-0.1,0-0.1,0-0.1,0.1c0,0.1-0.2,0.2-0.7,0.3c-0.5,0.1-0.8,0.2-1,0.2
c-0.2,0-0.4,0-0.5-0.1c-0.1,0.1-0.1,0.2-0.1,0.3c0,0.1-0.1,0.3-0.2,0.7c-0.1,0.3-0.2,0.5-0.3,0.5c-0.1,0.1-0.1,0.1,0,0.2
c0,0.3,0,0.4-0.1,0.6c0,0.3-0.1,0.6-0.2,0.9c0,0.1,0,0.3-0.1,0.4c0,0.1-0.1,0.2-0.1,0.2c-0.1,0-0.1,0.2-0.1,0.5
c0,0.3-0.1,0.6-0.2,0.7s-0.2,0.3-0.4,0.3c0,0,0,0-0.1,0c0,0-0.1,0-0.1,0c-0.3-0.1-0.3-0.4-0.2-1.1c0.1-0.5,0.2-0.9,0.2-1l0.1-0.6
c0.1-0.2,0.2-0.5,0.2-0.8C92.8,29.1,92.9,29,93.1,28.9z M97.8,24c-0.2-0.2-0.5-0.3-0.9-0.1c-0.8,0.3-1.4,0.8-1.8,1.6
c-0.4,0.8-0.4,1.2-0.2,1.3c0.2,0,0.5-0.1,1.1-0.3c0.5-0.2,1-0.4,1.2-0.6c0.3-0.2,0.5-0.5,0.6-0.8C98,24.7,98,24.3,97.8,24z"/>
<path style="fill:#FFFFFF;" d="M105.6,19.6c1-0.6,1.5-0.9,1.6-0.9s0.2,0.1,0.3,0.2c0.1,0.1,0.2,0.2,0.2,0.3c0.1,0.1,0,0.3-0.1,0.5
s-0.3,0.8-0.6,1.6c-0.3,0.8-0.5,1.5-0.6,1.9c-0.1,0.4-0.2,0.8-0.4,1.2s-0.3,0.7-0.3,1.1c-0.2,0.6-0.5,1.3-0.7,2.3
c0,0.1-0.1,0.3-0.2,0.5c-0.1,0.4-0.2,0.6-0.3,0.6c-0.1,0.1-0.3,0-0.6-0.3c-0.1-0.1-0.1-0.2-0.1-0.3c0-0.2,0.2-1.1,0.6-2.6
c0.1,0,0.3-0.5,0.5-1.4c0.3-0.9,0.5-1.7,0.7-2.4l0.4-1.4c-0.6,0.3-1.3,0.8-1.9,1.3c-0.7,0.5-1.1,0.8-1.2,0.9
c-0.3,0.3-0.5,0.4-0.6,0.4c-0.1,0-0.2,0-0.3,0c-0.3-0.3-0.4-0.6-0.3-0.8c0,0,0.3-0.2,0.7-0.5c0.4-0.3,0.6-0.4,0.7-0.5
c0,0,0.1,0,0.1-0.1c0,0,0.1-0.1,0.2-0.2c0.1-0.1,0.1-0.1,0.2-0.2c0,0,0.1-0.1,0.3-0.3c0.2-0.1,0.4-0.3,0.7-0.5
C105.1,20,105.4,19.8,105.6,19.6z"/>
</g>
</g>
<g>
<path style="fill:#FFFFFF;" d="M124.7,17.2c-0.5,0-1,0-1.7,0.1v-2.2c0.5,0.1,0.9,0.1,1.7,0.1h2.9c0.7,0,1.2,0,1.6-0.1
c-0.1,0.5-0.1,0.7-0.1,1.1c0,2.6,0.6,4.9,1.9,7.1c0.8,1.3,1.6,2.3,2.9,3.5c0.9,0.8,1.4,1.2,2.7,1.9c-0.7,0.7-1,1.1-1.5,2
c-1.8-1.3-3.2-2.6-4.4-4.2c-0.7-0.9-1.1-1.6-1.6-2.7c-0.5-1-0.6-1.4-0.9-2.6c-0.6,2.3-1.4,3.8-2.6,5.4c-1.2,1.5-2.5,2.8-4.5,4.1
c-0.4-0.8-0.8-1.3-1.5-1.9c1.5-0.9,2.4-1.6,3.6-2.8c1.4-1.5,2.5-3.4,3.1-5.3c0.4-1.2,0.5-2.2,0.6-3.6H124.7z"/>
<path style="fill:#FFFFFF;" d="M153.1,18c1.1,0,1.7,0,2.3-0.1c-0.1,0.7-0.1,0.7-0.1,2.7c-0.1,2.5-0.2,5.5-0.4,6.7
c-0.2,1.7-0.5,2.3-1,2.7c-0.5,0.3-1.1,0.5-2.1,0.5c-0.8,0-1.6-0.1-2.8-0.2c-0.1-0.9-0.2-1.4-0.5-2.2c1.2,0.2,2.2,0.4,3.1,0.4
c0.8,0,1.1-0.3,1.3-1.5c0.2-1.4,0.4-4.1,0.4-7h-4.9c-0.3,2.7-0.8,4.5-1.6,6c-1,1.9-2.7,3.4-5.2,4.8c-0.4-0.8-0.9-1.3-1.5-1.9
c2.5-1.1,4.1-2.5,5.1-4.5c0.6-1.1,0.9-2.5,1.1-4.4h-3.1c-0.9,0-1.6,0-2.2,0.1v-2.2c0.6,0.1,1.3,0.1,2.3,0.1h3.2c0-0.7,0-0.9,0-1.8
c0-0.9,0-1.4-0.1-1.7h2.4c-0.1,0.5-0.1,0.5-0.2,3.6H153.1z"/>
</g>
<g>
<path style="fill:#747373;" d="M298.5,16.3c0.5,0,0.8,0.2,1.2,0.4c0.3,0.3,0.5,0.6,0.6,1c0.1,0.4,0,0.9-0.3,1.5
c-0.5,0.8-1,1.3-1.7,1.5c-0.1,0-0.2,0-0.3,0c-0.2-0.2,0-0.7,0.6-1.4c0.8-1.2,1-1.8,0.5-1.9c-0.1,0-0.5,0-1,0.1
c-0.5,0.1-0.8,0.2-0.8,0.2l-0.1,0.1c0,0-0.5,0.2-1.3,0.8c-0.8,0.5-1.3,0.8-1.3,0.9c0,0.1-0.2,0.3-0.4,0.4c-0.4,0.2-0.8,0.8-1.3,1.7
c-0.2,0.3-0.3,0.6-0.4,0.9c-0.1,0.3-0.1,0.6,0,0.8c0.1,0.2,0.2,0.5,0.6,0.7c0.3,0.3,0.7,0.6,1.2,0.9c1.3,0.7,2.1,1.3,2.3,1.8
c0.4,0.6,0.5,1.2,0.4,1.7c-0.1,0.2-0.2,0.4-0.4,0.6c-0.2,0.2-0.4,0.3-0.5,0.3c-0.1,0-0.2,0.1-0.3,0.1c-0.1,0.1-0.2,0.1-0.3,0.2
c-0.1,0-0.4,0.1-0.9,0.2c-0.5,0.1-1,0.1-1.4,0l-0.7-0.2c0-0.1,0-0.1,0-0.2c0,0-0.1-0.1-0.3-0.1c-0.5-0.3-0.9-0.8-1.1-1.3
c-0.1-0.2-0.1-0.3-0.1-0.3s0.1-0.1,0.2-0.2c0.1-0.1,0.2-0.1,0.3-0.1c0.1,0,0.1,0.1,0.2,0.4c0.2,0.4,0.7,0.7,1.4,0.8
c0.7,0.1,1.4,0,2-0.3c0.4-0.2,0.7-0.4,0.8-0.6s0.1-0.5-0.1-0.8c0-0.1-0.1-0.2-0.2-0.3c-0.2-0.2-0.4-0.4-0.7-0.6
c-0.3-0.1-0.6-0.3-0.9-0.4c-0.4-0.2-0.7-0.4-1.2-0.8s-0.7-0.7-0.9-0.9c-0.3-0.3-0.5-0.7-0.5-1.2c-0.1-0.6,0-1.1,0.2-1.5
c0.1-0.3,0.5-0.8,1-1.4c0.5-0.6,0.9-1,1.1-1.1l0.6-0.5c0,0,0.1,0,0.2-0.1c0.3-0.1,0.6-0.3,0.9-0.6
C296.8,16.7,297.9,16.3,298.5,16.3z"/>
<path style="fill:#747373;" d="M300.3,22.2c-0.1-0.1-0.1-0.1-0.1-0.2s0.1-0.2,0.2-0.3s0.2-0.2,0.3-0.2c0.1,0,0.3,0,0.5,0
c0.3,0,0.5,0,0.6-0.1c0.1,0,0.2-0.1,0.2-0.2c0.1-0.3,0.3-0.6,0.4-1c0.4-0.7,0.6-1.1,0.9-1.3c0.2-0.2,0.5-0.1,0.8,0.1
c0.1,0.1,0.1,0.2,0.2,0.3s0,0.1-0.1,0.3s-0.2,0.4-0.4,0.7c-0.2,0.3-0.3,0.5-0.3,0.6c-0.2,0.3-0.2,0.4-0.1,0.5c0.1,0,0.5,0,1.1-0.1
c0.6-0.1,0.9,0.1,0.9,0.5c0,0.3,0,0.5-0.1,0.5c-0.1,0.1-0.4,0.1-0.8,0.1c-0.4,0.1-0.7,0.1-1.1,0.1c-0.3,0-0.5,0-0.6,0
c-0.1,0-0.3,0.2-0.3,0.3c0,0-0.1,0.1-0.1,0.2c-0.1,0.1-0.2,0.4-0.4,0.8c-0.3,1-0.5,1.8-0.6,2.4c-0.1,0.7-0.1,1-0.1,1.2
c0.1,0.1,0.3,0.2,0.6,0.2c0.6,0.1,1.3-0.1,2-0.5l0.5-0.3c0.1-0.2,0.2-0.1,0.4,0.2c0,0.1,0,0.2,0,0.3c0,0.1-0.1,0.2-0.2,0.3
c-0.1,0.1-0.3,0.3-0.5,0.4c-0.9,0.6-1.8,0.8-2.6,0.6c-0.2,0-0.4-0.2-0.6-0.4s-0.3-0.4-0.4-0.6l-0.1-0.1c-0.1-0.1-0.1-0.4-0.1-0.9
c0-0.6,0.1-1,0.1-1.2c0.1-0.2,0.2-0.6,0.3-1c0.2-0.4,0.3-0.7,0.3-0.8l0.5-1l-0.7-0.2C300.4,22.3,300.4,22.3,300.3,22.2z"/>
<path style="fill:#747373;" d="M309.3,27.2C309.3,27.2,309.3,27.2,309.3,27.2C309.3,27.2,309.3,27.2,309.3,27.2
c0.1-0.1,0.1-0.1,0.1-0.1c0.1-0.1,0.2-0.2,0.3-0.3c0.1-0.1,0.2-0.2,0.3-0.2c0.1,0,0.1,0,0.2,0.1c0.1,0.1,0.1,0.1,0.1,0.1
c0.2,0,0.2,0.2-0.1,0.5c-0.2,0.3-0.5,0.6-0.9,0.8c-0.4,0.3-0.8,0.5-1.4,0.4c-0.5-0.1-0.9-0.3-1.3-0.8c-0.4-0.5-0.5-1.2-0.4-2.2
c0-0.7,0.3-1.4,0.9-2.1c0.5-0.7,1.1-1.2,1.7-1.4c0.2-0.1,0.3-0.2,0.5-0.2c0.1,0,0.4,0,0.7,0.1c0.3,0,0.6,0.2,0.8,0.4
c0.3,0.3,0.5,0.6,0.5,1c0,0.3-0.2,0.6-0.6,1c-0.3,0.4-0.7,0.7-1.2,0.9c-0.7,0.2-1.2,0.2-1.6-0.1c-0.2-0.1-0.4-0.1-0.4,0.1
c-0.1,0.1-0.1,0.4-0.2,0.9c-0.1,0.8,0.1,1.3,0.6,1.4c0,0,0.1,0,0.2,0c0.1,0,0.2,0,0.2,0s0.1,0,0.2,0c0.1,0,0.1,0,0.2,0
c0.1,0,0.2-0.1,0.3-0.1c0.1-0.1,0.2-0.1,0.2-0.1C309.2,27.3,309.2,27.2,309.3,27.2z M309.3,24.3c0.2-0.1,0.4-0.2,0.6-0.5
c0.2-0.2,0.3-0.4,0.3-0.6s-0.1-0.3-0.3-0.4c-0.2-0.1-0.4-0.1-0.6-0.1c-0.2,0.1-0.5,0.2-0.7,0.4c-0.2,0.2-0.4,0.4-0.6,0.6
c-0.2,0.2-0.2,0.3-0.2,0.4c0,0.1,0.2,0.2,0.6,0.2S309.1,24.4,309.3,24.3z"/>
<path style="fill:#747373;" d="M312.1,28.9l0.1-0.6c0.1-0.3,0.3-1.1,0.7-2.3c0.4-1.2,0.8-2.2,1-2.9c0.3-0.6,0.4-1.1,0.4-1.4
c0-0.1,0.1-0.2,0.2-0.3c0.1-0.1,0.3-0.1,0.6,0.1c0,0,0.1,0.1,0.2,0.2c0.1,0.1,0.1,0.2,0.1,0.3c0,0.1,0,0.2,0,0.5
c0,0.3-0.1,0.6-0.3,0.9c1-0.4,1.7-0.5,2.3-0.2s0.8,0.8,0.8,1.5c0,0.2-0.1,0.5-0.2,0.8c-0.1,0.3-0.2,0.5-0.4,0.6
c-0.1,0-0.2,0.1-0.3,0.4c-0.2,0.2-0.4,0.4-0.8,0.6c-0.4,0.2-0.6,0.3-0.8,0.2c-0.1,0-0.1,0-0.1,0.1c0,0.1-0.2,0.2-0.7,0.3
c-0.5,0.1-0.8,0.2-1,0.2s-0.4,0-0.5-0.1c-0.1,0.1-0.1,0.2-0.1,0.3c0,0.1-0.1,0.3-0.2,0.7c-0.1,0.3-0.2,0.5-0.3,0.5
c-0.1,0.1-0.1,0.1,0,0.2c0,0.3,0,0.4-0.1,0.6c0,0.3-0.1,0.6-0.2,0.9c0,0.1,0,0.3-0.1,0.4c0,0.1-0.1,0.2-0.1,0.2
c-0.1,0-0.1,0.2-0.1,0.5c0,0.3-0.1,0.6-0.2,0.7s-0.2,0.3-0.4,0.3c0,0,0,0-0.1,0c0,0-0.1,0-0.1,0c-0.3-0.1-0.3-0.4-0.2-1.1
c0.1-0.5,0.2-0.9,0.2-1l0.1-0.6c0.1-0.2,0.2-0.5,0.2-0.8C311.8,29.1,311.9,29,312.1,28.9z M316.8,24c-0.2-0.2-0.5-0.3-0.9-0.1
c-0.8,0.3-1.4,0.8-1.8,1.6c-0.4,0.8-0.4,1.2-0.2,1.3c0.2,0,0.5-0.1,1.1-0.3c0.5-0.2,1-0.4,1.2-0.6s0.5-0.5,0.6-0.8
C317,24.7,317,24.3,316.8,24z"/>
<path style="fill:#747373;" d="M324.6,19.3l0.5,0.1c0.1,0,0.3,0.1,0.6,0.3c0.2,0.2,0.4,0.5,0.5,0.7c0.3,0.5,0.2,1.2-0.4,2.1
c-0.1,0.2-0.5,0.6-1.1,1.2c-0.6,0.7-1,1-1.1,1.1c-0.2,0.1-0.6,0.5-1.1,1.1c-0.5,0.6-0.7,0.9-0.7,0.9c0,0,0,0.1,0,0.1s0.2,0,0.4-0.1
c0.2-0.1,0.7-0.2,1.5-0.3c0.7-0.1,1.1-0.1,1.2-0.1l0.1,0c0-0.1,0.2-0.1,0.4-0.1c0.3,0,0.5,0.1,0.8,0.2c0.3,0.1,0.4,0.2,0.4,0.2
c0,0.1,0.1,0.2,0.2,0.3c0.3,0.2,0.2,0.4-0.2,0.3c-0.2,0-0.4,0-0.7-0.1c-0.3,0-0.5,0-0.6,0c-0.1,0-0.4,0-0.9,0.1
c-0.3,0-0.7,0-1.2,0.2c-0.4,0.2-0.9,0.3-1.5,0.5s-0.9,0.2-1,0.2c-0.1,0-0.2-0.1-0.4-0.3c-0.2-0.1-0.3-0.2-0.3-0.3
c0-0.1,0-0.2,0-0.4s0.1-0.2,0.1-0.2c0,0,0.1-0.1,0.3-0.3c0.2-0.2,0.2-0.4,0.3-0.4c0,0,0.1-0.1,0.3-0.2c0,0,0.1-0.1,0.3-0.3
c0.2-0.2,0.4-0.4,0.5-0.5c1.2-1.2,1.9-1.9,1.9-2.1c0.1-0.1,0.2-0.2,0.3-0.2c0.1-0.1,0.3-0.2,0.4-0.4c0-0.2,0.2-0.5,0.6-0.8
c0.2-0.3,0.3-0.6,0.4-0.8s0.1-0.3,0-0.4c0,0-0.2-0.1-0.5-0.2c-0.7-0.2-1.4-0.1-2.1,0.4c-0.1,0-0.2,0.1-0.3,0.1
c-0.3,0.1-0.4,0.1-0.5,0.1c0,0-0.1,0-0.1-0.1c0,0-0.1-0.1-0.1-0.2c-0.1-0.1-0.1-0.1-0.1-0.2l-0.2-0.4l0.6-0.3
C323.1,19.4,323.9,19.1,324.6,19.3z"/>
</g>
<g>
<path style="fill:#747373;" d="M352.5,24.8c-0.4,0.5-0.8,1-1.2,1.7c-1.9-1.2-3.4-2.9-4.3-4.6c-0.3,0.7-0.5,1.2-0.9,1.7
c-0.8,1.3-1.8,2.2-3.4,3.2c-0.3-0.5-0.6-1-1.2-1.5v3.5c0,1.1,0,1.7,0.1,2.1h-2.2c0.1-0.6,0.1-1.3,0.1-2.2V18.5c0-0.7,0-1.2-0.1-1.7
c0.6,0.1,1.2,0.1,2.1,0.1h4.4c0-0.4,0-0.7,0-1c0-0.7,0-1.1-0.1-1.6h2.3c-0.1,0.3-0.1,0.5-0.1,0.9c0,0.3,0,0.3-0.1,1
c0,0.4,0,0.4,0,0.7h4.6c1,0,1.4,0,2.1-0.1c-0.1,0.5-0.1,1-0.1,1.7v10.3c0,0.8-0.1,1-0.3,1.3c-0.4,0.5-1,0.6-2.7,0.6
c-0.5,0-1,0-1.7-0.1c-0.1-0.9-0.3-1.4-0.6-2.1c0.9,0.1,1.6,0.2,2.3,0.2c0.9,0,1-0.1,1-0.6V24.8z M341.5,25.1c1.5-0.9,2.3-1.6,3-2.7
c0.6-1,1-2.2,1.3-3.7h-4.3V25.1z M347.7,18.7c-0.1,0.5-0.1,0.5-0.1,0.9c0.5,1.1,1.2,2.2,2,3c0.8,0.8,1.6,1.4,2.8,2.1v-6H347.7z"/>
<path style="fill:#747373;" d="M362.2,25.9c-0.6,0.4-1,0.5-1.9,1c-0.3-0.8-0.5-1.1-0.9-1.8c1.6-0.6,2.9-1.3,4.1-2.1
c0.8-0.5,1.6-1.2,2.4-1.9c0.4-0.4,0.6-0.6,0.9-1.1h1.8c0.7,1.1,2,2.2,3.6,3.2c1.2,0.7,2.5,1.3,3.9,1.8c-0.5,0.7-0.6,0.9-0.9,1.9
c-0.8-0.4-1-0.5-2.1-1v3.4c0,0.8,0,1.2,0.1,1.8h-2v-0.8h-7.1v0.8h-2c0.1-0.6,0.1-1.1,0.1-1.8V25.9z M366.5,15.5
c0-0.5,0-0.7-0.1-1.1h2.2c-0.1,0.4-0.1,0.7-0.1,1.1v0.2h5c0.7,0,1.3,0,2-0.1c-0.1,0.4-0.1,0.8-0.1,1.3v1.3c0,0.5,0,0.9,0.1,1.4
h-1.9v-2.1h-11.7v2.1h-2c0.1-0.5,0.1-0.8,0.1-1.4V17c0-0.5,0-0.9-0.1-1.3c0.6,0.1,1.3,0.1,2,0.1h4.6V15.5z M366.4,18.7
c-0.9,1.1-1.4,1.6-2.5,2.4c-0.9,0.7-1.4,1-2.6,1.6c-0.4-0.6-0.7-1-1.3-1.5c1.1-0.5,1.6-0.7,2.4-1.2c1-0.6,1.5-1.1,2.4-2.2
L366.4,18.7z M364.1,28.5h7.1v-2.3h-7.1V28.5z M370.7,24.4c-1.4-1-2-1.6-3-2.8c-0.9,1.1-2,2-3.1,2.8H370.7z M370.3,17.7
c1.8,1.8,2.8,2.4,5.1,3.2c-0.4,0.6-0.6,0.8-1,1.7c-2.5-1.1-3.5-1.8-5.6-3.9L370.3,17.7z"/>
<path style="fill:#747373;" d="M385.8,28.4c0,0.7,0,1,0.1,1.4h-1.7V29h-1.3v1.7h-1.8c0.1-0.5,0.1-1.1,0.1-1.9v-3.7
c0-0.4,0-0.9,0.1-1.4c-0.4,0.8-0.5,1.1-1,1.6c-0.2-1-0.3-1.5-0.7-2.2c0.9-1,1.5-2.2,2-3.8c0.3-0.9,0.4-1.5,0.6-2.6h-0.4
c-0.7,0-1,0-1.5,0.1v-1.9c0.5,0.1,1,0.1,1.7,0.1h2.1c0.7,0,1.2,0,1.7-0.1v1.9c-0.4-0.1-0.6-0.1-1.1-0.1h-0.7
c-0.3,1.5-0.5,2.4-1.1,4h1.8c0.5,0,0.8,0,1.1-0.1c0,0.4-0.1,0.8-0.1,1.3v0.4c1.4-1.3,2.3-2.6,3.2-4.7H388v1.8h-1.8
c0.1-0.4,0.1-0.8,0.1-1.2v-1.5c0-0.3,0-0.4-0.1-0.9c0.4,0.1,0.5,0.1,1.3,0.1h2.1c0.2-0.8,0.3-1.2,0.4-1.8l2,0.3
c0,0.1-0.2,0.6-0.5,1.5h3.3c0.6,0,1.1,0,1.6-0.1c0,0.3-0.1,0.7-0.1,1.3v1c0,0.5,0,0.8,0.1,1.2h-1.9v-1.7H391
c-0.4,0.9-0.7,1.5-1.3,2.5h1.7c0.3-0.6,0.5-1.2,0.7-2l1.8,0.4c-0.3,0.7-0.4,1.1-0.7,1.6h1.3c0.8,0,1.1,0,1.5-0.1v1.7
c-0.5-0.1-0.9-0.1-1.4-0.1H393v1.3h1.3c0.8,0,1.1,0,1.5-0.1v1.6c-0.5-0.1-0.9-0.1-1.5-0.1H393v1.3h1.3c0.8,0,1.1,0,1.5-0.1v1.6
c-0.5-0.1-0.9-0.1-1.5-0.1H393v1.3h1.8c0.8,0,1.2,0,1.7-0.1v1.8c-0.6-0.1-1.1-0.1-1.7-0.1h-5.6v0.8h-1.9c0.1-0.6,0.1-1.1,0.1-2
v-4.5c0-0.7,0-1.1,0-1.2c-0.2,0.4-0.5,0.6-0.8,1c-0.2-0.4-0.3-0.7-0.7-1.2V28.4z M382.9,27.3h1.3v-4.8h-1.3V27.3z M391.2,23.1v-1.3
h-2.2v1.3H391.2z M389.1,25.9h2.2v-1.3h-2.2V25.9z M389.1,28.7h2.2v-1.3h-2.2V28.7z"/>
<path style="fill:#747373;" d="M400.8,17.5c0.4,0.1,0.8,0.1,1.4,0.1h3.5c0.8,0,1.1,0,1.4-0.1v1.8c-0.4,0-0.7-0.1-1.4-0.1h-3.5
c-0.6,0-1,0-1.4,0.1V17.5z M401.4,14.9c0.5,0.1,0.7,0.1,1.5,0.1h2.4c0.7,0,1,0,1.5-0.1v1.8c-0.5-0.1-0.8-0.1-1.5-0.1h-2.4
c-0.6,0-1,0-1.5,0.1V14.9z M406.6,29.4c0,0.7,0,1,0.1,1.4H405v-0.6h-1.8v0.9h-1.8c0.1-0.6,0.1-1.2,0.1-1.8v-2.7
c0-0.6,0-0.9-0.1-1.4c0.4,0.1,0.8,0.1,1.4,0.1h2.6c0.6,0,1,0,1.2-0.1c0,0.3-0.1,0.6-0.1,1.3v2.3c0.7-1.3,0.9-2.2,1.1-4.2l1.5,0.3
c-0.3,2.3-0.5,3.1-1.2,4.9l-1.5-0.9V29.4z M401.5,20.2c0.3,0,0.6,0.1,1.1,0.1h3c0.6,0,0.8,0,1.1-0.1v1.7c-0.4,0-0.6-0.1-1.1-0.1h-3
c-0.5,0-0.8,0-1.1,0.1V20.2z M401.5,22.7c0.3,0,0.6,0.1,1.1,0.1h3c0.6,0,0.8,0,1.1-0.1v1.7c-0.3,0-0.6-0.1-1.1-0.1h-3
c-0.5,0-0.7,0-1.1,0.1V22.7z M403.2,28.6h1.8v-1.8h-1.8V28.6z M408.2,17.6c1,0.3,1.4,0.5,2.1,0.7c0.2-0.5,0.2-0.8,0.3-1.5h-1.2
c-1,0-1.4,0-1.9,0.1v-1.9c0.5,0.1,1.2,0.1,2,0.1h5.7c0.7,0,1.3,0,1.7-0.1c0,0.3,0,0.3-0.1,1.6c-0.1,1.8-0.3,3.7-0.5,4.5
c-0.3,1.4-0.8,1.8-2.3,1.8c-0.5,0-0.9,0-1.4-0.1c-0.1-0.8-0.2-1.1-0.4-1.8l0.1,0c-0.4-0.3-0.6-0.4-1-0.6c-0.9,1.4-1.7,2.2-3.3,3.1
c-0.4-0.6-0.7-0.9-1.3-1.4c1.5-0.7,2.3-1.4,3-2.5c-0.8-0.3-1.1-0.5-2.1-0.8L408.2,17.6z M411.4,28.6c0,0.4,0.1,0.5,0.8,0.5
c1,0,1.3-0.1,1.4-0.3c0.1-0.2,0.2-1,0.2-2c0.6,0.3,1,0.4,1.7,0.6c-0.2,3.1-0.5,3.4-3.1,3.4c-2.2,0-2.7-0.2-2.7-1.3v-3.7
c0-0.5,0-0.9-0.1-1.3h1.9c-0.1,0.4-0.1,0.6-0.1,1.2V28.6z M411.5,22.2c1.7,1.3,1.7,1.3,2.8,2.5l-1.4,1.2c-0.8-1.1-1.5-1.8-2.7-2.7
L411.5,22.2z M412.4,16.9c-0.1,1-0.2,1.4-0.5,2.2c0.5,0.3,0.8,0.4,1.5,0.8l-0.8,1.3c0.3,0.1,0.7,0.1,1,0.1c0.6,0,0.7-0.1,0.9-0.8
c0.2-0.7,0.3-1.7,0.4-3.6H412.4z M415.9,24.5c0.8,1.4,1.3,2.4,2,4.2l-1.5,0.9c-0.6-2-0.9-2.8-1.9-4.4L415.9,24.5z"/>
</g>
<g>
<path style="fill:#747373;" d="M558.4,16.3c0.5,0,0.8,0.2,1.2,0.4c0.3,0.3,0.5,0.6,0.6,1c0.1,0.4,0,0.9-0.3,1.5
c-0.5,0.8-1,1.3-1.7,1.5c-0.1,0-0.2,0-0.3,0c-0.2-0.2,0-0.7,0.6-1.4c0.8-1.2,1-1.8,0.5-1.9c-0.1,0-0.5,0-1,0.1
c-0.5,0.1-0.8,0.2-0.8,0.2l-0.1,0.1c0,0-0.5,0.2-1.3,0.8c-0.8,0.5-1.3,0.8-1.3,0.9c0,0.1-0.2,0.3-0.4,0.4c-0.4,0.2-0.8,0.8-1.3,1.7
c-0.2,0.3-0.3,0.6-0.4,0.9c-0.1,0.3-0.1,0.6,0,0.8c0.1,0.2,0.2,0.5,0.6,0.7c0.3,0.3,0.7,0.6,1.2,0.9c1.3,0.7,2.1,1.3,2.3,1.8
c0.4,0.6,0.5,1.2,0.4,1.7c-0.1,0.2-0.2,0.4-0.4,0.6s-0.4,0.3-0.5,0.3c-0.1,0-0.2,0.1-0.3,0.1c-0.1,0.1-0.2,0.1-0.3,0.2
s-0.4,0.1-0.9,0.2c-0.5,0.1-1,0.1-1.4,0l-0.7-0.2c0-0.1,0-0.1,0-0.2c0,0-0.1-0.1-0.3-0.1c-0.5-0.3-0.9-0.8-1.1-1.3
c-0.1-0.2-0.1-0.3-0.1-0.3c0,0,0.1-0.1,0.2-0.2c0.1-0.1,0.2-0.1,0.3-0.1c0.1,0,0.1,0.1,0.2,0.4c0.2,0.4,0.7,0.7,1.4,0.8
c0.7,0.1,1.4,0,2-0.3c0.4-0.2,0.7-0.4,0.8-0.6c0.1-0.2,0.1-0.5-0.1-0.8c0-0.1-0.1-0.2-0.2-0.3c-0.2-0.2-0.4-0.4-0.7-0.6
c-0.3-0.1-0.6-0.3-0.9-0.4c-0.4-0.2-0.7-0.4-1.2-0.8c-0.4-0.4-0.7-0.7-0.9-0.9c-0.3-0.3-0.5-0.7-0.5-1.2c-0.1-0.6,0-1.1,0.2-1.5
c0.1-0.3,0.5-0.8,1-1.4c0.5-0.6,0.9-1,1.1-1.1l0.6-0.5c0,0,0.1,0,0.2-0.1c0.3-0.1,0.6-0.3,0.9-0.6
C556.7,16.7,557.8,16.3,558.4,16.3z"/>
<path style="fill:#747373;" d="M560.2,22.2c-0.1-0.1-0.1-0.1-0.1-0.2c0-0.1,0-0.2,0.2-0.3c0.1-0.1,0.2-0.2,0.3-0.2
c0.1,0,0.3,0,0.5,0c0.3,0,0.5,0,0.6-0.1s0.2-0.1,0.2-0.2c0.1-0.3,0.3-0.6,0.4-1c0.4-0.7,0.6-1.1,0.9-1.3c0.2-0.2,0.5-0.1,0.8,0.1
c0.1,0.1,0.1,0.2,0.2,0.3c0,0,0,0.1-0.1,0.3c-0.1,0.2-0.2,0.4-0.4,0.7c-0.2,0.3-0.3,0.5-0.3,0.6c-0.2,0.3-0.2,0.4-0.1,0.5
c0.1,0,0.5,0,1.1-0.1s0.9,0.1,0.9,0.5c0,0.3,0,0.5-0.1,0.5c-0.1,0.1-0.4,0.1-0.8,0.1c-0.4,0.1-0.7,0.1-1.1,0.1c-0.3,0-0.5,0-0.6,0
c-0.1,0-0.3,0.2-0.3,0.3c0,0-0.1,0.1-0.1,0.2c-0.1,0.1-0.2,0.4-0.4,0.8c-0.3,1-0.5,1.8-0.6,2.4c-0.1,0.7-0.1,1-0.1,1.2
s0.3,0.2,0.6,0.2c0.6,0.1,1.3-0.1,2-0.5l0.5-0.3c0.1-0.2,0.2-0.1,0.4,0.2c0,0.1,0,0.2,0,0.3c0,0.1-0.1,0.2-0.2,0.3
c-0.1,0.1-0.3,0.3-0.5,0.4c-0.9,0.6-1.8,0.8-2.6,0.6c-0.2,0-0.4-0.2-0.6-0.4s-0.3-0.4-0.4-0.6l-0.1-0.1c-0.1-0.1-0.1-0.4-0.1-0.9
c0-0.6,0.1-1,0.1-1.2c0.1-0.2,0.2-0.6,0.3-1c0.2-0.4,0.2-0.7,0.3-0.8l0.5-1l-0.7-0.2C560.3,22.3,560.3,22.3,560.2,22.2z"/>
<path style="fill:#747373;" d="M569.2,27.2C569.2,27.2,569.2,27.2,569.2,27.2C569.2,27.2,569.2,27.2,569.2,27.2
c0.1-0.1,0.1-0.1,0.1-0.1c0.1-0.1,0.2-0.2,0.3-0.3c0.1-0.1,0.2-0.2,0.3-0.2c0.1,0,0.1,0,0.2,0.1c0.1,0.1,0.1,0.1,0.1,0.1
c0.2,0,0.2,0.2-0.1,0.5c-0.2,0.3-0.5,0.6-0.9,0.8c-0.4,0.3-0.8,0.5-1.4,0.4s-0.9-0.3-1.3-0.8c-0.4-0.5-0.5-1.2-0.4-2.2
c0-0.7,0.3-1.4,0.9-2.1c0.5-0.7,1.1-1.2,1.7-1.4c0.2-0.1,0.3-0.2,0.5-0.2c0.1,0,0.4,0,0.7,0.1c0.3,0,0.6,0.2,0.8,0.4
c0.3,0.3,0.5,0.6,0.5,1c0,0.3-0.2,0.6-0.6,1c-0.3,0.4-0.7,0.7-1.2,0.9c-0.7,0.2-1.2,0.2-1.6-0.1c-0.2-0.1-0.4-0.1-0.4,0.1
c-0.1,0.1-0.1,0.4-0.2,0.9c-0.1,0.8,0.1,1.3,0.6,1.4c0,0,0.1,0,0.2,0s0.2,0,0.2,0c0,0,0.1,0,0.2,0c0.1,0,0.1,0,0.2,0
c0.1,0,0.2-0.1,0.3-0.1c0.1-0.1,0.2-0.1,0.2-0.1C569.1,27.3,569.1,27.2,569.2,27.2z M569.2,24.3c0.2-0.1,0.4-0.2,0.6-0.5
c0.2-0.2,0.3-0.4,0.3-0.6c0-0.2-0.1-0.3-0.3-0.4c-0.2-0.1-0.4-0.1-0.6-0.1c-0.2,0.1-0.5,0.2-0.7,0.4c-0.2,0.2-0.4,0.4-0.6,0.6
c-0.2,0.2-0.2,0.3-0.2,0.4c0,0.1,0.2,0.2,0.6,0.2C568.7,24.4,569,24.4,569.2,24.3z"/>
<path style="fill:#747373;" d="M572,28.9l0.1-0.6c0.1-0.3,0.3-1.1,0.7-2.3s0.8-2.2,1-2.9c0.3-0.6,0.4-1.1,0.4-1.4
c0-0.1,0.1-0.2,0.2-0.3c0.1-0.1,0.3-0.1,0.6,0.1c0,0,0.1,0.1,0.2,0.2c0.1,0.1,0.1,0.2,0.1,0.3c0,0.1,0,0.2,0,0.5
c0,0.3-0.1,0.6-0.3,0.9c1-0.4,1.7-0.5,2.3-0.2c0.5,0.3,0.8,0.8,0.8,1.5c0,0.2-0.1,0.5-0.2,0.8c-0.1,0.3-0.2,0.5-0.4,0.6
c-0.1,0-0.2,0.1-0.3,0.4c-0.2,0.2-0.4,0.4-0.8,0.6c-0.4,0.2-0.6,0.3-0.8,0.2c-0.1,0-0.1,0-0.1,0.1c0,0.1-0.2,0.2-0.7,0.3
c-0.5,0.1-0.8,0.2-1,0.2c-0.2,0-0.4,0-0.5-0.1c-0.1,0.1-0.1,0.2-0.1,0.3c0,0.1-0.1,0.3-0.2,0.7c-0.1,0.3-0.2,0.5-0.3,0.5
c-0.1,0.1-0.1,0.1,0,0.2c0,0.3,0,0.4-0.1,0.6c0,0.3-0.1,0.6-0.2,0.9c0,0.1,0,0.3-0.1,0.4c0,0.1-0.1,0.2-0.1,0.2
c-0.1,0-0.1,0.2-0.1,0.5c0,0.3-0.1,0.6-0.2,0.7s-0.2,0.3-0.4,0.3c0,0,0,0-0.1,0s-0.1,0-0.1,0c-0.3-0.1-0.3-0.4-0.2-1.1
c0.1-0.5,0.2-0.9,0.2-1l0.1-0.6c0.1-0.2,0.2-0.5,0.2-0.8C571.7,29.1,571.8,29,572,28.9z M576.7,24c-0.2-0.2-0.5-0.3-0.9-0.1
c-0.8,0.3-1.4,0.8-1.8,1.6c-0.4,0.8-0.4,1.2-0.2,1.3c0.2,0,0.5-0.1,1.1-0.3c0.5-0.2,1-0.4,1.2-0.6c0.3-0.2,0.5-0.5,0.6-0.8
C576.9,24.7,576.9,24.3,576.7,24z"/>
<path style="fill:#747373;" d="M584.1,20.1L584.1,20.1c-0.2,0-0.4,0-0.8,0.1c-0.4,0.1-0.6,0.1-0.6,0.2c0,0-0.1,0.1-0.4,0.2
c-0.2,0.1-0.4,0.1-0.5,0.1s-0.2-0.1-0.3-0.3s-0.2-0.4-0.1-0.5c0-0.1,0.4-0.3,1.1-0.7c0.2-0.1,0.6-0.1,1.1-0.1c0.5,0,0.9,0,1.2,0
c1.1,0.1,1.7,0.6,1.8,1.3c0.1,0.3,0.1,0.5,0,0.6c-0.1,0.1-0.3,0.3-0.6,0.7c-0.9,0.5-1.3,0.9-1.5,0.9c-0.1,0.1-0.3,0.2-0.4,0.3
c-0.4,0.3-0.6,0.4-0.6,0.4c0.2,0.1,0.3,0.2,0.5,0.3c0.6,0.2,1.1,0.6,1.6,1.2c0.5,1.2,0.2,2.1-1.1,2.9c-0.7,0.4-1.5,0.6-2.4,0.7
c-0.5,0-0.9-0.1-1.3-0.2s-0.5-0.3-0.5-0.5c0-0.2,0.1-0.3,0.1-0.3c0.1,0,0.2,0,0.5,0c0.6,0.1,1.2,0.1,2-0.1c0.7-0.2,1.2-0.5,1.6-0.8
s0.5-0.7,0.5-1c0-0.5-0.6-1-1.6-1.2c-0.5-0.1-0.8-0.2-1-0.2c-0.2,0-0.4,0-0.7-0.1c-0.1-0.1-0.2-0.3-0.3-0.5c0-0.1,0.1-0.2,0.2-0.3
c0.2-0.1,0.8-0.5,1.9-1c1.1-0.6,1.7-1,2.1-1.3c0.2-0.3,0.3-0.5,0.3-0.6c0-0.1-0.2-0.2-0.5-0.2C584.6,20,584.1,20,584.1,20.1z"/>
</g>
<g>
<path style="fill:#747373;" d="M601,24.2c-0.9,0-1.4,0-1.9,0.1v-2c0.5,0.1,1,0.1,1.9,0.1h11.8c0.9,0,1.4,0,1.9-0.1v2
c-0.5-0.1-1.1-0.1-1.9-0.1h-3.3v4.1c0,0.4,0.2,0.5,1.7,0.5c1.3,0,1.7-0.1,1.9-0.5c0.1-0.2,0.2-0.9,0.2-1.5c0-0.1,0-0.2,0-0.3
c0.8,0.3,1.1,0.4,1.9,0.6c-0.1,1.8-0.3,2.6-0.8,3c-0.5,0.4-1.3,0.5-3.6,0.5c-2.7,0-3.2-0.3-3.2-1.5v-4.9h-2
c-0.1,1.7-0.3,2.4-0.9,3.4c-0.9,1.5-2,2.3-4.9,3.5c-0.3-0.7-0.6-1.2-1.1-1.9c1.5-0.5,2.1-0.7,2.7-1c1.2-0.6,1.9-1.7,2.1-3
c0.1-0.3,0.1-0.5,0.1-1H601z M605.7,15.7c0-0.5,0-0.9-0.1-1.3h2.2c-0.1,0.3-0.1,0.8-0.1,1.3v0.4h5c0.9,0,1.4,0,2-0.1
c-0.1,0.4-0.1,0.7-0.1,1.4v1.5c0,0.6,0,1,0.1,1.4h-1.9v-2.4h-11.7v2.4h-2c0.1-0.4,0.1-0.8,0.1-1.4v-1.5c0-0.6,0-1-0.1-1.4
c0.6,0.1,1.1,0.1,2,0.1h4.6V15.7z M601.7,19.2c0.5,0.1,0.9,0.1,1.7,0.1h7.1c0.8,0,1.2,0,1.7-0.1v1.9c-0.5-0.1-0.9-0.1-1.7-0.1h-7.1
c-0.8,0-1.2,0-1.7,0.1V19.2z"/>
<path style="fill:#747373;" d="M622,17.2c-1,0-1.7,0-2.5,0.1v-2.1c0.7,0.1,1.4,0.1,2.4,0.1h9.2c1,0,1.5,0,2-0.1l1.2,1.4
c-0.3,0.3-0.4,0.4-0.7,0.7c-2,2-3.4,3-5.7,4.4V29c0,1.3-0.7,1.8-2.7,1.8c-0.7,0-0.9,0-2.5-0.1c-0.1-0.8-0.2-1.3-0.5-2.1
c1.2,0.2,2,0.3,2.8,0.3c0.6,0,0.8-0.1,0.8-0.4v-6.7c0-0.7,0-1.3-0.1-1.8h1.6c1.4-0.8,2.4-1.4,3.6-2.6H622z"/>
</g>
</svg>
