<svg xmlns="http://www.w3.org/2000/svg" width="329.49" height="32.535" viewBox="0 0 329.49 32.535">
  <path id="Path_352847" data-name="Path 352847" d="M3.15,0V-31.725h7.02V0ZM39.24-31.725h6.57V0H40.59L24.8-20.2V0H18.27V-31.725h5.175L39.24-11.61ZM53.91,0V-31.725H75.33v5.535H60.84v7.29H74.43v5.535H60.84V0ZM95.76.4a16.211,16.211,0,0,1-8.212-2,13.535,13.535,0,0,1-5.378-5.67,18.573,18.573,0,0,1-1.89-8.617A18.573,18.573,0,0,1,82.17-24.5a13.392,13.392,0,0,1,5.378-5.648,16.357,16.357,0,0,1,8.212-1.98,16.357,16.357,0,0,1,8.213,1.98A13.392,13.392,0,0,1,109.35-24.5a18.573,18.573,0,0,1,1.89,8.618,18.573,18.573,0,0,1-1.89,8.617,13.535,13.535,0,0,1-5.378,5.67A16.211,16.211,0,0,1,95.76.4Zm0-5.445a7.6,7.6,0,0,0,6.233-2.79q2.272-2.79,2.272-8.055t-2.25-8.033a7.615,7.615,0,0,0-6.255-2.767,7.55,7.55,0,0,0-6.232,2.767Q87.3-21.15,87.3-15.885T89.55-7.83A7.54,7.54,0,0,0,95.76-5.04ZM145.935,0h-7.65l-5.49-10.125a4.3,4.3,0,0,0-1.62-1.687,4.925,4.925,0,0,0-2.385-.518h-3.465V0H118.4V-31.725h14.58q5.58,0,8.438,2.452t2.857,7.087a9.167,9.167,0,0,1-2,6.03,9.586,9.586,0,0,1-5.648,3.2,6.956,6.956,0,0,1,4.185,3.555ZM131.94-17.64a7.124,7.124,0,0,0,4.365-1.058A3.942,3.942,0,0,0,137.655-22a3.931,3.931,0,0,0-1.35-3.33,7.243,7.243,0,0,0-4.365-1.035h-6.705v8.73Zm45.855-14.085h5.445V0h-6.165V-18.81l-7.29,13.59h-4.5l-7.29-13.41V0H151.83V-31.725h5.535L167.58-12.33ZM215.64,0l-3.015-7.02h-14.76L194.85,0h-7.065l14.58-31.725h5.625L222.57,0ZM200.16-12.33h10.17l-5.085-11.88ZM230.31,0V-26.01h-9.945v-5.715h26.91v5.715H237.33V0Zm22.455,0V-31.725h7.02V0Zm29.7.4a16.211,16.211,0,0,1-8.213-2,13.535,13.535,0,0,1-5.377-5.67,18.573,18.573,0,0,1-1.89-8.617,18.573,18.573,0,0,1,1.89-8.618,13.392,13.392,0,0,1,5.377-5.648,16.358,16.358,0,0,1,8.213-1.98,16.358,16.358,0,0,1,8.212,1.98,13.392,13.392,0,0,1,5.378,5.648,18.574,18.574,0,0,1,1.89,8.618,18.574,18.574,0,0,1-1.89,8.617,13.535,13.535,0,0,1-5.378,5.67A16.211,16.211,0,0,1,282.465.4Zm0-5.445A7.6,7.6,0,0,0,288.7-7.83q2.272-2.79,2.272-8.055t-2.25-8.033a7.615,7.615,0,0,0-6.255-2.767,7.55,7.55,0,0,0-6.233,2.767Q274-21.15,274-15.885t2.25,8.055A7.54,7.54,0,0,0,282.465-5.04ZM326.07-31.725h6.57V0h-5.22l-15.8-20.2V0H305.1V-31.725h5.175L326.07-11.61Z" transform="translate(-3.15 32.13)" fill="#fff"/>
</svg>
