<svg xmlns="http://www.w3.org/2000/svg" viewBox="0 0 44.2 44.17"><defs><style>.cls-1{fill:#ae70ac;fill-rule:evenodd;}</style></defs><g id="Layer_2" data-name="Layer 2"><g id="文字アイコン"><path class="cls-1" d="M44.2,22.09a4.32,4.32,0,0,0-4.42-4.43,64.39,64.39,0,0,0-6.65,1.47,61.76,61.76,0,0,0,6.5-2.05,4.31,4.31,0,0,0,1.61-6,4.32,4.32,0,0,0-6-1.62,59.24,59.24,0,0,0-5,4.6,64.94,64.94,0,0,0,4.6-5,4.32,4.32,0,0,0-1.63-6,4.32,4.32,0,0,0-6,1.61,60.52,60.52,0,0,0-2.05,6.49,64.4,64.4,0,0,0,1.47-6.64,4.43,4.43,0,0,0-8.86,0,64.4,64.4,0,0,0,1.47,6.64,58.22,58.22,0,0,0-2.05-6.49,4.32,4.32,0,0,0-6-1.61A4.32,4.32,0,0,0,9.42,9,63.52,63.52,0,0,0,14,14,60.36,60.36,0,0,0,9,9.42,4.32,4.32,0,0,0,3,11a4.31,4.31,0,0,0,1.61,6,61.76,61.76,0,0,0,6.5,2.05,64.39,64.39,0,0,0-6.65-1.47,4.43,4.43,0,0,0,0,8.85A61.72,61.72,0,0,0,11.07,25a64.34,64.34,0,0,0-6.5,2.05,4.32,4.32,0,0,0-1.61,6,4.32,4.32,0,0,0,6,1.62,60.36,60.36,0,0,0,5-4.59,65.43,65.43,0,0,0-4.6,5,4.32,4.32,0,0,0,1.63,6,4.32,4.32,0,0,0,6-1.61,58.22,58.22,0,0,0,2.05-6.49,64.4,64.4,0,0,0-1.47,6.64,4.32,4.32,0,0,0,4.43,4.42,4.32,4.32,0,0,0,4.43-4.42,64.4,64.4,0,0,0-1.47-6.64,58.22,58.22,0,0,0,2.05,6.49,4.43,4.43,0,0,0,7.67-4.43,65.43,65.43,0,0,0-4.6-5,60.36,60.36,0,0,0,5,4.59,4.42,4.42,0,0,0,4.43-7.66A64.34,64.34,0,0,0,33.13,25a61.72,61.72,0,0,0,6.65,1.47A4.32,4.32,0,0,0,44.2,22.09Z"/></g></g></svg>