<svg xmlns="http://www.w3.org/2000/svg" xmlns:xlink="http://www.w3.org/1999/xlink" width="120" height="120" viewBox="0 0 120 120">
  <defs>
    <clipPath id="clip-path">
      <rect id="Rectangle_8086" data-name="Rectangle 8086" width="120" height="120" transform="translate(-4131 -4463)" fill="none" stroke="#707070" stroke-width="1"/>
    </clipPath>
  </defs>
  <g id="Mask_Group_10" data-name="Mask Group 10" transform="translate(4131 4463)" clip-path="url(#clip-path)">
    <g id="Layer_2" data-name="Layer 2" transform="translate(-4105 -4445.989)">
      <g id="文字アイコン">
        <path id="Path_352920" data-name="Path 352920" d="M56.76,53.81c-2.32-2-5.3-3-8.08-4.17s-7.23-1.72-8.46-5c-.41-1.08-.77-3.5,0-4.49C40.37,40,53,37.06,53.06,36.33s-4.13-2.43-5.15-7.71c-1-5.44.24-16-3.06-21.12C40.78,1.17,35.62-.14,32.62,0c-3-.15-8.15,1.16-12.23,7.49-3.3,5.12-2,15.68-3.06,21.12-1,5.28-5.19,7.09-5.15,7.71S24.88,40,25,40.18c.78,1,.41,3.41,0,4.49-1.23,3.25-5.66,3.82-8.46,5s-5.76,2.15-8.08,4.17C.62,60.67,0,69.75,0,76.13H65.25C65.3,69.75,64.64,60.67,56.76,53.81Z" fill="#727171"/>
        <path id="Path_352921" data-name="Path 352921" d="M32.41,38.44a4.9,4.9,0,0,1-.77-.06l-7.36-1.07a3,3,0,0,1-2.12-.88,3.1,3.1,0,0,1-.93-2.23V25l9.32-1.31a14.37,14.37,0,0,1,3.82,0l10,1.31-.29,9a3.07,3.07,0,0,1-3,3L33.3,38.36a5.35,5.35,0,0,1-.89.08Z" fill="#fff"/>
        <path id="Path_352922" data-name="Path 352922" d="M24.37,36l7.45,1.08a4.1,4.1,0,0,0,1.26,0L41,35.74h0A1.76,1.76,0,0,0,42.77,34L43,26.12,34.19,25a12.53,12.53,0,0,0-3.46,0l-8.19,1.15V34.2a1.81,1.81,0,0,0,.54,1.3,1.68,1.68,0,0,0,1.23.5Z" fill="#fff"/>
        <rect id="Rectangle_8084" data-name="Rectangle 8084" width="1.31" height="4.09" transform="matrix(0.551, -0.834, 0.834, 0.551, 18.415, 23.807)" fill="#fff"/>
        <rect id="Rectangle_8085" data-name="Rectangle 8085" width="3.64" height="1.31" transform="matrix(0.792, -0.611, 0.611, 0.792, 43.221, 24.957)" fill="#fff"/>
      </g>
    </g>
  </g>
</svg>
