<svg xmlns="http://www.w3.org/2000/svg" xmlns:xlink="http://www.w3.org/1999/xlink" width="150" height="150" viewBox="0 0 150 150">
  <defs>
    <clipPath id="clip-path">
      <rect id="Rectangle_8096" data-name="Rectangle 8096" width="150" height="150" transform="translate(-3791 -4263)" fill="none" stroke="#707070" stroke-width="1"/>
    </clipPath>
    <clipPath id="clip-path-2">
      <rect id="Rectangle_8095" data-name="Rectangle 8095" width="135.16" height="88.68" transform="translate(-11.37 -14.43)" fill="none"/>
    </clipPath>
  </defs>
  <g id="Mask_Group_13" data-name="Mask Group 13" transform="translate(3791 4263)" clip-path="url(#clip-path)">
    <g id="Layer_2" data-name="Layer 2" transform="translate(-3774.63 -4230.57)">
      <g id="Layer_2-2" data-name="Layer 2">
        <g id="Group_43759" data-name="Group 43759" clip-path="url(#clip-path-2)">
          <path id="Path_352936" data-name="Path 352936" d="M50.89,49.42H27.64s-15.34,0-16.27,18.14l2.32,47s-.06,6,5.11,6h3.72l4.65,43s.93,5.35,7.44,6.28h9.3c6.51-.93,7.44-6.28,7.44-6.28l4.65-43h3.72c4.83,0,5.12-6,5.12-6l2.32-47C66.23,49.42,50.89,49.42,50.89,49.42Z" transform="translate(-11.37 -14.43)" fill="#727171"/>
          <path id="Path_352937" data-name="Path 352937" d="M111.74,49.42H88.48s-15.34,0-16.27,18.14l2.33,47s-.07,6,5.11,6h3.72l4.65,43s.93,5.35,7.44,6.28h9.3c6.51-.93,7.44-6.28,7.44-6.28l4.65-43h3.72c4.83,0,5.12-6,5.12-6l2.32-47C127.08,49.42,111.74,49.42,111.74,49.42Z" transform="translate(-11.37 -14.43)" fill="#727171"/>
          <path id="Path_352938" data-name="Path 352938" d="M44.76,34l9.11-1.87a15.65,15.65,0,0,0,.27-2.85,14.91,14.91,0,1,0-4.89,11Z" transform="translate(-11.37 -14.43)" fill="#727171"/>
          <path id="Path_352939" data-name="Path 352939" d="M93.62,16.18A14.88,14.88,0,0,0,85.3,30l11,3-6.1,7.63a14.88,14.88,0,1,0,3.44-24.39Z" transform="translate(-11.37 -14.43)" fill="#727171"/>
          <path id="Path_352940" data-name="Path 352940" d="M93.13,41.94c-1.73.37-3.07.64-3.57.68C88.42,41.46,82.75,34,82.93,31a6,6,0,0,1,1.51-3.77,4.77,4.77,0,0,1,.77-.71l.68.07,12,1.33c.12,1.34.42,4.93.59,7.13s.32,4.55.39,5.62c-1.2.29-2.44.58-3.6.84Z" transform="translate(-11.37 -14.43)" fill="#fff" stroke="#727171" stroke-miterlimit="10" stroke-width="1"/>
          <path id="Path_352941" data-name="Path 352941" d="M99.29,29.62c.92-.46,3.7-1.69,5.62-1a2.8,2.8,0,0,1,1.66,1.83c1.23,3.56-4.68,6.32-6.65,7.12-.06-.88-.13-1.82-.2-2.7C99.61,33.41,99.43,31.26,99.29,29.62Z" transform="translate(-11.37 -14.43)" fill="#727171" stroke="#fff" stroke-miterlimit="10" stroke-width="1"/>
          <path id="Path_352942" data-name="Path 352942" d="M43.83,41.47c-1.16-.26-2.4-.55-3.6-.84.07-1.07.23-3.54.39-5.62s.48-5.79.59-7.13l12-1.33.68-.07a5.19,5.19,0,0,1,.78.71A6.11,6.11,0,0,1,56.15,31c.17,3-5.5,10.5-6.63,11.66a30.784,30.784,0,0,1-3.58-.68Z" transform="translate(-11.37 -14.43)" fill="#fff" stroke="#727171" stroke-miterlimit="10" stroke-width="1"/>
          <path id="Path_352943" data-name="Path 352943" d="M39.35,34.91c-.07.88-.14,1.82-.2,2.7-2-.8-7.88-3.56-6.64-7.12a2.76,2.76,0,0,1,1.65-1.83c1.92-.73,4.7.5,5.62,1C39.64,31.26,39.46,33.41,39.35,34.91Z" transform="translate(-11.37 -14.43)" fill="#727171" stroke="#fff" stroke-miterlimit="10" stroke-width="1"/>
        </g>
      </g>
    </g>
    <g id="Layer_2-3" data-name="Layer 2" transform="translate(-3774.63 -4230.57)">
      <g id="Layer_2-4" data-name="Layer 2">
        <g id="Group_43759-2" data-name="Group 43759" clip-path="url(#clip-path-2)">
          <path id="Path_352936-2" data-name="Path 352936" d="M50.89,49.42H27.64s-15.34,0-16.27,18.14l2.32,47s-.06,6,5.11,6h3.72l4.65,43s.93,5.35,7.44,6.28h9.3c6.51-.93,7.44-6.28,7.44-6.28l4.65-43h3.72c4.83,0,5.12-6,5.12-6l2.32-47C66.23,49.42,50.89,49.42,50.89,49.42Z" transform="translate(-11.37 -14.43)" fill="#727171"/>
          <path id="Path_352937-2" data-name="Path 352937" d="M111.74,49.42H88.48s-15.34,0-16.27,18.14l2.33,47s-.07,6,5.11,6h3.72l4.65,43s.93,5.35,7.44,6.28h9.3c6.51-.93,7.44-6.28,7.44-6.28l4.65-43h3.72c4.83,0,5.12-6,5.12-6l2.32-47C127.08,49.42,111.74,49.42,111.74,49.42Z" transform="translate(-11.37 -14.43)" fill="#727171"/>
          <path id="Path_352938-2" data-name="Path 352938" d="M44.76,34l9.11-1.87a15.65,15.65,0,0,0,.27-2.85,14.91,14.91,0,1,0-4.89,11Z" transform="translate(-11.37 -14.43)" fill="#727171"/>
          <path id="Path_352939-2" data-name="Path 352939" d="M93.62,16.18A14.88,14.88,0,0,0,85.3,30l11,3-6.1,7.63a14.88,14.88,0,1,0,3.44-24.39Z" transform="translate(-11.37 -14.43)" fill="#727171"/>
          <path id="Path_352940-2" data-name="Path 352940" d="M93.13,41.94c-1.73.37-3.07.64-3.57.68C88.42,41.46,82.75,34,82.93,31a6,6,0,0,1,1.51-3.77,4.77,4.77,0,0,1,.77-.71l.68.07,12,1.33c.12,1.34.42,4.93.59,7.13s.32,4.55.39,5.62c-1.2.29-2.44.58-3.6.84Z" transform="translate(-11.37 -14.43)" fill="#fff" stroke="#727171" stroke-miterlimit="10" stroke-width="1"/>
          <path id="Path_352941-2" data-name="Path 352941" d="M99.29,29.62c.92-.46,3.7-1.69,5.62-1a2.8,2.8,0,0,1,1.66,1.83c1.23,3.56-4.68,6.32-6.65,7.12-.06-.88-.13-1.82-.2-2.7C99.61,33.41,99.43,31.26,99.29,29.62Z" transform="translate(-11.37 -14.43)" fill="#727171" stroke="#fff" stroke-miterlimit="10" stroke-width="1"/>
          <path id="Path_352942-2" data-name="Path 352942" d="M43.83,41.47c-1.16-.26-2.4-.55-3.6-.84.07-1.07.23-3.54.39-5.62s.48-5.79.59-7.13l12-1.33.68-.07a5.19,5.19,0,0,1,.78.71A6.11,6.11,0,0,1,56.15,31c.17,3-5.5,10.5-6.63,11.66a30.784,30.784,0,0,1-3.58-.68Z" transform="translate(-11.37 -14.43)" fill="#fff" stroke="#727171" stroke-miterlimit="10" stroke-width="1"/>
          <path id="Path_352943-2" data-name="Path 352943" d="M39.35,34.91c-.07.88-.14,1.82-.2,2.7-2-.8-7.88-3.56-6.64-7.12a2.76,2.76,0,0,1,1.65-1.83c1.92-.73,4.7.5,5.62,1C39.64,31.26,39.46,33.41,39.35,34.91Z" transform="translate(-11.37 -14.43)" fill="#727171" stroke="#fff" stroke-miterlimit="10" stroke-width="1"/>
        </g>
      </g>
    </g>
  </g>
</svg>
