<svg xmlns="http://www.w3.org/2000/svg" xmlns:xlink="http://www.w3.org/1999/xlink" width="130" height="130" viewBox="0 0 130 130">
  <defs>
    <clipPath id="clip-path">
      <rect id="Rectangle_8073" data-name="Rectangle 8073" width="130" height="130" transform="translate(-3654 -4679)" fill="none" stroke="#707070" stroke-width="1"/>
    </clipPath>
  </defs>
  <g id="Mask_Group_6" data-name="Mask Group 6" transform="translate(3654 4679)" clip-path="url(#clip-path)">
    <g id="Layer_2" data-name="Layer 2" transform="translate(-3631 -4656)">
      <g id="文字アイコン">
        <path id="Path_352884" data-name="Path 352884" d="M28.76,37.38a13.63,13.63,0,0,1,5-6.77A42.5,42.5,0,0,1,30.4,12.25c0-.83-.7-2.19-2.55-1.39a35.49,35.49,0,0,0-9.76,6.66c-2.76,2.55-3.39,6.61-1.29,9.14A48.18,48.18,0,0,0,28.76,37.38Z" fill="#727171"/>
        <path id="Path_352885" data-name="Path 352885" d="M47.29,29.28A42.52,42.52,0,0,1,61.51,17.2c.73-.39,1.55-1.7-.07-2.91A35.22,35.22,0,0,0,50.8,9.17c-3.6-1.13-7.43.36-8.57,3.45a47.69,47.69,0,0,0-3.29,15.73A13.58,13.58,0,0,1,47.29,29.28Z" fill="#727171"/>
        <path id="Path_352886" data-name="Path 352886" d="M67.11,27.63a47.93,47.93,0,0,0-15.28,5,13.59,13.59,0,0,1,3.37,7.7A42.78,42.78,0,0,1,72.78,46.6c.7.45,2.24.49,2.48-1.51a35.35,35.35,0,0,0-.88-11.78C73.55,29.65,70.35,27.08,67.11,27.63Z" fill="#727171"/>
        <path id="Path_352887" data-name="Path 352887" d="M54.57,46a13.6,13.6,0,0,1-5,6.76A42.85,42.85,0,0,1,53,71.08c0,.83.69,2.19,2.55,1.39a35,35,0,0,0,9.75-6.65c2.77-2.55,3.4-6.61,1.3-9.14A47.66,47.66,0,0,0,54.57,46Z" fill="#727171"/>
        <path id="Path_352888" data-name="Path 352888" d="M36.05,54.05A42.49,42.49,0,0,1,21.84,66.14c-.74.39-1.55,1.7.07,2.9a35.2,35.2,0,0,0,10.63,5.13c3.6,1.12,7.43-.37,8.57-3.45A47.76,47.76,0,0,0,44.41,55a13.68,13.68,0,0,1-8.36-.95Z" fill="#727171"/>
        <path id="Path_352889" data-name="Path 352889" d="M28.13,43a42.45,42.45,0,0,1-17.57-6.27c-.7-.44-2.25-.49-2.48,1.52A35,35,0,0,0,9,50c.82,3.68,4,6.25,7.27,5.7a47.88,47.88,0,0,0,15.27-5A13.69,13.69,0,0,1,28.13,43Z" fill="#727171"/>
        <path id="Path_352890" data-name="Path 352890" d="M41.67,31.82a9.85,9.85,0,1,0,9.85,9.85,9.85,9.85,0,0,0-9.85-9.85Z" fill="#727171"/>
        <path id="Path_352891" data-name="Path 352891" d="M75.36,0H8A8,8,0,0,0,0,8V75.36a8,8,0,0,0,8,8H75.36a8,8,0,0,0,8-8V8A8,8,0,0,0,75.36,0Zm0,5.16a2.81,2.81,0,1,1-2,.834A2.82,2.82,0,0,1,75.36,5.16ZM8,5.16a2.81,2.81,0,1,1-2.017.823A2.82,2.82,0,0,1,8,5.16Zm0,73a1.166,1.166,0,1,1,0,.01Zm67.39,0a17.475,17.475,0,1,0-.03.01ZM41.67,79.65a38,38,0,1,1,38-38A38,38,0,0,1,41.67,79.65Z" fill="#727171"/>
      </g>
    </g>
  </g>
</svg>
