<svg xmlns="http://www.w3.org/2000/svg" xmlns:xlink="http://www.w3.org/1999/xlink" width="140" height="140" viewBox="0 0 140 140">
  <defs>
    <clipPath id="clip-path">
      <rect id="Rectangle_8063" data-name="Rectangle 8063" width="140" height="140" transform="translate(-3578 -5138)" fill="none" stroke="#707070" stroke-width="1"/>
    </clipPath>
  </defs>
  <g id="Mask_Group_2" data-name="Mask Group 2" transform="translate(3578 5138)" clip-path="url(#clip-path)">
    <g id="Layer_2" data-name="Layer 2" transform="translate(-3561.52 -5113.999)">
      <g id="文字アイコン">
        <path id="Path_352853" data-name="Path 352853" d="M35.5,52.75H52.31A3.69,3.69,0,0,0,56,49.07h0a3.69,3.69,0,0,0-3.68-3.68H26.89" fill="none" stroke="#727171" stroke-linecap="round" stroke-linejoin="round" stroke-width="3.04"/>
        <path id="Path_352854" data-name="Path 352854" d="M35.5,60.1H58.29A3.68,3.68,0,0,0,62,56.42h0a3.68,3.68,0,0,0-3.68-3.67H41.48" fill="none" stroke="#727171" stroke-linecap="round" stroke-linejoin="round" stroke-width="3.04"/>
        <path id="Path_352855" data-name="Path 352855" d="M38.49,67.46H54.11a3.7,3.7,0,0,0,3.68-3.68h0a3.7,3.7,0,0,0-3.68-3.68H38.49" fill="none" stroke="#727171" stroke-linecap="round" stroke-linejoin="round" stroke-width="3.04"/>
        <path id="Path_352856" data-name="Path 352856" d="M32.51,67.46H48.13a3.69,3.69,0,0,1,3.68,3.68h0a3.69,3.69,0,0,1-3.68,3.67H25.59c-13.38,0-19.54-7.35-19.54-7.35H1.52" fill="none" stroke="#727171" stroke-linecap="round" stroke-linejoin="round" stroke-width="3.04"/>
        <path id="Path_352857" data-name="Path 352857" d="M26.21,43,32,37.21A4.44,4.44,0,0,0,32,31h0a4.44,4.44,0,0,0-6.26,0L10.33,46.4H1.52" fill="none" stroke="#727171" stroke-linecap="round" stroke-linejoin="round" stroke-width="3.04"/>
        <path id="Path_352858" data-name="Path 352858" d="M14.17,55.08a12,12,0,0,0,12-12" fill="none" stroke="#727171" stroke-linecap="round" stroke-linejoin="round" stroke-width="3.04"/>
        <path id="Path_352859" data-name="Path 352859" d="M78.28,18.79H90.53V21a2.83,2.83,0,0,1-2.83,2.83H81.11A2.83,2.83,0,0,1,78.28,21Z" transform="translate(168.81 42.62) rotate(180)" fill="#727171"/>
        <path id="Path_352860" data-name="Path 352860" d="M74.69,22H94.12v5a2.83,2.83,0,0,1-2.83,2.83H77.53A2.83,2.83,0,0,1,74.7,27V22Z" transform="translate(168.81 51.94) rotate(180)" fill="#727171"/>
        <path id="Path_352861" data-name="Path 352861" d="M78.28,6.25H90.53V7a5.67,5.67,0,0,1-5.67,5.67h-.92A5.67,5.67,0,0,1,78.28,7Z" transform="translate(168.81 18.96) rotate(180)" fill="#727171"/>
        <rect id="Rectangle_8062" data-name="Rectangle 8062" width="4.01" height="13.68" transform="translate(86.41 20.58) rotate(180)" fill="#727171"/>
        <path id="Path_352862" data-name="Path 352862" d="M74.69,29.89H94.12L95.5,31.4a14.39,14.39,0,0,1,3.75,9.68V78.4H69.55V41.08a14.35,14.35,0,0,1,3.76-9.68Z" fill="#b9e2f2" stroke="#727171" stroke-linecap="round" stroke-linejoin="round" stroke-width="3.09"/>
        <path id="Path_352863" data-name="Path 352863" d="M79.93,9.84H65.03l-3.19,3.18" fill="none" stroke="#727171" stroke-linejoin="round" stroke-width="3.04"/>
        <path id="Path_352864" data-name="Path 352864" d="M69.55,78.4h29.7V51.6s0,3.59-14.85,3.59S69.55,51.6,69.55,51.6Z" fill="#727171"/>
        <line id="Line_334" data-name="Line 334" x1="6.75" y2="14.43" transform="translate(55.74 21.76)" fill="#fff"/>
        <line id="Line_335" data-name="Line 335" transform="translate(62.49 21.76)" fill="none" stroke="#727171" stroke-linecap="round" stroke-linejoin="round" stroke-width="3.04"/>
        <line id="Line_336" data-name="Line 336" x1="3.37" y2="7.21" transform="translate(56.87 26.57)" fill="none" stroke="#727171" stroke-linecap="round" stroke-linejoin="round" stroke-width="3.04" stroke-dasharray="0 5.31"/>
        <line id="Line_337" data-name="Line 337" transform="translate(55.74 36.19)" fill="none" stroke="#727171" stroke-linecap="round" stroke-linejoin="round" stroke-width="3.04"/>
        <line id="Line_338" data-name="Line 338" x1="17.39" y2="17.39" transform="translate(40.03 16.69)" fill="#fff"/>
        <line id="Line_339" data-name="Line 339" transform="translate(57.42 16.69)" fill="none" stroke="#727171" stroke-linecap="round" stroke-linejoin="round" stroke-width="3.04"/>
        <line id="Line_340" data-name="Line 340" x1="12.17" y2="12.17" transform="translate(41.77 20.17)" fill="none" stroke="#727171" stroke-linecap="round" stroke-linejoin="round" stroke-width="3.04" stroke-dasharray="0 4.92"/>
        <line id="Line_341" data-name="Line 341" transform="translate(40.03 34.08)" fill="none" stroke="#727171" stroke-linecap="round" stroke-linejoin="round" stroke-width="3.04"/>
        <line id="Line_342" data-name="Line 342" x1="19.06" y2="8.91" transform="translate(33.29 11.62)" fill="#fff"/>
        <line id="Line_343" data-name="Line 343" transform="translate(52.35 11.62)" fill="none" stroke="#727171" stroke-linecap="round" stroke-linejoin="round" stroke-width="3.04"/>
        <line id="Line_344" data-name="Line 344" x1="11.91" y2="5.57" transform="translate(35.68 13.85)" fill="none" stroke="#727171" stroke-linecap="round" stroke-linejoin="round" stroke-width="3.04" stroke-dasharray="0 5.26"/>
        <line id="Line_345" data-name="Line 345" transform="translate(33.29 20.53)" fill="none" stroke="#727171" stroke-linecap="round" stroke-linejoin="round" stroke-width="3.04"/>
        <path id="Path_352865" data-name="Path 352865" d="M31.37,9.06a.34.34,0,0,0,.34-.32,3.85,3.85,0,0,1,3.87-3.87.34.34,0,0,0,.32-.34h0a.34.34,0,0,0-.32-.34A3.86,3.86,0,0,1,31.71.32.34.34,0,0,0,31.37,0h0A.34.34,0,0,0,31,.32a3.86,3.86,0,0,1-3.87,3.87.34.34,0,0,0-.32.34h0a.34.34,0,0,0,.32.34A3.85,3.85,0,0,1,31,8.74a.34.34,0,0,0,.34.32Z" fill="#727171"/>
        <path id="Path_352866" data-name="Path 352866" d="M17.42,22.81a.69.69,0,0,0,.69-.63,7.71,7.71,0,0,1,7.74-7.75.69.69,0,0,0,.64-.69h0a.68.68,0,0,0-.64-.68,7.72,7.72,0,0,1-7.74-7.75.69.69,0,0,0-.69-.64h0a.68.68,0,0,0-.68.64A7.72,7.72,0,0,1,9,13.06a.68.68,0,0,0-.65.68h0a.69.69,0,0,0,.65.69,7.71,7.71,0,0,1,7.74,7.75.68.68,0,0,0,.68.63Z" fill="#727171"/>
      </g>
    </g>
  </g>
</svg>
