<svg xmlns="http://www.w3.org/2000/svg" xmlns:xlink="http://www.w3.org/1999/xlink" width="150" height="150" viewBox="0 0 150 150">
  <defs>
    <clipPath id="clip-path">
      <rect id="Rectangle_8071" data-name="Rectangle 8071" width="150" height="150" transform="translate(-3997 -5196)" fill="none" stroke="#707070" stroke-width="1"/>
    </clipPath>
  </defs>
  <g id="Mask_Group_4" data-name="Mask Group 4" transform="translate(3997 5196)" clip-path="url(#clip-path)">
    <g id="Layer_2" data-name="Layer 2" transform="translate(-3974 -5165)">
      <g id="文字アイコン">
        <path id="Path_352877" data-name="Path 352877" d="M94,13H69.7l.91,3.1a5.76,5.76,0,0,1-5.53,7.39H38.4a5.77,5.77,0,0,1-5.53-7.39l.91-3.1H9.51A9.51,9.51,0,0,0,0,22.54V72.31a9.51,9.51,0,0,0,9.51,9.51H94a9.51,9.51,0,0,0,9.51-9.51V22.54A9.51,9.51,0,0,0,94,13ZM24.91,29.52a9.51,9.51,0,1,1-9.5,9.5,9.51,9.51,0,0,1,9.5-9.5Zm0,36.68c-6.53,0-13.21-2.26-12.17-8.52A17.5,17.5,0,0,1,16.86,50a1.88,1.88,0,0,1,1.4-.1,12.64,12.64,0,0,0,13.3,0A1.88,1.88,0,0,1,33,50a17.5,17.5,0,0,1,4.12,7.7C38.13,63.94,31.44,66.2,24.91,66.2Zm49.15-3.11H46.93V57.63H74.06ZM90.28,49.66H46.93V44.2H90.28Zm0-13.42H46.93V30.78H90.28Z" fill="#727171"/>
        <path id="Path_352878" data-name="Path 352878" d="M64.68,8.36a2.27,2.27,0,0,0-2.17-1.62H60.27A2.25,2.25,0,0,1,58,4.49V3.25A2.25,2.25,0,0,0,55.76,1h-8a2.25,2.25,0,0,0-2.25,2.25V4.49a2.25,2.25,0,0,1-2.26,2.25H41a2.25,2.25,0,0,0-2.16,1.62l-2.57,8.75A2.25,2.25,0,0,0,38.4,20H65.08a2.24,2.24,0,0,0,2.16-2.89Z" fill="none" stroke="#727171" stroke-miterlimit="10" stroke-width="2"/>
      </g>
    </g>
  </g>
</svg>
