<svg xmlns="http://www.w3.org/2000/svg" xmlns:xlink="http://www.w3.org/1999/xlink" width="130" height="130" viewBox="0 0 130 130">
  <defs>
    <clipPath id="clip-path">
      <rect id="Rectangle_8070" data-name="Rectangle 8070" width="130" height="130" transform="translate(-4015 -4871)" fill="none" stroke="#707070" stroke-width="1"/>
    </clipPath>
  </defs>
  <g id="Mask_Group_3" data-name="Mask Group 3" transform="translate(4015 4871)" clip-path="url(#clip-path)">
    <g id="Layer_2" data-name="Layer 2" transform="translate(-3991 -4852.25)">
      <g id="文字アイコン">
        <path id="Path_352873" data-name="Path 352873" d="M62.86.25a14,14,0,0,0-5.13,26.94V45.8a2.52,2.52,0,0,0,1.05,2.05L60.35,49a2.54,2.54,0,0,0,1.48.48,2.57,2.57,0,0,0,2-1l3.83-5.07a2.55,2.55,0,0,0,0-3.06l-.83-1.09.83-1.09a2.55,2.55,0,0,0,0-3.06L66.87,34l2.36-3a2.55,2.55,0,0,0,.53-1.55v-3A14.012,14.012,0,0,0,62.86.25Zm5.46,25.23V29.4a1.09,1.09,0,0,1-.23.67l-2.53,3.27a1.1,1.1,0,0,0,0,1.32l1,1.3a1.11,1.11,0,0,1,0,1.32l-1.49,2h0l1.49,2a1.11,1.11,0,0,1,0,1.32l-3.83,5.07a1.12,1.12,0,0,1-.88.43,1,1,0,0,1-.63-.2l-1.57-1.14a1.07,1.07,0,0,1-.46-.88V26.17a12.51,12.51,0,1,1,9.15-.69Z" fill="#727171" stroke="#727171" stroke-miterlimit="10" stroke-width="0.5"/>
        <path id="Path_352874" data-name="Path 352874" d="M63,6.74a2.62,2.62,0,1,0,2.61,2.62A2.62,2.62,0,0,0,63,6.74Z" fill="#727171" stroke="#727171" stroke-miterlimit="10" stroke-width="0.5"/>
        <path id="Path_352875" data-name="Path 352875" d="M61.55,44.05h1.31V26.73a8.158,8.158,0,0,1-1.31-.07Z" fill="#727171" stroke="#727171" stroke-miterlimit="10" stroke-width="0.5"/>
        <path id="Path_352876" data-name="Path 352876" d="M81,51.51c-2-2.17-5.71-1.71-8.19.12C70.54,53.52,55,63.72,55,63.72H36.13a1.81,1.81,0,0,1-1.74-1.86c0-1-.12-1.81.87-1.77H50.07a5.05,5.05,0,1,0,0-10.1H29.88c-12.63,0-16.62,5.26-21,9.68l-8,7A2.4,2.4,0,0,0,0,68.5V91.77a.79.79,0,0,0,1.32.6L16.81,79.09a2.41,2.41,0,0,1,2-.53L42.94,83a6.41,6.41,0,0,0,4.82-1.07S78.57,60.45,80.85,58.55A4.76,4.76,0,0,0,81,51.51Z" fill="#727171"/>
      </g>
    </g>
  </g>
</svg>
