<svg xmlns="http://www.w3.org/2000/svg" xmlns:xlink="http://www.w3.org/1999/xlink" width="180" height="180" viewBox="0 0 180 180">
  <defs>
    <clipPath id="clip-path">
      <rect id="Rectangle_8083" data-name="Rectangle 8083" width="180" height="180" transform="translate(-3405 -4685)" fill="none" stroke="#707070" stroke-width="1"/>
    </clipPath>
  </defs>
  <g id="Mask_Group_9" data-name="Mask Group 9" transform="translate(3405 4685)" clip-path="url(#clip-path)">
    <g id="Layer_2" data-name="Layer 2" transform="translate(-3387 -4636.99)">
      <g id="文字アイコン">
        <path id="Path_352909" data-name="Path 352909" d="M25.07,37.22c-.41-8.15-7.31-8.15-7.31-8.15H7.31S.42,29.07,0,37.22l.26,5.36H24.81Z" fill="#727171"/>
        <path id="Path_352910" data-name="Path 352910" d="M12.54,26.72A6.68,6.68,0,1,0,7.8,24.753,6.69,6.69,0,0,0,12.54,26.72Z" fill="#727171"/>
        <path id="Path_352911" data-name="Path 352911" d="M136.56,28H126.11s-6.9,0-7.32,8.15l.27,5.36h24.55l.26-5.36C143.45,28,136.56,28,136.56,28Z" fill="#727171"/>
        <path id="Path_352912" data-name="Path 352912" d="M131.33,25.61a6.68,6.68,0,1,0-4.73-1.953,6.69,6.69,0,0,0,4.73,1.953Z" fill="#727171"/>
        <path id="Path_352913" data-name="Path 352913" d="M71.94,13.37a6.68,6.68,0,1,0-4.73-1.953,6.69,6.69,0,0,0,4.73,1.953Z" fill="#727171"/>
        <path id="Path_352914" data-name="Path 352914" d="M84.47,23.87c-.41-8.14-7.31-8.14-7.31-8.14H66.71s-6.89,0-7.31,8.14l.26,5.36H84.21Z" fill="#727171"/>
        <path id="Path_352915" data-name="Path 352915" d="M14.72,69.05a.31.31,0,0,0,.45,0L19,64.91c.12-.13.08-.24-.11-.24H17.41a.33.33,0,0,1-.33-.33V58.06a.33.33,0,0,0-.33-.33H13.12a.33.33,0,0,0-.33.33v6.28a.33.33,0,0,1-.33.33H11c-.18,0-.23.11-.11.24Z" fill="#727171"/>
        <path id="Path_352916" data-name="Path 352916" d="M122.56,69.05a.31.31,0,0,0,.45,0l3.84-4.14c.12-.13.08-.24-.11-.24h-1.49a.33.33,0,0,1-.33-.33V58.06a.33.33,0,0,0-.33-.33H121a.34.34,0,0,0-.34.33v6.28a.33.33,0,0,1-.33.33h-1.47c-.18,0-.23.11-.11.24Z" fill="#727171"/>
        <path id="Path_352917" data-name="Path 352917" d="M86.65,71.14a16,16,0,0,0-4.57-2.36c-1.59-.65-4.1-1-4.8-2.82a3.33,3.33,0,0,1,0-2.54c.09-.11,7.24-1.76,7.27-2.18s-2.33-1.38-2.91-4.37.13-9.06-1.73-12c-2.31-3.59-5.24-4.33-6.93-4.24-1.7-.09-4.62.65-6.93,4.24-1.87,2.9-1.14,8.88-1.73,12s-2.94,4-2.92,4.37,7.19,2.07,7.28,2.18a3.33,3.33,0,0,1,0,2.54c-.7,1.85-3.21,2.17-4.8,2.82a16,16,0,0,0-4.57,2.36c-4.46,3.89-4.84,9-4.81,12.64h37C91.49,80.17,91.11,75,86.65,71.14Z" fill="#727171"/>
        <path id="Path_352918" data-name="Path 352918" d="M72.86,62.43a3.151,3.151,0,0,1-.44,0l-4.17-.6a1.76,1.76,0,0,1-1.2-.5A1.79,1.79,0,0,1,66.52,60V54.81l5.29-.74a7.81,7.81,0,0,1,2.16,0l5.65.74-.15,5.13a1.75,1.75,0,0,1-1.68,1.71l-4.43.74a2.81,2.81,0,0,1-.5.04Z" fill="#fff"/>
        <path id="Path_352919" data-name="Path 352919" d="M68.3,61.05l4.23.62a2.42,2.42,0,0,0,.71,0l4.48-.75h0a1,1,0,0,0,1-1l.13-4.46-5-.65a7.56,7.56,0,0,0-2,0l-4.64.66V60a1.05,1.05,0,0,0,.3.74.93.93,0,0,0,.7.28Z" fill="#fff"/>
        <rect id="Rectangle_8081" data-name="Rectangle 8081" width="0.74" height="2.32" transform="matrix(0.551, -0.834, 0.834, 0.551, 64.931, 54.142)" fill="#fff"/>
        <rect id="Rectangle_8082" data-name="Rectangle 8082" width="2.06" height="0.74" transform="matrix(0.792, -0.611, 0.611, 0.792, 78.973, 54.8)" fill="#fff"/>
      </g>
    </g>
    <g id="Layer_2-2" data-name="Layer 2" transform="translate(-3387 -4636.99)">
      <g id="文字アイコン-2" data-name="文字アイコン">
        <path id="Path_352909-2" data-name="Path 352909" d="M25.07,37.22c-.41-8.15-7.31-8.15-7.31-8.15H7.31S.42,29.07,0,37.22l.26,5.36H24.81Z" fill="#727171"/>
        <path id="Path_352910-2" data-name="Path 352910" d="M12.54,26.72A6.68,6.68,0,1,0,7.8,24.753,6.69,6.69,0,0,0,12.54,26.72Z" fill="#727171"/>
        <path id="Path_352911-2" data-name="Path 352911" d="M136.56,28H126.11s-6.9,0-7.32,8.15l.27,5.36h24.55l.26-5.36C143.45,28,136.56,28,136.56,28Z" fill="#727171"/>
        <path id="Path_352912-2" data-name="Path 352912" d="M131.33,25.61a6.68,6.68,0,1,0-4.73-1.953,6.69,6.69,0,0,0,4.73,1.953Z" fill="#727171"/>
        <path id="Path_352913-2" data-name="Path 352913" d="M71.94,13.37a6.68,6.68,0,1,0-4.73-1.953,6.69,6.69,0,0,0,4.73,1.953Z" fill="#727171"/>
        <path id="Path_352914-2" data-name="Path 352914" d="M84.47,23.87c-.41-8.14-7.31-8.14-7.31-8.14H66.71s-6.89,0-7.31,8.14l.26,5.36H84.21Z" fill="#727171"/>
        <path id="Path_352915-2" data-name="Path 352915" d="M14.72,69.05a.31.31,0,0,0,.45,0L19,64.91c.12-.13.08-.24-.11-.24H17.41a.33.33,0,0,1-.33-.33V58.06a.33.33,0,0,0-.33-.33H13.12a.33.33,0,0,0-.33.33v6.28a.33.33,0,0,1-.33.33H11c-.18,0-.23.11-.11.24Z" fill="#727171"/>
        <path id="Path_352916-2" data-name="Path 352916" d="M122.56,69.05a.31.31,0,0,0,.45,0l3.84-4.14c.12-.13.08-.24-.11-.24h-1.49a.33.33,0,0,1-.33-.33V58.06a.33.33,0,0,0-.33-.33H121a.34.34,0,0,0-.34.33v6.28a.33.33,0,0,1-.33.33h-1.47c-.18,0-.23.11-.11.24Z" fill="#727171"/>
        <path id="Path_352917-2" data-name="Path 352917" d="M86.65,71.14a16,16,0,0,0-4.57-2.36c-1.59-.65-4.1-1-4.8-2.82a3.33,3.33,0,0,1,0-2.54c.09-.11,7.24-1.76,7.27-2.18s-2.33-1.38-2.91-4.37.13-9.06-1.73-12c-2.31-3.59-5.24-4.33-6.93-4.24-1.7-.09-4.62.65-6.93,4.24-1.87,2.9-1.14,8.88-1.73,12s-2.94,4-2.92,4.37,7.19,2.07,7.28,2.18a3.33,3.33,0,0,1,0,2.54c-.7,1.85-3.21,2.17-4.8,2.82a16,16,0,0,0-4.57,2.36c-4.46,3.89-4.84,9-4.81,12.64h37C91.49,80.17,91.11,75,86.65,71.14Z" fill="#727171"/>
        <path id="Path_352918-2" data-name="Path 352918" d="M72.86,62.43a3.151,3.151,0,0,1-.44,0l-4.17-.6a1.76,1.76,0,0,1-1.2-.5A1.79,1.79,0,0,1,66.52,60V54.81l5.29-.74a7.81,7.81,0,0,1,2.16,0l5.65.74-.15,5.13a1.75,1.75,0,0,1-1.68,1.71l-4.43.74a2.81,2.81,0,0,1-.5.04Z" fill="#fff"/>
        <path id="Path_352919-2" data-name="Path 352919" d="M68.3,61.05l4.23.62a2.42,2.42,0,0,0,.71,0l4.48-.75h0a1,1,0,0,0,1-1l.13-4.46-5-.65a7.56,7.56,0,0,0-2,0l-4.64.66V60a1.05,1.05,0,0,0,.3.74.93.93,0,0,0,.7.28Z" fill="#fff"/>
        <rect id="Rectangle_8081-2" data-name="Rectangle 8081" width="0.74" height="2.32" transform="matrix(0.551, -0.834, 0.834, 0.551, 64.931, 54.142)" fill="#fff"/>
        <rect id="Rectangle_8082-2" data-name="Rectangle 8082" width="2.06" height="0.74" transform="matrix(0.792, -0.611, 0.611, 0.792, 78.973, 54.8)" fill="#fff"/>
      </g>
    </g>
  </g>
</svg>
