<svg xmlns="http://www.w3.org/2000/svg" width="200" height="33.434" viewBox="0 0 200 33.434">
  <g id="Group_43817" data-name="Group 43817" transform="translate(-853 -1324.121)">
    <g id="Group_21" data-name="Group 21" transform="translate(773.143 322.115)">
      <g id="Group_20" data-name="Group 20">
        <g id="Group_13" data-name="Group 13">
          <path id="Path_32" data-name="Path 32" d="M79.857,1034.939H90.182" fill="none" stroke="#231815" stroke-width="1"/>
          <path id="Path_34" data-name="Path 34" d="M96.142,1007.709l-11.305,27.143" fill="none" stroke="#231815" stroke-width="1"/>
          <path id="Path_35" data-name="Path 35" d="M101.925,1034.939h14.34" fill="none" stroke="#231815" stroke-width="1"/>
          <path id="Path_36" data-name="Path 36" d="M90.487,1021.959h11.378l-.225-1.317H90.487Z" fill="#707070" stroke="#231815" stroke-width="1"/>
        </g>
        <path id="Path_37" data-name="Path 37" d="M120.895,1034.852c-.018-.5,0-32.3,0-32.3h1.145v32.3" fill="#ae70ac" stroke="#ae70ac" stroke-width="1"/>
        <path id="Path_38" data-name="Path 38" d="M116.827,1002.552h10.66l9.233,24.08,9.477-24.08h2L135.52,1033.6h-1.468l-12.665-31.05h-5.115" fill="#ae70ac" stroke="#ae70ac" stroke-width="1"/>
        <path id="Path_39" data-name="Path 39" d="M151.955,1002.552v31.832H146.65v-31.832Z" fill="#ae70ac" stroke="#ae70ac" stroke-width="1"/>
        <path id="Path_40" data-name="Path 40" d="M140.89,1034.939h16.865" fill="none" stroke="#ae70ac" stroke-width="1"/>
        <g id="Group_11" data-name="Group 11">
          <path id="Path_41" data-name="Path 41" d="M160.39,1002.552h0" fill="#ae70ac" stroke="#ae70ac" stroke-width="1"/>
          <path id="Path_42" data-name="Path 42" d="M171.447,1003.494v31.315h-5.21v-31.315Z" fill="#ae70ac" stroke="#ae70ac" stroke-width="1"/>
          <path id="Path_43" data-name="Path 43" d="M160.392,1034.939h16.845" fill="#ae70ac" stroke="#ae70ac" stroke-width="1"/>
        </g>
        <path id="Path_44" data-name="Path 44" d="M177.835,1018.134h10.5v2.5h-10.5Z" fill="#ae70ac" stroke="#ae70ac" stroke-width="1"/>
        <g id="Group_12" data-name="Group 12">
          <path id="Path_41-2" data-name="Path 41-2" d="M190.252,1002.552h0" fill="none" stroke="#231815" stroke-width="1"/>
          <path id="Path_42-2" data-name="Path 42-2" d="M201.31,1003.494v31.315H196.1v-31.315Z" fill="#ae70ac" stroke="#ae70ac" stroke-width="1"/>
          <path id="Path_43-2" data-name="Path 43-2" d="M190.255,1034.939H207.09" fill="none" stroke="#ae70ac" stroke-width="1"/>
        </g>
        <path id="Path_45" data-name="Path 45" d="M127.785,1034.939H116.177" fill="none" stroke="#ae70ac" stroke-width="1"/>
        <g id="Group_14" data-name="Group 14">
          <path id="Path_32-2" data-name="Path 32-2" d="M79.857,1034.939H90.182" fill="#ae70ac" stroke="#ae70ac" stroke-width="1"/>
          <path id="Path_33-2" data-name="Path 33-2" d="M83.8,1034.939l13.65-32.387H99.22l13.35,32.387h-5.485L95.4,1006.849" fill="#ae70ac" stroke="#ae70ac" stroke-width="1"/>
          <path id="Path_34-2" data-name="Path 34-2" d="M96.142,1007.709l-11.305,27.143" fill="#ae70ac" stroke="#ae70ac" stroke-width="1"/>
          <path id="Path_35-2" data-name="Path 35-2" d="M101.925,1034.939h14.34" fill="#ae70ac" stroke="#ae70ac" stroke-width="1"/>
          <path id="Path_36-2" data-name="Path 36-2" d="M90.487,1021.959h11.378l-.225-1.317H90.487Z" fill="#ae70ac" stroke="#ae70ac" stroke-width="1"/>
        </g>
        <g id="Group_15" data-name="Group 15">
          <path id="Path_32-3" data-name="Path 32-3" d="M243.452,1034.939h10.323" fill="none" stroke="#ae70ac" stroke-width="1"/>
          <path id="Path_33-3" data-name="Path 33-3" d="M247.429,1034.939l13.608-32.387h1.777l13.351,32.387H270.68l-11.693-28.09" fill="#ae70ac" stroke="#ae70ac" stroke-width="1"/>
          <path id="Path_34-3" data-name="Path 34-3" d="M259.737,1007.709l-11.3,27.143" fill="none" stroke="#ae70ac" stroke-width="1"/>
          <path id="Path_35-3" data-name="Path 35-3" d="M265.517,1034.939h14.34" fill="none" stroke="#ae70ac" stroke-width="1"/>
          <path id="Path_36-3" data-name="Path 36-3" d="M254.085,1021.959h11.38l-.228-1.317H254.085Z" fill="#ae70ac" stroke="#ae70ac" stroke-width="1"/>
        </g>
        <g id="Group_16" data-name="Group 16">
          <path id="Path_41-3" data-name="Path 41-3" d="M209.737,1002.552h0" fill="none" stroke="#ae70ac" stroke-width="1"/>
          <path id="Path_42-3" data-name="Path 42-3" d="M220.787,1003.494v31.315H215.58v-31.315Z" fill="#ae70ac" stroke="#ae70ac" stroke-width="1"/>
          <path id="Path_43-3" data-name="Path 43-3" d="M209.737,1034.939h16.835" fill="none" stroke="#ae70ac" stroke-width="1"/>
        </g>
        <g id="Group_18" data-name="Group 18" transform="translate(0 0.651)">
          <g id="Rectangle_21" data-name="Rectangle 21" transform="translate(214.895 1001.854)">
            <path id="Path_71" data-name="Path 71" d="M214.9,1001.854h15.58c9.322,0,16.88,7.258,16.88,16.211h0c0,8.952-7.557,16.209-16.878,16.209H214.9v-32.42Z" transform="translate(-214.895 -1001.854)" fill="none" stroke="#ae70ac" stroke-width="1"/>
            <path id="Path_72" data-name="Path 72" d="M216.2,1002.5h14.28c8.963,0,16.23,6.967,16.23,15.561h0c0,8.594-7.267,15.561-16.23,15.561H216.2a.637.637,0,0,1-.65-.623h0v-29.875a.634.634,0,0,1,.645-.623Z" transform="translate(-214.895 -1001.854)" fill="none" stroke="#ae70ac" stroke-width="1"/>
          </g>
          <g id="Rectangle_22" data-name="Rectangle 22" transform="translate(214.895 1001.854)">
            <path id="Path_73" data-name="Path 73" d="M214.9,1001.854h9.092c9.321,0,16.878,7.256,16.878,16.209v0h0c0,8.951-7.553,16.207-16.873,16.209h-9.1v-32.412Z" transform="translate(-214.895 -1001.854)" fill="none" stroke="#ae70ac" stroke-width="1"/>
            <path id="Path_74" data-name="Path 74" d="M216.2,1002.5h7.792c8.963,0,16.229,6.967,16.23,15.561h0c0,8.594-7.267,15.56-16.23,15.561H216.2a.637.637,0,0,1-.65-.623h0v-29.875a.636.636,0,0,1,.645-.623Z" transform="translate(-214.895 -1001.854)" fill="none" stroke="#ae70ac" stroke-width="1"/>
          </g>
          <g id="Rectangle_23" data-name="Rectangle 23" transform="translate(214.895 1001.854)">
            <path id="Path_75" data-name="Path 75" d="M214.9,1001.854h9.75c9.322,0,16.88,7.258,16.88,16.211h0c0,8.952-7.557,16.209-16.878,16.209H214.9v-32.42Z" transform="translate(-214.895 -1001.854)" fill="none" stroke="#ae70ac" stroke-width="1"/>
            <path id="Path_76" data-name="Path 76" d="M216.2,1002.5h8.437c8.964,0,16.23,6.967,16.23,15.561h0c0,8.594-7.266,15.561-16.23,15.561H216.2a.637.637,0,0,1-.65-.623h0v-29.875a.634.634,0,0,1,.645-.623Z" transform="translate(-214.895 -1001.854)" fill="none" stroke="#ae70ac" stroke-width="1"/>
          </g>
          <g id="Rectangle_24" data-name="Rectangle 24" transform="translate(214.895 1001.854)">
            <path id="Path_77" data-name="Path 77" d="M214.9,1001.854h10.387c9.323,0,16.88,7.258,16.88,16.211h0c0,8.952-7.556,16.209-16.877,16.209H214.9v-32.42Z" transform="translate(-214.895 -1001.854)" fill="none" stroke="#ae70ac" stroke-width="1"/>
            <path id="Path_78" data-name="Path 78" d="M216.2,1002.5h9.087c8.963,0,16.229,6.967,16.23,15.561h0c0,8.594-7.267,15.56-16.23,15.561H216.2a.637.637,0,0,1-.65-.623h0v-29.875a.634.634,0,0,1,.645-.623Z" transform="translate(-214.895 -1001.854)" fill="none" stroke="#ae70ac" stroke-width="1"/>
          </g>
          <g id="Rectangle_25" data-name="Rectangle 25" transform="translate(214.895 1001.854)">
            <path id="Path_79" data-name="Path 79" d="M214.9,1001.854h11.037c9.321,0,16.877,7.256,16.877,16.209v0h0c0,8.951-7.552,16.207-16.872,16.209H214.9v-32.42Z" transform="translate(-214.895 -1001.854)" fill="none" stroke="#ae70ac" stroke-width="1"/>
            <path id="Path_80" data-name="Path 80" d="M216.2,1002.5h9.75c8.963,0,16.228,6.967,16.23,15.561h0c0,8.594-7.267,15.56-16.23,15.561H216.2a.637.637,0,0,1-.65-.623h0v-29.875a.634.634,0,0,1,.645-.623Z" transform="translate(-214.895 -1001.854)" fill="none" stroke="#ae70ac" stroke-width="1"/>
          </g>
          <g id="Rectangle_26" data-name="Rectangle 26" transform="translate(214.895 1001.854)">
            <path id="Path_81" data-name="Path 81" d="M214.9,1001.854H226.58c9.322,0,16.88,7.258,16.88,16.211h0c0,8.952-7.557,16.209-16.878,16.209H214.9v-32.42Z" transform="translate(-214.895 -1001.854)" fill="none" stroke="#ae70ac" stroke-width="1"/>
            <path id="Path_82" data-name="Path 82" d="M216.2,1002.5H226.58c8.963,0,16.23,6.967,16.23,15.561h0c0,8.594-7.267,15.561-16.23,15.561H216.2a.637.637,0,0,1-.65-.623h0v-29.875a.634.634,0,0,1,.645-.623Z" transform="translate(-214.895 -1001.854)" fill="none" stroke="#ae70ac" stroke-width="1"/>
          </g>
          <g id="Rectangle_27" data-name="Rectangle 27" transform="translate(214.895 1001.854)">
            <path id="Path_83" data-name="Path 83" d="M214.9,1001.854h12.342c9.323,0,16.88,7.258,16.88,16.211h0c0,8.952-7.556,16.209-16.877,16.209H214.9v-32.412Z" transform="translate(-214.895 -1001.854)" fill="none" stroke="#ae70ac" stroke-width="1"/>
            <path id="Path_84" data-name="Path 84" d="M216.2,1002.5h11.042c8.963,0,16.229,6.967,16.23,15.561h0c0,8.594-7.267,15.56-16.23,15.561H216.2a.637.637,0,0,1-.65-.623h0v-29.875A.634.634,0,0,1,216.2,1002.5Z" transform="translate(-214.895 -1001.854)" fill="none" stroke="#ae70ac" stroke-width="1"/>
          </g>
          <g id="Rectangle_28" data-name="Rectangle 28" transform="translate(214.895 1001.854)">
            <path id="Path_85" data-name="Path 85" d="M214.9,1001.854h12.984c9.322,0,16.878,7.256,16.878,16.209v0h0c0,8.951-7.553,16.207-16.872,16.209H214.9v-32.42Z" transform="translate(-214.895 -1001.854)" fill="none" stroke="#ae70ac" stroke-width="1"/>
            <path id="Path_86" data-name="Path 86" d="M216.2,1002.5H227.88c8.963,0,16.228,6.967,16.23,15.561h0c0,8.594-7.267,15.56-16.23,15.561H216.2a.637.637,0,0,1-.65-.623h0v-29.875a.634.634,0,0,1,.645-.623Z" transform="translate(-214.895 -1001.854)" fill="none" stroke="#ae70ac" stroke-width="1"/>
          </g>
          <g id="Rectangle_29" data-name="Rectangle 29" transform="translate(214.895 1001.854)">
            <path id="Path_87" data-name="Path 87" d="M214.9,1001.854h13.632c9.323,0,16.88,7.258,16.88,16.211h0c0,8.952-7.556,16.209-16.877,16.209H214.9v-32.42Z" transform="translate(-214.895 -1001.854)" fill="none" stroke="#ae70ac" stroke-width="1"/>
            <path id="Path_88" data-name="Path 88" d="M216.2,1002.5h12.332c8.964,0,16.23,6.967,16.23,15.561h0c0,8.594-7.266,15.561-16.23,15.561H216.2a.637.637,0,0,1-.65-.623h0v-29.875a.634.634,0,0,1,.645-.623Z" transform="translate(-214.895 -1001.854)" fill="none" stroke="#ae70ac" stroke-width="1"/>
          </g>
          <g id="Rectangle_30" data-name="Rectangle 30" transform="translate(214.895 1001.854)">
            <path id="Path_89" data-name="Path 89" d="M214.9,1001.854h14.282c9.323,0,16.88,7.258,16.88,16.211h0c0,8.952-7.556,16.209-16.877,16.209H214.9v-32.42Z" transform="translate(-214.895 -1001.854)" fill="none" stroke="#ae70ac" stroke-width="1"/>
            <path id="Path_90" data-name="Path 90" d="M216.2,1002.5h12.982c8.963,0,16.229,6.967,16.23,15.561h0c0,8.594-7.267,15.56-16.23,15.561H216.2a.637.637,0,0,1-.65-.623h0v-29.875a.634.634,0,0,1,.645-.623Z" transform="translate(-214.895 -1001.854)" fill="none" stroke="#ae70ac" stroke-width="1"/>
          </g>
          <g id="Rectangle_31" data-name="Rectangle 31" transform="translate(214.895 1001.854)">
            <path id="Path_91" data-name="Path 91" d="M214.9,1001.854h14.932c9.321,0,16.878,7.256,16.878,16.209v0h0c0,8.951-7.553,16.207-16.873,16.209H214.9v-32.42Z" transform="translate(-214.895 -1001.854)" fill="none" stroke="#ae70ac" stroke-width="1"/>
            <path id="Path_92" data-name="Path 92" d="M216.2,1002.5h13.632c8.963,0,16.229,6.967,16.23,15.561h0c0,8.594-7.267,15.56-16.23,15.561H216.2a.637.637,0,0,1-.65-.623h0v-29.875a.634.634,0,0,1,.645-.623Z" transform="translate(-214.895 -1001.854)" fill="none" stroke="#ae70ac" stroke-width="1"/>
          </g>
        </g>
      </g>
      <path id="Path_68" data-name="Path 68" d="M160.4,1002.512h16.81" fill="none" stroke="#ae70ac" stroke-width="1"/>
      <path id="Path_69" data-name="Path 69" d="M190.257,1002.512h16.81" fill="none" stroke="#ae70ac" stroke-width="1"/>
      <path id="Path_70" data-name="Path 70" d="M209.737,1002.512h16.81" fill="none" stroke="#ae70ac" stroke-width="1"/>
    </g>
  </g>
</svg>
