<svg xmlns="http://www.w3.org/2000/svg" width="639.158" height="215.942" viewBox="0 0 639.158 215.942">
  <g id="Group_43882" data-name="Group 43882" transform="translate(-124.458 -307.4)">
    <path id="Path_352844" data-name="Path 352844" d="M6.576-33.36a8.281,8.281,0,0,0,.576,3.168c.672,1.584,3.072,3.7,4.416,3.7,1.248,0,1.44-1.008,3.312-1.44,5.232-1.056,18.384-3.072,20.64-3.072.96,0,1.2.192.624,1.1-1.344,1.92-4.8,5.088-8.256,7.632a10.663,10.663,0,0,0-4.224-1.344,13.477,13.477,0,0,0-3.12,0l-.24.912c2.064.768,3.84,1.536,3.84,3.024,0,3.216-6.048,14.88-15.5,20.832l.768.96C19.872-3.024,25.3-10.128,28.992-19.92a2.029,2.029,0,0,0,.144-.864,108.526,108.526,0,0,0,10.416-6.528c1.1-.768,3.216-.96,3.216-2.256,0-1.536-3.792-4.848-5.232-4.848-.912,0-1.44.72-2.688.912-2.928.432-20.736,2.4-24.192,2.4-1.44,0-2.064-1.056-3.12-2.5ZM90.24-31.824c-3.168-1.488-8.784-2.544-15.024-2.976l-.192,1.008C81.5-31.968,85.1-30.384,88.9-27.744c1.488,1.1,2.112,1.776,3.312,1.728a1.718,1.718,0,0,0,1.68-1.776C93.888-29.28,93.024-30.48,90.24-31.824ZM73.488-22.08A55.254,55.254,0,0,1,85.68-16.608c1.44.912,2.208,1.488,3.024,1.488A1.687,1.687,0,0,0,90.48-16.9c0-1.584-1.2-2.64-3.168-3.5a38.922,38.922,0,0,0-13.584-2.688Zm-1.92,13.1c6.864,2.016,11.424,3.7,16.9,7.488,1.728,1.3,2.976,2.4,4.176,2.4a1.77,1.77,0,0,0,2.016-1.92c0-1.2-1.008-2.5-2.88-3.7-3.84-2.4-11.76-4.752-19.92-5.328Zm53.04-11.568a7.828,7.828,0,0,0,.384,2.976c.72,1.824,3.168,4.416,4.656,4.416,1.536,0,2.112-.816,5.088-1.152,3.6-.432,16.32-1.152,19.488-1.152,3.072,0,4.752.1,6.48.1s2.448-.576,2.448-1.536c0-1.536-2.256-2.544-4.416-2.544-1.2,0-2.784.288-6,.528-2.4.192-18.576,1.248-23.088,1.248-2.16,0-2.976-1.44-4.08-3.168Zm89.136-6.48a42.5,42.5,0,0,1-6.336,10.9,64.885,64.885,0,0,0-10.944-4.944,60.975,60.975,0,0,0,4.9-5.76,3.488,3.488,0,0,0,1.776.864,11.187,11.187,0,0,0,2.688-.624,57.758,57.758,0,0,1,7.392-1.2C213.744-27.84,213.984-27.648,213.744-27.024ZM202.9-28.944c.48-.72.912-1.392,1.344-2.112.72-1.2,1.392-1.584,1.392-2.5,0-.96-2.736-2.544-5.04-2.88a10.428,10.428,0,0,0-2.976-.048l-.24.816c1.632.768,2.88,1.584,2.88,2.448,0,2.88-7.968,13.872-15.36,19.488l.72.96A42.888,42.888,0,0,0,195.5-20.16a40.652,40.652,0,0,1,9.936,6.432,65.686,65.686,0,0,1-20.208,16.08l.624,1.008a57.238,57.238,0,0,0,22.032-14.64c3.36,3.744,4.128,5.712,5.712,5.664a1.872,1.872,0,0,0,1.92-2.112c-.1-2.016-2.352-4.32-5.136-6.384a75.134,75.134,0,0,0,7.2-10.9c.624-1.152,2.352-1.584,2.352-2.592,0-1.44-3.408-3.744-4.608-3.744-.912,0-1.344.96-2.64,1.248a72.155,72.155,0,0,1-9.6,1.152Zm12.384-7.008a25.184,25.184,0,0,1,4.272,4.368c.96,1.152,1.536,2.064,2.256,2.064a1.272,1.272,0,0,0,1.3-1.344,4.1,4.1,0,0,0-1.68-2.88,16.459,16.459,0,0,0-5.616-2.928Zm4.128-2.928a25.4,25.4,0,0,1,4.368,3.936c1.056,1.152,1.536,2.16,2.4,2.16a1.193,1.193,0,0,0,1.2-1.392,3.731,3.731,0,0,0-1.824-2.928,17.409,17.409,0,0,0-5.568-2.5Zm23.28,8.928a10.016,10.016,0,0,0,0,2.4c.336,1.872,3.024,4.272,4.9,4.272,1.1,0,2.112-.864,3.072-1.344a88.312,88.312,0,0,1,15.072-5.04c.528-.1.576.192.24.432-5.424,4.128-7.584,10.368-7.584,16.368,0,5.616,1.728,8.64,4.8,10.8C266.4.24,270.816.528,273.84.528c2.208,0,3.792-.48,3.792-1.92,0-1.344-1.728-2.4-3.024-2.4-1.776,0-5.9.288-8.928-1.488-1.872-1.1-4.08-3.168-4.08-8.5,0-9.168,4.56-13.488,6.576-14.736a15.252,15.252,0,0,1,7.968-1.872c1.68,0,3.12.144,4.176.144,1.2,0,1.872-.672,1.872-1.488,0-.864-.576-1.488-1.68-1.968a8.958,8.958,0,0,0-3.6-.624c-1.584,0-5.712.816-11.088,2.112-8.064,1.872-16.656,4.368-19.3,4.368-1.1,0-2.352-1.152-3.072-2.4ZM276.864-26.4a23.963,23.963,0,0,1,4.416,3.984c.96,1.2,1.488,2.208,2.3,2.208s1.248-.48,1.248-1.344a3.733,3.733,0,0,0-1.728-2.976,18.142,18.142,0,0,0-5.712-2.688Zm-4.32,3.168a21.827,21.827,0,0,1,4.368,4.416c.96,1.2,1.488,2.208,2.208,2.208a1.312,1.312,0,0,0,1.344-1.44,3.764,3.764,0,0,0-1.536-2.784,18.768,18.768,0,0,0-5.76-3.216Z" transform="translate(123 347)" fill="#fff"/>
    <path id="Path_352845" data-name="Path 352845" d="M7.872-24.816c.1,6.288-2.5,11.808-5.28,13.92-1.008,1.008-1.536,2.3-.768,3.408.912,1.152,3.072.672,4.56-.912,2.256-2.4,4.7-7.92,2.256-16.416Zm7.632-14.5-.24.672c6.144,2.832,10.224,7.008,11.712,9.648C31.392-26.544,34.368-36.528,15.5-39.312ZM35.952-25.344l-.384.48c4.944,4.512,6.48,11.568,6.576,15.888C45.984-4.176,51.5-17.376,35.952-25.344ZM14.688-29.52v27.5c0,3.456,1.344,4.272,6.1,4.272H27.12c9.456,0,11.472-.672,11.472-2.64,0-.768-.384-1.248-1.728-1.728L36.72-10.56H36.1a50.426,50.426,0,0,1-1.92,8.112,1.44,1.44,0,0,1-1.344.816c-.864.1-2.832.144-5.52.144H21.36c-2.4,0-2.832-.432-2.832-1.536V-27.6c1.1-.192,1.536-.672,1.632-1.3ZM71.424-18.384c0-2.208,4.128-4.848,7.344-5.04C78.192-21.072,77.52-18,77.04-14.976,72.864-15.6,71.424-16.9,71.424-18.384Zm16.368-2.16C92.16-17.28,95.28-14.16,95.28-8.88c0,4.224-3.216,8.208-9.312,8.208-4.464,0-7.488-2.16-7.488-6.864a27.129,27.129,0,0,1,.336-3.6,28.1,28.1,0,0,0,5.472.192c1.872-.24,2.592-.864,2.592-1.872,0-1.152-.864-1.728-2.16-1.824-1.056-.1-2.928.048-5.232-.048.72-3.072,1.632-6.24,2.4-8.592,1.1.048,2.208.1,2.88.048,1.248-.1,1.968-.48,1.968-1.44s-.672-1.92-2.5-2.112c-.384-.048-.768-.048-1.2-.1a38.614,38.614,0,0,1,1.872-4.608c.576-1.1,1.3-1.536,1.3-2.5,0-1.392-3.024-3.936-5.472-3.936a12.826,12.826,0,0,0-2.88.336l-.048.96a13.974,13.974,0,0,1,2.4.768,1.749,1.749,0,0,1,1.2,1.968,69.43,69.43,0,0,1-1.728,6.864,18.675,18.675,0,0,1-5.328-1.152,10.235,10.235,0,0,1-4.416-3.888l-.768.432A7.434,7.434,0,0,0,72.336-26.5a13.358,13.358,0,0,0,3.408,1.536c-3.552,1.824-6.288,4.608-6.288,7.248,0,2.784,2.592,5.184,7.056,6.192a34.485,34.485,0,0,0-.288,4.128c0,5.9,3.456,9.936,10.272,9.936,8.736,0,12.672-5.616,12.672-10.368,0-5.424-3.168-9.984-10.752-13.488Zm42.528-5.52a74.993,74.993,0,0,0,5.472-11.52c1.1,0,1.68-.384,1.872-.96l-5.76-1.872c-2.4,9.264-6.576,18.768-10.56,24.672l.624.432a44.378,44.378,0,0,0,5.856-6.912V3.84h.72a4.587,4.587,0,0,0,3.168-1.2V-24.144c.816-.144,1.3-.432,1.44-.912Zm34.7-1.1c.624,0,1.152-.24,1.248-.768-1.632-1.632-4.416-3.84-4.416-3.84l-2.448,3.168h-8.352v-9.264c1.152-.192,1.536-.672,1.68-1.344l-5.568-.576v11.184H133.536l.384,1.44H145.2C142.608-19.44,138.048-11.52,132.144-6l.528.624a44.8,44.8,0,0,0,14.5-16.272V-7.392H139.1l.384,1.344h7.68V3.84h.768c1.44,0,3.12-.912,3.12-1.392v-8.5h7.824c.672,0,1.1-.24,1.248-.768-1.488-1.488-3.936-3.6-3.936-3.6l-2.16,3.024h-2.976V-27.168h.144c2.256,8.832,7.1,17.232,13.248,21.792a5.337,5.337,0,0,1,2.64-3.888l.1-.576A32.244,32.244,0,0,1,152.3-27.168Zm26.4,8.784c0-2.208,4.128-4.848,7.344-5.04-.576,2.352-1.248,5.424-1.728,8.448C192.864-15.6,191.424-16.9,191.424-18.384Zm16.368-2.16c4.368,3.264,7.488,6.384,7.488,11.664,0,4.224-3.216,8.208-9.312,8.208-4.464,0-7.488-2.16-7.488-6.864a27.129,27.129,0,0,1,.336-3.6,28.1,28.1,0,0,0,5.472.192c1.872-.24,2.592-.864,2.592-1.872,0-1.152-.864-1.728-2.16-1.824-1.056-.1-2.928.048-5.232-.048.72-3.072,1.632-6.24,2.4-8.592,1.1.048,2.208.1,2.88.048,1.248-.1,1.968-.48,1.968-1.44s-.672-1.92-2.5-2.112c-.384-.048-.768-.048-1.2-.1a38.614,38.614,0,0,1,1.872-4.608c.576-1.1,1.3-1.536,1.3-2.5,0-1.392-3.024-3.936-5.472-3.936a12.826,12.826,0,0,0-2.88.336l-.048.96a13.974,13.974,0,0,1,2.4.768,1.749,1.749,0,0,1,1.2,1.968,69.424,69.424,0,0,1-1.728,6.864,18.674,18.674,0,0,1-5.328-1.152,10.235,10.235,0,0,1-4.416-3.888l-.768.432a7.434,7.434,0,0,0,3.168,5.136,13.358,13.358,0,0,0,3.408,1.536c-3.552,1.824-6.288,4.608-6.288,7.248,0,2.784,2.592,5.184,7.056,6.192a34.488,34.488,0,0,0-.288,4.128c0,5.9,3.456,9.936,10.272,9.936,8.736,0,12.672-5.616,12.672-10.368,0-5.424-3.168-9.984-10.752-13.488Zm44.784-19.3a13.583,13.583,0,0,1,3.744,6.72c3.648,2.64,6.96-4.8-3.264-7.056Zm-9.408,21.216.432,1.392h40.368c.672,0,1.152-.24,1.3-.768-1.728-1.584-4.608-3.744-4.608-3.744l-2.5,3.12H265.728v-5.712h14.3a1.149,1.149,0,0,0,1.248-.768c-1.632-1.488-4.368-3.552-4.368-3.552l-2.352,2.928h-8.832v-5.424h16.8c.72,0,1.2-.24,1.3-.768-1.776-1.584-4.56-3.744-4.56-3.744l-2.5,3.12H268.9a48.348,48.348,0,0,0,5.712-5.376c1.008.1,1.584-.24,1.776-.816l-5.472-1.824a64.083,64.083,0,0,1-3.456,8.016H245.232l.384,1.392h16.128v5.424H247.728l.384,1.392h13.632v5.712Zm41.664,9.168c.672,0,1.1-.24,1.248-.768-1.728-1.584-4.7-3.792-4.7-3.792l-2.544,3.168H264.768c.24-1.248.384-2.544.528-3.888,1.056-.144,1.536-.624,1.632-1.3l-5.856-.528a34.1,34.1,0,0,1-.624,5.712H242.112l.432,1.392h17.568C258.48-4.128,254.16-.288,241.68,3.024l.336.912C258.288,1.008,262.8-3.312,264.432-9.456h.72C268.224-1.68,274.08,1.776,283.44,3.7A4.328,4.328,0,0,1,286.464.144l.048-.528c-9.36-.864-16.608-3.168-20.256-9.072ZM313.056-33.84c.816.528,1.1,1.152,1.1,3.072,0,3.024-1.1,13.824-1.1,21.12,0,8.448,3.5,11.664,10.08,11.664,8.88,0,16.032-5.664,19.488-13.248l-1.008-.72c-3.5,5.136-10.368,10.08-18.24,10.08-5.424,0-7.152-2.256-7.152-8.16A108.578,108.578,0,0,1,318-28.224c.432-2.3,1.44-2.736,1.44-3.84,0-1.536-3.648-4.32-6.192-4.416a12.528,12.528,0,0,0-3.312.48v.96A8.641,8.641,0,0,1,313.056-33.84Zm73.584-.672c0,.624-.288,1.1-1.1,2.064-2.112,2.64-9.12,9.6-11.568,12.528a4.021,4.021,0,0,0-1.3,2.688,4.259,4.259,0,0,0,1.824,3.12c5.76,4.9,9.312,8.4,11.424,11.712a34.025,34.025,0,0,1,2.352,4.176,2.315,2.315,0,0,0,2.016,1.3,2.132,2.132,0,0,0,2.256-2.4c0-1.488-.912-3.264-2.352-5.088-3.36-4.272-7.872-7.392-12.72-11.136-1.056-.816-1.632-1.392-1.632-2.064,0-.576.336-1.1,1.68-2.5,2.016-2.016,8.16-7.488,11.472-10.032,1.776-1.3,2.784-1.68,2.784-2.832,0-1.344-1.92-3.552-3.936-4.608a9.677,9.677,0,0,0-3.216-.96l-.576.816C385.872-36.384,386.64-35.376,386.64-34.512Z" transform="translate(123 421)" fill="#fff"/>
    <g id="Group_97" data-name="Group 97" transform="translate(355 422.023)">
      <path id="Path_174" data-name="Path 174" d="M215.9,685.473a4.855,4.855,0,0,1-1.269.305c-2.716.313-5.43.608-8.144.911-.2.023-.393.061-.683.107a183.091,183.091,0,0,0-7.361,20.593,4.075,4.075,0,0,1,.593.118c.566.208.737.678.36,1.261a19.991,19.991,0,0,1-1.426,1.88.906.906,0,0,1-1,.361.746.746,0,0,1-.458-.935c.065-.4.174-.8.274-1.2a159.944,159.944,0,0,1,6.752-19.857c.22-.553.431-1.11.639-1.665.022-.057,0-.126-.011-.27a5.236,5.236,0,0,0-.723.025c-4.444.711-8.882,1.577-13.3,2.718-2.406.62-4.805,1.31-7.211,1.945a2.293,2.293,0,0,0-1.271.853c-7.69,9.6-15.221,19.309-22.454,29.233a22.453,22.453,0,0,0-1.58,2.748c-.326.617-.877.874-1.407.577a1.2,1.2,0,0,1-.423-1.62,15.525,15.525,0,0,1,.808-1.609,47.347,47.347,0,0,0,4.894-13.416,12.469,12.469,0,0,0,.158-2.792,4.456,4.456,0,0,0-1.4-3.1c-.432-.433-.91-.824-1.312-1.285-.489-.559-.382-1.116.314-1.62a6.287,6.287,0,0,1,1.375-.777c2.933-1.146,5.858-2.346,8.818-3.364,3.744-1.286,7.516-2.425,11.281-3.6a2.442,2.442,0,0,0,1.142-.9c2.508-3,4.994-6.016,7.539-8.984,5.161-6.019,10.38-11.991,16-17.592,1.622-1.615,3.371-3.106,5.108-4.592a9.162,9.162,0,0,1,2.064-1.276c1.314-.618,2.3-.153,2.356,1.21a12.454,12.454,0,0,1-.317,3.589,62.993,62.993,0,0,1-2.145,6.843c-1.893,4.895-3.925,9.755-5.9,14.63-.142.35-.274.705-.456,1.174.368-.027.645-.023.922-.072q3.728-.673,7.456-1.37a9.263,9.263,0,0,0,1.072-.343c.371-.118.673-.063.774.312A.706.706,0,0,1,215.9,685.473Zm-35.34,7.026c-.249.068-.41.1-.567.156-4.012,1.349-8.033,2.646-12.029,4.07-2.2.786-4.37,1.771-6.543,2.7a18.983,18.983,0,0,0-1.774,1.006c.485.417.843.735,1.212,1.041a6.163,6.163,0,0,1,2.12,5.449,15.578,15.578,0,0,1-.286,2.111,52.687,52.687,0,0,1-3.257,10.1c-.132.311-.248.627-.45,1.137ZM211.7,669a60.583,60.583,0,0,0,1.952-6.14,10.629,10.629,0,0,0,.311-2.7c.011-.855-.386-1.08-1.225-.725a7.158,7.158,0,0,0-1.813,1.059c-1.692,1.426-3.421,2.829-4.978,4.4-8.086,8.161-15.442,16.963-22.726,25.821a4.075,4.075,0,0,0-.331.642,212.953,212.953,0,0,1,21.587-4.857c.124-.226.2-.344.257-.471C207.065,680.353,209.438,674.689,211.7,669Z" transform="translate(-155.655 -623.981)" fill="#fff"/>
      <path id="Path_175" data-name="Path 175" d="M246.4,694.352a16.384,16.384,0,0,0-1.432,1.339q-2.353,2.862-4.647,5.77c-.776.984-1.474,2.025-2.24,3.016a4.076,4.076,0,0,1-.929.876c-.537.36-1.011.165-1.06-.435a6.045,6.045,0,0,1,.086-1.3c.136-.972.323-1.946.441-2.918a14.745,14.745,0,0,0,.01-1.631c-.369.349-.635.565-.859.817a34.5,34.5,0,0,0-5.408,8.058,3.371,3.371,0,0,0-.284,1.168,1.114,1.114,0,0,1-.821,1.084c-.225.077-.445.183-.665.282-.831.375-1.4.095-1.385-.78a8.219,8.219,0,0,1,.262-1.906c.638-2.5,1.247-3.885,1.052-4.863a1.064,1.064,0,0,1,.654-1.106,1,1,0,0,1,.891,0,1.208,1.208,0,0,1,.243.944c-.054.385-.356.767-.457,1.161-.659,2.568.1-.378-.543,2.191a.562.562,0,0,0,.067.447c.15-.24.311-.475.447-.721a34.346,34.346,0,0,1,4.486-6.389,9.908,9.908,0,0,1,1.566-1.455c1.009-.719,1.911-.375,1.961.768a13.2,13.2,0,0,1-.23,2.4,16.491,16.491,0,0,0-.3,2.629c.364-.517.724-1.035,1.092-1.55,1.249-1.745,2.453-3.522,3.767-5.217a29.3,29.3,0,0,1,2.626-2.837c.561-.556,1.237-1.074,2-.815.786.265.8,1.083.763,1.8-.084,1.732-.269,3.476-.408,5.214a20.814,20.814,0,0,0,.1,5.533,7.222,7.222,0,0,0,.591,1.792,1.707,1.707,0,0,0,2.152.939,8.177,8.177,0,0,0,2.1-.85,37.117,37.117,0,0,0,3.331-2.29,50.834,50.834,0,0,0,6.05-5.3c.432-.456,1.732-2.32,2.155-1.992.376.224.082.631-.22,1.168-.784,1.3-7.3,7.015-11.091,9.191a8.251,8.251,0,0,1-2.015.815,2.4,2.4,0,0,1-3.11-1.316,11.918,11.918,0,0,1-.764-2.941,34.664,34.664,0,0,1,.1-6.86c.049-.9.081-1.8.079-2.694A7.993,7.993,0,0,0,246.4,694.352Z" transform="translate(-173.408 -632.651)" fill="#fff"/>
      <path id="Path_176" data-name="Path 176" d="M290.878,695.934c-1.1.98-8.107,7.491-12.4,9.056-.386.141-.787.218-1.414.388a10.512,10.512,0,0,1-1.7-.163,2.441,2.441,0,0,1-1.974-2.121,11.076,11.076,0,0,1,1.039-5.758.973.973,0,0,1,.109-.184,1.006,1.006,0,0,1,1.3-.465c.375.242.433.716.034,1.221a7.842,7.842,0,0,0-1.405,3.568,4.037,4.037,0,0,0-.067.6,1.936,1.936,0,0,0,2.332,2.263,7.611,7.611,0,0,0,2.06-.566c3.834-1.62,7.622-5.13,10.835-8.261a5.921,5.921,0,0,1,.774-.564c.335-.183.515-.334.722-.031S291.135,695.638,290.878,695.934ZM277.2,691.987a1.1,1.1,0,0,1-.059-1.292c.228-.518.448-1.047,1.041-1.211a.642.642,0,0,1,.783.812,7.753,7.753,0,0,1-.382,1.283A.854.854,0,0,1,277.2,691.987Z" transform="translate(-184.851 -631.696)" fill="#fff"/>
      <path id="Path_177" data-name="Path 177" d="M331.73,689.464c-1.1.978-8.107,7.491-12.4,9.056-.387.14-.787.217-1.413.387a10.506,10.506,0,0,1-1.7-.163,2.441,2.441,0,0,1-1.974-2.121,11.071,11.071,0,0,1,1.039-5.758.969.969,0,0,1,.108-.183,1.006,1.006,0,0,1,1.3-.465c.375.241.433.716.033,1.221a7.826,7.826,0,0,0-1.4,3.567,3.922,3.922,0,0,0-.067.6,1.935,1.935,0,0,0,2.332,2.262,7.528,7.528,0,0,0,2.061-.566c3.835-1.62,7.622-5.13,10.835-8.261a5.907,5.907,0,0,1,.774-.564c.334-.183.514-.333.721-.03S331.987,689.167,331.73,689.464Zm-13.679-3.946a1.1,1.1,0,0,1-.06-1.293c.229-.519.449-1.047,1.041-1.211a.642.642,0,0,1,.782.812,7.689,7.689,0,0,1-.382,1.283A.854.854,0,0,1,318.051,685.518Z" transform="translate(-194.988 -630.09)" fill="#fff"/>
      <path id="Path_178" data-name="Path 178" d="M357.947,678.469c-.087.227-4.963,7.376-8.658,9.808a10.275,10.275,0,0,1-1.487.787c-1.526.676-2.75.344-3.5-.941a6.84,6.84,0,0,1-.873-3.6c.023-1.655.186-3.33.289-5,.011-.19.019-.38.037-.748-.328.409-.535.686-.762.948-1.263,1.462-2.495,2.957-3.816,4.367a8.015,8.015,0,0,1-1.955,1.459c-1.187.655-1.985.074-1.759-1.219a5.186,5.186,0,0,1,.374-1.187,16.174,16.174,0,0,1,4.536-6.013,4.8,4.8,0,0,1,1.452-.828c.786-.268,1.16.117,1.071.958.147-.065.351-.1.423-.207a7.75,7.75,0,0,0,1.314-2.622,56.608,56.608,0,0,1,4.328-13.131,33.357,33.357,0,0,1,3.326-5.582,8.588,8.588,0,0,1,1.39-1.479c.737-.6,1.416-.383,1.5.473a4.772,4.772,0,0,1-.149,1.689,27.848,27.848,0,0,1-1.012,3.066,111.354,111.354,0,0,1-8.9,17.131,5.541,5.541,0,0,0-.815,2.117,26.434,26.434,0,0,0-.347,6.192,6.037,6.037,0,0,0,.8,2.723c.658,1.062,1.5,1.271,2.745.634a12.728,12.728,0,0,0,1.807-1.1,26.589,26.589,0,0,0,7.581-8.5c.171-.31.847-1.329,1.172-1.187S358.091,678.1,357.947,678.469Zm-15.382-.253a2.286,2.286,0,0,0,.258-.729c-.164.347-.505.386-.855.472a3.582,3.582,0,0,0-1.316.489,12.592,12.592,0,0,0-4.035,5.162,5.512,5.512,0,0,0-.231,1.119l.215.116c.548-.434,1.133-.827,1.637-1.309A31.254,31.254,0,0,0,342.565,678.216Zm3.046-4.973c.2-.336.368-.6.511-.88,1.679-3.239,3.391-6.464,5.011-9.725.849-1.707,1.557-3.47,2.283-5.219.289-.7.457-1.431.68-2.148-1.651.952-3.814,4.368-5.6,8.485C347.087,667.012,345.569,671.951,345.611,673.243Z" transform="translate(-200.262 -622.87)" fill="#fff"/>
      <path id="Path_179" data-name="Path 179" d="M380.439,682.834a4.691,4.691,0,0,1-.7.807,19.248,19.248,0,0,1-6.325,3.977,9.415,9.415,0,0,1-1.378.356,2.786,2.786,0,0,1-3.306-1.563c-.271-.543-.443-1.148-.692-1.809-.286.309-.525.561-.756.82a13.657,13.657,0,0,1-3.517,2.93,4.322,4.322,0,0,1-1.241.5c-.783.148-1.2-.408-.956-1.188a2.645,2.645,0,0,1,.32-.663,14.532,14.532,0,0,1,3.878-3.96,2.936,2.936,0,0,1,2.109-.62c.807.132,1.07.5,1.138,1.341a8.34,8.34,0,0,0,.395,2.165,1.95,1.95,0,0,0,2.547,1.233,15.16,15.16,0,0,0,7.582-4.832c.392-.487.695-.807,1.032-.611C380.932,681.93,380.819,682.291,380.439,682.834Zm-13.686,1.28a9.4,9.4,0,0,0-3.486,3.08A10.791,10.791,0,0,0,366.753,684.114Z" transform="translate(-206.732 -629.757)" fill="#fff"/>
      <path id="Path_180" data-name="Path 180" d="M408.094,675.428c.394-.516.624-.826.864-1.13,1.511-1.911,2.99-3.848,4.553-5.717a30.651,30.651,0,0,1,2.448-2.412,3.911,3.911,0,0,1,.692-.5c1.228-.732,2.1-.483,2.393.789a27.826,27.826,0,0,1,.348,2.8,10.2,10.2,0,0,0,.225,1.532c.286,1,.914,1.242,1.962.761a9.527,9.527,0,0,0,1.454-.862,64.848,64.848,0,0,0,7.009-5.638,3.341,3.341,0,0,1,.822-.666c.235-.1.872.07-.162,1.072-2.38,1.95-4.37,4.089-6.973,5.68a10.621,10.621,0,0,1-2.36,1.086,1.538,1.538,0,0,1-2.153-1,10.084,10.084,0,0,1-.39-1.777c-.134-.762-.189-1.551-.368-2.3-.277-1.159-.689-1.228-1.736-.363-.275.226-.538.474-.791.727a58.839,58.839,0,0,0-6.559,8.225,6.436,6.436,0,0,0-.5,1.746,2.12,2.12,0,0,1-.406.825c-.834.879-2.026.647-2.165-.446a6.385,6.385,0,0,1,.1-1.888,28.983,28.983,0,0,1,1.871-6.311,2.715,2.715,0,0,0,.308-1.666,1.09,1.09,0,0,1,.369-.8,3.536,3.536,0,0,0,.888-1.427,133.489,133.489,0,0,1,12.118-22.54c1.215-1.805,2.547-3.543,3.876-5.274a7.743,7.743,0,0,1,1.544-1.478c.977-.719,1.842-.4,1.877.716a6.9,6.9,0,0,1-.3,2.293,28.733,28.733,0,0,1-1.522,3.907,96.625,96.625,0,0,1-15.224,22.555,3.055,3.055,0,0,0-.852,1.317c-.071.283-.5.529-.769.793-.215.213-.547.4-.623.643-.877,2.743-1.025,3.359-1.867,6.108A2.946,2.946,0,0,0,408.094,675.428Zm19.973-37.981-.18-.084a9.346,9.346,0,0,0-.93.828c-.682.784-1.374,1.567-1.98,2.4a120.679,120.679,0,0,0-13.048,23.124,4.057,4.057,0,0,0-.155.605,4.256,4.256,0,0,0,.98-.9,105.52,105.52,0,0,0,13.812-21.409,28.056,28.056,0,0,0,1.227-3.122A9.152,9.152,0,0,0,428.067,637.447Z" transform="translate(-217.843 -618.453)" fill="#fff"/>
      <path id="Path_181" data-name="Path 181" d="M453.737,671.568a1.989,1.989,0,0,1-.731.389c-2.106.544-4.21,1.126-6.322,1.579a7.759,7.759,0,0,1-5.28-.574,1.651,1.651,0,0,0-.349-.095c-.315,1.339-.582,2.637-.932,3.925a16.955,16.955,0,0,1-2.048,4.821,13.35,13.35,0,0,1-1.459,1.84,1.424,1.424,0,0,1-1.553.542,1.172,1.172,0,0,1-.668-1.245,5.475,5.475,0,0,1,.1-1.1,32.487,32.487,0,0,1,3.261-9,13.594,13.594,0,0,1,1.112-1.694,2.987,2.987,0,0,1,.863-.778c.728-.417,1.518-.041,1.419.747a1.105,1.105,0,0,0,.73,1.254,5.223,5.223,0,0,0,3.738.526c1.842-.428,3.676-1,5.506-1.558a15.064,15.064,0,0,0,1.9-.843c.473-.221.851-.178,1.011.168A.881.881,0,0,1,453.737,671.568Zm-14.231.658c-1.75,1.942-4.176,8.652-3.631,10.044C437.6,680.3,439.785,674.254,439.506,672.226Z" transform="translate(-224.822 -626.866)" fill="#fff"/>
      <path id="Path_182" data-name="Path 182" d="M503.716,637.268c.02.416-.335.776-.9.832-.727.073-1.449.077-2.174.125-4.092.28-8.178.417-12.278.887-3.7.424-7.423,1.118-11.128,1.866-3.737.753-7.466,1.726-11.2,2.591a1.48,1.48,0,0,0-1.214.991c-3.04,7.835-6,15.684-7.836,23.743-.372,1.635-.622,3.284-.835,4.924a7.437,7.437,0,0,0,.089,2.157c.173,1.043.686,1.238,1.7.653a10.186,10.186,0,0,0,1.72-1.255c1.165-1.06,2.34-2.12,3.413-3.271q4.149-4.445,8.2-8.978c.762-.849,1.4-1.81,2.092-2.719.086-.113.151-.288.256-.334.265-.117.392-.284.621-.235.361.074.435.372.3.731a16.459,16.459,0,0,1-1.39,1.771c-3.706,4.1-7.091,7.955-11.083,11.774-.8.766-1.641,1.5-2.492,2.2a9.241,9.241,0,0,1-1.495,1.014c-1.358.732-2.273.393-2.633-.947a9.669,9.669,0,0,1-.093-3.641,68.778,68.778,0,0,1,2.383-10.727c1.528-5.359,3.462-10.637,5.377-15.919.128-.353.238-.709.41-1.223-.792.182-1.441.325-2.088.483-2.9.709-5.807,1.432-8.713,2.125a8.425,8.425,0,0,1-1.686.214c-.762.023-1.171-.319-1.219-.9a2.466,2.466,0,0,1,.956-1.9.68.68,0,0,1,.9.049.643.643,0,0,1,.021.905,5.987,5.987,0,0,1-.754.683,2.008,2.008,0,0,0,1.691.319,17.163,17.163,0,0,0,2.186-.332c2.94-.641,5.878-1.307,8.826-1.966.389-.919.72-1.763,1.105-2.588a4.444,4.444,0,0,1,.738-1.158.968.968,0,0,1,1.485-.095c.317.419.189.923-.442,1.363-.69.481-.838,1.178-1.229,1.991,1.357-.317,2.56-.6,3.763-.877q4.013-.92,8.028-1.829c5.562-1.255,11.129-2.017,16.7-2.788,2.353-.324,4.7-.564,7.054-.851.661-.079,1.323-.182,1.985-.287C503.411,636.75,503.7,636.88,503.716,637.268Z" transform="translate(-228.649 -618.63)" fill="#fff"/>
      <path id="Path_183" data-name="Path 183" d="M501.633,664.226c.66-.646,1.179-1.133,1.674-1.641.9-.926,1.768-1.882,2.681-2.795.607-.607,1.277-1.318,2.124-.924s.6,1.322.409,2.11c-.312,1.3-.456,1.675-.823,2.97-.071.257-.145.513-.263.927l1.1-.6c2.438-1.331,4.872-2.672,7.319-3.983a8.084,8.084,0,0,1,1.729-.711,3.135,3.135,0,0,1,1.344-.022.567.567,0,0,1,.4.832,1.354,1.354,0,0,1-.7.693c-4.153.875-7.7,3.5-11.459,5.512a2.129,2.129,0,0,0-.923,1.241,53.774,53.774,0,0,1-6.126,10.93,25.052,25.052,0,0,1-4.885,5.255,7.62,7.62,0,0,1-3.746,1.721c-2.256.262-3.462-1.325-2.525-3.525a14.916,14.916,0,0,1,1.88-3.076,47.54,47.54,0,0,1,5.9-6.249,62.744,62.744,0,0,1,8.458-6.528,2.6,2.6,0,0,0,1.2-1.53c.422-1.461.613-2,1.03-3.459a10.871,10.871,0,0,0,.2-1.262,5.638,5.638,0,0,0-.671.48c-1,1.023-1.977,2.08-3,3.082a12.815,12.815,0,0,1-1.886,1.573c-1.092.714-1.893.274-1.719-.957a23.274,23.274,0,0,1,.71-3,.937.937,0,0,1,1.19-.7c.459.176.571.7.262,1.242A4.135,4.135,0,0,0,501.633,664.226Zm3.438,3.746c-.386.238-.537.323-.681.421a62.441,62.441,0,0,0-11.538,10.04,28.913,28.913,0,0,0-2.186,2.782,6.564,6.564,0,0,0-.838,1.8,1.09,1.09,0,0,0,.865,1.526,3.6,3.6,0,0,0,1.263-.028,6.17,6.17,0,0,0,2.6-1.3,21.864,21.864,0,0,0,3.978-4.052,53.132,53.132,0,0,0,6.24-10.4C504.861,668.579,504.916,668.391,505.071,667.971Z" transform="translate(-238.282 -624.074)" fill="#fff"/>
      <path id="Path_184" data-name="Path 184" d="M543.454,657.358a1.963,1.963,0,0,1-.731.389c-2.105.544-4.21,1.126-6.322,1.579a7.757,7.757,0,0,1-5.28-.574,1.685,1.685,0,0,0-.35-.095c-.314,1.34-.581,2.637-.932,3.925a16.923,16.923,0,0,1-2.048,4.821,13.417,13.417,0,0,1-1.459,1.84,1.423,1.423,0,0,1-1.552.542,1.171,1.171,0,0,1-.667-1.245,5.363,5.363,0,0,1,.1-1.1,32.477,32.477,0,0,1,3.26-9,13.851,13.851,0,0,1,1.111-1.695,3.006,3.006,0,0,1,.864-.778c.728-.417,1.518-.041,1.42.747a1.106,1.106,0,0,0,.73,1.254,5.224,5.224,0,0,0,3.737.526c1.842-.427,3.676-.995,5.506-1.558a15.027,15.027,0,0,0,1.9-.843c.473-.221.851-.178,1.01.168A.878.878,0,0,1,543.454,657.358Zm-14.231.658c-1.75,1.942-4.176,8.652-3.631,10.044C527.318,666.089,529.5,660.044,529.223,658.016Z" transform="translate(-247.085 -623.34)" fill="#fff"/>
      <path id="Path_185" data-name="Path 185" d="M548.132,662.217c.338-.291.632-.537.919-.792,3.644-3.244,12.916-8.088,14.967-8.4.3.119.393.465.23.844s-.517.36-.814.528c-3.846,1.451-11.313,5.4-15.074,9.055a3.536,3.536,0,0,0-1.071,1.875,44.862,44.862,0,0,1-3.211,9.776,30.738,30.738,0,0,1-2.022,3.613,6.431,6.431,0,0,1-1.635,1.665c-1.211.857-2.389.406-2.531-.946a7.033,7.033,0,0,1,.138-2.086,16.977,16.977,0,0,1,1.923-4.754,41.267,41.267,0,0,1,6.5-8.633,3.3,3.3,0,0,0,.972-1.809c.274-1.642.578-3.283.862-4.926a4.447,4.447,0,0,0,0-.606l-.848.868c-1.4,1.438-2.783,2.894-4.208,4.307a18.1,18.1,0,0,1-1.887,1.581,2.95,2.95,0,0,1-1.023.5c-.674.169-1.072-.256-.884-.933a3.73,3.73,0,0,1,.49-1.043,22.086,22.086,0,0,1,6-6.216,7.393,7.393,0,0,1,2.156-1.01c1.183-.313,1.562.273,1.265,1.47-.472,1.9-.852,3.809-1.264,5.713A1.237,1.237,0,0,0,548.132,662.217Zm-1.6,3.382c-.044-.019-.086-.041-.131-.061-.48.562-.972,1.114-1.436,1.69a32.887,32.887,0,0,0-5.012,8.022,15.321,15.321,0,0,0-.8,2.572c-.126.573-.368,1.379.211,1.626.656.28,1.187-.439,1.571-.961a24.213,24.213,0,0,0,1.864-2.855,44.091,44.091,0,0,0,3.639-9.461A4.9,4.9,0,0,0,546.535,665.6Zm-4.052-4.924q1.283-1.287,2.566-2.574A5.868,5.868,0,0,0,542.483,660.675Z" transform="translate(-250.496 -622.654)" fill="#fff"/>
      <path id="Path_186" data-name="Path 186" d="M588.07,649.948a4.641,4.641,0,0,1-.7.807,19.189,19.189,0,0,1-6.325,3.977,9.267,9.267,0,0,1-1.377.357,2.787,2.787,0,0,1-3.307-1.562c-.27-.544-.442-1.15-.691-1.81-.286.31-.525.561-.756.819a13.658,13.658,0,0,1-3.517,2.931,4.336,4.336,0,0,1-1.242.5c-.784.148-1.2-.409-.956-1.188a2.569,2.569,0,0,1,.32-.663,14.552,14.552,0,0,1,3.877-3.961,2.944,2.944,0,0,1,2.109-.62c.807.132,1.071.5,1.139,1.341a8.337,8.337,0,0,0,.395,2.165,1.95,1.95,0,0,0,2.547,1.232,15.173,15.173,0,0,0,7.581-4.831c.392-.486.694-.807,1.031-.61C588.562,649.045,588.448,649.406,588.07,649.948Zm-13.687,1.28a9.384,9.384,0,0,0-3.487,3.081A10.8,10.8,0,0,0,574.383,651.229Z" transform="translate(-258.253 -621.597)" fill="#fff"/>
      <path id="Path_187" data-name="Path 187" d="M617.536,641.271a10.464,10.464,0,0,0,.044,1.517,7.952,7.952,0,0,0,.255,1.44,4.886,4.886,0,0,0,.536,1.213,1.654,1.654,0,0,0,1.017.528,4.093,4.093,0,0,0,1.389-.091,13.928,13.928,0,0,0,2.96-1.149c3.883-1.931,10.45-10.274,11.511-10.549.492-.129.146.55-.167.894-.159.174-6.213,7.109-9.654,9.64a31.657,31.657,0,0,1-2.784,1.587,9.824,9.824,0,0,1-2.534.786,2.523,2.523,0,0,1-3.157-1.858,7.355,7.355,0,0,1-.275-2.707c-.019-.38,0-.766-.006-1.15.018-.547.1-1.1.147-1.65.049-.328.121-.655.185-.982a7.444,7.444,0,0,1,.476-1.985,30.243,30.243,0,0,1,1.255-3.514,47.259,47.259,0,0,1,3.153-6.119c.168-.28.342-.556.515-.834a50.78,50.78,0,0,1,6.133-8.767,41.5,41.5,0,0,1,3.855-3.726,5.889,5.889,0,0,1,1.921-1.046,1.347,1.347,0,0,1,1.942.968,5.379,5.379,0,0,1,.034,1.953,12.532,12.532,0,0,1-1.432,3.807,40.08,40.08,0,0,1-5.071,7.41,74.448,74.448,0,0,1-10.6,10.028,3.718,3.718,0,0,0-1.33,1.852c-.063.315-.134.631-.18.947C617.628,640.234,617.552,640.758,617.536,641.271Zm14.83-26.249c-.619.563-1.244,1.126-1.85,1.7a80.839,80.839,0,0,0-7.891,10.771c-.482.777-.926,1.567-1.35,2.367q-1.217,2.5-2.209,5.1c-.056.149-.083.3-.167.612.331-.247.536-.371.709-.534,2.177-2.025,4.408-3.993,6.507-6.1a41.754,41.754,0,0,0,7.136-9.361,32.511,32.511,0,0,0,1.6-3.551,4.058,4.058,0,0,0,.246-1.494c-.005-.7-.385-.926-1.044-.6A7.285,7.285,0,0,0,632.365,615.022Z" transform="translate(-270.048 -612.629)" fill="#fff"/>
      <path id="Path_188" data-name="Path 188" d="M656.551,638.017c-1.1.979-8.107,7.49-12.4,9.055-.386.141-.788.218-1.414.388a10.6,10.6,0,0,1-1.7-.162,2.443,2.443,0,0,1-1.974-2.122,11.062,11.062,0,0,1,1.039-5.758,1.214,1.214,0,0,1,1.413-.649c.375.243.434.716.033,1.221a7.822,7.822,0,0,0-1.4,3.568,4.112,4.112,0,0,0-.068.6c-.065,1.553.793,2.435,2.332,2.263a7.612,7.612,0,0,0,2.061-.566c3.835-1.62,7.622-5.13,10.835-8.261a5.868,5.868,0,0,1,.774-.564c.333-.183.514-.334.721-.031S656.808,637.721,656.551,638.017Zm-13.68-3.947a1.1,1.1,0,0,1-.06-1.293c.229-.518.449-1.046,1.041-1.211a.642.642,0,0,1,.782.812,7.693,7.693,0,0,1-.381,1.283A.854.854,0,0,1,642.871,634.07Z" transform="translate(-275.589 -617.324)" fill="#fff"/>
      <path id="Path_189" data-name="Path 189" d="M672.289,636.4a4.37,4.37,0,0,1-.621.585,27.335,27.335,0,0,1-5.613,3.61q-4.515,2.239-9.048,4.421a2.6,2.6,0,0,0-1.619,2.607c.05.717.163,1.423.174,2.148a32.617,32.617,0,0,1-.83,7.226c-.477,2.238-1.086,4.47-1.715,6.695a12.872,12.872,0,0,1-1.033,2.3,1.281,1.281,0,0,1-1.219.849c-.526-.053-.664-.492-.762-.946a9.277,9.277,0,0,1,.129-3.476,78.278,78.278,0,0,1,2.986-10.867,27.241,27.241,0,0,1,.93-2.662,2.975,2.975,0,0,0-.129-2.65c-.051-.113-.146-.2-.2-.309-.263-.505-.074-.889.543-1.013a10.711,10.711,0,0,1,1.27-.1c.3-.735.549-1.388.839-2.026,1.323-2.917,2.635-5.837,4-8.738a30.831,30.831,0,0,1,1.592-2.768,6.316,6.316,0,0,1,.786-1.016c.606-.647,1.251-.772,1.669-.364a1.59,1.59,0,0,1-.063,1.939c-.382.44-.747.473-1.628.081-.4.593-.838,1.189-1.211,1.816a72.724,72.724,0,0,0-4.31,8.735c-.261.611-.5,1.229-.825,2.02a10.86,10.86,0,0,0,1.115-.294,55.471,55.471,0,0,0,10.262-5.287,28.464,28.464,0,0,0,3.13-2.752c.212-.19.38-.491.61-.583a1.015,1.015,0,0,1,.792.022C672.565,635.766,672.512,636.125,672.289,636.4Zm-17.979,13.73c-.114.273-.205.451-.261.636-.917,3.043-1.905,6.081-2.71,9.14a33.152,33.152,0,0,0-.683,4.705,5.72,5.72,0,0,0,.178,1.368C652.452,664.223,654.938,652.742,654.31,650.134Z" transform="translate(-278.294 -616.859)" fill="#fff"/>
      <path id="Path_190" data-name="Path 190" d="M692.485,634.649c-.237.267-6.3,4.854-10.227,5.775a7.7,7.7,0,0,1-2.731.116,1.821,1.821,0,0,1-1.661-2.049,3.608,3.608,0,0,1,.546-2.017,11.172,11.172,0,0,1,1.887-2.58,5.976,5.976,0,0,1,1.388-.955,1.245,1.245,0,0,1,1.564.348,1.272,1.272,0,0,1-.069,1.584,6.557,6.557,0,0,1-1.31,1.4c-1.08.8-2.218,1.507-3.418,2.309.066.994.4,1.4,1.373,1.558a6.945,6.945,0,0,0,3.729-.645,31.862,31.862,0,0,0,8.234-5.154,11.482,11.482,0,0,0,1.013-1.108c.472-.518.687-.671.992-.392S693.145,634.117,692.485,634.649ZM679.451,636.4A5.6,5.6,0,0,0,682,634.226,4.341,4.341,0,0,0,679.451,636.4Z" transform="translate(-285.237 -617.609)" fill="#fff"/>
    </g>
  </g>
</svg>
