<svg xmlns="http://www.w3.org/2000/svg" width="344" height="167.746" viewBox="0 0 344 167.746">
  <g id="Group_1567" data-name="Group 1567" transform="translate(-15 -297)">
    <g id="Group_1566" data-name="Group 1566" transform="translate(15 297)">
      <text id="アミーダで本当の" transform="translate(0 39)" fill="#fff" font-size="34" font-family="NotoSerifJP-Medium, Noto Serif JP" font-weight="500" letter-spacing="0.25em"><tspan x="0" y="0">アミーダで</tspan><tspan y="0">本当</tspan><tspan y="0">の</tspan></text>
      <text id="美しさに出会う" transform="translate(0 91)" fill="#fff" font-size="34" font-family="NotoSerifJP-Medium, Noto Serif JP" font-weight="500" letter-spacing="0.25em"><tspan x="0" y="0">美</tspan><tspan y="0">しさに</tspan><tspan y="0">出会</tspan><tspan y="0">う</tspan></text>
    </g>
    <g id="Group_97" data-name="Group 97" transform="translate(69.476 392.957)">
      <path id="Path_174" data-name="Path 174" d="M198.342,677.577a3.443,3.443,0,0,1-.9.216c-1.924.222-3.847.431-5.771.645-.14.016-.279.043-.484.076a129.731,129.731,0,0,0-5.216,14.591,2.894,2.894,0,0,1,.42.084c.4.148.522.481.255.893a14.174,14.174,0,0,1-1.011,1.332.642.642,0,0,1-.71.256.529.529,0,0,1-.324-.663c.046-.284.123-.569.194-.853a113.326,113.326,0,0,1,4.784-14.07c.156-.392.305-.786.453-1.18.015-.041,0-.09-.007-.191a3.716,3.716,0,0,0-.512.018c-3.149.5-6.294,1.118-9.427,1.926-1.7.439-3.4.928-5.109,1.378a1.625,1.625,0,0,0-.9.6c-5.449,6.8-10.785,13.681-15.909,20.713a15.915,15.915,0,0,0-1.12,1.947c-.231.437-.622.619-1,.409a.853.853,0,0,1-.3-1.148,11.005,11.005,0,0,1,.572-1.14,33.547,33.547,0,0,0,3.468-9.506,8.835,8.835,0,0,0,.112-1.979,3.157,3.157,0,0,0-.995-2.2c-.306-.307-.645-.584-.93-.91-.347-.4-.271-.791.222-1.148a4.454,4.454,0,0,1,.974-.55c2.078-.812,4.15-1.662,6.248-2.383,2.652-.911,5.326-1.718,7.993-2.55a1.731,1.731,0,0,0,.809-.636c1.777-2.125,3.538-4.262,5.342-6.366,3.657-4.265,7.355-8.5,11.338-12.465,1.149-1.144,2.388-2.2,3.619-3.254a6.491,6.491,0,0,1,1.462-.9c.931-.438,1.632-.108,1.67.857a8.824,8.824,0,0,1-.225,2.543,44.637,44.637,0,0,1-1.52,4.849c-1.341,3.468-2.781,6.912-4.18,10.366-.1.248-.194.5-.323.832.261-.019.457-.016.653-.051q2.642-.477,5.283-.971a6.558,6.558,0,0,0,.76-.243c.263-.084.477-.045.549.221A.5.5,0,0,1,198.342,677.577Zm-25.04,4.978c-.176.048-.29.073-.4.11-2.843.956-5.692,1.875-8.523,2.884-1.561.557-3.1,1.255-4.636,1.913a13.453,13.453,0,0,0-1.257.713c.344.3.6.52.859.737a4.367,4.367,0,0,1,1.5,3.861,11.038,11.038,0,0,1-.2,1.5,37.33,37.33,0,0,1-2.308,7.156c-.093.221-.176.444-.319.805ZM195.365,665.9a42.931,42.931,0,0,0,1.383-4.351,7.532,7.532,0,0,0,.22-1.912c.008-.606-.274-.765-.868-.514a5.07,5.07,0,0,0-1.284.75c-1.2,1.011-2.424,2-3.527,3.119-5.729,5.783-10.941,12.019-16.1,18.3a2.888,2.888,0,0,0-.234.455,150.9,150.9,0,0,1,15.3-3.441c.088-.16.145-.244.182-.334C192.081,673.949,193.762,669.936,195.365,665.9Z" transform="translate(-155.655 -634.007)" fill="#fff"/>
      <path id="Path_175" data-name="Path 175" d="M240.8,694.051a11.62,11.62,0,0,0-1.014.949q-1.667,2.028-3.293,4.088c-.55.7-1.044,1.435-1.587,2.137a2.888,2.888,0,0,1-.658.621c-.38.255-.717.117-.751-.308a4.284,4.284,0,0,1,.061-.919c.1-.689.229-1.379.313-2.068a10.448,10.448,0,0,0,.007-1.155c-.262.247-.45.4-.609.579a24.445,24.445,0,0,0-3.832,5.709,2.388,2.388,0,0,0-.2.828.789.789,0,0,1-.582.768c-.159.054-.315.13-.471.2-.589.266-.989.067-.981-.552a5.824,5.824,0,0,1,.185-1.35c.452-1.772.883-2.753.745-3.446a.754.754,0,0,1,.463-.784.707.707,0,0,1,.631,0,.856.856,0,0,1,.172.669c-.038.273-.252.543-.324.823-.467,1.82.068-.268-.385,1.552a.4.4,0,0,0,.047.316c.106-.17.221-.337.317-.511a24.336,24.336,0,0,1,3.179-4.527,7.022,7.022,0,0,1,1.11-1.031c.715-.51,1.354-.266,1.389.544a9.353,9.353,0,0,1-.163,1.7,11.686,11.686,0,0,0-.21,1.863c.258-.366.513-.733.774-1.1.885-1.236,1.738-2.5,2.669-3.7a20.759,20.759,0,0,1,1.861-2.01c.4-.394.876-.761,1.42-.578s.565.767.541,1.274c-.06,1.227-.191,2.463-.289,3.694a14.748,14.748,0,0,0,.072,3.92,5.117,5.117,0,0,0,.419,1.269,1.21,1.21,0,0,0,1.525.665,5.793,5.793,0,0,0,1.489-.6,26.3,26.3,0,0,0,2.361-1.623,36.023,36.023,0,0,0,4.287-3.754c.306-.323,1.227-1.644,1.527-1.412.266.159.058.447-.156.827-.556.922-5.173,4.97-7.859,6.513a5.844,5.844,0,0,1-1.428.578,1.7,1.7,0,0,1-2.2-.932,8.444,8.444,0,0,1-.541-2.084,24.561,24.561,0,0,1,.074-4.861c.035-.638.058-1.275.056-1.909A5.664,5.664,0,0,0,240.8,694.051Z" transform="translate(-189.087 -650.333)" fill="#fff"/>
      <path id="Path_176" data-name="Path 176" d="M285.759,694.049c-.777.694-5.744,5.308-8.783,6.417-.274.1-.558.155-1,.275a7.444,7.444,0,0,1-1.207-.116,1.73,1.73,0,0,1-1.4-1.5,7.849,7.849,0,0,1,.736-4.08.691.691,0,0,1,.077-.13.713.713,0,0,1,.924-.33c.266.172.307.508.024.865a5.556,5.556,0,0,0-1,2.528,2.859,2.859,0,0,0-.047.427,1.372,1.372,0,0,0,1.653,1.6,5.394,5.394,0,0,0,1.46-.4c2.717-1.148,5.4-3.635,7.677-5.853a4.2,4.2,0,0,1,.548-.4c.237-.129.365-.237.511-.022S285.942,693.84,285.759,694.049Zm-9.692-2.8a.776.776,0,0,1-.042-.916c.161-.367.318-.742.737-.858a.455.455,0,0,1,.555.575,5.491,5.491,0,0,1-.271.909A.6.6,0,0,1,276.067,691.253Z" transform="translate(-210.634 -648.534)" fill="#fff"/>
      <path id="Path_177" data-name="Path 177" d="M326.611,687.58c-.777.693-5.744,5.308-8.783,6.417-.274.1-.558.154-1,.274a7.445,7.445,0,0,1-1.207-.116,1.73,1.73,0,0,1-1.4-1.5,7.844,7.844,0,0,1,.736-4.08.685.685,0,0,1,.077-.13.713.713,0,0,1,.924-.329c.266.171.307.507.023.865a5.545,5.545,0,0,0-1,2.527,2.778,2.778,0,0,0-.047.427,1.371,1.371,0,0,0,1.652,1.6,5.334,5.334,0,0,0,1.46-.4c2.717-1.148,5.4-3.635,7.677-5.853a4.179,4.179,0,0,1,.548-.4c.237-.129.364-.236.511-.021S326.793,687.37,326.611,687.58Zm-9.692-2.8a.776.776,0,0,1-.043-.916c.162-.368.318-.742.738-.858a.455.455,0,0,1,.554.575,5.453,5.453,0,0,1-.271.909A.605.605,0,0,1,316.919,684.784Z" transform="translate(-229.723 -645.511)" fill="#fff"/>
      <path id="Path_178" data-name="Path 178" d="M351.382,671.309c-.062.161-3.517,5.226-6.134,6.949a7.278,7.278,0,0,1-1.054.558,1.76,1.76,0,0,1-2.482-.666,4.846,4.846,0,0,1-.619-2.551c.016-1.172.132-2.359.2-3.541.008-.135.013-.27.026-.53-.232.29-.379.486-.54.672-.895,1.036-1.768,2.1-2.7,3.095a5.678,5.678,0,0,1-1.385,1.034c-.841.464-1.406.053-1.247-.864a3.675,3.675,0,0,1,.265-.841,11.46,11.46,0,0,1,3.214-4.26,3.4,3.4,0,0,1,1.029-.587c.557-.19.822.083.759.679.1-.046.249-.069.3-.146a5.492,5.492,0,0,0,.931-1.858,40.112,40.112,0,0,1,3.066-9.3,23.635,23.635,0,0,1,2.357-3.955,6.085,6.085,0,0,1,.985-1.048c.522-.425,1-.272,1.064.335a3.38,3.38,0,0,1-.106,1.2,19.725,19.725,0,0,1-.717,2.172,78.9,78.9,0,0,1-6.3,12.138,3.926,3.926,0,0,0-.577,1.5,18.733,18.733,0,0,0-.246,4.387,4.277,4.277,0,0,0,.565,1.929,1.284,1.284,0,0,0,1.945.449,9.019,9.019,0,0,0,1.28-.779,18.841,18.841,0,0,0,5.371-6.025c.121-.219.6-.941.831-.841S351.484,671.045,351.382,671.309Zm-10.9-.18a1.62,1.62,0,0,0,.183-.517c-.116.246-.358.273-.606.335a2.537,2.537,0,0,0-.932.347,8.922,8.922,0,0,0-2.859,3.658,3.909,3.909,0,0,0-.164.793l.152.082c.388-.307.8-.586,1.16-.928A22.147,22.147,0,0,0,340.483,671.129Zm2.158-3.523c.139-.238.26-.427.362-.624,1.19-2.295,2.4-4.58,3.551-6.89.6-1.209,1.1-2.459,1.617-3.7.205-.5.324-1.014.482-1.522-1.17.674-2.7,3.095-3.967,6.012A27.635,27.635,0,0,0,342.641,667.606Z" transform="translate(-239.655 -631.915)" fill="#fff"/>
      <path id="Path_179" data-name="Path 179" d="M374.917,682.491a3.32,3.32,0,0,1-.5.572,13.636,13.636,0,0,1-4.481,2.818,6.661,6.661,0,0,1-.976.253,1.974,1.974,0,0,1-2.342-1.107c-.192-.385-.314-.814-.49-1.282-.2.219-.372.4-.536.581A9.678,9.678,0,0,1,363.1,686.4a3.063,3.063,0,0,1-.88.352c-.555.1-.853-.289-.678-.842a1.874,1.874,0,0,1,.227-.47,10.3,10.3,0,0,1,2.748-2.806,2.08,2.08,0,0,1,1.494-.439c.572.094.758.356.807.95a5.91,5.91,0,0,0,.28,1.534,1.382,1.382,0,0,0,1.8.874,10.741,10.741,0,0,0,5.372-3.424c.278-.345.492-.572.731-.433C375.267,681.85,375.186,682.106,374.917,682.491Zm-9.7.907a6.66,6.66,0,0,0-2.47,2.183A7.646,7.646,0,0,0,365.22,683.4Z" transform="translate(-251.837 -644.883)" fill="#fff"/>
      <path id="Path_180" data-name="Path 180" d="M407.563,663.966c.279-.365.442-.585.612-.8,1.071-1.354,2.119-2.727,3.226-4.051a21.705,21.705,0,0,1,1.735-1.709,2.771,2.771,0,0,1,.491-.353c.87-.519,1.489-.343,1.7.559a19.716,19.716,0,0,1,.247,1.984,7.223,7.223,0,0,0,.159,1.085c.2.708.648.88,1.39.539a6.747,6.747,0,0,0,1.03-.611,45.954,45.954,0,0,0,4.966-3.995,2.368,2.368,0,0,1,.582-.472c.167-.071.618.05-.115.76a45.576,45.576,0,0,1-4.94,4.024,7.526,7.526,0,0,1-1.672.77,1.09,1.09,0,0,1-1.525-.707,7.145,7.145,0,0,1-.276-1.259c-.095-.54-.134-1.1-.26-1.626-.2-.821-.488-.87-1.23-.257-.195.16-.381.336-.56.515a41.689,41.689,0,0,0-4.648,5.828,4.56,4.56,0,0,0-.353,1.237,1.5,1.5,0,0,1-.288.584c-.591.623-1.436.459-1.534-.316a4.524,4.524,0,0,1,.07-1.338,20.535,20.535,0,0,1,1.325-4.472,1.924,1.924,0,0,0,.218-1.181.772.772,0,0,1,.262-.564,2.5,2.5,0,0,0,.629-1.011,94.581,94.581,0,0,1,8.586-15.971c.861-1.279,1.8-2.51,2.746-3.737a5.486,5.486,0,0,1,1.094-1.047c.693-.51,1.305-.284,1.33.507a4.886,4.886,0,0,1-.213,1.625,20.36,20.36,0,0,1-1.078,2.768,68.464,68.464,0,0,1-10.787,15.981,2.165,2.165,0,0,0-.6.933c-.051.2-.355.375-.545.562-.152.151-.388.287-.442.455-.621,1.943-.726,2.38-1.323,4.328A2.087,2.087,0,0,0,407.563,663.966Zm14.152-26.911-.127-.06a6.624,6.624,0,0,0-.659.586c-.483.556-.973,1.11-1.4,1.7a85.506,85.506,0,0,0-9.245,16.385,2.876,2.876,0,0,0-.11.429,3.015,3.015,0,0,0,.695-.637,74.767,74.767,0,0,0,9.786-15.169,19.877,19.877,0,0,0,.869-2.212A6.485,6.485,0,0,0,421.715,637.055Z" transform="translate(-272.761 -623.596)" fill="#fff"/>
      <path id="Path_181" data-name="Path 181" d="M448.1,671.112a1.408,1.408,0,0,1-.518.275c-1.492.386-2.983.8-4.479,1.119a5.5,5.5,0,0,1-3.741-.407,1.168,1.168,0,0,0-.247-.067c-.223.949-.412,1.868-.661,2.781A12.014,12.014,0,0,1,437,678.23a9.464,9.464,0,0,1-1.034,1.3,1.009,1.009,0,0,1-1.1.384.831.831,0,0,1-.473-.882,3.88,3.88,0,0,1,.072-.779,23.02,23.02,0,0,1,2.31-6.378,9.638,9.638,0,0,1,.788-1.2,2.117,2.117,0,0,1,.612-.551c.516-.3,1.076-.029,1.006.53a.783.783,0,0,0,.517.889,3.7,3.7,0,0,0,2.648.373c1.305-.3,2.6-.705,3.9-1.1a10.671,10.671,0,0,0,1.345-.6c.335-.157.6-.126.717.119A.624.624,0,0,1,448.1,671.112Zm-10.083.466c-1.24,1.376-2.959,6.131-2.573,7.117C436.667,677.3,438.215,673.015,438.016,671.578Z" transform="translate(-285.903 -639.439)" fill="#fff"/>
      <path id="Path_182" data-name="Path 182" d="M488.008,637.136c.014.295-.238.55-.639.59-.515.052-1.027.054-1.541.088-2.9.2-5.794.3-8.7.629-2.623.3-5.26.792-7.884,1.322-2.648.534-5.29,1.223-7.934,1.836a1.049,1.049,0,0,0-.86.7,121.923,121.923,0,0,0-5.552,16.823c-.264,1.158-.441,2.327-.592,3.489a5.269,5.269,0,0,0,.063,1.528c.123.739.486.877,1.2.463a7.214,7.214,0,0,0,1.219-.889c.825-.751,1.658-1.5,2.419-2.318q2.94-3.149,5.811-6.361c.54-.6.991-1.282,1.483-1.926.061-.08.107-.2.181-.236.188-.083.278-.2.44-.167.256.052.308.264.216.518a11.661,11.661,0,0,1-.985,1.255c-2.626,2.906-5.024,5.637-7.853,8.342-.568.543-1.162,1.061-1.765,1.562a6.547,6.547,0,0,1-1.059.719c-.962.518-1.61.279-1.866-.671a6.851,6.851,0,0,1-.066-2.58,48.736,48.736,0,0,1,1.688-7.6c1.083-3.8,2.453-7.537,3.81-11.279.091-.25.169-.5.29-.867-.562.129-1.021.23-1.479.342-2.058.5-4.114,1.014-6.173,1.506a5.967,5.967,0,0,1-1.195.151c-.54.017-.83-.226-.864-.639a1.747,1.747,0,0,1,.678-1.345.482.482,0,0,1,.638.035.456.456,0,0,1,.015.641,4.242,4.242,0,0,1-.534.484,1.423,1.423,0,0,0,1.2.226,12.162,12.162,0,0,0,1.549-.235c2.083-.454,4.165-.926,6.254-1.393.275-.651.51-1.249.783-1.834a3.148,3.148,0,0,1,.523-.82.686.686,0,0,1,1.052-.067c.225.3.134.654-.313.966-.489.341-.593.835-.87,1.411.962-.225,1.814-.427,2.666-.622q2.843-.652,5.688-1.3c3.941-.889,7.885-1.429,11.829-1.975,1.667-.23,3.332-.4,5-.6.468-.056.938-.129,1.406-.2C487.792,636.769,487.994,636.861,488.008,637.136Z" transform="translate(-293.11 -623.93)" fill="#fff"/>
      <path id="Path_183" data-name="Path 183" d="M497.847,662.63c.468-.458.835-.8,1.186-1.163.637-.656,1.253-1.333,1.9-1.98.43-.43.9-.934,1.5-.655s.423.937.29,1.495c-.221.921-.323,1.187-.583,2.1-.051.182-.1.363-.187.657l.777-.423c1.728-.943,3.452-1.893,5.186-2.822a5.731,5.731,0,0,1,1.225-.5,2.224,2.224,0,0,1,.953-.015.4.4,0,0,1,.283.59.959.959,0,0,1-.5.491c-2.942.62-5.455,2.483-8.119,3.905a1.508,1.508,0,0,0-.654.879,38.1,38.1,0,0,1-4.341,7.744,17.752,17.752,0,0,1-3.461,3.723,5.4,5.4,0,0,1-2.655,1.219c-1.6.186-2.453-.939-1.789-2.5A10.572,10.572,0,0,1,490.2,673.2a33.687,33.687,0,0,1,4.178-4.427,44.454,44.454,0,0,1,5.993-4.625,1.843,1.843,0,0,0,.852-1.084c.3-1.035.434-1.416.73-2.451a7.68,7.68,0,0,0,.14-.894,4.006,4.006,0,0,0-.476.34c-.711.725-1.4,1.474-2.127,2.184a9.083,9.083,0,0,1-1.336,1.115c-.774.506-1.341.194-1.218-.678a16.5,16.5,0,0,1,.5-2.127.664.664,0,0,1,.843-.5c.325.125.4.5.186.88A2.929,2.929,0,0,0,497.847,662.63Zm2.436,2.654c-.274.168-.38.229-.483.3a44.243,44.243,0,0,0-8.175,7.114,20.486,20.486,0,0,0-1.549,1.971,4.651,4.651,0,0,0-.593,1.278.773.773,0,0,0,.613,1.081,2.551,2.551,0,0,0,.895-.02,4.373,4.373,0,0,0,1.844-.922,15.492,15.492,0,0,0,2.819-2.871,37.649,37.649,0,0,0,4.421-7.371C500.134,665.715,500.173,665.582,500.282,665.284Z" transform="translate(-311.25 -634.181)" fill="#fff"/>
      <path id="Path_184" data-name="Path 184" d="M537.817,656.9a1.39,1.39,0,0,1-.518.275c-1.492.386-2.983.8-4.479,1.119a5.5,5.5,0,0,1-3.741-.407,1.188,1.188,0,0,0-.248-.067c-.223.949-.412,1.868-.661,2.781a11.989,11.989,0,0,1-1.451,3.416,9.511,9.511,0,0,1-1.033,1.3,1.008,1.008,0,0,1-1.1.384.83.83,0,0,1-.473-.882,3.8,3.8,0,0,1,.072-.779,23.012,23.012,0,0,1,2.31-6.377,9.813,9.813,0,0,1,.787-1.2,2.13,2.13,0,0,1,.612-.551c.516-.3,1.076-.029,1.006.53a.784.784,0,0,0,.517.889,3.7,3.7,0,0,0,2.648.373c1.305-.3,2.6-.7,3.9-1.1a10.644,10.644,0,0,0,1.345-.6c.335-.157.6-.126.716.119A.622.622,0,0,1,537.817,656.9Zm-10.083.466c-1.24,1.376-2.959,6.131-2.573,7.117C526.384,663.089,527.933,658.805,527.734,657.368Z" transform="translate(-327.826 -632.799)" fill="#fff"/>
      <path id="Path_185" data-name="Path 185" d="M545.139,659.539c.24-.206.448-.38.651-.561,2.582-2.3,9.152-5.731,10.605-5.948.21.084.279.33.163.6s-.367.255-.577.374c-2.725,1.028-8.016,3.828-10.681,6.416a2.506,2.506,0,0,0-.759,1.329,31.788,31.788,0,0,1-2.275,6.927,21.779,21.779,0,0,1-1.432,2.56,4.556,4.556,0,0,1-1.158,1.18c-.858.607-1.693.288-1.793-.67a4.985,4.985,0,0,1,.1-1.478,12.029,12.029,0,0,1,1.363-3.368,29.238,29.238,0,0,1,4.6-6.117,2.339,2.339,0,0,0,.689-1.282c.194-1.163.409-2.326.611-3.49a3.153,3.153,0,0,0,0-.429l-.6.615c-.992,1.019-1.972,2.05-2.982,3.052a12.827,12.827,0,0,1-1.337,1.12,2.091,2.091,0,0,1-.725.352c-.478.12-.76-.181-.626-.661a2.642,2.642,0,0,1,.347-.739,15.65,15.65,0,0,1,4.248-4.4,5.239,5.239,0,0,1,1.527-.716c.838-.222,1.107.193.9,1.041-.334,1.346-.6,2.7-.9,4.048A.873.873,0,0,0,545.139,659.539Zm-1.132,2.4-.093-.043c-.34.4-.689.789-1.018,1.2a23.3,23.3,0,0,0-3.551,5.684,10.859,10.859,0,0,0-.564,1.822c-.089.406-.26.977.15,1.152.465.2.841-.311,1.113-.681a17.153,17.153,0,0,0,1.321-2.023,31.238,31.238,0,0,0,2.578-6.7A3.473,3.473,0,0,0,544.008,661.935Zm-2.871-3.489,1.818-1.824A4.158,4.158,0,0,0,541.136,658.446Z" transform="translate(-334.25 -631.507)" fill="#fff"/>
      <path id="Path_186" data-name="Path 186" d="M582.548,649.605a3.285,3.285,0,0,1-.5.572,13.6,13.6,0,0,1-4.482,2.818,6.569,6.569,0,0,1-.976.253,1.975,1.975,0,0,1-2.343-1.107c-.191-.386-.313-.815-.49-1.282-.2.219-.372.4-.536.581a9.679,9.679,0,0,1-2.492,2.077,3.074,3.074,0,0,1-.88.352c-.555.1-.853-.29-.677-.842a1.818,1.818,0,0,1,.227-.47,10.311,10.311,0,0,1,2.747-2.806,2.086,2.086,0,0,1,1.494-.439c.572.094.759.356.807.95a5.909,5.909,0,0,0,.28,1.534,1.381,1.381,0,0,0,1.8.873,10.75,10.75,0,0,0,5.372-3.423c.278-.345.492-.572.73-.432C582.9,648.965,582.816,649.221,582.548,649.605Zm-9.7.907a6.649,6.649,0,0,0-2.471,2.183A7.652,7.652,0,0,0,572.85,650.512Z" transform="translate(-348.857 -629.517)" fill="#fff"/>
      <path id="Path_187" data-name="Path 187" d="M617.279,632.923a7.415,7.415,0,0,0,.031,1.075,5.631,5.631,0,0,0,.181,1.02,3.46,3.46,0,0,0,.38.859,1.172,1.172,0,0,0,.721.374,2.9,2.9,0,0,0,.984-.064,9.869,9.869,0,0,0,2.1-.814c2.751-1.368,7.4-7.28,8.156-7.474.348-.092.1.389-.118.633a64.325,64.325,0,0,1-6.84,6.83,22.439,22.439,0,0,1-1.973,1.125,6.961,6.961,0,0,1-1.8.557,1.788,1.788,0,0,1-2.237-1.316,5.213,5.213,0,0,1-.2-1.918c-.013-.27,0-.543,0-.815.013-.388.068-.779.1-1.169.035-.232.086-.464.131-.7a5.274,5.274,0,0,1,.337-1.406,21.439,21.439,0,0,1,.889-2.49,33.486,33.486,0,0,1,2.234-4.335c.119-.2.242-.394.365-.591a35.982,35.982,0,0,1,4.345-6.212,29.413,29.413,0,0,1,2.731-2.64,4.172,4.172,0,0,1,1.361-.741.954.954,0,0,1,1.376.686,3.812,3.812,0,0,1,.024,1.384,8.879,8.879,0,0,1-1.014,2.7,28.4,28.4,0,0,1-3.593,5.251,52.749,52.749,0,0,1-7.508,7.105,2.634,2.634,0,0,0-.942,1.313c-.045.223-.095.447-.128.671C617.345,632.188,617.291,632.56,617.279,632.923Zm10.508-18.6c-.438.4-.881.8-1.311,1.208a57.274,57.274,0,0,0-5.591,7.632c-.341.55-.656,1.11-.956,1.677q-.862,1.769-1.565,3.615c-.039.106-.059.216-.118.434.234-.175.38-.263.5-.378,1.543-1.435,3.123-2.829,4.611-4.32a29.585,29.585,0,0,0,5.056-6.632,23.017,23.017,0,0,0,1.136-2.516,2.874,2.874,0,0,0,.174-1.059c0-.5-.273-.656-.74-.425A5.162,5.162,0,0,0,627.787,614.324Z" transform="translate(-371.068 -612.629)" fill="#fff"/>
      <path id="Path_188" data-name="Path 188" d="M651.432,636.133c-.776.694-5.744,5.307-8.783,6.416-.274.1-.558.154-1,.275a7.509,7.509,0,0,1-1.207-.115,1.731,1.731,0,0,1-1.4-1.5,7.838,7.838,0,0,1,.736-4.08.86.86,0,0,1,1-.46c.266.172.307.508.023.865a5.542,5.542,0,0,0-.995,2.528,2.917,2.917,0,0,0-.049.427c-.046,1.1.562,1.725,1.652,1.6a5.394,5.394,0,0,0,1.46-.4c2.717-1.148,5.4-3.635,7.677-5.853a4.164,4.164,0,0,1,.549-.4c.236-.129.364-.237.511-.022S651.614,635.923,651.432,636.133Zm-9.693-2.8a.777.777,0,0,1-.042-.916c.162-.367.318-.741.738-.858a.455.455,0,0,1,.554.575,5.455,5.455,0,0,1-.27.909A.605.605,0,0,1,641.739,633.336Z" transform="translate(-381.503 -621.471)" fill="#fff"/>
      <path id="Path_189" data-name="Path 189" d="M665.76,634.443a3.1,3.1,0,0,1-.44.414,19.369,19.369,0,0,1-3.977,2.558q-3.2,1.586-6.411,3.133a1.84,1.84,0,0,0-1.147,1.847c.035.508.116,1.008.124,1.522a23.108,23.108,0,0,1-.588,5.12c-.338,1.585-.77,3.167-1.215,4.743a9.119,9.119,0,0,1-.732,1.63.908.908,0,0,1-.864.6c-.373-.037-.47-.348-.54-.67a6.573,6.573,0,0,1,.092-2.463,55.457,55.457,0,0,1,2.116-7.7,19.3,19.3,0,0,1,.659-1.886,2.108,2.108,0,0,0-.091-1.877c-.036-.08-.1-.141-.144-.219-.187-.358-.052-.63.385-.718a7.583,7.583,0,0,1,.9-.071c.215-.521.389-.983.594-1.436.938-2.067,1.867-4.136,2.836-6.191a21.837,21.837,0,0,1,1.128-1.961,4.473,4.473,0,0,1,.557-.72c.429-.459.886-.547,1.183-.258a1.127,1.127,0,0,1-.045,1.374c-.271.312-.53.335-1.153.057-.282.42-.594.842-.858,1.286a51.537,51.537,0,0,0-3.054,6.189c-.185.433-.355.87-.584,1.431a7.691,7.691,0,0,0,.79-.208,39.3,39.3,0,0,0,7.271-3.746,20.176,20.176,0,0,0,2.218-1.95c.15-.134.27-.348.432-.413a.719.719,0,0,1,.561.016C665.955,633.991,665.918,634.245,665.76,634.443Zm-12.739,9.728c-.08.193-.145.32-.185.451-.649,2.156-1.35,4.309-1.92,6.476a23.5,23.5,0,0,0-.484,3.334,4.051,4.051,0,0,0,.126.969C651.7,654.154,653.466,646.019,653.021,644.172Z" transform="translate(-386.596 -620.595)" fill="#fff"/>
      <path id="Path_190" data-name="Path 190" d="M688.225,634.081c-.168.189-4.466,3.439-7.246,4.092a5.452,5.452,0,0,1-1.935.083,1.29,1.29,0,0,1-1.177-1.452,2.557,2.557,0,0,1,.387-1.429,7.915,7.915,0,0,1,1.337-1.828,4.232,4.232,0,0,1,.983-.677.882.882,0,0,1,1.108.247.9.9,0,0,1-.049,1.122,4.646,4.646,0,0,1-.928.991c-.765.567-1.572,1.068-2.422,1.636.047.7.287.993.973,1.1a4.921,4.921,0,0,0,2.642-.457,22.576,22.576,0,0,0,5.834-3.652,8.143,8.143,0,0,0,.718-.785c.335-.367.487-.475.7-.278S688.692,633.7,688.225,634.081Zm-9.235,1.243a3.964,3.964,0,0,0,1.8-1.543A3.076,3.076,0,0,0,678.989,635.324Z" transform="translate(-399.67 -622.007)" fill="#fff"/>
    </g>
  </g>
</svg>
