<svg xmlns="http://www.w3.org/2000/svg" width="236.97" height="32.535" viewBox="0 0 236.97 32.535">
  <path id="Path_352852" data-name="Path 352852" d="M18.045.4A16.753,16.753,0,0,1,9.653-1.62a13.632,13.632,0,0,1-5.49-5.715,18.324,18.324,0,0,1-1.912-8.55,18.324,18.324,0,0,1,1.912-8.55,13.492,13.492,0,0,1,5.49-5.693,16.9,16.9,0,0,1,8.392-2,18.808,18.808,0,0,1,6.03.968A12.869,12.869,0,0,1,28.8-28.485l-2.25,5a15.158,15.158,0,0,0-4.118-2.3,12.726,12.726,0,0,0-4.252-.72,8.025,8.025,0,0,0-6.5,2.7q-2.272,2.7-2.272,7.92t2.272,7.942a7.994,7.994,0,0,0,6.5,2.722,12.726,12.726,0,0,0,4.252-.72A15.158,15.158,0,0,0,26.55-8.235L28.8-3.24A12.869,12.869,0,0,1,24.075-.562,18.808,18.808,0,0,1,18.045.4Zm31.32,0a16.211,16.211,0,0,1-8.212-2,13.535,13.535,0,0,1-5.377-5.67,18.573,18.573,0,0,1-1.89-8.617,18.573,18.573,0,0,1,1.89-8.618,13.392,13.392,0,0,1,5.377-5.648,16.357,16.357,0,0,1,8.212-1.98,16.357,16.357,0,0,1,8.213,1.98A13.392,13.392,0,0,1,62.955-24.5a18.573,18.573,0,0,1,1.89,8.618,18.573,18.573,0,0,1-1.89,8.617A13.535,13.535,0,0,1,57.577-1.6,16.211,16.211,0,0,1,49.365.4Zm0-5.445A7.6,7.6,0,0,0,55.6-7.83q2.272-2.79,2.272-8.055t-2.25-8.033a7.615,7.615,0,0,0-6.255-2.767,7.55,7.55,0,0,0-6.232,2.767Q40.9-21.15,40.9-15.885t2.25,8.055A7.54,7.54,0,0,0,49.365-5.04ZM103.5-31.725V0H97.335V-18.81L90.045-5.22h-4.5l-7.29-13.41V0H72.09V-31.725h5.535L87.84-12.33,98.055-31.725Zm8.19,0h14.58q5.175,0,8.055,2.61a9.337,9.337,0,0,1,2.88,7.29,9.337,9.337,0,0,1-2.88,7.29q-2.88,2.61-8.055,2.61h-7.56V0h-7.02Zm13.68,14.49q5.265,0,5.265-4.545a4.33,4.33,0,0,0-1.3-3.465,5.941,5.941,0,0,0-3.96-1.125h-6.66v9.135Zm36,10.215H146.61L143.6,0H136.53l14.58-31.725h5.625L171.315,0h-6.93Zm-2.295-5.31L153.99-24.21,148.9-12.33ZM203.31-31.725V0h-5.22L182.295-20.2V0H175.77V-31.725h5.175L196.74-11.61V-31.725Zm22.77,17.37V0h-7.02V-14.355l-13.1-17.37h7.965l8.6,11.745,8.73-11.745h7.965Z" transform="translate(-2.25 32.13)" fill="#fff"/>
</svg>
